<svg width="67" height="67" viewBox="0 0 67 67" fill="none" xmlns="http://www.w3.org/2000/svg">
<path d="M13.4002 13.3999C11.6232 13.3999 9.91907 14.1058 8.66258 15.3623C7.40609 16.6188 6.7002 18.323 6.7002 20.0999V43.5499C6.7002 45.3269 7.40609 47.031 8.66258 48.2875C9.91907 49.544 11.6232 50.2499 13.4002 50.2499H30.1502V35.1749C30.1511 34.1817 30.4463 33.211 30.9985 32.3855C31.5507 31.5599 32.3352 30.9165 33.2528 30.5366C34.1705 30.1566 35.1801 30.0571 36.1543 30.2506C37.1285 30.4442 38.0235 30.922 38.7262 31.6239L55.4762 48.3739C55.8581 48.7524 56.1663 49.1779 56.4008 49.6402C57.5653 49.1044 58.5516 48.2458 59.2427 47.1663C59.9339 46.0868 60.3009 44.8317 60.3002 43.5499V20.0999C60.3002 18.323 59.5943 16.6188 58.3378 15.3623C57.0813 14.1058 55.3771 13.3999 53.6002 13.3999H13.4002ZM36.3611 33.9924C36.127 33.7577 35.8286 33.5978 35.5036 33.5328C35.1786 33.4678 34.8416 33.5007 34.5353 33.6273C34.229 33.7539 33.9672 33.9685 33.7829 34.244C33.5987 34.5195 33.5003 34.8435 33.5002 35.1749V58.6249C33.4996 58.9816 33.6129 59.3291 33.8235 59.6169C34.0342 59.9047 34.3312 60.1178 34.6714 60.2251C35.0115 60.3324 35.3771 60.3283 35.7147 60.2134C36.0524 60.0985 36.3445 59.8788 36.5487 59.5864L41.8115 52.0656L51.6706 53.5798C52.0199 53.6341 52.3774 53.5765 52.692 53.4153C53.0065 53.2541 53.262 52.9975 53.4219 52.6822C53.5818 52.367 53.6378 52.0092 53.582 51.6602C53.5261 51.3111 53.3613 50.9887 53.1111 50.739L36.3611 33.989V33.9924ZM36.8502 53.3118V39.2184L47.1213 49.4928L41.2923 48.595C40.9832 48.5471 40.6669 48.5866 40.3792 48.7092C40.0915 48.8317 39.8438 49.0324 39.6642 49.2885L36.8502 53.3118Z" fill="black"/>
<path d="M16.6889 27.1387V18.6025H19.0063V21.9369H22.074V18.6025H24.3914V27.1387H22.074V23.8042H19.0063V27.1387H16.6889ZM28.6095 27.2554C27.9148 27.2554 27.3202 27.1178 26.8255 26.8427C26.3309 26.5649 25.9516 26.1786 25.6877 25.684C25.4237 25.1866 25.2917 24.6101 25.2917 23.9543C25.2917 23.2985 25.4237 22.7233 25.6877 22.2287C25.9516 21.7313 26.3309 21.3451 26.8255 21.07C27.3202 20.7921 27.9148 20.6532 28.6095 20.6532C29.3041 20.6532 29.8988 20.7921 30.3934 21.07C30.888 21.3451 31.2673 21.7313 31.5313 22.2287C31.7953 22.7233 31.9272 23.2985 31.9272 23.9543C31.9272 24.6101 31.7953 25.1866 31.5313 25.684C31.2673 26.1786 30.888 26.5649 30.3934 26.8427C29.8988 27.1178 29.3041 27.2554 28.6095 27.2554ZM28.6261 25.5548C28.8207 25.5548 28.9888 25.4895 29.1305 25.3589C29.2722 25.2283 29.382 25.0421 29.4598 24.8004C29.5376 24.5586 29.5765 24.2711 29.5765 23.9376C29.5765 23.6014 29.5376 23.3138 29.4598 23.0748C29.382 22.8331 29.2722 22.6469 29.1305 22.5163C28.9888 22.3857 28.8207 22.3204 28.6261 22.3204C28.4205 22.3204 28.2441 22.3857 28.0968 22.5163C27.9495 22.6469 27.837 22.8331 27.7592 23.0748C27.6814 23.3138 27.6425 23.6014 27.6425 23.9376C27.6425 24.2711 27.6814 24.5586 27.7592 24.8004C27.837 25.0421 27.9495 25.2283 28.0968 25.3589C28.2441 25.4895 28.4205 25.5548 28.6261 25.5548ZM39.1182 20.7365L36.9675 27.1387H34.2999L32.1492 20.7365H34.5667L35.6003 24.9713H35.667L36.7007 20.7365H39.1182ZM42.6454 27.2554C41.9618 27.2554 41.3727 27.1248 40.8781 26.8636C40.3863 26.5996 40.007 26.2217 39.7403 25.7299C39.4763 25.2353 39.3443 24.6434 39.3443 23.9543C39.3443 23.293 39.4777 22.715 39.7444 22.2204C40.0112 21.7258 40.3877 21.3409 40.874 21.0658C41.3602 20.7907 41.934 20.6532 42.5954 20.6532C43.0789 20.6532 43.5165 20.7282 43.9083 20.8783C44.3001 21.0283 44.6349 21.2464 44.9128 21.5326C45.1907 21.8161 45.4046 22.1606 45.5547 22.5663C45.7047 22.972 45.7798 23.4291 45.7798 23.9376V24.4711H40.0612V23.204H43.6624C43.6596 23.0206 43.6124 22.8595 43.5207 22.7205C43.4318 22.5788 43.3109 22.4691 43.1581 22.3913C43.008 22.3107 42.8371 22.2704 42.6454 22.2704C42.4592 22.2704 42.2883 22.3107 42.1327 22.3913C41.9771 22.4691 41.8521 22.5774 41.7576 22.7164C41.6659 22.8553 41.6173 23.0179 41.6117 23.204V24.5712C41.6117 24.7768 41.6548 24.9602 41.7409 25.1213C41.8271 25.2825 41.9507 25.4089 42.1119 25.5006C42.273 25.5923 42.4675 25.6382 42.6954 25.6382C42.8538 25.6382 42.9983 25.6159 43.1289 25.5715C43.2623 25.527 43.3762 25.4631 43.4707 25.3798C43.5651 25.2936 43.6346 25.1908 43.6791 25.0713H45.7798C45.7075 25.5159 45.5366 25.9022 45.2671 26.23C44.9975 26.5551 44.6405 26.808 44.1959 26.9886C43.7541 27.1665 43.2372 27.2554 42.6454 27.2554ZM46.7186 27.1387V20.7365H48.9527V21.9536H49.0194C49.1361 21.5035 49.3209 21.1742 49.5737 20.9658C49.8294 20.7574 50.1281 20.6532 50.4698 20.6532C50.5699 20.6532 50.6685 20.6615 50.7658 20.6782C50.8658 20.6921 50.9617 20.7129 51.0534 20.7407V22.7039C50.9394 22.665 50.7991 22.6358 50.6324 22.6163C50.4657 22.5969 50.3226 22.5872 50.2031 22.5872C49.978 22.5872 49.7752 22.6386 49.5946 22.7414C49.4167 22.8414 49.2764 22.9831 49.1736 23.1665C49.0708 23.3471 49.0194 23.5597 49.0194 23.8042V27.1387H46.7186Z" fill="white"/>
</svg>
