<svg width="41" height="53" viewBox="0 0 41 53" fill="none" xmlns="http://www.w3.org/2000/svg">
<path d="M36.5516 28.9094V24.0912H34.724V21.6821H32.8964V19.273H31.0688V16.8639H29.2412V14.4549H27.4137V12.0458H25.5861V9.63667H23.7585V7.22758H21.9309V4.81849H18.2757V7.22758H16.4481V9.63667H14.6205V12.0458H12.793V14.4549H10.9654V16.8639H9.13779V19.273H7.3102V21.6821H5.48262V24.0912H3.65503V28.9094H12.793V48.1821H27.4137V28.9094H36.5516ZM29.2412 24.0912H23.7585V43.3639H16.4481V24.0912H10.9654V21.6821H12.793V19.273H14.6205V16.8639H16.4481V14.4549H18.2757V12.0458H21.9309V14.4549H23.7585V16.8639H25.5861V19.273H27.4137V21.6821H29.2412V24.0912Z" fill="white"/>
<path d="M29.2412 24.0912H23.7585V43.3639H16.4481V24.0912H10.9654V21.6821H12.793V19.273H14.6205V16.8639H16.4481V14.4549H18.2757V12.0458H21.9309V14.4549H23.7585V16.8639H25.5861V19.273H27.4137V21.6821H29.2412V24.0912Z" fill="white"/>
</svg>
