<svg width="30" height="30" viewBox="0 0 30 30" fill="none" xmlns="http://www.w3.org/2000/svg">
<path d="M5.9375 2.5H24.0625C24.3111 2.5 24.5496 2.59877 24.7254 2.77459C24.9012 2.9504 25 3.18886 25 3.4375C25 3.68614 24.9012 3.9246 24.7254 4.10041C24.5496 4.27623 24.3111 4.375 24.0625 4.375H23.125V8.1025C23.125 9.10516 22.8711 10.0915 22.3869 10.9695C21.9028 11.8475 21.2042 12.5886 20.3562 13.1237L17.8013 14.7362C17.7569 14.7645 17.7203 14.8034 17.695 14.8495C17.6696 14.8956 17.6564 14.9474 17.6564 15C17.6564 15.0526 17.6696 15.1044 17.695 15.1505C17.7203 15.1966 17.7569 15.2355 17.8013 15.2638L20.3562 16.8763C21.2042 17.4114 21.9028 18.1525 22.3869 19.0305C22.8711 19.9085 23.125 20.8948 23.125 21.8975V25.625H24.0625C24.3111 25.625 24.5496 25.7238 24.7254 25.8996C24.9012 26.0754 25 26.3139 25 26.5625C25 26.8111 24.9012 27.0496 24.7254 27.2254C24.5496 27.4012 24.3111 27.5 24.0625 27.5H5.9375C5.68886 27.5 5.4504 27.4012 5.27459 27.2254C5.09877 27.0496 5 26.8111 5 26.5625C5 26.3139 5.09877 26.0754 5.27459 25.8996C5.4504 25.7238 5.68886 25.625 5.9375 25.625H6.875V21.8975C6.875 20.8948 7.12891 19.9085 7.61306 19.0305C8.09721 18.1525 8.79582 17.4114 9.64375 16.8763L12.1987 15.2638C12.2431 15.2355 12.2797 15.1966 12.305 15.1505C12.3304 15.1044 12.3436 15.0526 12.3436 15C12.3436 14.9474 12.3304 14.8956 12.305 14.8495C12.2797 14.8034 12.2431 14.7645 12.1987 14.7362L9.64375 13.1237C8.79582 12.5886 8.09721 11.8475 7.61306 10.9695C7.12891 10.0915 6.875 9.10516 6.875 8.1025V4.375H5.9375C5.68886 4.375 5.4504 4.27623 5.27459 4.10041C5.09877 3.9246 5 3.68614 5 3.4375C5 3.18886 5.09877 2.9504 5.27459 2.77459C5.4504 2.59877 5.68886 2.5 5.9375 2.5ZM21.25 4.375H8.75V8.1025C8.75016 8.78848 8.92403 9.46326 9.25539 10.0639C9.58675 10.6645 10.0648 11.1715 10.645 11.5375L13.2 13.15C13.5124 13.3471 13.7698 13.6202 13.9482 13.9437C14.1266 14.2672 14.2202 14.6306 14.2202 15C14.2202 15.3694 14.1266 15.7328 13.9482 16.0563C13.7698 16.3798 13.5124 16.6529 13.2 16.85L10.645 18.4625C10.0648 18.8285 9.58675 19.3355 9.25539 19.9361C8.92403 20.5367 8.75016 21.2115 8.75 21.8975V25.625H21.25V21.8975C21.2498 21.2115 21.076 20.5367 20.7446 19.9361C20.4132 19.3355 19.9352 18.8285 19.355 18.4625L16.8 16.85C16.4876 16.6529 16.2302 16.3798 16.0518 16.0563C15.8734 15.7328 15.7798 15.3694 15.7798 15C15.7798 14.6306 15.8734 14.2672 16.0518 13.9437C16.2302 13.6202 16.4876 13.3471 16.8 13.15L19.355 11.5375C19.9352 11.1715 20.4132 10.6645 20.7446 10.0639C21.076 9.46326 21.2498 8.78848 21.25 8.1025V4.375Z" fill="white"/>
</svg>
