<svg width="47" height="43" viewBox="0 0 47 43" fill="none" xmlns="http://www.w3.org/2000/svg">
<path d="M43.6994 1.21375L35.4866 5.03251L29.4758 11.043L27.2454 8.23988L24.577 15.9417L18.3081 22.2107L16.0775 19.4077L13.5606 26.6727L15.2448 28.3566L36.7204 6.88076L37.8303 7.99061L16.3546 29.4667L18.0978 31.2098L24.4607 24.8467L31.4444 22.4274L28.9026 20.4047L35.6282 13.679L42.6122 11.2594L39.9962 9.17773L43.6996 1.21375H43.6994ZM5.65921 22.3839L5.65904 25.7222L7.65728 25.6942L19.2246 37.2617L19.1964 39.2597H22.5351L22.5116 35.9391H20.6074L8.97995 24.3117V22.4074L5.65921 22.3839ZM11.6585 31.9152L4.25398 39.3199L5.7437 40.8098L13.1484 33.405L11.6585 31.9152Z" fill="#CBBFE4"/>
</svg>
