<svg width="47" height="39" viewBox="0 0 47 39" fill="none" xmlns="http://www.w3.org/2000/svg">
<path d="M32.6774 22.8277C32.6772 23.2783 32.8107 23.7189 33.0609 24.0937C33.3112 24.4685 33.6669 24.7607 34.0833 24.9333C34.4996 25.1059 34.9577 25.1511 35.3997 25.0633C35.8418 24.9755 36.2478 24.7586 36.5665 24.44C36.8853 24.1214 37.1024 23.7154 37.1903 23.2734C37.2783 22.8314 37.2333 22.3733 37.0608 21.9569C36.8884 21.5405 36.5964 21.1846 36.2217 20.9342C35.847 20.6838 35.4065 20.5502 34.9558 20.5502C34.3518 20.5507 33.7727 20.7907 33.3456 21.2177C32.9184 21.6447 32.6781 22.2237 32.6774 22.8277ZM9.45278 20.5502C9.90319 20.5504 10.3434 20.6841 10.7178 20.9344C11.0922 21.1848 11.384 21.5406 11.5562 21.9567C11.7285 22.3729 11.7735 22.8308 11.6855 23.2725C11.5975 23.7143 11.3805 24.12 11.062 24.4384C10.7434 24.7568 10.3376 24.9736 9.89584 25.0614C9.45408 25.1492 8.9962 25.1041 8.5801 24.9317C8.164 24.7593 7.80836 24.4674 7.55815 24.0929C7.30794 23.7184 7.17439 23.2781 7.17439 22.8277C7.17512 22.2239 7.4153 21.645 7.84225 21.218C8.2692 20.7911 8.84807 20.5509 9.45187 20.5502H9.45278ZM2.41472 13.9849H8.58806L7.3387 18.5086L15.784 13.8931H21.0495L21.1651 17.0766L24.1026 18.4315L25.1803 17.106H26.6142L26.9043 18.5747C39.5319 17.3813 44.5853 21.2524 44.5853 21.2524C44.5853 21.2524 43.895 21.7114 42.205 22.0226C41.8488 22.3264 41.869 23.3481 41.869 23.3481H44.0905V24.8169H39.3171V22.2943C39.1482 22.3007 38.9086 22.332 38.669 22.3375C38.5981 21.8003 38.4115 21.2848 38.1221 20.8267C37.8327 20.3686 37.4473 19.9787 36.9926 19.684C36.5379 19.3893 36.0247 19.1967 35.4883 19.1195C34.952 19.0424 34.4053 19.0825 33.8859 19.2371C33.3666 19.3918 32.887 19.6572 32.4802 20.0152C32.0734 20.3731 31.7491 20.8151 31.5297 21.3105C31.3102 21.806 31.2009 22.3431 31.2092 22.8849C31.2174 23.4267 31.3432 23.9603 31.5777 24.4488H12.8291C13.0722 23.9416 13.198 23.3863 13.1972 22.8239C13.1963 22.2615 13.0689 21.7065 12.8243 21.2C12.5797 20.6936 12.2242 20.2488 11.7842 19.8985C11.3442 19.5482 10.831 19.3015 10.2826 19.1766C9.73422 19.0518 9.16478 19.052 8.6165 19.1773C8.06822 19.3025 7.55519 19.5496 7.11545 19.9003C6.67572 20.2509 6.32057 20.696 6.07635 21.2026C5.83213 21.7092 5.70511 22.2643 5.70472 22.8267C5.70472 22.9406 5.71023 23.0526 5.72032 23.1636H2.41564L2.41472 13.9849Z" fill="#CBBFE4"/>
</svg>
