<svg width="87" height="83" viewBox="0 0 87 83" fill="none" xmlns="http://www.w3.org/2000/svg">
<g clip-path="url(#clip0_136_1205)">
<path d="M71.4031 28.7119C71.4019 28.3003 71.3921 27.8887 71.3737 27.4775V4.13989L64.9221 10.5918C59.6414 4.1284 51.6086 0 42.6107 0C33.2473 0 24.9286 4.46936 19.6705 11.3914L30.2458 22.0778C31.2813 20.1648 32.748 18.5192 34.5297 17.2712C36.3761 15.8307 38.9919 14.6523 42.6107 14.6523C43.048 14.6523 43.3856 14.7037 43.6333 14.7997C48.1172 15.1538 52.0036 17.6281 54.2917 21.2195L46.8057 28.7052C56.2875 28.668 66.9986 28.6464 71.4024 28.7102" fill="#1C3AA9"/>
<path d="M42.4428 0.000976562C42.0311 0.0021445 41.6196 0.0119464 41.2083 0.0303758H17.8707L24.3227 6.48233C17.8592 11.7627 13.7308 19.7958 13.7308 28.7933C13.7308 38.1572 18.2002 46.4758 25.1222 51.7342L35.8087 41.1589C33.8956 40.1234 32.25 38.6566 31.0021 36.8748C29.5615 35.0287 28.3832 32.4125 28.3832 28.7937C28.3832 28.3567 28.4345 28.0192 28.5305 27.7711C28.8846 23.2876 31.3589 19.4011 34.9503 17.113L42.436 24.5987C42.3988 15.1166 42.3769 4.40546 42.4411 0.00165241" fill="#4285F4"/>
<path d="M13.7318 28.7927C13.7332 29.2063 13.7426 29.6176 13.7612 30.0272V53.3648L20.2132 46.9128C25.4935 53.3763 33.5266 57.5047 42.5242 57.5047C51.888 57.5047 60.2066 53.0353 65.4651 46.1133L54.8898 35.4268C53.8542 37.3399 52.3874 38.9855 50.6056 40.2334C48.7595 41.674 46.1433 42.8523 42.5245 42.8523C42.0876 42.8523 41.75 42.801 41.502 42.7047C37.0184 42.3509 33.132 39.8762 30.8439 36.2851L38.3295 28.7991C28.8474 28.8363 18.1363 28.8583 13.7325 28.7944" fill="#ABABAB"/>
<path d="M18.5901 68.655C17.8889 68.655 17.2601 68.7878 16.7039 69.0537C16.1518 69.3105 15.6673 69.6926 15.289 70.1696C14.9081 70.6531 14.6148 71.2398 14.4094 71.9288C14.21 72.6121 14.11 73.3768 14.11 74.2233V76.6631C14.11 77.5153 14.21 78.2831 14.4094 78.9664C14.6148 79.6497 14.9051 80.2329 15.2802 80.7168C15.6549 81.2 16.1081 81.5721 16.6403 81.832C17.1722 82.0922 17.771 82.2223 18.436 82.2223C19.1193 82.2223 19.7178 82.1222 20.2318 81.9229C20.7518 81.7235 21.1871 81.4362 21.5375 81.0612C21.8883 80.6803 22.1572 80.2211 22.3448 79.6828C22.5384 79.1448 22.653 78.5338 22.6895 77.8509H21.0117C20.9695 78.3767 20.8968 78.8275 20.7941 79.2022C20.6913 79.5709 20.54 79.8764 20.3406 80.118C20.1469 80.3539 19.8932 80.5293 19.5786 80.6442C19.2704 80.753 18.8892 80.8074 18.436 80.8074C17.9525 80.8074 17.5412 80.7016 17.2026 80.4897C16.864 80.2721 16.589 79.9761 16.3774 79.601C16.172 79.2262 16.0206 78.7879 15.9239 78.2861C15.8334 77.7843 15.7877 77.2433 15.7877 76.6628V74.205C15.7877 73.5822 15.8422 73.0169 15.951 72.509C16.0659 72.0014 16.2382 71.5689 16.468 71.2124C16.6978 70.8555 16.988 70.5805 17.3388 70.3869C17.6892 70.1875 18.1066 70.0878 18.5901 70.0878C18.9953 70.0878 19.343 70.1483 19.633 70.2693C19.9198 70.3813 20.1706 70.5694 20.3585 70.8133C20.5521 71.0549 20.7001 71.3635 20.8029 71.7382C20.9059 72.1133 20.9752 72.5604 21.0117 73.0804H22.6895C22.6591 72.3671 22.5476 71.7355 22.3539 71.185C22.1603 70.6349 21.8913 70.1723 21.5466 69.7975C21.2019 69.4224 20.7819 69.1386 20.2862 68.9449C19.7962 68.7516 19.2312 68.655 18.5901 68.655ZM59.5464 68.655C58.8448 68.655 58.216 68.7878 57.6597 69.0537C57.1077 69.3105 56.6232 69.6926 56.2449 70.1696C55.864 70.6531 55.571 71.2398 55.3652 71.9288C55.1659 72.6121 55.0662 73.3768 55.0662 74.2233V76.6631C55.0662 77.5153 55.1659 78.2831 55.3652 78.9664C55.5707 79.6497 55.861 80.2329 56.2361 80.7168C56.6108 81.2 57.064 81.5721 57.5962 81.832C58.1284 82.0922 58.7269 82.2223 59.3919 82.2223C60.0752 82.2223 60.6737 82.1222 61.1877 81.9229C61.7077 81.7235 62.143 81.4362 62.4937 81.0612C62.8441 80.6803 63.1131 80.2211 63.3007 79.6828C63.4943 79.1448 63.6092 78.5338 63.6454 77.8509H61.9676C61.9253 78.3767 61.8527 78.8275 61.75 79.2022C61.6472 79.5709 61.4962 79.8764 61.2965 80.118C61.1032 80.3539 60.8491 80.5293 60.5348 80.6442C60.2263 80.753 59.8454 80.8074 59.3919 80.8074C58.9084 80.8074 58.4971 80.7016 58.1585 80.4897C57.8199 80.2721 57.5448 79.9761 57.3333 79.601C57.1278 79.2262 56.9768 78.7879 56.8798 78.2861C56.7893 77.7843 56.744 77.2433 56.744 76.6628V74.205C56.744 73.5822 56.798 73.0169 56.9072 72.509C57.0221 72.0014 57.1944 71.5689 57.4242 71.2124C57.654 70.8555 57.9439 70.5805 58.2947 70.3869C58.6455 70.1875 59.0625 70.0878 59.546 70.0878C59.9515 70.0878 60.2989 70.1483 60.5892 70.2693C60.8791 70.3842 61.1211 70.5653 61.3147 70.8133C61.508 71.0549 61.656 71.3635 61.7591 71.7382C61.8618 72.1133 61.9314 72.5604 61.9676 73.0804H63.6454C63.6149 72.3671 63.5034 71.7355 63.3098 71.185C63.1162 70.6349 62.8472 70.1723 62.5025 69.7975C62.1578 69.4224 61.7378 69.1386 61.2421 68.9449C60.7521 68.7516 60.1871 68.6547 59.546 68.6547L59.5464 68.655ZM28.1496 68.8365L23.8962 82.0408H25.601L26.6259 78.5943H31.0879L32.1307 82.0408H33.8359L29.5733 68.8365H28.1496ZM35.6312 68.8365V82.0408H37.2908V76.8712H39.8391C40.474 76.8712 41.0363 76.7834 41.526 76.6083C42.0159 76.4269 42.4269 76.167 42.7594 75.8284C43.098 75.4898 43.3518 75.0725 43.5211 74.5768C43.6968 74.0749 43.7843 73.5069 43.7843 72.8719C43.7843 72.2853 43.6964 71.7473 43.5211 71.2577C43.3521 70.7619 43.101 70.3355 42.7685 69.979C42.436 69.616 42.0217 69.3349 41.526 69.1355C41.036 68.9361 40.474 68.8361 39.8391 68.8361H35.6312V68.8365ZM45.0539 68.8365V70.2693H48.5183V82.0408H50.1775V70.2693H53.6513V68.8365H45.0539ZM65.8855 68.8365V82.0408H67.5447V75.9372H72.8595V82.0408H74.5282V68.8365H72.8595V74.5136H67.545V68.8365H65.8855ZM80.8216 68.8365L76.5685 82.0408H78.2737L79.2983 78.5943H83.7602L84.8034 82.0408H86.5082L82.2456 68.8365H80.822H80.8216ZM37.2904 70.2693H39.8391C40.2442 70.2693 40.5886 70.3416 40.8731 70.4869C41.163 70.6322 41.3989 70.8255 41.5804 71.0674C41.7719 71.318 41.9107 71.6048 41.9882 71.9105C42.0791 72.2248 42.1244 72.5516 42.1244 72.8902C42.1244 73.2653 42.0791 73.6096 41.9882 73.9242C41.9105 74.2189 41.7716 74.4939 41.5804 74.7312C41.3989 74.9549 41.163 75.1299 40.8728 75.257C40.5889 75.3841 40.2442 75.4476 39.8387 75.4476H37.2908L37.2904 70.2693ZM28.8566 71.158L30.6614 77.1615H27.0612L28.8566 71.158ZM81.5292 71.158L83.3337 77.1615H79.7335L81.5292 71.158ZM3.40998 72.0467C2.99264 72.0467 2.63276 72.1525 2.33065 72.3644C2.03429 72.5759 1.7866 72.8631 1.58722 73.2257L1.55985 72.2282H0V82.0408H1.60513V75.0211C1.75652 74.6038 1.9711 74.2743 2.24921 74.0327C2.53307 73.7907 2.89296 73.6698 3.3282 73.6698C3.46742 73.6698 3.59144 73.6759 3.69991 73.688C3.80906 73.6941 3.927 73.709 4.05372 73.7333L4.04493 72.1734C4.00701 72.1569 3.96733 72.1446 3.92666 72.137C3.87369 72.1175 3.81921 72.1023 3.76378 72.0917C3.70078 72.0793 3.63716 72.0703 3.57319 72.0646C3.51951 72.0532 3.46485 72.0471 3.40998 72.0464V72.0467ZM8.80593 72.0467C8.34027 72.0467 7.89016 72.1285 7.45457 72.2917C7.01933 72.4549 6.63241 72.7239 6.29381 73.0987C5.96129 73.4677 5.69231 73.9513 5.48685 74.5497C5.28105 75.1424 5.17833 75.871 5.17833 76.7354V77.8418C5.17833 78.5916 5.26619 79.2414 5.44157 79.7916C5.61661 80.3417 5.86735 80.7986 6.19412 81.1612C6.5277 81.5186 6.94107 81.7921 7.40051 81.9594C7.87191 82.1347 8.40076 82.2223 8.98739 82.2223C9.41047 82.2223 9.78827 82.18 10.1211 82.0952C10.4597 82.0107 10.7588 81.9019 11.019 81.7688C11.2623 81.6415 11.4879 81.4831 11.6901 81.2974C11.8682 81.1326 12.0291 80.9504 12.1706 80.7533L11.3363 79.7375C11.2031 79.9007 11.0612 80.0518 10.9102 80.1907C10.7588 80.3238 10.5925 80.4417 10.4114 80.5445C10.2218 80.6443 10.0207 80.7205 9.8126 80.7712C9.57207 80.8283 9.32548 80.8557 9.07829 80.853C8.33452 80.853 7.7631 80.6141 7.36401 80.1366C6.97101 79.6588 6.77467 78.8941 6.77467 77.8421V77.615H12.2524V76.681C12.2524 75.9315 12.1889 75.2692 12.0618 74.695C11.9348 74.1206 11.7323 73.637 11.4542 73.244C11.1836 72.8572 10.8139 72.5503 10.384 72.3553C9.94878 72.1495 9.42264 72.0467 8.80593 72.0467ZM8.80593 73.4255C9.15669 73.4255 9.44697 73.4886 9.67675 73.6157C9.90406 73.7403 10.0924 73.9255 10.2208 74.1506C10.3597 74.3804 10.4597 74.6555 10.5202 74.9762C10.5864 75.2904 10.629 75.6382 10.6469 76.019V76.2366H6.78346C6.80779 75.6865 6.87436 75.23 6.98283 74.867C7.09198 74.5044 7.23391 74.2172 7.40929 74.0057C7.59076 73.788 7.79925 73.637 8.03512 73.5522C8.28277 73.4655 8.54357 73.4225 8.80593 73.4251V73.4255Z" fill="#A6A6A6"/>
</g>
<defs>
<clipPath id="clip0_136_1205">
<rect width="86.5082" height="82.4531" fill="white"/>
</clipPath>
</defs>
</svg>
