<svg width="41" height="41" viewBox="0 0 41 41" fill="none" xmlns="http://www.w3.org/2000/svg">
<path d="M41 20.5C41 31.8218 31.8218 41 20.5 41C9.17816 41 0 31.8218 0 20.5C0 9.17816 9.17816 0 20.5 0C31.8218 0 41 9.17816 41 20.5Z" fill="#2C2436"/>
<path d="M5.2898 9L5 10.0914L5.57973 10.2277L9.60554 11.1752L11.6789 14.1198L15.7044 25.6389L13.2577 30.2448H14.4415C14.2988 30.5169 14.2247 30.8163 14.2248 31.1198C14.2248 32.2177 15.1832 33.1198 16.3498 33.1198C17.5163 33.1198 18.4748 32.2177 18.4748 31.1198C18.4748 30.8066 18.3965 30.5096 18.258 30.2448H25.0665C24.9238 30.5169 24.8497 30.8163 24.8498 31.1198C24.8498 32.2177 25.8082 33.1198 26.9748 33.1198C28.1413 33.1198 29.0998 32.2177 29.0998 31.1198C29.0998 30.8066 29.0215 30.5096 28.883 30.2448H29.6974V29.1198H15.1918L16.7191 26.2448H29.5305L34.1789 13.1198H33.1789L32.8424 14.0598H23.0998C19.0623 14.0598 16.7987 14.0598 12.7612 14.0598L12.4196 13.1198L10.344 10.1892L5.86973 9.1365L5.2898 9ZM12.4196 13.1198L12.7612 14.0598H32.8424L33.1789 13.1198L28.883 25.1196H16.7805L12.4196 13.1198ZM16.3498 30.2446C16.8704 30.2446 17.2794 30.6296 17.2794 31.1196C17.2794 31.6096 16.8704 31.9946 16.3498 31.9946C15.8291 31.9946 15.4201 31.6096 15.4201 31.1196C15.4201 30.6296 15.8291 30.2446 16.3498 30.2446ZM26.9748 30.2446C27.4954 30.2446 27.9044 30.6296 27.9044 31.1196C27.9044 31.6096 27.4954 31.9946 26.9748 31.9946C26.4541 31.9946 26.0451 31.6096 26.0451 31.1196C26.0451 30.6296 26.4541 30.2446 26.9748 30.2446Z" fill="#F8F4FF"/>
<path d="M18.75 14L21.9643 16.5L26.25 11.5M22.5 21C21.5151 21 20.5398 20.8189 19.6299 20.4672C18.7199 20.1154 17.8931 19.5998 17.1967 18.9497C16.5003 18.2997 15.9478 17.5281 15.5709 16.6788C15.194 15.8295 15 14.9193 15 14C15 13.0807 15.194 12.1705 15.5709 11.3212C15.9478 10.4719 16.5003 9.70026 17.1967 9.05025C17.8931 8.40024 18.7199 7.88463 19.6299 7.53284C20.5398 7.18106 21.5151 7 22.5 7C24.4891 7 26.3968 7.7375 27.8033 9.05025C29.2098 10.363 30 12.1435 30 14C30 15.8565 29.2098 17.637 27.8033 18.9497C26.3968 20.2625 24.4891 21 22.5 21Z" stroke="#37DE8E" stroke-width="2"/>
</svg>
