<svg width="55" height="57" viewBox="0 0 55 57" fill="none" xmlns="http://www.w3.org/2000/svg">
<path d="M38.9583 43.75C36.4145 43.75 34.375 45.7154 34.375 48.1667C34.375 49.338 34.8578 50.4614 35.7174 51.2897C36.5769 52.118 37.7427 52.5833 38.9583 52.5833C40.1739 52.5833 41.3397 52.118 42.1992 51.2897C43.0587 50.4614 43.5416 49.338 43.5416 48.1667C43.5416 46.9953 43.0587 45.8719 42.1992 45.0436C41.3397 44.2153 40.1739 43.75 38.9583 43.75ZM2.29163 8.41666V12.8333H6.87496L15.125 29.5946L12.0083 35.005C11.6645 35.6233 11.4583 36.3521 11.4583 37.125C11.4583 38.2964 11.9412 39.4198 12.8007 40.248C13.6603 41.0763 14.826 41.5417 16.0416 41.5417H43.5416V37.125H17.0041C16.8522 37.125 16.7065 37.0668 16.599 36.9633C16.4916 36.8598 16.4312 36.7193 16.4312 36.5729C16.4312 36.4625 16.4541 36.3742 16.5 36.3079L18.5625 32.7083H35.6354C37.3541 32.7083 38.8666 31.7808 39.6458 30.4337L47.85 16.1458C48.0104 15.7925 48.125 15.4171 48.125 15.0417C48.125 14.456 47.8835 13.8943 47.4537 13.4801C47.024 13.066 46.4411 12.8333 45.8333 12.8333H11.9395L9.78538 8.41666M16.0416 43.75C13.4979 43.75 11.4583 45.7154 11.4583 48.1667C11.4583 49.338 11.9412 50.4614 12.8007 51.2897C13.6603 52.118 14.826 52.5833 16.0416 52.5833C17.2572 52.5833 18.423 52.118 19.2825 51.2897C20.1421 50.4614 20.625 49.338 20.625 48.1667C20.625 46.9953 20.1421 45.8719 19.2825 45.0436C18.423 44.2153 17.2572 43.75 16.0416 43.75Z" fill="#F8F4FF"/>
<ellipse cx="27.5" cy="10.8667" rx="9.5" ry="8.86667" fill="#A707FF"/>
<path d="M25.8037 9.50293H27.1572C27.5908 9.50293 27.9482 9.42969 28.2295 9.2832C28.5107 9.13086 28.7188 8.91992 28.8535 8.65039C28.9941 8.375 29.0645 8.05566 29.0645 7.69238C29.0645 7.36426 29 7.07422 28.8711 6.82227C28.748 6.56445 28.5576 6.36523 28.2998 6.22461C28.042 6.07812 27.7168 6.00488 27.3242 6.00488C27.0137 6.00488 26.7266 6.06641 26.4629 6.18945C26.1992 6.3125 25.9883 6.48535 25.8301 6.70801C25.6719 6.93066 25.5928 7.2002 25.5928 7.5166H23.0527C23.0527 6.81348 23.2402 6.20117 23.6152 5.67969C23.9961 5.1582 24.5059 4.75098 25.1445 4.45801C25.7832 4.16504 26.4863 4.01855 27.2539 4.01855C28.1211 4.01855 28.8799 4.15918 29.5303 4.44043C30.1807 4.71582 30.6875 5.12305 31.0508 5.66211C31.4141 6.20117 31.5957 6.86914 31.5957 7.66602C31.5957 8.07031 31.502 8.46289 31.3145 8.84375C31.127 9.21875 30.8574 9.55859 30.5059 9.86328C30.1602 10.1621 29.7383 10.4023 29.2402 10.584C28.7422 10.7598 28.1826 10.8477 27.5615 10.8477H25.8037V9.50293ZM25.8037 11.4277V10.1182H27.5615C28.2588 10.1182 28.8711 10.1973 29.3984 10.3555C29.9258 10.5137 30.3682 10.7422 30.7256 11.041C31.083 11.334 31.3525 11.6826 31.5342 12.0869C31.7158 12.4854 31.8066 12.9277 31.8066 13.4141C31.8066 14.0117 31.6924 14.5449 31.4639 15.0137C31.2354 15.4766 30.9131 15.8691 30.4971 16.1914C30.0869 16.5137 29.6064 16.7598 29.0557 16.9297C28.5049 17.0938 27.9043 17.1758 27.2539 17.1758C26.7148 17.1758 26.1846 17.1025 25.6631 16.9561C25.1475 16.8037 24.6787 16.5781 24.2568 16.2793C23.8408 15.9746 23.5068 15.5938 23.2549 15.1367C23.0088 14.6738 22.8857 14.126 22.8857 13.4932H25.4258C25.4258 13.8213 25.5078 14.1143 25.6719 14.3721C25.8359 14.6299 26.0615 14.832 26.3486 14.9785C26.6416 15.125 26.9668 15.1982 27.3242 15.1982C27.7285 15.1982 28.0742 15.125 28.3613 14.9785C28.6543 14.8262 28.877 14.6152 29.0293 14.3457C29.1875 14.0703 29.2666 13.751 29.2666 13.3877C29.2666 12.9189 29.1816 12.5439 29.0117 12.2627C28.8418 11.9756 28.5986 11.7646 28.2822 11.6299C27.9658 11.4951 27.5908 11.4277 27.1572 11.4277H25.8037Z" fill="#F8F4FF"/>
</svg>
