<svg width="47" height="44" viewBox="0 0 47 44" fill="none" xmlns="http://www.w3.org/2000/svg">
<path d="M10.3327 10.3326C11.9743 8.69073 13.944 7.41376 16.1129 6.58522C18.2819 5.75668 20.6013 5.39523 22.9195 5.52449C25.2377 5.65375 27.5026 6.27082 29.566 7.33535C31.6294 8.39988 33.4449 9.8879 34.8938 11.7021L24.5923 22L34.8938 32.2978C33.4926 34.0494 31.7489 35.4968 29.7694 36.5517C27.7898 37.6066 25.616 38.2468 23.3807 38.4332C21.1454 38.6196 18.8955 38.3483 16.7686 37.6358C14.6417 36.9233 12.6824 35.7847 11.0104 34.2894C9.3384 32.7941 7.98884 30.9736 7.04418 28.9392C6.09951 26.9047 5.57958 24.699 5.51615 22.4569C5.45272 20.2147 5.84712 17.9831 6.67526 15.8985C7.5034 13.8139 8.74788 11.92 10.3327 10.3326Z" stroke="#CBBFE4" stroke-width="2.51429" stroke-linecap="round" stroke-linejoin="round"/>
<path d="M21.0833 15.5833C22.0959 15.5833 22.9167 14.7625 22.9167 13.75C22.9167 12.7374 22.0959 11.9166 21.0833 11.9166C20.0708 11.9166 19.25 12.7374 19.25 13.75C19.25 14.7625 20.0708 15.5833 21.0833 15.5833Z" fill="#CBBFE4" stroke="#CBBFE4" stroke-width="2.51429" stroke-linecap="round" stroke-linejoin="round"/>
</svg>
