<svg width="36" height="36" viewBox="0 0 36 36" fill="none" xmlns="http://www.w3.org/2000/svg">
<path d="M30.0223 12.1455L24.0224 12.1571L24.01 5.75708C24.0083 4.90839 23.6907 4.09507 23.1269 3.49604C22.5632 2.89701 21.7995 2.56134 21.0038 2.56288L15.0038 2.57447C14.2082 2.57601 13.4458 2.91463 12.8843 3.51583C12.3229 4.11703 12.0084 4.93157 12.01 5.78026L12.0224 12.1803L6.02239 12.1918C5.22674 12.1934 4.46433 12.532 3.90288 13.1332C3.34143 13.7344 3.02693 14.5489 3.02857 15.3976L3.04094 21.7976C3.04258 22.6463 3.36022 23.4596 3.92399 24.0587C4.48775 24.6577 5.25147 24.9934 6.04711 24.9918L12.0471 24.9802L12.0595 31.3802C12.0611 32.2289 12.3788 33.0422 12.9425 33.6413C13.5063 34.2403 14.27 34.576 15.0656 34.5744L21.0656 34.5628C21.8613 34.5613 22.6237 34.2227 23.1851 33.6215C23.7466 33.0203 24.0611 32.2057 24.0594 31.357L24.0471 24.957L30.0471 24.9455C30.8427 24.9439 31.6051 24.6053 32.1666 24.0041C32.728 23.4029 33.0425 22.5884 33.0409 21.7397L33.0285 15.3397C33.0269 14.491 32.7092 13.6777 32.1455 13.0786C31.5817 12.4796 30.818 12.1439 30.0223 12.1455ZM10.5409 21.7831L6.03475 18.5918L10.5286 15.3831L10.5409 21.7831ZM18.0595 31.3686L15.0502 26.5744L21.0502 26.5628L18.0595 31.3686ZM18.0409 21.7686C17.6468 21.7693 17.2565 21.6872 16.8922 21.5269C16.5278 21.3667 16.1966 21.1314 15.9175 20.8347C15.6383 20.5379 15.4167 20.1854 15.2652 19.7974C15.1138 19.4093 15.0354 18.9932 15.0347 18.5728C15.034 18.1525 15.1109 17.7362 15.2611 17.3476C15.4112 16.959 15.6316 16.6058 15.9098 16.3081C16.1879 16.0104 16.5183 15.7741 16.8821 15.6126C17.2459 15.4511 17.636 15.3677 18.03 15.3671C18.8259 15.3657 19.5897 15.7017 20.1535 16.301C20.7172 16.9003 21.0348 17.7139 21.0362 18.5628C21.0377 19.4118 20.7229 20.2264 20.1612 20.8276C19.5994 21.4288 18.8368 21.7673 18.0409 21.7686ZM15.0193 10.5745L18.01 5.76867L21.0193 10.5629L15.0193 10.5745ZM25.5409 21.7542L25.5285 15.3542L30.0347 18.5455L25.5409 21.7542Z" fill="#A799C5"/>
</svg>
