<svg width="16" height="16" viewBox="0 0 16 16" fill="none" xmlns="http://www.w3.org/2000/svg">
<path d="M9.50006 10.7971C9.11447 10.9551 8.70213 11.0359 8.28598 11.0351C6.60935 11.0351 5.25006 9.75557 5.25006 8.17577C5.25006 6.59597 6.60935 5.31641 8.28598 5.31641C8.71806 5.31641 9.12819 5.40147 9.50006 5.55445" stroke="#49DFF4" stroke-width="1.0625" stroke-linecap="round"/>
<path d="M4.54167 1.98381C5.618 1.35539 6.83986 1.02542 8.08333 1.02735C11.9955 1.02735 15.1667 4.2277 15.1667 8.17577C15.1667 12.1238 11.9955 15.3242 8.08333 15.3242C4.17121 15.3242 1 12.1238 1 8.17577C1 6.87404 1.34496 5.65238 1.94775 4.60156" stroke="#49DFF4" stroke-width="1.0625" stroke-linecap="round"/>
</svg>
