<svg width="38" height="38" viewBox="0 0 38 38" fill="none" xmlns="http://www.w3.org/2000/svg">
<g clip-path="url(#clip0_215_2523)">
<path d="M20.5068 4.75C18.3645 4.75 16.2884 5.17676 14.2785 6.03027C13.4119 6.389 12.5454 6.66113 11.6788 6.84668C10.8123 7.03223 9.90359 7.125 8.95279 7.125H0.864948V23.75H8.39314C9.17544 23.75 9.90961 23.8984 10.5956 24.1953C11.2817 24.4922 11.9075 24.9251 12.4732 25.4941L23.7023 37.0166C24.0031 37.3258 24.304 37.5671 24.6049 37.7402C24.9058 37.9134 25.2729 38 25.7062 38C26.1033 38 26.4764 37.9258 26.8255 37.7773C27.1745 37.6289 27.4814 37.4124 27.7462 37.1279C28.011 36.8434 28.2156 36.528 28.36 36.1816C28.5044 35.8353 28.5826 35.4518 28.5947 35.0312C28.5947 34.0293 28.4864 33.0768 28.2697 32.1738C28.0531 31.2708 27.7341 30.3678 27.3129 29.4648C27.0722 28.9329 26.8676 28.3949 26.6991 27.8506C26.5306 27.3063 26.4163 26.7311 26.3561 26.125H34.3717C34.8411 26.125 35.2864 26.0322 35.7076 25.8467C36.1289 25.6611 36.496 25.4076 36.8089 25.0859C37.1218 24.7643 37.3746 24.387 37.5671 23.9541C37.7597 23.5212 37.85 23.0573 37.8379 22.5625C37.8379 22.1667 37.7777 21.7894 37.6574 21.4307L33.0358 7.18066C32.7951 6.45085 32.3738 5.86328 31.772 5.41797C31.1703 4.97266 30.4963 4.75 29.7501 4.75H20.5068ZM3.17576 9.5H8.95279C11.1071 9.5 13.1833 9.07324 15.1811 8.21973C16.9143 7.48991 18.6895 7.125 20.5068 7.125H29.7501C29.9908 7.125 30.2135 7.19922 30.4181 7.34766C30.6227 7.49609 30.7671 7.69401 30.8513 7.94141C30.9115 8.11458 31.0198 8.44857 31.1763 8.94336C31.3328 9.43815 31.5313 10.0319 31.772 10.7246C32.0128 11.4173 32.2655 12.1842 32.5303 13.0254C32.7951 13.8665 33.0719 14.7139 33.3607 15.5674C33.6496 16.4209 33.9144 17.2497 34.1551 18.0537C34.3958 18.8577 34.6305 19.5876 34.8591 20.2432C35.0878 20.8988 35.2503 21.4307 35.3466 21.8389C35.4429 22.2471 35.503 22.4883 35.5271 22.5625C35.5271 22.8841 35.4128 23.1624 35.1841 23.3975C34.9554 23.6325 34.6846 23.75 34.3717 23.75H23.9731C23.9731 24.4056 23.9851 25.0117 24.0092 25.5684C24.0332 26.125 24.0934 26.6755 24.1897 27.2197C24.286 27.764 24.4184 28.2959 24.5869 28.8154C24.7554 29.335 24.978 29.8978 25.2548 30.5039C25.5918 31.2214 25.8446 31.9512 26.0131 32.6934C26.1816 33.4355 26.2718 34.2148 26.2839 35.0312C26.2839 35.2044 26.2297 35.3467 26.1214 35.458C26.0131 35.5693 25.8747 35.625 25.7062 35.625C25.634 35.625 25.5738 35.6003 25.5256 35.5508C25.4775 35.5013 25.4233 35.4456 25.3632 35.3838L14.116 23.8057C13.7309 23.4098 13.3217 23.0635 12.8884 22.7666C12.4551 22.4697 11.9857 22.2161 11.4802 22.0059C10.5174 21.5853 9.48837 21.375 8.39314 21.375H3.17576V9.5Z" fill="#8B7AAE"/>
</g>
<defs>
<clipPath id="clip0_215_2523">
<rect width="36.973" height="38" fill="white" transform="matrix(-1 0 0 1 37.8379 0)"/>
</clipPath>
</defs>
</svg>
