<svg width="38" height="39" viewBox="0 0 38 39" fill="none" xmlns="http://www.w3.org/2000/svg">
<g clip-path="url(#clip0_193_1637)">
<path d="M38 19.1746C38 8.58482 29.4933 0 19 0C8.50666 0 0 8.58467 0 19.1746C0 28.7451 6.94806 36.6778 16.0312 38.1162V24.7172H11.207V19.1746H16.0312V14.9502C16.0312 10.1446 18.8679 7.49007 23.2078 7.49007C25.2866 7.49007 27.4609 7.86457 27.4609 7.86457V12.5833H25.0652C22.7047 12.5833 21.9688 14.0614 21.9688 15.5778V19.1746H27.2383L26.3959 24.7172H21.9688V38.1162C31.0519 36.6778 38 28.7452 38 19.1746Z" fill="#1877F2"/>
<path d="M26.3959 24.7174L27.2383 19.1747H21.9688V15.578C21.9688 14.0614 22.7049 12.5835 25.0652 12.5835H27.4609V7.86474C27.4609 7.86474 25.2866 7.49023 23.2078 7.49023C18.8679 7.49023 16.0312 10.1447 16.0312 14.9503V19.1747H11.207V24.7174H16.0312V38.1164C17.0133 38.2717 18.0059 38.3496 19 38.3493C19.9941 38.3496 20.9867 38.2717 21.9688 38.1164V24.7174H26.3959Z" fill="white"/>
</g>
<defs>
<clipPath id="clip0_193_1637">
<rect width="38" height="38.3492" fill="white"/>
</clipPath>
</defs>
</svg>
