<svg width="47" height="37" viewBox="0 0 47 37" fill="none" xmlns="http://www.w3.org/2000/svg">
<path d="M21.364 33.875L19.0033 31.7585C16.2627 29.2893 13.997 27.1593 12.2061 25.3684C10.4152 23.5775 8.99069 21.9695 7.93245 20.5444C6.8742 19.1204 6.13506 17.8114 5.71502 16.6175C5.29498 15.4236 5.08441 14.2026 5.08333 12.9544C5.08333 10.4037 5.93806 8.27368 7.64753 6.56421C9.357 4.85474 11.4871 4 14.0377 4C15.4487 4 16.7918 4.29848 18.0672 4.89544C19.3425 5.49239 20.4414 6.33356 21.364 7.41894C22.2866 6.33356 23.3855 5.49239 24.6608 4.89544C25.9362 4.29848 27.2793 4 28.6903 4C31.2409 4 33.371 4.85474 35.0805 6.56421C36.7899 8.27368 37.6447 10.4037 37.6447 12.9544C37.6447 14.2026 37.4341 15.4236 37.013 16.6175C36.5919 17.8114 35.8527 19.1204 34.7956 20.5444C33.7373 21.9695 32.3128 23.5775 30.5219 25.3684C28.731 27.1593 26.4653 29.2893 23.7247 31.7585L21.364 33.875Z" fill="#CBBFE4"/>
</svg>
