<svg width="33" height="32" viewBox="0 0 33 32" fill="none" xmlns="http://www.w3.org/2000/svg">
<g clip-path="url(#clip0_210_1887)">
<path d="M19.6113 31.992C10.2387 31.992 10.1666 31.6151 9.00592 30.7675C8.39026 30.3185 7.22859 30.0075 2.98551 29.7395C2.67769 29.72 2.38481 29.6055 2.18839 29.3745C2.09815 29.268 -0.0220947 26.2695 -0.0220947 21.467C-0.0220947 16.7345 1.49539 14.5775 1.56033 14.4775C1.6529 14.3337 1.7817 14.2151 1.9346 14.1328C2.0875 14.0506 2.25947 14.0075 2.43431 14.0075C5.91839 14.0075 10.7482 9.695 13.9951 2.167C14.5567 0.864999 14.6727 0.00849915 16.7352 0.00849915C17.9082 0.00849915 19.2231 0.822999 19.8722 1.86803C21.2041 4.00303 20.5276 8.58856 19.9021 11.0391C22.0291 11.0226 25.8792 10.9945 27.7112 10.9945C30.2595 10.9945 31.946 12.468 31.9971 14.622C32.0141 15.333 31.9177 16.241 31.7058 16.711C32.2668 17.2535 32.9902 18.0715 33.0216 19.125C33.0608 20.485 32.1425 21.5205 31.5562 22.1145C31.6908 22.51 31.9599 23.0345 31.9336 23.6615C31.8691 25.2035 30.6415 26.197 29.8768 26.7155C29.9402 27.1375 29.9897 27.9335 29.85 28.549C29.2983 31.0055 25.5832 31.992 19.6112 31.992L19.6113 31.992ZM3.53256 27.7116C7.22856 28.0081 9.20437 28.4096 10.2464 29.1701C11.0529 29.7591 10.9286 29.9926 19.6112 29.9926C22.2595 29.9926 27.4389 29.8856 27.836 28.1226C27.9937 27.4176 27.227 26.7246 27.2244 26.7191C27.0151 26.2181 27.2482 25.6301 27.7586 25.4136C27.7669 25.4096 29.8258 24.6946 29.8727 23.5786C29.9037 22.8651 29.3983 22.4366 29.387 22.4186C29.0864 21.9666 29.1962 21.3466 29.652 21.0386C29.6572 21.0346 30.9911 20.2506 30.9586 19.1816C30.9333 18.3326 29.7799 17.7351 29.7448 17.7151C29.487 17.5721 29.2993 17.3246 29.2405 17.0416C29.1828 16.7591 29.2477 16.4626 29.4287 16.2331C29.4287 16.2331 29.9531 15.4251 29.934 14.6671C29.8964 13.0446 28.0969 12.9936 27.7107 12.9936C25.1093 12.9936 18.4284 13.0191 18.4284 13.0191C18.068 13.0206 17.7561 12.8556 17.5622 12.5761C17.3688 12.2966 17.3544 11.9496 17.4678 11.6316C18.4753 8.81809 19.0379 4.40409 18.1036 2.89609C17.8282 2.45159 17.7653 2.00759 16.7341 2.00759C16.5912 2.00759 16.251 2.11709 15.8962 2.93709C12.4503 10.9321 7.30332 15.5566 3.08757 15.9736C2.72406 16.7776 2.04034 18.4436 2.04034 21.4666C2.04034 24.5521 3.04835 26.9391 3.53256 27.7116Z" fill="white"/>
</g>
<defs>
<clipPath id="clip0_210_1887">
<rect width="33" height="32" fill="white"/>
</clipPath>
</defs>
</svg>
