<svg width="39" height="32" viewBox="0 0 39 32" fill="none" xmlns="http://www.w3.org/2000/svg">
<g clip-path="url(#clip0_210_1895)">
<path d="M23.0538 31.9918C12.5068 31.9918 12.4256 31.6149 11.1195 30.7673C10.4267 30.3183 9.11947 30.0073 4.34469 29.7393C3.99829 29.7198 3.66872 29.6053 3.44768 29.3743C3.34614 29.2678 0.960205 26.2693 0.960205 21.4668C0.960205 16.7343 2.66784 14.5773 2.74092 14.4773C2.84509 14.3335 2.99004 14.2149 3.1621 14.1326C3.33416 14.0504 3.52767 14.0073 3.72442 14.0073C7.64508 14.0073 13.0802 9.6948 16.7339 2.1668C17.3658 0.864801 17.4964 0.00830078 19.8173 0.00830078C21.1373 0.00830078 22.617 0.822801 23.3475 1.86783C24.8462 4.00283 24.0849 8.58836 23.3811 11.0389C25.7746 11.0224 30.1072 10.9943 32.1688 10.9943C35.0363 10.9943 36.9342 12.4678 36.9917 14.6218C37.0109 15.3328 36.9023 16.2408 36.6638 16.7108C37.2951 17.2533 38.1093 18.0713 38.1446 19.1248C38.1887 20.4848 37.1553 21.5203 36.4956 22.1143C36.647 22.5098 36.9499 23.0343 36.9202 23.6613C36.8477 25.2033 35.4662 26.1968 34.6057 26.7153C34.6771 27.1373 34.7328 27.9333 34.5755 28.5488C33.9547 31.0053 29.7741 31.9918 23.0538 31.9918L23.0538 31.9918ZM4.96029 27.7114C9.11943 28.0079 11.3428 28.4094 12.5155 29.1699C13.423 29.7589 13.2831 29.9924 23.0538 29.9924C26.0339 29.9924 31.8623 29.8854 32.3091 28.1224C32.4867 27.4174 31.6239 26.7244 31.621 26.7189C31.3854 26.2179 31.6477 25.6299 32.2221 25.4134C32.2314 25.4094 34.5483 24.6944 34.6011 23.5784C34.6359 22.8649 34.0673 22.4364 34.0545 22.4184C33.7162 21.9664 33.8398 21.3464 34.3528 21.0384C34.3586 21.0344 35.8596 20.2504 35.823 19.1814C35.7946 18.3324 34.4966 17.7349 34.4572 17.7149C34.167 17.5719 33.9558 17.3244 33.8897 17.0414C33.8247 16.7589 33.8978 16.4624 34.1015 16.2329C34.1015 16.2329 34.6916 15.4249 34.6701 14.6669C34.6278 13.0444 32.6028 12.9934 32.1681 12.9934C29.2408 12.9934 21.7228 13.0189 21.7228 13.0189C21.3172 13.0204 20.9661 12.8554 20.748 12.5759C20.5304 12.2964 20.5141 11.9494 20.6418 11.6314C21.7755 8.81789 22.4086 4.40389 21.3572 2.89589C21.0473 2.45139 20.9765 2.00739 19.8161 2.00739C19.6553 2.00739 19.2724 2.11689 18.8732 2.93689C14.9955 10.9319 9.20357 15.5564 4.45954 15.9734C4.05048 16.7774 3.28108 18.4434 3.28108 21.4664C3.28108 24.5519 4.41541 26.9389 4.96029 27.7114Z" fill="white"/>
</g>
<defs>
<clipPath id="clip0_210_1895">
<rect width="37.1352" height="32" fill="white" transform="translate(0.985107)"/>
</clipPath>
</defs>
</svg>
