<svg width="47" height="43" viewBox="0 0 47 43" fill="none" xmlns="http://www.w3.org/2000/svg">
<path d="M43.3444 20.7834L25.9628 4.88925L24.7977 3.82333C24.5322 3.58206 24.1732 3.44666 23.799 3.44666C23.4249 3.44666 23.0659 3.58206 22.8004 3.82333L4.25365 20.7834C3.98164 21.0313 3.76667 21.3265 3.62142 21.6517C3.47617 21.9768 3.40359 22.3253 3.40796 22.6766C3.42596 24.1252 4.74398 25.2817 6.3274 25.2817H8.23921V38.6859H39.3589V25.2817H41.3112C42.0804 25.2817 42.8046 25.0059 43.3489 24.508C43.617 24.2635 43.8293 23.9729 43.9737 23.6529C44.1181 23.3329 44.1917 22.9898 44.1901 22.6436C44.1901 21.944 43.8887 21.2814 43.3444 20.7834ZM26.3181 35.7228H21.28V27.3271H26.3181V35.7228ZM36.1201 22.3185V35.7228H29.1971V26.3394C29.1971 25.4298 28.3919 24.6932 27.3977 24.6932H20.2004C19.2062 24.6932 18.401 25.4298 18.401 26.3394V35.7228H11.478V22.3185H7.1596L23.8035 7.1034L24.8427 8.05409L40.443 22.3185H36.1201Z" fill="#CBBFE4"/>
</svg>
