<svg width="38" height="39" viewBox="0 0 38 39" fill="none" xmlns="http://www.w3.org/2000/svg">
<path d="M29.0938 0H8.90625C3.98746 0 0 4.0241 0 8.98808V29.3611C0 34.3251 3.98746 38.3492 8.90625 38.3492H29.0938C34.0125 38.3492 38 34.3251 38 29.3611V8.98808C38 4.0241 34.0125 0 29.0938 0Z" fill="url(#paint0_radial_193_1633)"/>
<path d="M29.0938 0H8.90625C3.98746 0 0 4.0241 0 8.98808V29.3611C0 34.3251 3.98746 38.3492 8.90625 38.3492H29.0938C34.0125 38.3492 38 34.3251 38 29.3611V8.98808C38 4.0241 34.0125 0 29.0938 0Z" fill="url(#paint1_radial_193_1633)"/>
<path d="M19.0013 4.19434C14.9701 4.19434 14.464 4.21216 12.8808 4.28482C11.3005 4.35792 10.2219 4.61033 9.27809 4.98079C8.30166 5.36339 7.47353 5.87526 6.64852 6.70815C5.82276 7.5409 5.31555 8.37664 4.93525 9.36159C4.56713 10.3143 4.31671 11.4034 4.24561 12.9974C4.1748 14.5953 4.15625 15.1062 4.15625 19.1746C4.15625 23.2431 4.17406 23.7521 4.24591 25.3499C4.31864 26.9447 4.56876 28.0333 4.93555 28.9857C5.31495 29.9711 5.82216 30.8069 6.64748 31.6395C7.47234 32.4728 8.30048 32.9859 9.27616 33.3685C10.2207 33.7389 11.2995 33.9913 12.8795 34.0644C14.4629 34.1371 14.9684 34.1549 18.9996 34.1549C23.0313 34.1549 23.5357 34.1371 25.1189 34.0644C26.6992 33.9913 27.779 33.7389 28.7235 33.3685C29.6995 32.9859 30.5265 32.4728 31.3512 31.6395C32.1769 30.8069 32.684 29.9711 33.0645 28.9862C33.4293 28.0333 33.6799 26.9444 33.7541 25.3502C33.8252 23.7524 33.8438 23.2431 33.8438 19.1746C33.8438 15.1062 33.8252 14.5956 33.7541 12.9977C33.6799 11.4029 33.4293 10.3145 33.0645 9.36204C32.684 8.37664 32.1769 7.5409 31.3512 6.70815C30.5256 5.87496 29.6998 5.36309 28.7227 4.98094C27.7764 4.61033 26.6971 4.35777 25.1168 4.28482C23.5334 4.21216 23.0293 4.19434 18.9967 4.19434H19.0013ZM17.6697 6.89391C18.065 6.89331 18.506 6.89391 19.0013 6.89391C22.9648 6.89391 23.4344 6.90829 24.9995 6.98004C26.4468 7.04685 27.2323 7.29088 27.7556 7.49596C28.4483 7.7674 28.9422 8.09202 29.4614 8.61647C29.981 9.14078 30.3025 9.64007 30.5722 10.3392C30.7754 10.8665 31.0175 11.6592 31.0834 13.1198C31.1545 14.699 31.1699 15.1733 31.1699 19.1712C31.1699 23.1691 31.1545 23.6435 31.0834 25.2226C31.0172 26.6831 30.7754 27.4759 30.5722 28.0033C30.3032 28.7024 29.981 29.2002 29.4614 29.7242C28.9419 30.2485 28.4486 30.573 27.7556 30.8446C27.2329 31.0506 26.4468 31.294 24.9995 31.3608C23.4347 31.4326 22.9648 31.4482 19.0013 31.4482C15.0378 31.4482 14.568 31.4326 13.0033 31.3608C11.556 31.2934 10.7705 31.0494 10.2468 30.8443C9.55418 30.5727 9.05929 30.2482 8.53976 29.7239C8.02023 29.1996 7.69871 28.7015 7.429 28.0021C7.22579 27.4747 6.98369 26.6819 6.91778 25.2214C6.84668 23.6422 6.83243 23.1679 6.83243 19.1674C6.83243 15.1671 6.84668 14.6953 6.91778 13.1161C6.98398 11.6555 7.22579 10.8627 7.429 10.3347C7.69812 9.63557 8.02023 9.13628 8.53991 8.61198C9.05944 8.08767 9.55418 7.76305 10.2469 7.49102C10.7702 7.28504 11.556 7.04161 13.0033 6.9745C14.3726 6.91203 14.9033 6.89331 17.6697 6.89016V6.89391ZM26.9249 9.38121C25.9415 9.38121 25.1437 10.1856 25.1437 11.1782C25.1437 12.1707 25.9415 12.9758 26.9249 12.9758C27.9083 12.9758 28.7062 12.1707 28.7062 11.1782C28.7062 10.1858 27.9083 9.38061 26.9249 9.38061V9.38121ZM19.0013 11.4816C14.7916 11.4816 11.3785 14.9261 11.3785 19.1746C11.3785 23.4231 14.7916 26.866 19.0013 26.866C23.2112 26.866 26.6232 23.4231 26.6232 19.1746C26.6232 14.9263 23.2109 11.4816 19.001 11.4816H19.0013ZM19.0013 14.1811C21.7339 14.1811 23.9494 16.4166 23.9494 19.1746C23.9494 21.9323 21.7339 24.1681 19.0013 24.1681C16.2686 24.1681 14.0535 21.9323 14.0535 19.1746C14.0535 16.4166 16.2686 14.1811 19.0013 14.1811Z" fill="white"/>
<defs>
<radialGradient id="paint0_radial_193_1633" cx="0" cy="0" r="1" gradientUnits="userSpaceOnUse" gradientTransform="translate(10.0937 41.3028) rotate(-90) scale(38.0069 35.0275)">
<stop stop-color="#FFDD55"/>
<stop offset="0.1" stop-color="#FFDD55"/>
<stop offset="0.5" stop-color="#FF543E"/>
<stop offset="1" stop-color="#C837AB"/>
</radialGradient>
<radialGradient id="paint1_radial_193_1633" cx="0" cy="0" r="1" gradientUnits="userSpaceOnUse" gradientTransform="translate(-6.36515 2.76249) rotate(78.7814) scale(16.9833 69.417)">
<stop stop-color="#3771C8"/>
<stop offset="0.128" stop-color="#3771C8"/>
<stop offset="1" stop-color="#6600FF" stop-opacity="0"/>
</radialGradient>
</defs>
</svg>
