<svg width="33" height="32" viewBox="0 0 33 32" fill="none" xmlns="http://www.w3.org/2000/svg">
<g clip-path="url(#clip0_210_1889)">
<path d="M19.6113 31.992C10.2387 31.992 10.1666 31.6151 9.00592 30.7675C8.39026 30.3185 7.22859 30.0075 2.98551 29.7395C2.67768 29.72 2.38481 29.6055 2.18839 29.3745C2.09815 29.268 -0.0220947 26.2695 -0.0220947 21.467C-0.0220947 16.7345 1.49539 14.5775 1.56033 14.4775C1.6529 14.3337 1.7817 14.2151 1.9346 14.1328C2.0875 14.0506 2.25947 14.0075 2.43431 14.0075C5.91839 14.0075 10.7482 9.695 13.9951 2.167C14.5567 0.864999 14.6727 0.00849915 16.7352 0.00849915C17.9082 0.00849915 19.2231 0.822999 19.8722 1.86803C21.2041 4.00303 20.5276 8.58856 19.9021 11.0391C22.0291 11.0226 25.8792 10.9945 27.7112 10.9945C30.2595 10.9945 31.946 12.468 31.9971 14.622C32.0141 15.333 31.9177 16.241 31.7058 16.711C32.2668 17.2535 32.9902 18.0715 33.0216 19.125C33.0608 20.485 32.1425 21.5205 31.5562 22.1145C31.6908 22.51 31.9599 23.0345 31.9336 23.6615C31.8691 25.2035 30.6415 26.197 29.8768 26.7155C29.9402 27.1375 29.9897 27.9335 29.85 28.549C29.2983 31.0055 25.5832 31.992 19.6113 31.992Z" fill="white"/>
</g>
<defs>
<clipPath id="clip0_210_1889">
<rect width="33" height="32" fill="white"/>
</clipPath>
</defs>
</svg>
