<svg width="41" height="42" viewBox="0 0 41 42" fill="none" xmlns="http://www.w3.org/2000/svg">
<path d="M29.0416 15.75V12.25C29.0416 7.35 25.2833 3.5 20.4999 3.5C15.7166 3.5 11.9583 7.35 11.9583 12.25V15.75C9.05409 15.75 6.83325 18.025 6.83325 21V33.25C6.83325 36.225 9.05409 38.5 11.9583 38.5H29.0416C31.9458 38.5 34.1666 36.225 34.1666 33.25V21C34.1666 18.025 31.9458 15.75 29.0416 15.75ZM15.3749 12.25C15.3749 9.275 17.5958 7 20.4999 7C23.4041 7 25.6249 9.275 25.6249 12.25V15.75H15.3749V12.25ZM22.3791 27.125L22.2083 27.3V29.75C22.2083 30.8 21.5249 31.5 20.4999 31.5C19.4749 31.5 18.7916 30.8 18.7916 29.75V27.3C17.7666 26.25 17.5958 24.675 18.6208 23.625C19.6458 22.575 21.1833 22.4 22.2083 23.45C23.2333 24.325 23.4041 26.075 22.3791 27.125Z" fill="#CBBFE4"/>
</svg>
