<svg width="39" height="32" viewBox="0 0 39 32" fill="none" xmlns="http://www.w3.org/2000/svg">
<path d="M20.875 2.66663V16H18.125V2.66663H20.875ZM26.0725 4.97063L27.1849 5.75596C29.4149 7.32925 31.0742 9.54659 31.9252 12.0903C32.7761 14.6341 32.7749 17.3737 31.9219 19.9168C31.0688 22.4599 29.4076 24.6759 27.1762 26.2474C24.9448 27.8189 22.2578 28.6653 19.5 28.6653C16.7422 28.6653 14.0552 27.8189 11.8238 26.2474C9.59242 24.6759 7.93122 22.4599 7.07815 19.9168C6.22508 17.3737 6.22392 14.6341 7.07484 12.0903C7.92576 9.54659 9.58508 7.32925 11.8151 5.75596L12.9261 4.96929L14.5459 7.12529L13.4349 7.91196C11.6739 9.15376 10.3634 10.9042 9.6912 12.9125C9.01901 14.9208 9.01961 17.0839 9.69292 19.0918C10.3662 21.0998 11.6777 22.8495 13.4394 24.0904C15.2011 25.3313 17.3226 25.9996 19.5 25.9996C21.6774 25.9996 23.7989 25.3313 25.5606 24.0904C27.3223 22.8495 28.6338 21.0998 29.3071 19.0918C29.9804 17.0839 29.981 14.9208 29.3088 12.9125C28.6366 10.9042 27.3261 9.15376 25.5651 7.91196L24.4541 7.12529L26.0725 4.97063Z" fill="#CBBFE4"/>
</svg>
