<svg width="29" height="29" viewBox="0 0 29 29" fill="none" xmlns="http://www.w3.org/2000/svg">
<path d="M14.5 0C6.49178 0 0 6.49178 0 14.5C0 22.5082 6.49178 29 14.5 29C22.5082 29 29 22.5082 29 14.5C29 6.49178 22.5082 0 14.5 0ZM15.7521 22.3616V24.4038H13.7986V22.3845C10.5932 21.9455 9.18945 19.3117 9.18945 19.3117L11.1848 17.6426C11.1848 17.6426 12.4588 19.8604 14.7634 19.8604C16.0364 19.8604 17.0021 19.179 17.0021 18.0148C17.0021 15.2931 9.66933 15.6234 9.66933 10.5742C9.66933 8.37935 11.4053 6.79806 13.7976 6.42394V4.38372H15.7511V6.42394C17.4192 6.64342 19.3945 7.52136 19.3945 9.40993V10.8585H16.8046V10.1562C16.8046 9.43188 15.8818 8.94902 14.8492 8.94902C13.5323 8.94902 12.5675 9.60747 12.5675 10.5293C12.5675 13.3168 19.9003 12.6364 19.9003 17.927C19.9003 20.1019 18.2761 21.9874 15.7521 22.3616Z" fill="#F8E220"/>
</svg>
