<svg width="39" height="35" viewBox="0 0 39 35" fill="none" xmlns="http://www.w3.org/2000/svg">
<path d="M19.5 2.91663C10.99 2.91663 4.08333 9.44996 4.08333 17.5C4.08333 25.55 10.99 32.0833 19.5 32.0833C28.01 32.0833 34.9167 25.55 34.9167 17.5C34.9167 9.44996 28.01 2.91663 19.5 2.91663ZM20.8567 25.9V27.7083H18.1587V25.827C17.0179 25.5645 14.4742 24.7041 13.5029 21.5104L16.0467 20.5333C16.1392 20.8541 16.9408 23.5812 19.7467 23.5812C21.1804 23.5812 22.7992 22.8812 22.7992 21.2333C22.7992 19.8333 21.72 19.1041 19.2842 18.2729C17.5883 17.7041 14.1196 16.7708 14.1196 13.4458C14.1196 13.3 14.135 9.94579 18.1587 9.12913V7.29163H20.8567V9.09996C23.6933 9.56663 24.7262 11.7104 24.9575 12.352L22.5217 13.3291C22.3521 12.8187 21.6121 11.375 19.5925 11.375C18.5133 11.375 16.8021 11.9145 16.8021 13.402C16.8021 14.7875 18.1279 15.3125 20.8721 16.1729C24.5721 17.3833 25.5125 19.1625 25.5125 21.2041C25.5125 25.0395 21.6583 25.7687 20.8567 25.9Z" fill="#CBBFE4"/>
</svg>
