<svg width="47" height="41" viewBox="0 0 47 41" fill="none" xmlns="http://www.w3.org/2000/svg">
<path d="M40.5833 23.0626C40.5833 26.0692 38.3625 28.5634 35.4583 28.9734V34.1667C35.4583 35.0729 35.0984 35.9419 34.4576 36.5827C33.8169 37.2234 32.9478 37.5834 32.0417 37.5834H25.55V37.0709C25.55 35.8476 25.064 34.6744 24.199 33.8094C23.334 32.9444 22.1608 32.4584 20.9375 32.4584C18.375 32.4584 16.325 34.5255 16.325 37.0709V37.5834H9.83332C8.92717 37.5834 8.05812 37.2234 7.41737 36.5827C6.77663 35.9419 6.41666 35.0729 6.41666 34.1667V27.6751H6.92916C9.47457 27.6751 11.5417 25.6251 11.5417 23.0626C11.5417 20.5001 9.47457 18.4501 6.92916 18.4501H6.41666V11.9584C6.41666 11.0523 6.77663 10.1832 7.41737 9.54247C8.05812 8.90172 8.92717 8.54175 9.83332 8.54175H15.0267C15.4367 5.63758 17.9308 3.41675 20.9375 3.41675C23.9442 3.41675 26.4383 5.63758 26.8483 8.54175H32.0417C32.9478 8.54175 33.8169 8.90172 34.4576 9.54247C35.0984 10.1832 35.4583 11.0523 35.4583 11.9584V17.1517C38.3625 17.5617 40.5833 20.0559 40.5833 23.0626ZM32.0417 25.6251H34.6042C35.2838 25.6251 35.9356 25.3551 36.4161 24.8745C36.8967 24.394 37.1667 23.7422 37.1667 23.0626C37.1667 22.383 36.8967 21.7312 36.4161 21.2506C35.9356 20.7701 35.2838 20.5001 34.6042 20.5001H32.0417V11.9584H23.5V9.39591C23.5 8.7163 23.23 8.06452 22.7495 7.58395C22.2689 7.10339 21.6171 6.83341 20.9375 6.83341C20.2579 6.83341 19.6061 7.10339 19.1255 7.58395C18.645 8.06452 18.375 8.7163 18.375 9.39591V11.9584H9.83332V15.5801C12.84 16.7417 14.9583 19.6459 14.9583 23.0626C14.9583 26.4792 12.8229 29.3834 9.83332 30.5451V34.1667H13.455C14.0404 32.6579 15.0681 31.3612 16.4033 30.4466C17.7386 29.5321 19.3191 29.0424 20.9375 29.0417C24.3542 29.0417 27.2583 31.1772 28.42 34.1667H32.0417V25.6251Z" fill="#CBBFE4"/>
</svg>
