<svg width="38" height="38" viewBox="0 0 38 38" fill="none" xmlns="http://www.w3.org/2000/svg">
<g clip-path="url(#clip0_240_2478)">
<path d="M19 38C29.4934 38 38 29.4934 38 19C38 8.50659 29.4934 0 19 0C8.50659 0 0 8.50659 0 19C0 29.4934 8.50659 38 19 38Z" fill="#FF4500"/>
<path d="M31.6395 19.1811C31.6395 17.6409 30.394 16.4176 28.876 16.4176C28.159 16.4166 27.4693 16.6926 26.9508 17.1879C25.0481 15.8286 22.4431 14.9454 19.5438 14.8322L20.812 8.89748L24.9346 9.78069C24.9802 10.8227 25.8406 11.6609 26.9055 11.6609C27.9927 11.6609 28.876 10.7777 28.876 9.68999C28.876 8.60283 27.9928 7.71948 26.9055 7.71948C26.1354 7.71948 25.4556 8.17251 25.1385 8.8295L20.5405 7.85545C20.4046 7.83259 20.2686 7.85545 20.1779 7.92344C20.0646 7.99142 19.9968 8.10453 19.9744 8.2405L18.5696 14.8546C15.625 14.9454 12.9747 15.8286 11.0494 17.2106C10.5309 16.7153 9.84112 16.4394 9.12406 16.4405C7.58372 16.4405 6.3606 17.686 6.3606 19.2039C6.3606 20.3364 7.03999 21.2876 7.99163 21.7183C7.94541 21.9953 7.92267 22.2756 7.92364 22.5564C7.92364 26.8145 12.8844 30.2805 19.0002 30.2805C25.1161 30.2805 30.0769 26.8373 30.0769 22.5564C30.0767 22.2757 30.054 21.9954 30.0089 21.7183C30.9601 21.2876 31.6395 20.3135 31.6395 19.1811ZM12.6576 21.1516C12.6576 20.0644 13.5408 19.1811 14.6286 19.1811C15.7157 19.1811 16.5991 20.0643 16.5991 21.1516C16.5991 22.2389 15.7159 23.1225 14.6286 23.1225C13.541 23.1448 12.6576 22.2389 12.6576 21.1516ZM23.689 26.3842C22.3299 27.7434 19.7476 27.8341 19.0002 27.8341C18.2301 27.8341 15.6479 27.7205 14.3111 26.3842C14.1075 26.1804 14.1075 25.8631 14.3111 25.6593C14.515 25.4558 14.8321 25.4558 15.036 25.6593C15.897 26.5203 17.7091 26.8145 19.0002 26.8145C20.2915 26.8145 22.126 26.5201 22.9641 25.6593C23.168 25.4558 23.4851 25.4558 23.689 25.6593C23.8701 25.8631 23.8701 26.1804 23.689 26.3842ZM23.3264 23.145C22.2391 23.145 21.3559 22.2618 21.3559 21.1745C21.3559 20.0871 22.2391 19.2039 23.3264 19.2039C24.414 19.2039 25.2972 20.0871 25.2972 21.1745C25.2972 22.2387 24.414 23.145 23.3264 23.145Z" fill="white"/>
</g>
<defs>
<clipPath id="clip0_240_2478">
<rect width="38" height="38" fill="white"/>
</clipPath>
</defs>
</svg>
