<svg width="39" height="31" viewBox="0 0 39 31" fill="none" xmlns="http://www.w3.org/2000/svg">
<g clip-path="url(#clip0_138_973)">
<path d="M21.725 2.82897e-06C22.1954 2.82897e-06 22.6162 0.283653 22.7746 0.708353L23.9042 3.7417C24.309 3.83935 24.6562 3.937 24.9506 4.0393C25.2722 4.1509 25.6866 4.31985 26.1986 4.5508L28.829 3.2023C29.0437 3.09211 29.2895 3.05233 29.5295 3.08894C29.7696 3.12555 29.9909 3.23658 30.1602 3.40535L32.4738 5.7226C32.781 6.03105 32.8674 6.4821 32.6946 6.8758L31.461 9.67665C31.6658 10.0409 31.829 10.3525 31.9538 10.6129C32.0882 10.8965 32.2546 11.2871 32.453 11.7909L35.3282 12.9844C35.7602 13.1626 36.0274 13.5811 35.9986 14.0291L35.7874 17.2453C35.773 17.4543 35.6955 17.6545 35.5647 17.8212C35.4339 17.9879 35.2554 18.1137 35.0514 18.1831L32.3282 19.1208C32.2498 19.4851 32.1682 19.7966 32.0818 20.0601C31.9425 20.4671 31.7834 20.8674 31.605 21.2598L32.973 24.1893C33.0696 24.3951 33.0956 24.6255 33.0472 24.8467C32.9988 25.0679 32.8786 25.2682 32.7042 25.4185L30.1026 27.6691C29.9313 27.8166 29.7175 27.91 29.4899 27.9366C29.2622 27.9632 29.0317 27.9218 28.829 27.8179L26.1474 26.4415C25.7279 26.6567 25.2951 26.8466 24.8514 27.0103L23.6802 27.435L22.6402 30.225C22.5632 30.4293 22.4241 30.6063 22.2414 30.7327C22.0586 30.8591 21.8407 30.9291 21.6162 30.9334L18.5762 31C18.3458 31.0059 18.1191 30.9424 17.9274 30.8183C17.7357 30.6942 17.5884 30.5157 17.5058 30.3072L16.2802 27.1653C15.8621 27.0269 15.448 26.877 15.0386 26.7158C14.7038 26.5754 14.374 26.4239 14.0498 26.2617L11.0098 27.5203C10.8095 27.603 10.5887 27.6276 10.3742 27.591C10.1597 27.5544 9.96087 27.4582 9.80182 27.3141L7.55222 25.2697C7.38474 25.1181 7.27067 24.9194 7.22617 24.7016C7.18166 24.4838 7.20897 24.2579 7.30422 24.056L8.61142 21.297C8.43757 20.9702 8.27639 20.6373 8.12822 20.2988C7.95526 19.8845 7.79519 19.4653 7.64822 19.0418L4.78422 18.197C4.55142 18.1288 4.34837 17.9881 4.20661 17.7967C4.06484 17.6053 3.99229 17.3738 4.00022 17.1384L4.11222 14.1608C4.12019 13.9665 4.18284 13.7781 4.29339 13.6158C4.40393 13.4535 4.55817 13.3236 4.73942 13.2401L7.74422 11.842C7.88342 11.3476 8.00502 10.9632 8.11222 10.6826C8.26317 10.3079 8.43079 9.93967 8.61462 9.579L7.31222 6.913C7.21338 6.71055 7.18337 6.48294 7.22649 6.26291C7.26962 6.04288 7.38366 5.84178 7.55222 5.6885L9.79862 3.6332C9.9561 3.48932 10.1531 3.39259 10.366 3.35464C10.5789 3.31669 10.7986 3.33915 10.9986 3.4193L14.0354 4.6345C14.3714 4.4175 14.6754 4.24235 14.9506 4.1013C15.2786 3.93235 15.717 3.75565 16.269 3.565L17.325 0.711453C17.4031 0.502619 17.5458 0.322219 17.7337 0.194886C17.9215 0.0675531 18.1454 -0.000505689 18.3746 2.82897e-06H21.725ZM20.0386 10.8795C17.3714 10.8795 15.2098 12.9487 15.2098 15.5031C15.2098 18.0575 17.3714 20.1283 20.0386 20.1283C22.7042 20.1283 24.8658 18.0575 24.8658 15.5031C24.8658 12.9487 22.7058 10.8795 20.0386 10.8795Z" fill="#CBBFE4"/>
</g>
<defs>
<clipPath id="clip0_138_973">
<rect width="39" height="31" fill="white"/>
</clipPath>
</defs>
</svg>
