<svg width="38" height="38" viewBox="0 0 38 38" fill="none" xmlns="http://www.w3.org/2000/svg">
<path d="M13.775 16.9417L24.225 11.5583M13.775 21.0583L24.225 26.4417M4.75 19C4.75 20.2598 5.25045 21.468 6.14124 22.3588C7.03204 23.2496 8.24022 23.75 9.5 23.75C10.7598 23.75 11.968 23.2496 12.8588 22.3588C13.7496 21.468 14.25 20.2598 14.25 19C14.25 17.7402 13.7496 16.532 12.8588 15.6412C11.968 14.7504 10.7598 14.25 9.5 14.25C8.24022 14.25 7.03204 14.7504 6.14124 15.6412C5.25045 16.532 4.75 17.7402 4.75 19ZM23.75 9.5C23.75 10.7598 24.2504 11.968 25.1412 12.8588C26.032 13.7496 27.2402 14.25 28.5 14.25C29.7598 14.25 30.968 13.7496 31.8588 12.8588C32.7496 11.968 33.25 10.7598 33.25 9.5C33.25 8.24022 32.7496 7.03204 31.8588 6.14124C30.968 5.25045 29.7598 4.75 28.5 4.75C27.2402 4.75 26.032 5.25045 25.1412 6.14124C24.2504 7.03204 23.75 8.24022 23.75 9.5ZM23.75 28.5C23.75 29.7598 24.2504 30.968 25.1412 31.8588C26.032 32.7496 27.2402 33.25 28.5 33.25C29.7598 33.25 30.968 32.7496 31.8588 31.8588C32.7496 30.968 33.25 29.7598 33.25 28.5C33.25 27.2402 32.7496 26.032 31.8588 25.1412C30.968 24.2504 29.7598 23.75 28.5 23.75C27.2402 23.75 26.032 24.2504 25.1412 25.1412C24.2504 26.032 23.75 27.2402 23.75 28.5Z" stroke="#8B7AAE" stroke-width="2" stroke-linecap="round" stroke-linejoin="round"/>
</svg>
