<svg width="47" height="40" viewBox="0 0 47 40" fill="none" xmlns="http://www.w3.org/2000/svg">
<path fill-rule="evenodd" clip-rule="evenodd" d="M18.0917 2.31165L20.1917 3.57165C22.8556 5.14569 24.9019 7.58243 25.9917 10.4783C26.3617 9.64498 26.8017 8.83664 27.21 8.01998L28.845 9.65498C32.515 13.325 36 18.825 36 24.1666C36 31.33 31.5833 35.8716 24.5167 36.6566L22.2 36.9133L22.7067 34.6383C23.1017 32.8583 23.1733 31.695 23.09 30.88C22.99 29.855 22.5033 29.05 21.8967 28.25C21.3167 27.4833 20.7417 26.715 20.2817 25.8666C18.39 27.3616 17.6567 28.7116 17.4217 29.8233C17.1217 31.2466 17.5467 32.7016 18.3233 34.255L19.6933 36.995L16.65 36.6566C12.3567 36.18 8.12668 33.3116 6.46001 29.1266C4.71835 24.7483 5.95001 19.45 11.5767 14.5733C15.31 11.3383 17.2867 7.14331 18.0917 2.31165ZM20.3117 7.81164C19.0417 11.3783 16.6033 14.6283 13.7583 17.0933C8.90668 21.2983 8.47168 25.1666 9.55835 27.8933C10.3667 29.9266 12.1117 31.5983 14.18 32.5466C13.9369 31.4237 13.9301 30.2624 14.16 29.1366C14.7033 26.56 16.5567 24.145 20.1167 21.92L21.9117 20.7983L22.5817 22.8066C23.1683 24.5666 24.385 25.8116 25.3367 27.3566C26.3833 29.0566 26.5833 31.0066 26.37 32.9533C30.7367 31.8616 32.6667 28.55 32.6667 24.1666C32.6667 20.4633 30.4333 16.83 28.2167 13.99C27.3033 16.0366 25.3783 16.7566 23.5 17.6966V15C23.5 12.7183 22.5717 9.93665 20.3117 7.81331V7.81164Z" fill="#CBBFE4"/>
</svg>
