<svg width="47" height="43" viewBox="0 0 47 43" fill="none" xmlns="http://www.w3.org/2000/svg">
<path d="M7.1778 1L5.33804 1.4384L5.68859 2.9088L7.52818 2.4704L7.1778 1ZM11.8314 1.80423C10.9233 1.80575 10.2111 2.11212 9.77334 2.67297C9.30638 3.27119 9.19662 4.10171 9.4799 5.0567C9.76309 6.0116 10.4543 7.04259 11.4933 7.85237C12.5323 8.66198 13.7012 9.08064 14.6973 9.12263C15.693 9.16463 16.4724 8.85573 16.9393 8.25759C17.4063 7.65929 17.5159 6.82885 17.2327 5.87395C17.2033 5.77667 17.1705 5.68048 17.1342 5.58555C16.396 6.15278 15.9054 7.14514 15.2854 6.73143C15.1158 6.6183 15.6386 5.27984 16.4183 4.29756C16.1827 3.98273 15.9181 3.6906 15.6281 3.42496L13.5009 4.44705L12.3506 3.38516C12.521 3.2386 13.8804 3.01033 14.9995 2.91459C14.0177 2.21231 12.9416 1.84698 12.0154 1.80801C11.954 1.80541 11.8926 1.80415 11.8312 1.80423H11.8314ZM23.1873 2.75956L21.4129 3.4138L21.9358 4.83212L23.7104 4.17788L23.1874 2.75956H23.1873ZM27.6328 4.63048L26.4993 5.63073L27.7504 7.04864L28.8841 6.04855L27.6327 4.63039L27.6328 4.63048ZM5.30974 6.70741L4 7.46277L4.94482 9.10097L6.25431 8.34578L5.30948 6.70766L5.30974 6.70741ZM18.3727 8.83474C18.2997 8.95692 18.2193 9.0745 18.1319 9.1868C17.313 10.236 15.9925 10.6897 14.6333 10.6324C14.1316 10.6113 13.6187 10.5237 13.1076 10.3724C13.0495 11.1032 13.052 11.8441 13.1061 12.5873L13.7192 12.3043L13.7612 13.7224L14.8454 13.9311L14.2199 15.1823L15.6795 16.4752L14.3032 17.0175L15.0124 17.8099L14.4272 18.3516C15.3256 20.7852 16.5451 23.0146 17.7028 24.7307C19.1121 26.82 20.5085 30.6471 20.5672 32.9907L17.4099 40.9942L26.9484 41.0939L27.015 39.3668L26.3786 39.256L25.3143 40.2908L24.4384 39.54H23.6875L23.5773 38.7679L21.7902 38.4565L24.1728 33.1395C24.2848 30.0121 23.3172 27.8333 22.6006 24.7059C24.0569 25.7043 25.467 26.681 26.8183 27.6852C27.103 27.42 27.4692 27.209 28.0671 27.1526C28.4686 27.8236 28.491 28.3866 28.4378 28.9277C30.553 30.6125 32.4934 32.4257 34.1937 34.5846L38.8467 26.4811L37.4715 25.7199L33.6619 29.3374C31.5353 26.45 28.451 24.2992 25.1043 21.8998C24.8512 21.0973 24.4919 20.345 24.0801 19.6276C23.7981 20.0304 23.4189 20.3938 23.1036 20.6459C22.4893 21.1372 21.3997 20.8258 21.1434 20.3122C20.8872 19.7986 22.0751 19.5011 21.8107 19.0193C21.5464 18.5374 20.3701 19.2845 19.9755 18.8524C19.581 18.4203 19.4695 17.7522 19.9755 17.184C20.292 16.829 21.0186 16.6787 21.7182 16.6839C21.8575 16.6851 21.9967 16.6925 22.1354 16.7063C21.3953 15.6508 20.7148 14.6295 20.3284 13.5814C22.8031 13.851 25.2774 14.1216 27.6209 15.0462C28.0968 16.3242 27.7207 17.6023 27.2081 18.8803C27.5873 18.957 28.0259 18.9648 28.4183 18.4185C29.4374 16.9992 30.1264 15.2325 29.6266 13.5127C29.5105 13.1132 26.2651 12.3187 23.093 11.646C25.4286 11.3523 27.9633 11.1582 30.6101 11.0202C31.8155 11.4376 32.3961 12.6528 32.4433 14.4019C33.7518 13.7684 34.1146 13.1041 34.1655 12.1536C34.2442 10.6856 33.1214 9.40961 32.3304 9.17076C32.0147 9.06662 20.788 9.19284 18.3727 8.8344V8.83474ZM37.6954 10.8685L36.2412 12.0774L37.2077 13.2399L38.6618 12.0308L37.6955 10.8685H37.6954ZM8.87655 11.2557L8.41825 12.6963L10.2206 13.2698L10.6788 11.829L8.87647 11.2558L8.87655 11.2557ZM35.5977 21.6331L34.2497 22.9595L35.3098 24.0372L36.658 22.7107L35.5977 21.633V21.6331ZM13.9232 24.1437L13.465 25.5843L15.2673 26.1577L15.7254 24.7171L13.9231 24.1438L13.9232 24.1437Z" fill="#CBBFE4"/>
</svg>
