<svg width="33" height="32" viewBox="0 0 33 32" fill="none" xmlns="http://www.w3.org/2000/svg">
<path fill-rule="evenodd" clip-rule="evenodd" d="M31.8679 0.907913C33.0239 1.66391 33.3479 3.21191 32.5919 4.36791L15.5919 30.3679C15.3938 30.6709 15.1323 30.9272 14.8255 31.1191C14.5186 31.3111 14.1738 31.4342 13.8147 31.4798C13.4557 31.5255 13.091 31.4926 12.7459 31.3835C12.4008 31.2744 12.0835 31.0917 11.8159 30.8479L0.815886 20.8479C0.325236 20.4018 0.0318911 19.7791 0.000385039 19.1167C-0.0311211 18.4543 0.201792 17.8066 0.647886 17.3159C1.09398 16.8253 1.71671 16.5319 2.37909 16.5004C3.04147 16.4689 3.68924 16.7018 4.17989 17.1479L13.0119 25.1759L28.4079 1.63191C28.7708 1.07717 29.3391 0.689264 29.988 0.553495C30.6368 0.417726 31.313 0.545209 31.8679 0.907913Z" fill="#566BD8"/>
</svg>
