<svg width="38" height="39" viewBox="0 0 38 39" fill="none" xmlns="http://www.w3.org/2000/svg">
<g clip-path="url(#clip0_193_1628)">
<path d="M28.1615 13.8086C30.934 15.5733 34.3306 16.6117 37.9989 16.6117V10.3264C37.3046 10.3265 36.6122 10.262 35.933 10.1338V15.0813C32.2649 15.0813 28.8688 14.0431 26.0957 12.2785V25.1051C26.0957 31.5217 20.2538 36.7229 13.0481 36.7229C10.3594 36.7229 7.86032 35.9992 5.78442 34.7578C8.15378 36.915 11.458 38.2532 15.1134 38.2532C22.3198 38.2532 28.1618 33.052 28.1618 26.6351V13.8086H28.1615ZM30.7102 7.46752C29.2932 6.0892 28.3628 4.30794 28.1615 2.33865V1.53027H26.2038C26.6966 4.03315 28.3777 6.17145 30.7102 7.46752ZM10.342 29.8341C9.55042 28.9099 9.12249 27.7792 9.12442 26.6167C9.12442 23.6821 11.7964 21.3026 15.0931 21.3026C15.7074 21.3023 16.318 21.3863 16.9036 21.5516V15.1257C16.2193 15.0423 15.5288 15.0067 14.8385 15.0198V20.0213C14.2527 19.8559 13.6417 19.7719 13.0271 19.7724C9.73063 19.7724 7.05876 22.1517 7.05876 25.0867C7.05876 27.1621 8.39425 28.9588 10.342 29.8341Z" fill="#FF004F"/>
<path d="M26.0957 12.2784C28.8689 14.0429 32.2647 15.0811 35.9329 15.0811V10.1337C33.8854 9.74532 32.0728 8.79268 30.71 7.46752C28.3773 6.17132 26.6966 4.03302 26.2038 1.53027H21.0614V26.6348C21.0497 29.5615 18.3823 31.9312 15.0928 31.9312C13.1545 31.9312 11.4323 31.1086 10.3417 29.8339C8.39422 28.9588 7.05858 27.1619 7.05858 25.0868C7.05858 22.1521 9.73045 19.7726 13.027 19.7726C13.6586 19.7726 14.2673 19.8601 14.8383 20.0214V15.0199C7.75905 15.1502 2.06573 20.3006 2.06573 26.635C2.06573 29.797 3.48346 32.6636 5.78454 34.7581C7.86044 35.9992 10.3594 36.7232 13.0482 36.7232C20.2541 36.7232 26.0958 31.5216 26.0958 25.1051V12.2785L26.0957 12.2784Z" fill="black"/>
<path d="M35.933 10.1334V8.79597C34.0866 8.79847 32.2766 8.33805 30.7101 7.46737C32.0968 8.81913 33.9228 9.7513 35.933 10.1337V10.1334ZM26.2037 1.53C26.1567 1.29086 26.1206 1.05012 26.0956 0.808374V0H18.9953V25.1048C18.984 28.0313 16.3165 30.401 13.0269 30.401C12.0943 30.4022 11.1744 30.208 10.3416 29.8341C11.4322 31.1084 13.1544 31.931 15.0927 31.931C18.3821 31.931 21.0498 29.5615 21.0613 26.6348V1.53013H26.2037V1.53ZM14.8387 15.0196V13.5956C14.2454 13.5233 13.6472 13.4872 13.0484 13.4874C5.84176 13.4874 0 18.6889 0 25.1048C0 29.1274 2.29588 32.6724 5.78476 34.7577C3.48368 32.6633 2.06595 29.7966 2.06595 26.6347C2.06595 20.3005 7.75913 15.1499 14.8387 15.0196Z" fill="#00F2EA"/>
</g>
<defs>
<clipPath id="clip0_193_1628">
<rect width="38" height="38.3492" fill="white"/>
</clipPath>
</defs>
</svg>
