<svg width="37" height="35" viewBox="0 0 37 35" fill="none" xmlns="http://www.w3.org/2000/svg">
<g clip-path="url(#clip0_240_2481)">
<path d="M37 4.262C35.6145 4.97318 34.1449 5.44 32.6401 5.64693C34.2075 4.55841 35.411 2.8347 35.9777 0.780925C34.4877 1.80545 32.8575 2.52729 31.1575 2.91526C29.7727 1.20595 27.8 0.137695 25.6166 0.137695C21.4243 0.137695 18.0254 4.07578 18.0254 8.93291C18.0254 9.62236 18.0926 10.2936 18.2219 10.9375C11.9131 10.5705 6.31977 7.06903 2.57569 1.7477C1.92241 3.04671 1.54807 4.55774 1.54807 6.16942C1.54807 9.22095 2.88831 11.9129 4.92505 13.4903C3.71958 13.4465 2.54064 13.0693 1.48665 12.39C1.48621 12.4269 1.48621 12.4637 1.48621 12.5007C1.48621 16.7622 4.10281 20.3171 7.57532 21.1251C6.45749 21.4774 5.28497 21.5289 4.14732 21.2759C5.11323 24.7702 7.9167 27.3129 11.2383 27.3841C8.64037 29.743 5.36717 31.1492 1.81083 31.1492C1.19802 31.1492 0.593879 31.1075 0 31.0263C3.35934 33.5218 7.34941 34.9779 11.6362 34.9779C25.5989 34.9779 33.2341 21.5756 33.2341 9.95293C33.2341 9.57145 33.2269 9.19215 33.2121 8.81502C34.6982 7.57023 35.9809 6.02844 37 4.262Z" fill="#55ACEE"/>
</g>
<defs>
<clipPath id="clip0_240_2481">
<rect width="37" height="35" fill="white"/>
</clipPath>
</defs>
</svg>
