<svg width="41" height="41" viewBox="0 0 41 41" fill="none" xmlns="http://www.w3.org/2000/svg">
<path d="M41 20.5C41 31.8218 31.8218 41 20.5 41C9.17816 41 0 31.8218 0 20.5C0 9.17816 9.17816 0 20.5 0C31.8218 0 41 9.17816 41 20.5Z" fill="#2C2436"/>
<g clip-path="url(#clip0_483_1807)">
<path d="M17 25.95V28.3333H18.6666V26.025C19.0942 25.8535 19.4502 25.5407 19.6754 25.1387C19.9005 24.7367 19.9812 24.2698 19.904 23.8156C19.8269 23.3614 19.5965 22.9473 19.2513 22.6422C18.906 22.3371 18.4668 22.1594 18.0065 22.1387C17.5462 22.118 17.0928 22.2555 16.7215 22.5283C16.3503 22.8012 16.0837 23.1929 15.966 23.6384C15.8484 24.0838 15.8868 24.5561 16.0749 24.9767C16.263 25.3973 16.5895 25.7408 17 25.95Z" fill="white"/>
<path d="M28.6666 6.66666C26.86 6.71038 25.1443 7.46794 23.8949 8.77356C22.6455 10.0792 21.9642 11.8266 22 13.6333V17.5H8.66663V31.6667C8.66663 32.1087 8.84222 32.5326 9.15478 32.8452C9.46734 33.1577 9.89127 33.3333 10.3333 33.3333H25.3333C25.7753 33.3333 26.1992 33.1577 26.5118 32.8452C26.8244 32.5326 27 32.1087 27 31.6667V17.5H23.6666V13.6333C23.6307 12.2685 24.1364 10.945 25.0733 9.95189C26.0102 8.95879 27.302 8.37689 28.6666 8.33332C30.0312 8.37689 31.3231 8.95879 32.2599 9.95189C33.1968 10.945 33.7026 12.2685 33.6666 13.6333V19.325C33.6666 19.546 33.7544 19.758 33.9107 19.9142C34.067 20.0705 34.2789 20.1583 34.5 20.1583C34.721 20.1583 34.9329 20.0705 35.0892 19.9142C35.2455 19.758 35.3333 19.546 35.3333 19.325V13.6333C35.3691 11.8266 34.6877 10.0792 33.4383 8.77356C32.1889 7.46794 30.4732 6.71038 28.6666 6.66666ZM25.3333 19.1667V31.6667H10.3333V19.1667H25.3333Z" fill="white"/>
</g>
<defs>
<clipPath id="clip0_483_1807">
<rect width="30" height="30" fill="white" transform="translate(7 5)"/>
</clipPath>
</defs>
</svg>
