<svg width="57" height="50" viewBox="0 0 57 50" fill="none" xmlns="http://www.w3.org/2000/svg">
<path d="M28.3706 42C17.7926 42 9.2403 34.4 9.2403 25C9.2403 15.6 17.7926 8 28.3706 8C38.9485 8 47.5008 15.6 47.5008 25C47.5008 34.4 38.8359 42 28.3706 42ZM28.3706 10C19.0305 10 11.4909 16.7 11.4909 25C11.4909 33.3 19.0305 40 28.3706 40C37.7106 40 45.2502 33.3 45.2502 25C45.2502 16.7 37.5981 10 28.3706 10Z" fill="white"/>
<path d="M17.3425 37.3L15.317 36.5C15.8796 35.3 17.6801 34.6 19.5932 33.8C21.5062 33 23.8693 32.1 23.8693 31V29.5C23.1942 29 22.0688 27.9 21.8438 26.3C21.2811 25.8 20.3809 24.9 20.3809 23.7C20.3809 23 20.7185 22.4 20.9435 22C20.7185 21.2 20.4934 19.7 20.4934 18.5C20.4934 14.6 23.5317 12 28.3706 12C29.7209 12 31.4089 12.3 32.3092 13.2C34.4472 13.6 36.2477 15.8 36.2477 18.5C36.2477 20.2 35.9101 21.6 35.6851 22.3C35.9101 22.6 36.1352 23.1 36.1352 23.7C36.1352 25 35.3475 25.9 34.6723 26.3C34.4472 27.9 33.4345 28.9 32.7593 29.4V31C32.7593 31.9 34.7848 32.6 36.5853 33.2C38.7234 33.9 40.974 34.7 41.7617 36.3L39.6237 37C39.2861 36.2 37.4856 35.6 35.7976 35.1C33.3219 34.3 30.5087 33.4 30.5087 31.1V28.5L31.0713 28.2C31.0713 28.2 32.4217 27.4 32.4217 25.8V25.1L33.0969 24.8C33.2094 24.8 33.7721 24.5 33.7721 23.7C33.7721 23.5 33.547 23.2 33.4345 23.1L32.9843 22.7L33.2094 22.2C33.2094 22.2 33.7721 20.6 33.7721 18.6C33.7721 16.7 32.5342 15.3 31.5214 15.3H30.8463L30.5087 14.8C30.5087 14.4 29.7209 14 28.3706 14C24.8821 14 22.744 15.7 22.744 18.5C22.744 19.8 23.3067 22 23.3067 22L23.4192 22.5L22.9691 23C22.8566 23 22.6315 23.3 22.6315 23.7C22.6315 24.2 23.3067 24.8 23.6443 25L24.0944 25.3V25.8C24.0944 27.3 25.5573 28.1 25.5573 28.2L26.12 28.5V31.1C26.12 33.5 23.1942 34.7 20.4934 35.7C19.2556 36.1 17.5676 36.8 17.3425 37.3Z" fill="white"/>
</svg>
