<svg width="534" height="156" viewBox="0 0 534 156" fill="none" xmlns="http://www.w3.org/2000/svg">
<path d="M71.2059 60.6194C71.7485 60.6187 72.2686 60.3939 72.6523 59.9943C73.036 59.5946 73.2518 59.0528 73.2524 58.4876V54.9346H70.5237V57.777H55.5159C54.9733 57.7776 54.4531 58.0024 54.0695 58.4021C53.6858 58.8017 53.47 59.3436 53.4694 59.9088V63.4617H50.794C48.7904 63.4641 46.8695 64.2942 45.4528 65.77C44.036 67.2458 43.2391 69.2468 43.2368 71.3338V85.541C43.2368 92.1741 48.4173 97.5704 54.7851 97.5704H54.8824C61.2502 97.5704 66.4307 92.1741 66.4307 85.541V71.3338C66.4284 69.2468 65.6315 67.2458 64.2147 65.77C62.798 64.2942 60.8771 63.4641 58.8735 63.4617H56.1981V60.6194H71.2059ZM45.9655 71.3338C45.967 70.0003 46.4761 68.7219 47.3813 67.779C48.2865 66.836 49.5139 66.3056 50.794 66.3041H53.4694V74.1207H45.9655V71.3338ZM63.702 85.541C63.6994 87.9767 62.7693 90.3119 61.1159 92.0342C59.4625 93.7565 57.2207 94.7253 54.8824 94.7281H54.7851C52.4468 94.7253 50.205 93.7565 48.5516 92.0342C46.8982 90.3119 45.9681 87.9767 45.9655 85.541V76.9631H63.702V85.541ZM58.8735 66.3041C60.1536 66.3056 61.3809 66.836 62.2862 67.779C63.1914 68.7219 63.7005 70.0003 63.702 71.3338V74.1207H56.1981V66.3041H58.8735Z" fill="white"/>
<path d="M473.942 67.7395C474.484 67.7388 475.005 67.514 475.388 67.1144C475.772 66.7147 475.988 66.1729 475.988 65.6077V62.0547H473.26V64.8971H458.252C457.709 64.8977 457.189 65.1225 456.805 65.5222C456.422 65.9218 456.206 66.4637 456.205 67.0289V70.5819H453.53C451.526 70.5842 449.605 71.4143 448.189 72.8901C446.772 74.3659 445.975 76.3669 445.973 78.454V92.6611C445.973 99.2942 451.153 104.691 457.521 104.691H457.618C463.986 104.691 469.167 99.2942 469.167 92.6611V78.454C469.164 76.3669 468.367 74.3659 466.951 72.8901C465.534 71.4143 463.613 70.5842 461.609 70.5819H458.934V67.7395H473.942ZM448.701 78.454C448.703 77.1205 449.212 75.842 450.117 74.8991C451.022 73.9562 452.25 73.4258 453.53 73.4243H456.205V81.2408H448.701V78.454ZM466.438 92.6611C466.435 95.0968 465.505 97.432 463.852 99.1543C462.198 100.877 459.957 101.845 457.618 101.848H457.521C455.183 101.845 452.941 100.877 451.287 99.1543C449.634 97.432 448.704 95.0968 448.701 92.6611V84.0832H466.438V92.6611ZM461.609 73.4243C462.89 73.4258 464.117 73.9562 465.022 74.8991C465.927 75.842 466.436 77.1205 466.438 78.454V81.2408H458.934V73.4243H461.609Z" fill="white"/>
<path d="M448.701 78.454C448.703 77.1205 449.212 75.842 450.117 74.8991C451.022 73.9562 452.25 73.4258 453.53 73.4243H456.205V81.2408H448.701V78.454Z" fill="white"/>
<path d="M14.3448 34.9829L16.2595 25.0915H16.9801L19.7497 32.3688L22.5052 25.0915H23.2259L25.1476 34.9829H24.1373L22.6748 27.416L20.0606 34.3329H19.4247L16.8106 27.416L15.3481 34.9829H14.3448ZM29.39 35.1666C28.74 35.1666 28.1465 34.9994 27.6095 34.665C27.0773 34.3305 26.651 33.8831 26.3307 33.3226C26.0151 32.7573 25.8573 32.1332 25.8573 31.4503C25.8573 30.9321 25.9492 30.4493 26.1329 30.0019C26.3166 29.5497 26.5686 29.154 26.8889 28.8149C27.2139 28.4711 27.5907 28.2026 28.0193 28.0095C28.448 27.8163 28.9048 27.7198 29.39 27.7198C30.04 27.7198 30.6311 27.887 31.1634 28.2214C31.7003 28.5558 32.1266 29.0057 32.4422 29.5709C32.7625 30.1361 32.9226 30.7626 32.9226 31.4503C32.9226 31.9637 32.8308 32.4441 32.6471 32.8916C32.4634 33.3391 32.209 33.7347 31.884 34.0786C31.5637 34.4177 31.1893 34.6838 30.7607 34.8769C30.3367 35.07 29.8799 35.1666 29.39 35.1666ZM29.39 34.1775C29.8704 34.1775 30.3014 34.0526 30.6829 33.803C31.0692 33.5487 31.373 33.2142 31.5944 32.7997C31.8205 32.3852 31.9335 31.9354 31.9335 31.4503C31.9335 30.9557 31.8205 30.5012 31.5944 30.0867C31.3683 29.6675 31.0621 29.333 30.6759 29.0834C30.2944 28.8338 29.8657 28.7089 29.39 28.7089C28.9096 28.7089 28.4762 28.8361 28.09 29.0905C27.7085 29.3401 27.4046 29.6722 27.1786 30.0867C26.9572 30.5012 26.8465 30.9557 26.8465 31.4503C26.8465 31.959 26.9619 32.4206 27.1927 32.8351C27.4235 33.2448 27.732 33.5722 28.1182 33.8171C28.5045 34.0574 28.9284 34.1775 29.39 34.1775ZM37.2283 34.9829H35.9707L33.3918 27.8964H34.4445L36.5995 33.8242L38.7544 27.8964H39.8071L37.2283 34.9829ZM40.9776 27.9176H41.9668V34.9829H40.9776V27.9176ZM41.4793 26.6812C41.3191 26.6812 41.1825 26.6294 41.0695 26.5258C40.9611 26.4174 40.907 26.2832 40.907 26.123C40.907 25.9629 40.9611 25.831 41.0695 25.7274C41.1825 25.619 41.3191 25.5649 41.4793 25.5649C41.6347 25.5649 41.7666 25.619 41.8749 25.7274C41.988 25.831 42.0445 25.9629 42.0445 26.123C42.0445 26.2832 41.9903 26.4174 41.882 26.5258C41.7736 26.6294 41.6394 26.6812 41.4793 26.6812ZM43.6409 34.9829V27.9176H44.63V28.8926C44.8844 28.5347 45.2094 28.2497 45.6051 28.0377C46.0007 27.8258 46.4341 27.7198 46.9051 27.7198C47.4373 27.7198 47.9248 27.8517 48.3676 28.1154C48.8103 28.3745 49.1565 28.7207 49.4062 29.154C49.6558 28.7207 49.9997 28.3745 50.4377 28.1154C50.8758 27.8517 51.3609 27.7198 51.8932 27.7198C52.4254 27.7198 52.9106 27.8493 53.3486 28.1084C53.7867 28.3674 54.1352 28.716 54.3943 29.154C54.6533 29.5921 54.7829 30.0772 54.7829 30.6095V34.9829H53.7937V30.8285C53.7937 30.4517 53.7019 30.1031 53.5182 29.7829C53.3345 29.4626 53.0872 29.2059 52.7763 29.0127C52.4702 28.8149 52.1287 28.716 51.7519 28.716C51.375 28.716 51.0312 28.8078 50.7203 28.9915C50.4142 29.1705 50.1692 29.4202 49.9855 29.7405C49.8018 30.056 49.71 30.4187 49.71 30.8285V34.9829H48.7209V30.8285C48.7209 30.4187 48.629 30.056 48.4453 29.7405C48.2616 29.4202 48.0143 29.1705 47.7035 28.9915C47.3926 28.8078 47.0487 28.716 46.6719 28.716C46.2998 28.716 45.9583 28.8149 45.6475 29.0127C45.3366 29.2059 45.0893 29.4626 44.9056 29.7829C44.7219 30.1031 44.63 30.4517 44.63 30.8285V34.9829H43.6409ZM56.1984 27.9176H57.1875V34.9829H56.1984V27.9176ZM56.7 26.6812C56.5398 26.6812 56.4033 26.6294 56.2902 26.5258C56.1819 26.4174 56.1277 26.2832 56.1277 26.123C56.1277 25.9629 56.1819 25.831 56.2902 25.7274C56.4033 25.619 56.5398 25.5649 56.7 25.5649C56.8554 25.5649 56.9873 25.619 57.0957 25.7274C57.2087 25.831 57.2652 25.9629 57.2652 26.123C57.2652 26.2832 57.2111 26.4174 57.1027 26.5258C56.9944 26.6294 56.8601 26.6812 56.7 26.6812ZM61.929 35.1666C61.279 35.1666 60.6855 34.9994 60.1485 34.665C59.6163 34.3305 59.19 33.8831 58.8697 33.3226C58.5541 32.7573 58.3963 32.1332 58.3963 31.4503C58.3963 30.9321 58.4882 30.4493 58.6719 30.0019C58.8556 29.5497 59.1076 29.154 59.4279 28.8149C59.7529 28.4711 60.1297 28.2026 60.5583 28.0095C60.9869 27.8163 61.4438 27.7198 61.929 27.7198C62.4518 27.7198 62.9322 27.8234 63.3703 28.0307C63.8131 28.2379 64.1922 28.5276 64.5078 28.8997C64.8281 29.2718 65.0683 29.7075 65.2285 30.2068C65.3933 30.7061 65.4616 31.2454 65.4334 31.8247H59.442C59.4985 32.2722 59.6398 32.6726 59.8659 33.0258C60.0967 33.3791 60.3887 33.6593 60.742 33.8666C61.1 34.0691 61.4956 34.1728 61.929 34.1775C62.4 34.1775 62.8239 34.055 63.2007 33.8101C63.5823 33.5651 63.8884 33.2284 64.1192 32.7997L65.1225 33.0329C64.8399 33.6593 64.4136 34.1728 63.8437 34.5731C63.2737 34.9688 62.6355 35.1666 61.929 35.1666ZM59.4137 31.0263H64.4372C64.4042 30.5883 64.2699 30.1879 64.0344 29.8252C63.8036 29.4579 63.5045 29.1658 63.1371 28.9492C62.7697 28.7278 62.367 28.6171 61.929 28.6171C61.4909 28.6171 61.0906 28.7254 60.7279 28.9421C60.3652 29.154 60.0684 29.4437 59.8376 29.8111C59.6068 30.1738 59.4655 30.5789 59.4137 31.0263ZM72.8054 30.6095V34.9829H71.8163V30.8073C71.8163 30.4211 71.7221 30.0702 71.5337 29.7546C71.3453 29.439 71.0933 29.187 70.7777 28.9986C70.4621 28.8102 70.1112 28.716 69.725 28.716C69.3434 28.716 68.9925 28.8102 68.6722 28.9986C68.3567 29.187 68.1047 29.439 67.9163 29.7546C67.7279 30.0702 67.6336 30.4211 67.6336 30.8073V34.9829H66.6445V27.9176H67.6336V28.8926C67.8833 28.5347 68.2083 28.2497 68.6087 28.0377C69.009 27.8258 69.4447 27.7198 69.9157 27.7198C70.448 27.7198 70.9331 27.8493 71.3712 28.1084C71.8092 28.3674 72.1578 28.716 72.4169 29.154C72.6759 29.5921 72.8054 30.0772 72.8054 30.6095ZM77.8307 28.9068H76.1421L76.1351 34.9829H75.1459L75.153 28.9068H73.8742V27.9176H75.153L75.1459 25.6991H76.1351L76.1421 27.9176H77.8307V28.9068ZM82.0071 35.1666C81.3571 35.1666 80.7636 34.9994 80.2266 34.665C79.6944 34.3305 79.2681 33.8831 78.9478 33.3226C78.6322 32.7573 78.4745 32.1332 78.4745 31.4503C78.4745 30.9321 78.5663 30.4493 78.75 30.0019C78.9337 29.5497 79.1857 29.154 79.506 28.8149C79.831 28.4711 80.2078 28.2026 80.6364 28.0095C81.0651 27.8163 81.522 27.7198 82.0071 27.7198C82.6571 27.7198 83.2482 27.887 83.7805 28.2214C84.3175 28.5558 84.7437 29.0057 85.0593 29.5709C85.3796 30.1361 85.5397 30.7626 85.5397 31.4503C85.5397 31.9637 85.4479 32.4441 85.2642 32.8916C85.0805 33.3391 84.8262 33.7347 84.5011 34.0786C84.1809 34.4177 83.8064 34.6838 83.3778 34.8769C82.9539 35.07 82.497 35.1666 82.0071 35.1666ZM82.0071 34.1775C82.4875 34.1775 82.9185 34.0526 83.3 33.803C83.6863 33.5487 83.9901 33.2142 84.2115 32.7997C84.4376 32.3852 84.5506 31.9354 84.5506 31.4503C84.5506 30.9557 84.4376 30.5012 84.2115 30.0867C83.9854 29.6675 83.6792 29.333 83.293 29.0834C82.9115 28.8338 82.4828 28.7089 82.0071 28.7089C81.5267 28.7089 81.0933 28.8361 80.7071 29.0905C80.3256 29.3401 80.0218 29.6722 79.7957 30.0867C79.5743 30.5012 79.4636 30.9557 79.4636 31.4503C79.4636 31.959 79.579 32.4206 79.8098 32.8351C80.0406 33.2448 80.3491 33.5722 80.7353 33.8171C81.1216 34.0574 81.5455 34.1775 82.0071 34.1775ZM88.9334 35.1172C88.5472 35.1077 88.1704 35.0371 87.803 34.9052C87.4356 34.7733 87.1153 34.5943 86.8421 34.3682C86.5689 34.1421 86.3734 33.8854 86.2557 33.5981L87.1106 33.2307C87.1859 33.4144 87.3249 33.584 87.5274 33.7394C87.7347 33.8901 87.9702 34.0126 88.2339 34.1068C88.4977 34.1963 88.7591 34.2411 89.0182 34.2411C89.3055 34.2411 89.574 34.194 89.8236 34.0997C90.0733 34.0055 90.2758 33.8713 90.4312 33.697C90.5914 33.518 90.6715 33.3084 90.6715 33.0682C90.6715 32.8092 90.5867 32.6066 90.4171 32.4606C90.2476 32.3099 90.0332 32.1921 89.7742 32.1073C89.5151 32.0178 89.249 31.9331 88.9758 31.853C88.4765 31.7164 88.0361 31.5657 87.6546 31.4008C87.2731 31.2359 86.974 31.0263 86.7573 30.772C86.5453 30.5129 86.4394 30.1809 86.4394 29.7758C86.4394 29.3472 86.5595 28.9774 86.7997 28.6665C87.0446 28.351 87.3626 28.1084 87.7535 27.9388C88.1492 27.7645 88.5707 27.6774 89.0182 27.6774C89.5928 27.6774 90.1157 27.8022 90.5867 28.0519C91.0624 28.3015 91.4063 28.6336 91.6182 29.0481L90.8198 29.5214C90.7351 29.3283 90.6008 29.1611 90.4171 29.0198C90.2334 28.8785 90.0238 28.7678 89.7883 28.6877C89.5575 28.6077 89.322 28.5653 89.0818 28.5606C88.7803 28.5558 88.5001 28.6006 88.241 28.6948C87.9819 28.7843 87.7723 28.9185 87.6122 29.0975C87.4568 29.2765 87.379 29.4955 87.379 29.7546C87.379 30.0137 87.4568 30.2115 87.6122 30.3481C87.7676 30.48 87.9772 30.5883 88.241 30.6731C88.5095 30.7532 88.8109 30.8474 89.1454 30.9557C89.574 31.0923 89.9767 31.2477 90.3535 31.422C90.7303 31.5963 91.0342 31.8129 91.265 32.072C91.4958 32.3311 91.6088 32.6584 91.6041 33.0541C91.6041 33.478 91.4769 33.8478 91.2226 34.1633C90.9682 34.4789 90.6385 34.7215 90.2334 34.8911C89.8283 35.0559 89.395 35.1313 88.9334 35.1172ZM102.378 30.6095V34.9829H101.388V30.8073C101.388 30.4211 101.294 30.0702 101.106 29.7546C100.917 29.439 100.665 29.187 100.35 28.9986C100.034 28.8102 99.6833 28.716 99.2971 28.716C98.9156 28.716 98.5646 28.8102 98.2444 28.9986C97.9288 29.187 97.6768 29.439 97.4884 29.7546C97.3 30.0702 97.2058 30.4211 97.2058 30.8073V34.9829H96.2166V24.385H97.2058V28.8926C97.4554 28.5347 97.7804 28.2497 98.1808 28.0377C98.5811 27.8258 99.0168 27.7198 99.4878 27.7198C100.02 27.7198 100.505 27.8493 100.943 28.1084C101.381 28.3674 101.73 28.716 101.989 29.154C102.248 29.5921 102.378 30.0772 102.378 30.6095ZM106.763 35.1666C106.113 35.1666 105.52 34.9994 104.983 34.665C104.451 34.3305 104.024 33.8831 103.704 33.3226C103.388 32.7573 103.231 32.1332 103.231 31.4503C103.231 30.9321 103.322 30.4493 103.506 30.0019C103.69 29.5497 103.942 29.154 104.262 28.8149C104.587 28.4711 104.964 28.2026 105.393 28.0095C105.821 27.8163 106.278 27.7198 106.763 27.7198C107.413 27.7198 108.004 27.887 108.537 28.2214C109.074 28.5558 109.5 29.0057 109.815 29.5709C110.136 30.1361 110.296 30.7626 110.296 31.4503C110.296 31.9637 110.204 32.4441 110.02 32.8916C109.837 33.3391 109.582 33.7347 109.257 34.0786C108.937 34.4177 108.563 34.6838 108.134 34.8769C107.71 35.07 107.253 35.1666 106.763 35.1666ZM106.763 34.1775C107.244 34.1775 107.675 34.0526 108.056 33.803C108.442 33.5487 108.746 33.2142 108.968 32.7997C109.194 32.3852 109.307 31.9354 109.307 31.4503C109.307 30.9557 109.194 30.5012 108.968 30.0867C108.742 29.6675 108.435 29.333 108.049 29.0834C107.668 28.8338 107.239 28.7089 106.763 28.7089C106.283 28.7089 105.849 28.8361 105.463 29.0905C105.082 29.3401 104.778 29.6722 104.552 30.0867C104.33 30.5012 104.22 30.9557 104.22 31.4503C104.22 31.959 104.335 32.4206 104.566 32.8351C104.797 33.2448 105.105 33.5722 105.491 33.8171C105.878 34.0574 106.302 34.1775 106.763 34.1775ZM111.493 34.9829V27.9176H112.482V28.8926C112.731 28.5347 113.056 28.2497 113.457 28.0377C113.857 27.8258 114.293 27.7198 114.764 27.7198C115.037 27.7198 115.301 27.7551 115.555 27.8258L115.152 28.8078C114.955 28.7466 114.761 28.716 114.573 28.716C114.191 28.716 113.841 28.8102 113.52 28.9986C113.205 29.187 112.953 29.439 112.764 29.7546C112.576 30.0702 112.482 30.4211 112.482 30.8073V34.9829H111.493ZM116.447 27.9176H117.436V34.9829H116.447V27.9176ZM116.948 26.6812C116.788 26.6812 116.651 26.6294 116.538 26.5258C116.43 26.4174 116.376 26.2832 116.376 26.123C116.376 25.9629 116.43 25.831 116.538 25.7274C116.651 25.619 116.788 25.5649 116.948 25.5649C117.104 25.5649 117.235 25.619 117.344 25.7274C117.457 25.831 117.513 25.9629 117.513 26.123C117.513 26.2832 117.459 26.4174 117.351 26.5258C117.243 26.6294 117.108 26.6812 116.948 26.6812ZM124.889 28.9068L120.254 33.9938H124.889V34.9829H118.855V33.9938L123.49 28.9068H118.855V27.9176H124.889V28.9068ZM129.339 35.1666C128.689 35.1666 128.096 34.9994 127.559 34.665C127.026 34.3305 126.6 33.8831 126.28 33.3226C125.964 32.7573 125.806 32.1332 125.806 31.4503C125.806 30.9321 125.898 30.4493 126.082 30.0019C126.266 29.5497 126.518 29.154 126.838 28.8149C127.163 28.4711 127.54 28.2026 127.968 28.0095C128.397 27.8163 128.854 27.7198 129.339 27.7198C129.989 27.7198 130.58 27.887 131.112 28.2214C131.649 28.5558 132.076 29.0057 132.391 29.5709C132.712 30.1361 132.872 30.7626 132.872 31.4503C132.872 31.9637 132.78 32.4441 132.596 32.8916C132.412 33.3391 132.158 33.7347 131.833 34.0786C131.513 34.4177 131.138 34.6838 130.71 34.8769C130.286 35.07 129.829 35.1666 129.339 35.1666ZM129.339 34.1775C129.819 34.1775 130.25 34.0526 130.632 33.803C131.018 33.5487 131.322 33.2142 131.543 32.7997C131.77 32.3852 131.883 31.9354 131.883 31.4503C131.883 30.9557 131.77 30.5012 131.543 30.0867C131.317 29.6675 131.011 29.333 130.625 29.0834C130.243 28.8338 129.815 28.7089 129.339 28.7089C128.859 28.7089 128.425 28.8361 128.039 29.0905C127.658 29.3401 127.354 29.6722 127.128 30.0867C126.906 30.5012 126.796 30.9557 126.796 31.4503C126.796 31.959 126.911 32.4206 127.142 32.8351C127.373 33.2448 127.681 33.5722 128.067 33.8171C128.454 34.0574 128.877 34.1775 129.339 34.1775ZM140.229 30.6095V34.9829H139.24V30.8073C139.24 30.4211 139.146 30.0702 138.958 29.7546C138.769 29.439 138.517 29.187 138.202 28.9986C137.886 28.8102 137.535 28.716 137.149 28.716C136.767 28.716 136.416 28.8102 136.096 28.9986C135.781 29.187 135.529 29.439 135.34 29.7546C135.152 30.0702 135.058 30.4211 135.058 30.8073V34.9829H134.068V27.9176H135.058V28.8926C135.307 28.5347 135.632 28.2497 136.033 28.0377C136.433 27.8258 136.869 27.7198 137.34 27.7198C137.872 27.7198 138.357 27.8493 138.795 28.1084C139.233 28.3674 139.582 28.716 139.841 29.154C140.1 29.5921 140.229 30.0772 140.229 30.6095ZM145.255 28.9068H143.566L143.559 34.9829H142.57L142.577 28.9068H141.298V27.9176H142.577L142.57 25.6991H143.559L143.566 27.9176H145.255V28.9068ZM152.13 27.9176H153.119V34.9829H152.13L152.095 33.6688C151.864 34.1162 151.541 34.4789 151.127 34.7568C150.712 35.03 150.218 35.1666 149.643 35.1666C149.125 35.1666 148.64 35.07 148.187 34.8769C147.735 34.6791 147.337 34.4083 146.993 34.0644C146.65 33.7206 146.381 33.3226 146.188 32.8704C145.995 32.4182 145.898 31.9331 145.898 31.4149C145.898 30.9062 145.993 30.4282 146.181 29.9807C146.374 29.5332 146.638 29.1399 146.972 28.8008C147.311 28.4616 147.702 28.1979 148.145 28.0095C148.593 27.8163 149.071 27.7198 149.579 27.7198C150.168 27.7198 150.682 27.8611 151.12 28.1437C151.558 28.4216 151.906 28.7866 152.165 29.2388L152.13 27.9176ZM149.622 34.2057C150.126 34.2057 150.559 34.0833 150.922 33.8383C151.284 33.5887 151.562 33.2543 151.755 32.8351C151.953 32.4159 152.052 31.9543 152.052 31.4503C152.052 30.9321 151.953 30.4658 151.755 30.0513C151.558 29.6321 151.277 29.3001 150.915 29.0551C150.552 28.8102 150.121 28.6877 149.622 28.6877C149.122 28.6877 148.666 28.8126 148.251 29.0622C147.841 29.3071 147.514 29.6392 147.269 30.0584C147.029 30.4776 146.909 30.9416 146.909 31.4503C146.909 31.9637 147.033 32.43 147.283 32.8492C147.533 33.2637 147.862 33.5934 148.272 33.8383C148.687 34.0833 149.137 34.2057 149.622 34.2057ZM154.629 34.9829V24.385H155.619V34.9829H154.629ZM160.374 35.1666C159.724 35.1666 159.13 34.9994 158.593 34.665C158.061 34.3305 157.635 33.8831 157.315 33.3226C156.999 32.7573 156.841 32.1332 156.841 31.4503C156.841 30.9321 156.933 30.4493 157.117 30.0019C157.3 29.5497 157.552 29.154 157.873 28.8149C158.198 28.4711 158.575 28.2026 159.003 28.0095C159.432 27.8163 159.889 27.7198 160.374 27.7198C160.897 27.7198 161.377 27.8234 161.815 28.0307C162.258 28.2379 162.637 28.5276 162.953 28.8997C163.273 29.2718 163.513 29.7075 163.673 30.2068C163.838 30.7061 163.907 31.2454 163.878 31.8247H157.887C157.943 32.2722 158.085 32.6726 158.311 33.0258C158.542 33.3791 158.834 33.6593 159.187 33.8666C159.545 34.0691 159.941 34.1728 160.374 34.1775C160.845 34.1775 161.269 34.055 161.646 33.8101C162.027 33.5651 162.333 33.2284 162.564 32.7997L163.567 33.0329C163.285 33.6593 162.859 34.1728 162.289 34.5731C161.719 34.9688 161.08 35.1666 160.374 35.1666ZM157.859 31.0263H162.882C162.849 30.5883 162.715 30.1879 162.479 29.8252C162.249 29.4579 161.949 29.1658 161.582 28.9492C161.215 28.7278 160.812 28.6171 160.374 28.6171C159.936 28.6171 159.535 28.7254 159.173 28.9421C158.81 29.154 158.513 29.4437 158.283 29.8111C158.052 30.1738 157.91 30.5789 157.859 31.0263ZM167.286 35.1172C166.9 35.1077 166.523 35.0371 166.156 34.9052C165.789 34.7733 165.468 34.5943 165.195 34.3682C164.922 34.1421 164.726 33.8854 164.609 33.5981L165.464 33.2307C165.539 33.4144 165.678 33.584 165.88 33.7394C166.088 33.8901 166.323 34.0126 166.587 34.1068C166.851 34.1963 167.112 34.2411 167.371 34.2411C167.659 34.2411 167.927 34.194 168.177 34.0997C168.426 34.0055 168.629 33.8713 168.784 33.697C168.944 33.518 169.024 33.3084 169.024 33.0682C169.024 32.8092 168.94 32.6066 168.77 32.4606C168.601 32.3099 168.386 32.1921 168.127 32.1073C167.868 32.0178 167.602 31.9331 167.329 31.853C166.83 31.7164 166.389 31.5657 166.008 31.4008C165.626 31.2359 165.327 31.0263 165.11 30.772C164.898 30.5129 164.792 30.1809 164.792 29.7758C164.792 29.3472 164.912 28.9774 165.153 28.6665C165.398 28.351 165.716 28.1084 166.106 27.9388C166.502 27.7645 166.924 27.6774 167.371 27.6774C167.946 27.6774 168.469 27.8022 168.94 28.0519C169.415 28.3015 169.759 28.6336 169.971 29.0481L169.173 29.5214C169.088 29.3283 168.954 29.1611 168.77 29.0198C168.586 28.8785 168.377 28.7678 168.141 28.6877C167.91 28.6077 167.675 28.5653 167.435 28.5606C167.133 28.5558 166.853 28.6006 166.594 28.6948C166.335 28.7843 166.125 28.9185 165.965 29.0975C165.81 29.2765 165.732 29.4955 165.732 29.7546C165.732 30.0137 165.81 30.2115 165.965 30.3481C166.121 30.48 166.33 30.5883 166.594 30.6731C166.862 30.7532 167.164 30.8474 167.498 30.9557C167.927 31.0923 168.33 31.2477 168.707 31.422C169.083 31.5963 169.387 31.8129 169.618 32.072C169.849 32.3311 169.962 32.6584 169.957 33.0541C169.957 33.478 169.83 33.8478 169.576 34.1633C169.321 34.4789 168.991 34.7215 168.586 34.8911C168.181 35.0559 167.748 35.1313 167.286 35.1172ZM177.678 35.1666C177.028 35.1666 176.435 34.9994 175.898 34.665C175.366 34.3305 174.939 33.8831 174.619 33.3226C174.303 32.7573 174.146 32.1332 174.146 31.4503C174.146 30.9321 174.238 30.4493 174.421 30.0019C174.605 29.5497 174.857 29.154 175.177 28.8149C175.502 28.4711 175.879 28.2026 176.308 28.0095C176.736 27.8163 177.193 27.7198 177.678 27.7198C178.201 27.7198 178.682 27.8234 179.12 28.0307C179.562 28.2379 179.942 28.5276 180.257 28.8997C180.577 29.2718 180.818 29.7075 180.978 30.2068C181.143 30.7061 181.211 31.2454 181.183 31.8247H175.191C175.248 32.2722 175.389 32.6726 175.615 33.0258C175.846 33.3791 176.138 33.6593 176.491 33.8666C176.849 34.0691 177.245 34.1728 177.678 34.1775C178.149 34.1775 178.573 34.055 178.95 33.8101C179.332 33.5651 179.638 33.2284 179.869 32.7997L180.872 33.0329C180.589 33.6593 180.163 34.1728 179.593 34.5731C179.023 34.9688 178.385 35.1666 177.678 35.1666ZM175.163 31.0263H180.187C180.154 30.5883 180.019 30.1879 179.784 29.8252C179.553 29.4579 179.254 29.1658 178.886 28.9492C178.519 28.7278 178.116 28.6171 177.678 28.6171C177.24 28.6171 176.84 28.7254 176.477 28.9421C176.115 29.154 175.818 29.4437 175.587 29.8111C175.356 30.1738 175.215 30.5789 175.163 31.0263ZM188.555 30.6095V34.9829H187.566V30.8073C187.566 30.4211 187.471 30.0702 187.283 29.7546C187.095 29.439 186.843 29.187 186.527 28.9986C186.211 28.8102 185.861 28.716 185.474 28.716C185.093 28.716 184.742 28.8102 184.422 28.9986C184.106 29.187 183.854 29.439 183.666 29.7546C183.477 30.0702 183.383 30.4211 183.383 30.8073V34.9829H182.394V27.9176H183.383V28.8926C183.633 28.5347 183.958 28.2497 184.358 28.0377C184.758 27.8258 185.194 27.7198 185.665 27.7198C186.197 27.7198 186.683 27.8493 187.121 28.1084C187.559 28.3674 187.907 28.716 188.166 29.154C188.425 29.5921 188.555 30.0772 188.555 30.6095ZM196.473 35.1666C195.823 35.1666 195.23 34.9994 194.693 34.665C194.16 34.3305 193.734 33.8831 193.414 33.3226C193.098 32.7573 192.94 32.1332 192.94 31.4503C192.94 30.9321 193.032 30.4493 193.216 30.0019C193.4 29.5497 193.652 29.154 193.972 28.8149C194.297 28.4711 194.674 28.2026 195.102 28.0095C195.531 27.8163 195.988 27.7198 196.473 27.7198C196.996 27.7198 197.476 27.8234 197.914 28.0307C198.357 28.2379 198.736 28.5276 199.052 28.8997C199.372 29.2718 199.612 29.7075 199.773 30.2068C199.937 30.7061 200.006 31.2454 199.978 31.8247H193.986C194.043 32.2722 194.184 32.6726 194.41 33.0258C194.641 33.3791 194.933 33.6593 195.286 33.8666C195.644 34.0691 196.04 34.1728 196.473 34.1775C196.944 34.1775 197.368 34.055 197.745 33.8101C198.126 33.5651 198.433 33.2284 198.663 32.7997L199.667 33.0329C199.384 33.6593 198.958 34.1728 198.388 34.5731C197.818 34.9688 197.18 35.1666 196.473 35.1666ZM193.958 31.0263H198.981C198.948 30.5883 198.814 30.1879 198.579 29.8252C198.348 29.4579 198.049 29.1658 197.681 28.9492C197.314 28.7278 196.911 28.6171 196.473 28.6171C196.035 28.6171 195.635 28.7254 195.272 28.9421C194.909 29.154 194.613 29.4437 194.382 29.8111C194.151 30.1738 194.01 30.5789 193.958 31.0263ZM201.133 34.9829V24.385H202.123V34.9829H201.133ZM210.829 28.9068H209.141L209.134 34.9829H208.145L208.152 28.9068H206.873V27.9176H208.152L208.145 25.6991H209.134L209.141 27.9176H210.829V28.9068ZM217.705 27.9176H218.694V34.9829H217.705L217.669 33.6688C217.439 34.1162 217.116 34.4789 216.701 34.7568C216.287 35.03 215.792 35.1666 215.218 35.1666C214.7 35.1666 214.214 35.07 213.762 34.8769C213.31 34.6791 212.912 34.4083 212.568 34.0644C212.224 33.7206 211.956 33.3226 211.763 32.8704C211.57 32.4182 211.473 31.9331 211.473 31.4149C211.473 30.9062 211.567 30.4282 211.756 29.9807C211.949 29.5332 212.213 29.1399 212.547 28.8008C212.886 28.4616 213.277 28.1979 213.72 28.0095C214.167 27.8163 214.645 27.7198 215.154 27.7198C215.743 27.7198 216.256 27.8611 216.694 28.1437C217.132 28.4216 217.481 28.7866 217.74 29.2388L217.705 27.9176ZM215.196 34.2057C215.7 34.2057 216.134 34.0833 216.496 33.8383C216.859 33.5887 217.137 33.2543 217.33 32.8351C217.528 32.4159 217.627 31.9543 217.627 31.4503C217.627 30.9321 217.528 30.4658 217.33 30.0513C217.132 29.6321 216.852 29.3001 216.489 29.0551C216.127 28.8102 215.696 28.6877 215.196 28.6877C214.697 28.6877 214.24 28.8126 213.826 29.0622C213.416 29.3071 213.089 29.6392 212.844 30.0584C212.604 30.4776 212.483 30.9416 212.483 31.4503C212.483 31.9637 212.608 32.43 212.858 32.8492C213.108 33.2637 213.437 33.5934 213.847 33.8383C214.262 34.0833 214.711 34.2057 215.196 34.2057ZM223.709 27.7198C224.396 27.7198 225.02 27.887 225.581 28.2214C226.146 28.5558 226.596 29.0057 226.93 29.5709C227.265 30.1314 227.432 30.7555 227.432 31.4432C227.432 31.9566 227.335 32.4394 227.142 32.8916C226.949 33.3391 226.681 33.7347 226.337 34.0786C225.998 34.4177 225.602 34.6838 225.15 34.8769C224.702 35.07 224.222 35.1666 223.709 35.1666C223.125 35.1666 222.621 35.0277 222.197 34.7498C221.773 34.4719 221.438 34.1092 221.193 33.6617V34.9829H220.204V24.385H221.193V29.2247C221.438 28.7772 221.773 28.4145 222.197 28.1366C222.621 27.8587 223.125 27.7198 223.709 27.7198ZM223.702 34.1987C224.206 34.1987 224.662 34.0762 225.072 33.8313C225.482 33.5816 225.809 33.2472 226.054 32.828C226.299 32.4088 226.422 31.9472 226.422 31.4432C226.422 30.9251 226.297 30.4588 226.047 30.0443C225.798 29.6251 225.466 29.293 225.051 29.0481C224.641 28.8031 224.191 28.6807 223.702 28.6807C223.202 28.6807 222.769 28.8055 222.402 29.0551C222.039 29.3048 221.759 29.6392 221.561 30.0584C221.368 30.4776 221.271 30.9392 221.271 31.4432C221.271 31.9566 221.37 32.4229 221.568 32.8421C221.766 33.2566 222.046 33.5863 222.409 33.8313C222.776 34.0762 223.207 34.1987 223.702 34.1987ZM228.58 34.9829V24.385H229.57V34.9829H228.58ZM234.325 35.1666C233.675 35.1666 233.081 34.9994 232.544 34.665C232.012 34.3305 231.586 33.8831 231.266 33.3226C230.95 32.7573 230.792 32.1332 230.792 31.4503C230.792 30.9321 230.884 30.4493 231.068 30.0019C231.251 29.5497 231.503 29.154 231.824 28.8149C232.149 28.4711 232.526 28.2026 232.954 28.0095C233.383 27.8163 233.84 27.7198 234.325 27.7198C234.848 27.7198 235.328 27.8234 235.766 28.0307C236.209 28.2379 236.588 28.5276 236.904 28.8997C237.224 29.2718 237.464 29.7075 237.624 30.2068C237.789 30.7061 237.858 31.2454 237.829 31.8247H231.838C231.894 32.2722 232.036 32.6726 232.262 33.0258C232.493 33.3791 232.785 33.6593 233.138 33.8666C233.496 34.0691 233.892 34.1728 234.325 34.1775C234.796 34.1775 235.22 34.055 235.597 33.8101C235.978 33.5651 236.284 33.2284 236.515 32.7997L237.518 33.0329C237.236 33.6593 236.809 34.1728 236.24 34.5731C235.67 34.9688 235.031 35.1666 234.325 35.1666ZM231.81 31.0263H236.833C236.8 30.5883 236.666 30.1879 236.43 29.8252C236.2 29.4579 235.9 29.1658 235.533 28.9492C235.166 28.7278 234.763 28.6171 234.325 28.6171C233.887 28.6171 233.486 28.7254 233.124 28.9421C232.761 29.154 232.464 29.4437 232.234 29.8111C232.003 30.1738 231.861 30.5789 231.81 31.0263ZM239.04 34.9829V27.9176H240.03V28.8926C240.279 28.5347 240.604 28.2497 241.005 28.0377C241.405 27.8258 241.841 27.7198 242.312 27.7198C242.585 27.7198 242.849 27.7551 243.103 27.8258L242.7 28.8078C242.502 28.7466 242.309 28.716 242.121 28.716C241.739 28.716 241.388 28.8102 241.068 28.9986C240.753 29.187 240.501 29.439 240.312 29.7546C240.124 30.0702 240.03 30.4211 240.03 30.8073V34.9829H239.04ZM246.731 35.1666C246.081 35.1666 245.487 34.9994 244.95 34.665C244.418 34.3305 243.992 33.8831 243.671 33.3226C243.356 32.7573 243.198 32.1332 243.198 31.4503C243.198 30.9321 243.29 30.4493 243.473 30.0019C243.657 29.5497 243.909 29.154 244.229 28.8149C244.554 28.4711 244.931 28.2026 245.36 28.0095C245.788 27.8163 246.245 27.7198 246.731 27.7198C247.381 27.7198 247.972 27.887 248.504 28.2214C249.041 28.5558 249.467 29.0057 249.783 29.5709C250.103 30.1361 250.263 30.7626 250.263 31.4503C250.263 31.9637 250.171 32.4441 249.988 32.8916C249.804 33.3391 249.55 33.7347 249.225 34.0786C248.904 34.4177 248.53 34.6838 248.101 34.8769C247.677 35.07 247.22 35.1666 246.731 35.1666ZM246.731 34.1775C247.211 34.1775 247.642 34.0526 248.023 33.803C248.41 33.5487 248.714 33.2142 248.935 32.7997C249.161 32.3852 249.274 31.9354 249.274 31.4503C249.274 30.9557 249.161 30.5012 248.935 30.0867C248.709 29.6675 248.403 29.333 248.016 29.0834C247.635 28.8338 247.206 28.7089 246.731 28.7089C246.25 28.7089 245.817 28.8361 245.431 29.0905C245.049 29.3401 244.745 29.6722 244.519 30.0867C244.298 30.5012 244.187 30.9557 244.187 31.4503C244.187 31.959 244.302 32.4206 244.533 32.8351C244.764 33.2448 245.073 33.5722 245.459 33.8171C245.845 34.0574 246.269 34.1775 246.731 34.1775ZM251.804 29.0481C251.649 29.0481 251.517 28.9939 251.409 28.8856C251.3 28.7725 251.246 28.6359 251.246 28.4758C251.246 28.325 251.3 28.1955 251.409 28.0872C251.517 27.9741 251.649 27.9176 251.804 27.9176C251.965 27.9176 252.099 27.9741 252.207 28.0872C252.32 28.1955 252.377 28.325 252.377 28.4758C252.377 28.6359 252.32 28.7725 252.207 28.8856C252.099 28.9939 251.965 29.0481 251.804 29.0481ZM251.804 35.1666C251.649 35.1666 251.517 35.1101 251.409 34.997C251.3 34.8887 251.246 34.7545 251.246 34.5943C251.246 34.4436 251.3 34.3141 251.409 34.2057C251.517 34.0927 251.649 34.0362 251.804 34.0362C251.965 34.0362 252.099 34.0927 252.207 34.2057C252.32 34.3141 252.377 34.4436 252.377 34.5943C252.377 34.7545 252.32 34.8887 252.207 34.997C252.099 35.1101 251.965 35.1666 251.804 35.1666Z" fill="white"/>
<path d="M21.5642 126.982L23.0002 119.564H23.5407L25.6179 125.022L27.6845 119.564H28.225L29.6663 126.982H28.9085L27.8116 121.307L25.851 126.495H25.3741L23.4135 121.307L22.3166 126.982H21.5642ZM32.8481 127.12C32.3606 127.12 31.9154 126.995 31.5127 126.744C31.1135 126.493 30.7938 126.158 30.5536 125.737C30.3169 125.313 30.1986 124.845 30.1986 124.333C30.1986 123.944 30.2675 123.582 30.4052 123.247C30.543 122.908 30.732 122.611 30.9722 122.356C31.216 122.099 31.4986 121.897 31.8201 121.752C32.1415 121.608 32.4842 121.535 32.8481 121.535C33.3356 121.535 33.7789 121.66 34.1781 121.911C34.5808 122.162 34.9005 122.499 35.1372 122.923C35.3774 123.347 35.4976 123.817 35.4976 124.333C35.4976 124.718 35.4287 125.078 35.2909 125.414C35.1531 125.75 34.9624 126.046 34.7186 126.304C34.4784 126.559 34.1975 126.758 33.8761 126.903C33.5581 127.048 33.2155 127.12 32.8481 127.12ZM32.8481 126.378C33.2084 126.378 33.5316 126.285 33.8178 126.097C34.1075 125.907 34.3353 125.656 34.5013 125.345C34.6709 125.034 34.7557 124.697 34.7557 124.333C34.7557 123.962 34.6709 123.621 34.5013 123.31C34.3318 122.996 34.1022 122.745 33.8125 122.558C33.5263 122.371 33.2049 122.277 32.8481 122.277C32.4877 122.277 32.1627 122.372 31.8731 122.563C31.5869 122.75 31.3591 122.999 31.1895 123.31C31.0235 123.621 30.9404 123.962 30.9404 124.333C30.9404 124.714 31.027 125.061 31.2001 125.372C31.3732 125.679 31.6046 125.924 31.8943 126.108C32.1839 126.288 32.5019 126.378 32.8481 126.378ZM38.7268 126.982H37.7836L35.8494 121.668H36.639L38.2552 126.113L39.8714 121.668H40.6609L38.7268 126.982ZM43.6633 127.12C43.1758 127.12 42.7307 126.995 42.328 126.744C41.9288 126.493 41.6091 126.158 41.3689 125.737C41.1322 125.313 41.0139 124.845 41.0139 124.333C41.0139 123.944 41.0827 123.582 41.2205 123.247C41.3583 122.908 41.5473 122.611 41.7875 122.356C42.0313 122.099 42.3139 121.897 42.6353 121.752C42.9568 121.608 43.2995 121.535 43.6633 121.535C44.0555 121.535 44.4158 121.613 44.7443 121.768C45.0764 121.924 45.3608 122.141 45.5975 122.42C45.8377 122.699 46.0179 123.026 46.138 123.4C46.2616 123.775 46.3128 124.179 46.2916 124.614H41.7981C41.8405 124.949 41.9465 125.25 42.116 125.515C42.2891 125.78 42.5082 125.99 42.7731 126.145C43.0416 126.297 43.3383 126.375 43.6633 126.378C44.0166 126.378 44.3345 126.286 44.6172 126.103C44.9033 125.919 45.1329 125.667 45.306 125.345L46.0585 125.52C45.8465 125.99 45.5268 126.375 45.0994 126.675C44.6719 126.972 44.1932 127.12 43.6633 127.12ZM41.7769 124.015H45.5445C45.5198 123.686 45.4191 123.386 45.2424 123.114C45.0693 122.839 44.845 122.62 44.5695 122.457C44.2939 122.291 43.9919 122.208 43.6633 122.208C43.3348 122.208 43.0345 122.289 42.7625 122.452C42.4905 122.611 42.268 122.828 42.0949 123.104C41.9218 123.376 41.8158 123.679 41.7769 124.015ZM47.2 126.982V121.683H47.9418V122.415C48.1291 122.146 48.3728 121.933 48.6731 121.774C48.9734 121.615 49.3002 121.535 49.6534 121.535C49.8583 121.535 50.0561 121.562 50.2469 121.615L49.9449 122.351C49.7965 122.305 49.6517 122.282 49.5103 122.282C49.2242 122.282 48.961 122.353 48.7208 122.494C48.4841 122.636 48.2951 122.824 48.1538 123.061C48.0125 123.298 47.9418 123.561 47.9418 123.851V126.982H47.2ZM53.5339 126.982V121.683H54.2758V122.415C54.4665 122.146 54.7103 121.933 55.007 121.774C55.3038 121.615 55.6288 121.535 55.982 121.535C56.3812 121.535 56.7469 121.634 57.0789 121.832C57.411 122.026 57.6706 122.286 57.8579 122.611C58.0451 122.286 58.303 122.026 58.6315 121.832C58.9601 121.634 59.3239 121.535 59.7231 121.535C60.1223 121.535 60.4862 121.632 60.8147 121.827C61.1432 122.021 61.4047 122.282 61.5989 122.611C61.7932 122.939 61.8904 123.303 61.8904 123.702V126.982H61.1485V123.867C61.1485 123.584 61.0796 123.323 60.9419 123.082C60.8041 122.842 60.6186 122.65 60.3855 122.505C60.1559 122.356 59.8997 122.282 59.6171 122.282C59.3345 122.282 59.0766 122.351 58.8435 122.489C58.6139 122.623 58.4302 122.81 58.2924 123.051C58.1546 123.287 58.0857 123.559 58.0857 123.867V126.982H57.3439V123.867C57.3439 123.559 57.275 123.287 57.1372 123.051C56.9994 122.81 56.814 122.623 56.5808 122.489C56.3477 122.351 56.0898 122.282 55.8072 122.282C55.5281 122.282 55.272 122.356 55.0388 122.505C54.8057 122.65 54.6202 122.842 54.4824 123.082C54.3447 123.323 54.2758 123.584 54.2758 123.867V126.982H53.5339ZM65.1801 127.12C64.6926 127.12 64.2474 126.995 63.8447 126.744C63.4455 126.493 63.1258 126.158 62.8856 125.737C62.6489 125.313 62.5306 124.845 62.5306 124.333C62.5306 123.944 62.5995 123.582 62.7372 123.247C62.875 122.908 63.064 122.611 63.3042 122.356C63.548 122.099 63.8306 121.897 64.1521 121.752C64.4735 121.608 64.8162 121.535 65.1801 121.535C65.6676 121.535 66.1109 121.66 66.5101 121.911C66.9128 122.162 67.2325 122.499 67.4692 122.923C67.7094 123.347 67.8295 123.817 67.8295 124.333C67.8295 124.718 67.7607 125.078 67.6229 125.414C67.4851 125.75 67.2943 126.046 67.0506 126.304C66.8104 126.559 66.5295 126.758 66.2081 126.903C65.8901 127.048 65.5475 127.12 65.1801 127.12ZM65.1801 126.378C65.5404 126.378 65.8636 126.285 66.1498 126.097C66.4394 125.907 66.6673 125.656 66.8333 125.345C67.0029 125.034 67.0877 124.697 67.0877 124.333C67.0877 123.962 67.0029 123.621 66.8333 123.31C66.6638 122.996 66.4341 122.745 66.1445 122.558C65.8583 122.371 65.5369 122.277 65.1801 122.277C64.8197 122.277 64.4947 122.372 64.205 122.563C63.9189 122.75 63.691 122.999 63.5215 123.31C63.3554 123.621 63.2724 123.962 63.2724 124.333C63.2724 124.714 63.359 125.061 63.5321 125.372C63.7052 125.679 63.9366 125.924 64.2262 126.108C64.5159 126.288 64.8339 126.378 65.1801 126.378ZM68.4634 124.953V121.683H69.2052V124.805C69.2052 125.094 69.2759 125.357 69.4172 125.594C69.5585 125.831 69.7475 126.02 69.9842 126.161C70.2244 126.302 70.4876 126.373 70.7737 126.373C71.0634 126.373 71.3248 126.302 71.5579 126.161C71.7946 126.02 71.9836 125.831 72.1249 125.594C72.2662 125.357 72.3369 125.094 72.3369 124.805V121.683H73.0788L73.0841 126.982H72.3422L72.3369 126.241C72.1497 126.509 71.9059 126.723 71.6056 126.882C71.3089 127.041 70.9839 127.12 70.6306 127.12C70.2314 127.12 69.8676 127.023 69.539 126.829C69.2105 126.634 68.9491 126.373 68.7548 126.045C68.5605 125.716 68.4634 125.352 68.4634 124.953ZM75.7773 127.083C75.4876 127.076 75.205 127.023 74.9294 126.924C74.6539 126.825 74.4137 126.691 74.2088 126.521C74.0039 126.352 73.8573 126.159 73.7689 125.944L74.4101 125.668C74.4666 125.806 74.5709 125.933 74.7228 126.05C74.8782 126.163 75.0548 126.255 75.2527 126.325C75.4505 126.392 75.6465 126.426 75.8408 126.426C76.0563 126.426 76.2577 126.391 76.4449 126.32C76.6322 126.249 76.7841 126.149 76.9006 126.018C77.0207 125.884 77.0808 125.727 77.0808 125.546C77.0808 125.352 77.0172 125.2 76.89 125.091C76.7629 124.978 76.6021 124.889 76.4078 124.826C76.2135 124.759 76.0139 124.695 75.809 124.635C75.4346 124.533 75.1043 124.419 74.8181 124.296C74.532 124.172 74.3077 124.015 74.1452 123.824C73.9862 123.63 73.9067 123.381 73.9067 123.077C73.9067 122.756 73.9968 122.478 74.177 122.245C74.3607 122.008 74.5991 121.827 74.8923 121.699C75.1891 121.569 75.5052 121.503 75.8408 121.503C76.2718 121.503 76.6639 121.597 77.0172 121.784C77.374 121.971 77.6319 122.22 77.7909 122.531L77.1921 122.886C77.1285 122.741 77.0278 122.616 76.89 122.51C76.7523 122.404 76.5951 122.321 76.4184 122.261C76.2453 122.201 76.0687 122.169 75.8885 122.166C75.6624 122.162 75.4522 122.196 75.258 122.266C75.0637 122.333 74.9065 122.434 74.7863 122.568C74.6698 122.703 74.6115 122.867 74.6115 123.061C74.6115 123.255 74.6698 123.404 74.7863 123.506C74.9029 123.605 75.0601 123.686 75.258 123.75C75.4593 123.81 75.6854 123.881 75.9362 123.962C76.2577 124.064 76.5597 124.181 76.8423 124.312C77.125 124.442 77.3528 124.605 77.5259 124.799C77.699 124.994 77.7838 125.239 77.7803 125.536C77.7803 125.854 77.6849 126.131 77.4941 126.368C77.3034 126.604 77.0561 126.786 76.7523 126.914C76.4485 127.037 76.1235 127.094 75.7773 127.083ZM80.9838 127.12C80.4963 127.12 80.0512 126.995 79.6485 126.744C79.2493 126.493 78.9296 126.158 78.6894 125.737C78.4527 125.313 78.3343 124.845 78.3343 124.333C78.3343 123.944 78.4032 123.582 78.541 123.247C78.6788 122.908 78.8678 122.611 79.108 122.356C79.3517 122.099 79.6343 121.897 79.9558 121.752C80.2773 121.608 80.62 121.535 80.9838 121.535C81.3759 121.535 81.7363 121.613 82.0648 121.768C82.3969 121.924 82.6813 122.141 82.9179 122.42C83.1582 122.699 83.3383 123.026 83.4584 123.4C83.5821 123.775 83.6333 124.179 83.6121 124.614H79.1186C79.161 124.949 79.267 125.25 79.4365 125.515C79.6096 125.78 79.8286 125.99 80.0936 126.145C80.3621 126.297 80.6588 126.375 80.9838 126.378C81.3371 126.378 81.655 126.286 81.9376 126.103C82.2238 125.919 82.4534 125.667 82.6265 125.345L83.379 125.52C83.167 125.99 82.8473 126.375 82.4198 126.675C81.9924 126.972 81.5137 127.12 80.9838 127.12ZM79.0974 124.015H82.865C82.8402 123.686 82.7395 123.386 82.5629 123.114C82.3898 122.839 82.1655 122.62 81.8899 122.457C81.6144 122.291 81.3124 122.208 80.9838 122.208C80.6553 122.208 80.355 122.289 80.083 122.452C79.811 122.611 79.5884 122.828 79.4153 123.104C79.2422 123.376 79.1362 123.679 79.0974 124.015Z" fill="white"/>
<path d="M403.618 35.604V25.7126H409.637V26.7017H404.607V29.8105H408.768V30.7996H404.607V34.6149H409.637V35.604H403.618ZM409.78 39.1367V38.1475C410.134 38.1475 410.449 38.0698 410.727 37.9144C411.005 37.7589 411.224 37.5446 411.384 37.2714C411.544 37.0029 411.624 36.7015 411.624 36.3671V28.5387H412.614V36.3671C412.614 36.8758 412.489 37.3397 412.239 37.7589C411.994 38.1781 411.657 38.5125 411.229 38.7622C410.805 39.0118 410.322 39.1367 409.78 39.1367ZM412.126 27.3023C411.966 27.3023 411.829 27.2505 411.716 27.1468C411.608 27.0385 411.554 26.9043 411.554 26.7441C411.554 26.584 411.608 26.4521 411.716 26.3485C411.829 26.2401 411.966 26.186 412.126 26.186C412.281 26.186 412.413 26.2401 412.522 26.3485C412.635 26.4521 412.691 26.584 412.691 26.7441C412.691 26.9043 412.637 27.0385 412.529 27.1468C412.42 27.2505 412.286 27.3023 412.126 27.3023ZM417.352 35.7877C416.702 35.7877 416.108 35.6205 415.571 35.2861C415.039 34.9516 414.613 34.5042 414.293 33.9437C413.977 33.3784 413.819 32.7543 413.819 32.0714C413.819 31.5532 413.911 31.0704 414.095 30.623C414.278 30.1708 414.53 29.7751 414.851 29.436C415.176 29.0922 415.553 28.8237 415.981 28.6306C416.41 28.4374 416.867 28.3409 417.352 28.3409C417.875 28.3409 418.355 28.4445 418.793 28.6518C419.236 28.859 419.615 29.1487 419.931 29.5208C420.251 29.8929 420.491 30.3286 420.651 30.8279C420.816 31.3271 420.884 31.8665 420.856 32.4458H414.865C414.921 32.8933 415.063 33.2937 415.289 33.6469C415.52 34.0002 415.812 34.2804 416.165 34.4877C416.523 34.6902 416.918 34.7939 417.352 34.7986C417.823 34.7986 418.247 34.6761 418.624 34.4312C419.005 34.1862 419.311 33.8495 419.542 33.4208L420.545 33.654C420.263 34.2804 419.836 34.7939 419.267 35.1942C418.697 35.5899 418.058 35.7877 417.352 35.7877ZM414.837 31.6474H419.86C419.827 31.2094 419.693 30.809 419.457 30.4463C419.226 30.0789 418.927 29.7869 418.56 29.5702C418.193 29.3489 417.79 29.2382 417.352 29.2382C416.914 29.2382 416.513 29.3465 416.151 29.5632C415.788 29.7751 415.491 30.0648 415.26 30.4322C415.03 30.7949 414.888 31.2 414.837 31.6474ZM427.043 33.8306L427.926 34.3111C427.606 34.7585 427.198 35.1165 426.704 35.385C426.214 35.6535 425.682 35.7877 425.107 35.7877C424.457 35.7877 423.864 35.6205 423.327 35.2861C422.794 34.9516 422.368 34.5042 422.048 33.9437C421.732 33.3784 421.574 32.7543 421.574 32.0714C421.574 31.5532 421.666 31.0704 421.85 30.623C422.034 30.1708 422.286 29.7751 422.606 29.436C422.931 29.0922 423.308 28.8237 423.736 28.6306C424.165 28.4374 424.622 28.3409 425.107 28.3409C425.682 28.3409 426.214 28.4751 426.704 28.7436C427.198 29.0121 427.606 29.3724 427.926 29.8246L427.043 30.298C426.798 29.9871 426.504 29.7492 426.16 29.5844C425.816 29.4148 425.465 29.33 425.107 29.33C424.631 29.33 424.2 29.4572 423.814 29.7115C423.428 29.9612 423.122 30.2933 422.896 30.7078C422.674 31.1223 422.564 31.5768 422.564 32.0714C422.564 32.5659 422.677 33.0205 422.903 33.435C423.134 33.8495 423.442 34.1815 423.828 34.4312C424.214 34.6761 424.641 34.7986 425.107 34.7986C425.493 34.7986 425.856 34.7091 426.195 34.5301C426.534 34.3511 426.817 34.1179 427.043 33.8306ZM428.85 32.898V28.5387H429.839V32.7002C429.839 33.0864 429.933 33.4373 430.122 33.7529C430.31 34.0685 430.562 34.3205 430.878 34.5089C431.198 34.6973 431.549 34.7915 431.93 34.7915C432.317 34.7915 432.665 34.6973 432.976 34.5089C433.292 34.3205 433.544 34.0685 433.732 33.7529C433.921 33.4373 434.015 33.0864 434.015 32.7002V28.5387H435.004L435.011 35.604H434.022L434.015 34.6149C433.765 34.9728 433.44 35.2578 433.04 35.4698C432.644 35.6817 432.211 35.7877 431.74 35.7877C431.207 35.7877 430.722 35.6582 430.284 35.3991C429.846 35.14 429.498 34.7915 429.239 34.3534C428.98 33.9154 428.85 33.4302 428.85 32.898ZM440.029 29.5279H438.34L438.333 35.604H437.344L437.351 29.5279H436.073V28.5387H437.351L437.344 26.3202H438.333L438.34 28.5387H440.029V29.5279ZM446.904 28.5387H447.894V35.604H446.904L446.869 34.2899C446.638 34.7373 446.316 35.1 445.901 35.3779C445.487 35.6511 444.992 35.7877 444.417 35.7877C443.899 35.7877 443.414 35.6911 442.962 35.498C442.51 35.3002 442.112 35.0294 441.768 34.6855C441.424 34.3417 441.156 33.9437 440.962 33.4915C440.769 33.0393 440.673 32.5542 440.673 32.036C440.673 31.5273 440.767 31.0492 440.955 30.6018C441.149 30.1543 441.412 29.761 441.747 29.4219C442.086 29.0827 442.477 28.819 442.92 28.6306C443.367 28.4374 443.845 28.3409 444.354 28.3409C444.943 28.3409 445.456 28.4822 445.894 28.7648C446.332 29.0427 446.681 29.4077 446.94 29.8599L446.904 28.5387ZM444.396 34.8268C444.9 34.8268 445.334 34.7044 445.696 34.4594C446.059 34.2098 446.337 33.8754 446.53 33.4562C446.728 33.0369 446.827 32.5753 446.827 32.0714C446.827 31.5532 446.728 31.0869 446.53 30.6724C446.332 30.2532 446.052 29.9212 445.689 29.6762C445.326 29.4313 444.895 29.3088 444.396 29.3088C443.897 29.3088 443.44 29.4336 443.026 29.6833C442.616 29.9282 442.288 30.2603 442.043 30.6795C441.803 31.0987 441.683 31.5627 441.683 32.0714C441.683 32.5848 441.808 33.0511 442.058 33.4703C442.307 33.8848 442.637 34.2145 443.047 34.4594C443.461 34.7044 443.911 34.8268 444.396 34.8268ZM449.307 35.604V28.5387H450.297V29.5137C450.546 29.1557 450.871 28.8708 451.272 28.6588C451.672 28.4469 452.108 28.3409 452.579 28.3409C452.852 28.3409 453.116 28.3762 453.37 28.4469L452.967 29.4289C452.769 29.3677 452.576 29.3371 452.388 29.3371C452.006 29.3371 451.655 29.4313 451.335 29.6197C451.02 29.8081 450.768 30.0601 450.579 30.3757C450.391 30.6913 450.297 31.0422 450.297 31.4284V35.604H449.307ZM463.567 25.0061H464.556V35.604H463.567V34.2828C463.322 34.735 462.986 35.1 462.557 35.3779C462.133 35.6511 461.629 35.7877 461.045 35.7877C460.532 35.7877 460.051 35.6911 459.604 35.498C459.156 35.3049 458.761 35.0388 458.417 34.6996C458.078 34.3558 457.811 33.9601 457.618 33.5127C457.425 33.0652 457.329 32.5848 457.329 32.0714C457.329 31.5579 457.425 31.0775 457.618 30.63C457.811 30.1779 458.078 29.7822 458.417 29.4431C458.761 29.0992 459.156 28.8307 459.604 28.6376C460.051 28.4445 460.532 28.3479 461.045 28.3479C461.629 28.3479 462.133 28.4869 462.557 28.7648C462.986 29.038 463.322 29.3983 463.567 29.8458V25.0061ZM461.052 34.8268C461.556 34.8268 461.989 34.7044 462.352 34.4594C462.715 34.2098 462.993 33.8754 463.186 33.4562C463.384 33.0369 463.483 32.5753 463.483 32.0714C463.483 31.5532 463.384 31.0869 463.186 30.6724C462.988 30.2532 462.708 29.9212 462.345 29.6762C461.982 29.4313 461.551 29.3088 461.052 29.3088C460.553 29.3088 460.098 29.4336 459.688 29.6833C459.279 29.9282 458.951 30.2603 458.706 30.6795C458.461 31.0987 458.339 31.5627 458.339 32.0714C458.339 32.5848 458.464 33.0511 458.713 33.4703C458.963 33.8848 459.293 34.2145 459.703 34.4594C460.117 34.7044 460.567 34.8268 461.052 34.8268ZM469.307 35.7877C468.657 35.7877 468.063 35.6205 467.526 35.2861C466.994 34.9516 466.568 34.5042 466.247 33.9437C465.932 33.3784 465.774 32.7543 465.774 32.0714C465.774 31.5532 465.866 31.0704 466.049 30.623C466.233 30.1708 466.485 29.7751 466.805 29.436C467.13 29.0922 467.507 28.8237 467.936 28.6306C468.365 28.4374 468.821 28.3409 469.307 28.3409C469.829 28.3409 470.31 28.4445 470.748 28.6518C471.191 28.859 471.57 29.1487 471.885 29.5208C472.206 29.8929 472.446 30.3286 472.606 30.8279C472.771 31.3271 472.839 31.8665 472.811 32.4458H466.82C466.876 32.8933 467.017 33.2937 467.243 33.6469C467.474 34.0002 467.766 34.2804 468.12 34.4877C468.478 34.6902 468.873 34.7939 469.307 34.7986C469.778 34.7986 470.201 34.6761 470.578 34.4312C470.96 34.1862 471.266 33.8495 471.497 33.4208L472.5 33.654C472.217 34.2804 471.791 34.7939 471.221 35.1942C470.651 35.5899 470.013 35.7877 469.307 35.7877ZM466.791 31.6474H471.815C471.782 31.2094 471.648 30.809 471.412 30.4463C471.181 30.0789 470.882 29.7869 470.515 29.5702C470.147 29.3489 469.745 29.2382 469.307 29.2382C468.869 29.2382 468.468 29.3465 468.105 29.5632C467.743 29.7751 467.446 30.0648 467.215 30.4322C466.984 30.7949 466.843 31.2 466.791 31.6474ZM478.998 33.8306L479.881 34.3111C479.561 34.7585 479.153 35.1165 478.659 35.385C478.169 35.6535 477.636 35.7877 477.062 35.7877C476.412 35.7877 475.818 35.6205 475.281 35.2861C474.749 34.9516 474.323 34.5042 474.003 33.9437C473.687 33.3784 473.529 32.7543 473.529 32.0714C473.529 31.5532 473.621 31.0704 473.805 30.623C473.988 30.1708 474.24 29.7751 474.561 29.436C474.886 29.0922 475.263 28.8237 475.691 28.6306C476.12 28.4374 476.577 28.3409 477.062 28.3409C477.636 28.3409 478.169 28.4751 478.659 28.7436C479.153 29.0121 479.561 29.3724 479.881 29.8246L478.998 30.298C478.753 29.9871 478.458 29.7492 478.115 29.5844C477.771 29.4148 477.42 29.33 477.062 29.33C476.586 29.33 476.155 29.4572 475.769 29.7115C475.383 29.9612 475.076 30.2933 474.85 30.7078C474.629 31.1223 474.518 31.5768 474.518 32.0714C474.518 32.5659 474.631 33.0205 474.857 33.435C475.088 33.8495 475.397 34.1815 475.783 34.4312C476.169 34.6761 476.596 34.7986 477.062 34.7986C477.448 34.7986 477.811 34.7091 478.15 34.5301C478.489 34.3511 478.772 34.1179 478.998 33.8306ZM481.032 28.5387H482.021V35.604H481.032V28.5387ZM481.534 27.3023C481.374 27.3023 481.237 27.2505 481.124 27.1468C481.016 27.0385 480.962 26.9043 480.962 26.7441C480.962 26.584 481.016 26.4521 481.124 26.3485C481.237 26.2401 481.374 26.186 481.534 26.186C481.689 26.186 481.821 26.2401 481.929 26.3485C482.043 26.4521 482.099 26.584 482.099 26.7441C482.099 26.9043 482.045 27.0385 481.937 27.1468C481.828 27.2505 481.694 27.3023 481.534 27.3023ZM485.851 35.7382C485.465 35.7288 485.088 35.6582 484.721 35.5263C484.353 35.3944 484.033 35.2154 483.76 34.9893C483.487 34.7632 483.291 34.5065 483.173 34.2192L484.028 33.8518C484.104 34.0355 484.243 34.2051 484.445 34.3605C484.652 34.5112 484.888 34.6337 485.152 34.7279C485.415 34.8174 485.677 34.8621 485.936 34.8621C486.223 34.8621 486.492 34.815 486.741 34.7208C486.991 34.6266 487.193 34.4924 487.349 34.3181C487.509 34.1391 487.589 33.9295 487.589 33.6893C487.589 33.4302 487.504 33.2277 487.335 33.0817C487.165 32.931 486.951 32.8132 486.692 32.7284C486.433 32.6389 486.167 32.5542 485.893 32.4741C485.394 32.3375 484.954 32.1868 484.572 32.0219C484.191 31.857 483.892 31.6474 483.675 31.3931C483.463 31.134 483.357 30.802 483.357 30.3969C483.357 29.9683 483.477 29.5985 483.717 29.2876C483.962 28.972 484.28 28.7295 484.671 28.5599C485.067 28.3856 485.488 28.2985 485.936 28.2985C486.51 28.2985 487.033 28.4233 487.504 28.673C487.98 28.9226 488.324 29.2547 488.536 29.6692L487.737 30.1425C487.653 29.9494 487.518 29.7822 487.335 29.6409C487.151 29.4996 486.941 29.3889 486.706 29.3088C486.475 29.2288 486.24 29.1864 485.999 29.1817C485.698 29.1769 485.418 29.2217 485.159 29.3159C484.9 29.4054 484.69 29.5396 484.53 29.7186C484.374 29.8976 484.297 30.1166 484.297 30.3757C484.297 30.6347 484.374 30.8326 484.53 30.9692C484.685 31.1011 484.895 31.2094 485.159 31.2942C485.427 31.3742 485.729 31.4685 486.063 31.5768C486.492 31.7134 486.894 31.8688 487.271 32.0431C487.648 32.2174 487.952 32.434 488.183 32.6931C488.413 32.9522 488.526 33.2795 488.522 33.6752C488.522 34.0991 488.395 34.4688 488.14 34.7844C487.886 35.1 487.556 35.3426 487.151 35.5122C486.746 35.677 486.313 35.7524 485.851 35.7382ZM489.671 28.5387H490.66V35.604H489.671V28.5387ZM490.172 27.3023C490.012 27.3023 489.875 27.2505 489.762 27.1468C489.654 27.0385 489.6 26.9043 489.6 26.7441C489.6 26.584 489.654 26.4521 489.762 26.3485C489.875 26.2401 490.012 26.186 490.172 26.186C490.328 26.186 490.46 26.2401 490.568 26.3485C490.681 26.4521 490.737 26.584 490.737 26.7441C490.737 26.9043 490.683 27.0385 490.575 27.1468C490.467 27.2505 490.332 27.3023 490.172 27.3023ZM495.401 35.7877C494.751 35.7877 494.158 35.6205 493.621 35.2861C493.089 34.9516 492.662 34.5042 492.342 33.9437C492.026 33.3784 491.869 32.7543 491.869 32.0714C491.869 31.5532 491.96 31.0704 492.144 30.623C492.328 30.1708 492.58 29.7751 492.9 29.436C493.225 29.0922 493.602 28.8237 494.031 28.6306C494.459 28.4374 494.916 28.3409 495.401 28.3409C496.051 28.3409 496.642 28.5081 497.175 28.8425C497.712 29.1769 498.138 29.6268 498.453 30.192C498.774 30.7572 498.934 31.3837 498.934 32.0714C498.934 32.5848 498.842 33.0652 498.658 33.5127C498.475 33.9601 498.22 34.3558 497.895 34.6996C497.575 35.0388 497.201 35.3049 496.772 35.498C496.348 35.6911 495.891 35.7877 495.401 35.7877ZM495.401 34.7986C495.882 34.7986 496.313 34.6737 496.694 34.4241C497.08 34.1697 497.384 33.8353 497.606 33.4208C497.832 33.0063 497.945 32.5565 497.945 32.0714C497.945 31.5768 497.832 31.1223 497.606 30.7078C497.38 30.2885 497.073 29.9541 496.687 29.7045C496.306 29.4548 495.877 29.33 495.401 29.33C494.921 29.33 494.487 29.4572 494.101 29.7115C493.72 29.9612 493.416 30.2933 493.19 30.7078C492.968 31.1223 492.858 31.5768 492.858 32.0714C492.858 32.5801 492.973 33.0417 493.204 33.4562C493.435 33.8659 493.743 34.1933 494.129 34.4382C494.516 34.6785 494.94 34.7986 495.401 34.7986ZM495.161 27.7615L495.726 25.7267H496.715L495.825 27.7615H495.161ZM506.291 31.2306V35.604H505.302V31.4284C505.302 31.0422 505.208 30.6913 505.02 30.3757C504.831 30.0601 504.579 29.8081 504.264 29.6197C503.948 29.4313 503.597 29.3371 503.211 29.3371C502.829 29.3371 502.479 29.4313 502.158 29.6197C501.843 29.8081 501.591 30.0601 501.402 30.3757C501.214 30.6913 501.12 31.0422 501.12 31.4284V35.604H500.131V28.5387H501.12V29.5137C501.369 29.1557 501.694 28.8708 502.095 28.6588C502.495 28.4469 502.931 28.3409 503.402 28.3409C503.934 28.3409 504.419 28.4704 504.857 28.7295C505.295 28.9885 505.644 29.3371 505.903 29.7751C506.162 30.2132 506.291 30.6983 506.291 31.2306ZM507.982 29.6692C507.827 29.6692 507.695 29.615 507.586 29.5067C507.478 29.3936 507.424 29.257 507.424 29.0969C507.424 28.9461 507.478 28.8166 507.586 28.7083C507.695 28.5952 507.827 28.5387 507.982 28.5387C508.142 28.5387 508.276 28.5952 508.385 28.7083C508.498 28.8166 508.554 28.9461 508.554 29.0969C508.554 29.257 508.498 29.3936 508.385 29.5067C508.276 29.615 508.142 29.6692 507.982 29.6692ZM507.982 35.7877C507.827 35.7877 507.695 35.7312 507.586 35.6181C507.478 35.5098 507.424 35.3756 507.424 35.2154C507.424 35.0647 507.478 34.9352 507.586 34.8268C507.695 34.7138 507.827 34.6573 507.982 34.6573C508.142 34.6573 508.276 34.7138 508.385 34.8268C508.498 34.9352 508.554 35.0647 508.554 35.2154C508.554 35.3756 508.498 35.5098 508.385 35.6181C508.276 35.7312 508.142 35.7877 507.982 35.7877Z" fill="white"/>
<path d="M42.1274 104.045H13.6628M13.6628 104.045L21.3263 96.4653M13.6628 104.045L21.3263 111.625" stroke="white" stroke-width="0.883162" stroke-linecap="round" stroke-linejoin="round"/>
<path d="M67.5423 104.045L96.0069 104.051M96.0069 104.051L88.3422 111.629M96.0069 104.051L88.3446 96.4695" stroke="white" stroke-width="0.883162" stroke-linecap="round" stroke-linejoin="round"/>
<path d="M208.724 83.6319H188.598V106.624H208.724M208.724 83.6319V106.624M208.724 83.6319H228.851M208.724 83.6319V60.6401H228.851V83.6319M208.724 106.624H228.851M228.851 83.6319V106.624M228.851 83.6319H248.977V106.624H228.851" stroke="#F8F4FF" stroke-width="0.883162" stroke-linecap="round" stroke-linejoin="round"/>
<rect x="189.062" y="83.6313" width="19.5072" height="23.2444" fill="#F8F4FF"/>
<rect x="229.005" y="83.6313" width="19.5072" height="23.2444" fill="#F8F4FF"/>
<g clip-path="url(#clip0_538_914)">
<path d="M230.55 95.252L247.889 95.2553M247.889 95.2553L243.22 100.561M247.889 95.2553L243.222 89.9477" stroke="#1D1824" stroke-width="0.883162" stroke-linecap="round" stroke-linejoin="round"/>
</g>
<g clip-path="url(#clip1_538_914)">
<path d="M207.143 95.309L189.804 95.3575M189.804 95.3575L194.459 90.0377M189.804 95.3575L194.484 100.651" stroke="#1D1824" stroke-width="0.883162" stroke-linecap="round" stroke-linejoin="round"/>
</g>
<path d="M191.646 127.12C191.053 127.12 190.541 126.975 190.11 126.686C189.679 126.396 189.347 126.007 189.113 125.52C188.884 125.029 188.769 124.485 188.769 123.888V119.564H189.511V123.888C189.511 124.34 189.594 124.755 189.76 125.133C189.926 125.511 190.168 125.813 190.486 126.039C190.804 126.265 191.191 126.378 191.646 126.378C192.113 126.378 192.503 126.265 192.817 126.039C193.135 125.81 193.376 125.506 193.538 125.128C193.701 124.75 193.782 124.336 193.782 123.888V119.564H194.524V123.888C194.524 124.336 194.457 124.757 194.322 125.149C194.192 125.538 194.001 125.88 193.75 126.177C193.503 126.474 193.201 126.705 192.844 126.871C192.491 127.037 192.091 127.12 191.646 127.12ZM197.434 127.083C197.144 127.076 196.861 127.023 196.586 126.924C196.31 126.825 196.07 126.691 195.865 126.521C195.66 126.352 195.514 126.159 195.425 125.944L196.067 125.668C196.123 125.806 196.227 125.933 196.379 126.05C196.535 126.163 196.711 126.255 196.909 126.325C197.107 126.392 197.303 126.426 197.497 126.426C197.713 126.426 197.914 126.391 198.101 126.32C198.289 126.249 198.441 126.149 198.557 126.018C198.677 125.884 198.737 125.727 198.737 125.546C198.737 125.352 198.674 125.2 198.547 125.091C198.419 124.978 198.259 124.889 198.064 124.826C197.87 124.759 197.67 124.695 197.466 124.635C197.091 124.533 196.761 124.419 196.475 124.296C196.188 124.172 195.964 124.015 195.802 123.824C195.643 123.63 195.563 123.381 195.563 123.077C195.563 122.756 195.653 122.478 195.833 122.245C196.017 122.008 196.256 121.827 196.549 121.699C196.846 121.569 197.162 121.503 197.497 121.503C197.928 121.503 198.32 121.597 198.674 121.784C199.03 121.971 199.288 122.22 199.447 122.531L198.849 122.886C198.785 122.741 198.684 122.616 198.547 122.51C198.409 122.404 198.252 122.321 198.075 122.261C197.902 122.201 197.725 122.169 197.545 122.166C197.319 122.162 197.109 122.196 196.914 122.266C196.72 122.333 196.563 122.434 196.443 122.568C196.326 122.703 196.268 122.867 196.268 123.061C196.268 123.255 196.326 123.404 196.443 123.506C196.559 123.605 196.717 123.686 196.914 123.75C197.116 123.81 197.342 123.881 197.593 123.962C197.914 124.064 198.216 124.181 198.499 124.312C198.781 124.442 199.009 124.605 199.182 124.799C199.355 124.994 199.44 125.239 199.437 125.536C199.437 125.854 199.341 126.131 199.151 126.368C198.96 126.604 198.713 126.786 198.409 126.914C198.105 127.037 197.78 127.094 197.434 127.083ZM204.664 121.683H205.406V126.982H204.664L204.638 125.997C204.465 126.332 204.223 126.604 203.912 126.813C203.601 127.018 203.23 127.12 202.799 127.12C202.411 127.12 202.047 127.048 201.708 126.903C201.369 126.755 201.07 126.551 200.812 126.294C200.554 126.036 200.353 125.737 200.208 125.398C200.063 125.059 199.991 124.695 199.991 124.306C199.991 123.925 200.061 123.566 200.203 123.231C200.348 122.895 200.545 122.6 200.796 122.346C201.051 122.091 201.344 121.894 201.676 121.752C202.011 121.608 202.37 121.535 202.752 121.535C203.193 121.535 203.578 121.641 203.907 121.853C204.235 122.061 204.497 122.335 204.691 122.674L204.664 121.683ZM202.783 126.4C203.161 126.4 203.486 126.308 203.758 126.124C204.03 125.937 204.239 125.686 204.384 125.372C204.532 125.057 204.606 124.711 204.606 124.333C204.606 123.944 204.532 123.595 204.384 123.284C204.235 122.969 204.025 122.72 203.753 122.537C203.481 122.353 203.158 122.261 202.783 122.261C202.409 122.261 202.066 122.355 201.755 122.542C201.448 122.726 201.203 122.975 201.019 123.289C200.839 123.603 200.749 123.951 200.749 124.333C200.749 124.718 200.842 125.068 201.029 125.382C201.217 125.693 201.464 125.94 201.771 126.124C202.082 126.308 202.419 126.4 202.783 126.4ZM206.467 126.982V121.683H207.209V122.415C207.396 122.146 207.64 121.933 207.94 121.774C208.24 121.615 208.567 121.535 208.92 121.535C209.125 121.535 209.323 121.562 209.514 121.615L209.212 122.351C209.063 122.305 208.918 122.282 208.777 122.282C208.491 122.282 208.228 122.353 207.988 122.494C207.751 122.636 207.562 122.824 207.421 123.061C207.279 123.298 207.209 123.561 207.209 123.851V126.982H206.467ZM213.898 120.3V121.683H215.487V122.425H213.898V126.982H213.156V122.425H212.43V121.683H213.156V120.3C213.156 120.043 213.218 119.809 213.341 119.601C213.468 119.389 213.638 119.221 213.85 119.098C214.062 118.97 214.297 118.907 214.555 118.907C214.742 118.907 214.922 118.944 215.095 119.018C215.272 119.092 215.429 119.202 215.567 119.347L215.037 119.871C214.98 119.801 214.908 119.746 214.82 119.707C214.735 119.668 214.646 119.649 214.555 119.649C214.374 119.649 214.219 119.712 214.088 119.839C213.961 119.967 213.898 120.12 213.898 120.3ZM216.392 126.982V119.034H217.134V126.982H216.392ZM220.7 127.12C220.213 127.12 219.768 126.995 219.365 126.744C218.966 126.493 218.646 126.158 218.406 125.737C218.169 125.313 218.051 124.845 218.051 124.333C218.051 123.944 218.12 123.582 218.257 123.247C218.395 122.908 218.584 122.611 218.824 122.356C219.068 122.099 219.351 121.897 219.672 121.752C219.994 121.608 220.336 121.535 220.7 121.535C221.092 121.535 221.453 121.613 221.781 121.768C222.113 121.924 222.398 122.141 222.634 122.42C222.875 122.699 223.055 123.026 223.175 123.4C223.299 123.775 223.35 124.179 223.329 124.614H218.835C218.877 124.949 218.983 125.25 219.153 125.515C219.326 125.78 219.545 125.99 219.81 126.145C220.079 126.297 220.375 126.375 220.7 126.378C221.054 126.378 221.371 126.286 221.654 126.103C221.94 125.919 222.17 125.667 222.343 125.345L223.095 125.52C222.883 125.99 222.564 126.375 222.136 126.675C221.709 126.972 221.23 127.12 220.7 127.12ZM218.814 124.015H222.581C222.557 123.686 222.456 123.386 222.279 123.114C222.106 122.839 221.882 122.62 221.606 122.457C221.331 122.291 221.029 122.208 220.7 122.208C220.372 122.208 220.071 122.289 219.799 122.452C219.527 122.611 219.305 122.828 219.132 123.104C218.959 123.376 218.853 123.679 218.814 124.015ZM227.969 125.652L228.631 126.013C228.391 126.348 228.085 126.617 227.714 126.818C227.347 127.02 226.948 127.12 226.517 127.12C226.029 127.12 225.584 126.995 225.181 126.744C224.782 126.493 224.462 126.158 224.222 125.737C223.986 125.313 223.867 124.845 223.867 124.333C223.867 123.944 223.936 123.582 224.074 123.247C224.212 122.908 224.401 122.611 224.641 122.356C224.885 122.099 225.167 121.897 225.489 121.752C225.81 121.608 226.153 121.535 226.517 121.535C226.948 121.535 227.347 121.636 227.714 121.837C228.085 122.038 228.391 122.309 228.631 122.648L227.969 123.003C227.785 122.77 227.564 122.591 227.306 122.468C227.048 122.341 226.785 122.277 226.517 122.277C226.16 122.277 225.837 122.372 225.547 122.563C225.257 122.75 225.028 122.999 224.858 123.31C224.692 123.621 224.609 123.962 224.609 124.333C224.609 124.704 224.694 125.045 224.863 125.356C225.037 125.667 225.268 125.916 225.558 126.103C225.847 126.286 226.167 126.378 226.517 126.378C226.806 126.378 227.078 126.311 227.333 126.177C227.587 126.043 227.799 125.868 227.969 125.652ZM234.136 123.702V126.982H233.394V123.851C233.394 123.561 233.323 123.298 233.182 123.061C233.041 122.824 232.852 122.636 232.615 122.494C232.378 122.353 232.115 122.282 231.826 122.282C231.539 122.282 231.276 122.353 231.036 122.494C230.799 122.636 230.61 122.824 230.469 123.061C230.328 123.298 230.257 123.561 230.257 123.851V126.982H229.515V119.034H230.257V122.415C230.444 122.146 230.688 121.933 230.988 121.774C231.289 121.615 231.615 121.535 231.969 121.535C232.368 121.535 232.732 121.632 233.06 121.827C233.389 122.021 233.65 122.282 233.844 122.611C234.039 122.939 234.136 123.303 234.136 123.702ZM239.449 121.683H240.191V126.982H239.449L239.423 125.997C239.25 126.332 239.008 126.604 238.697 126.813C238.386 127.018 238.015 127.12 237.584 127.12C237.196 127.12 236.832 127.048 236.493 126.903C236.153 126.755 235.855 126.551 235.597 126.294C235.339 126.036 235.138 125.737 234.993 125.398C234.848 125.059 234.776 124.695 234.776 124.306C234.776 123.925 234.846 123.566 234.988 123.231C235.132 122.895 235.33 122.6 235.581 122.346C235.835 122.091 236.129 121.894 236.461 121.752C236.796 121.608 237.155 121.535 237.536 121.535C237.978 121.535 238.363 121.641 238.692 121.853C239.02 122.061 239.282 122.335 239.476 122.674L239.449 121.683ZM237.568 126.4C237.946 126.4 238.271 126.308 238.543 126.124C238.815 125.937 239.024 125.686 239.168 125.372C239.317 125.057 239.391 124.711 239.391 124.333C239.391 123.944 239.317 123.595 239.168 123.284C239.02 122.969 238.81 122.72 238.538 122.537C238.266 122.353 237.943 122.261 237.568 122.261C237.194 122.261 236.851 122.355 236.54 122.542C236.233 122.726 235.987 122.975 235.804 123.289C235.623 123.603 235.533 123.951 235.533 124.333C235.533 124.718 235.627 125.068 235.814 125.382C236.001 125.693 236.249 125.94 236.556 126.124C236.867 126.308 237.204 126.4 237.568 126.4ZM242.889 127.083C242.599 127.076 242.317 127.023 242.041 126.924C241.766 126.825 241.525 126.691 241.32 126.521C241.116 126.352 240.969 126.159 240.881 125.944L241.522 125.668C241.578 125.806 241.683 125.933 241.834 126.05C241.99 126.163 242.167 126.255 242.364 126.325C242.562 126.392 242.758 126.426 242.953 126.426C243.168 126.426 243.369 126.391 243.557 126.32C243.744 126.249 243.896 126.149 244.012 126.018C244.132 125.884 244.192 125.727 244.192 125.546C244.192 125.352 244.129 125.2 244.002 125.091C243.875 124.978 243.714 124.889 243.52 124.826C243.325 124.759 243.126 124.695 242.921 124.635C242.546 124.533 242.216 124.419 241.93 124.296C241.644 124.172 241.419 124.015 241.257 123.824C241.098 123.63 241.018 123.381 241.018 123.077C241.018 122.756 241.108 122.478 241.289 122.245C241.472 122.008 241.711 121.827 242.004 121.699C242.301 121.569 242.617 121.503 242.953 121.503C243.384 121.503 243.776 121.597 244.129 121.784C244.486 121.971 244.744 122.22 244.903 122.531L244.304 122.886C244.24 122.741 244.139 122.616 244.002 122.51C243.864 122.404 243.707 122.321 243.53 122.261C243.357 122.201 243.18 122.169 243 122.166C242.774 122.162 242.564 122.196 242.37 122.266C242.175 122.333 242.018 122.434 241.898 122.568C241.781 122.703 241.723 122.867 241.723 123.061C241.723 123.255 241.781 123.404 241.898 123.506C242.015 123.605 242.172 123.686 242.37 123.75C242.571 123.81 242.797 123.881 243.048 123.962C243.369 124.064 243.671 124.181 243.954 124.312C244.237 124.442 244.465 124.605 244.638 124.799C244.811 124.994 244.895 125.239 244.892 125.536C244.892 125.854 244.797 126.131 244.606 126.368C244.415 126.604 244.168 126.786 243.864 126.914C243.56 127.037 243.235 127.094 242.889 127.083Z" fill="white"/>
<path d="M430.51 126.547C430.009 126.547 429.537 126.448 429.096 126.25C428.654 126.049 428.265 125.773 427.93 125.424C427.598 125.07 427.336 124.661 427.146 124.194C426.958 123.728 426.865 123.23 426.865 122.7C426.865 122.17 426.958 121.672 427.146 121.206C427.336 120.739 427.598 120.331 427.93 119.982C428.265 119.628 428.654 119.353 429.096 119.155C429.537 118.954 430.009 118.853 430.51 118.853C431.111 118.853 431.664 118.992 432.169 119.271C432.674 119.551 433.093 119.921 433.425 120.384L432.768 120.739C432.506 120.39 432.174 120.112 431.772 119.907C431.372 119.699 430.952 119.595 430.51 119.595C430.104 119.595 429.724 119.678 429.371 119.844C429.021 120.006 428.714 120.231 428.449 120.517C428.184 120.803 427.978 121.133 427.829 121.508C427.681 121.882 427.607 122.28 427.607 122.7C427.607 123.127 427.681 123.528 427.829 123.903C427.981 124.277 428.19 124.608 428.454 124.894C428.723 125.18 429.032 125.404 429.382 125.567C429.735 125.726 430.111 125.805 430.51 125.805C430.97 125.805 431.395 125.701 431.788 125.492C432.183 125.28 432.51 125.005 432.768 124.666L433.425 125.021C433.093 125.484 432.674 125.855 432.169 126.134C431.664 126.409 431.111 126.547 430.51 126.547ZM434.518 126.409V118.461H435.26V126.409H434.518ZM436.536 121.11H437.278V126.409H436.536V121.11ZM436.912 120.183C436.792 120.183 436.69 120.144 436.605 120.066C436.524 119.985 436.483 119.884 436.483 119.764C436.483 119.644 436.524 119.545 436.605 119.468C436.69 119.386 436.792 119.346 436.912 119.346C437.029 119.346 437.128 119.386 437.209 119.468C437.294 119.545 437.336 119.644 437.336 119.764C437.336 119.884 437.296 119.985 437.214 120.066C437.133 120.144 437.033 120.183 436.912 120.183ZM442.286 125.079L442.948 125.439C442.708 125.775 442.403 126.044 442.032 126.245C441.664 126.446 441.265 126.547 440.834 126.547C440.347 126.547 439.902 126.422 439.499 126.171C439.1 125.92 438.78 125.584 438.54 125.164C438.303 124.74 438.185 124.272 438.185 123.76C438.185 123.371 438.254 123.009 438.391 122.673C438.529 122.334 438.718 122.038 438.958 121.783C439.202 121.525 439.485 121.324 439.806 121.179C440.128 121.034 440.47 120.962 440.834 120.962C441.265 120.962 441.664 121.063 442.032 121.264C442.403 121.465 442.708 121.735 442.948 122.075L442.286 122.43C442.102 122.196 441.882 122.018 441.624 121.894C441.366 121.767 441.103 121.704 440.834 121.704C440.477 121.704 440.154 121.799 439.864 121.99C439.575 122.177 439.345 122.426 439.176 122.737C439.01 123.048 438.927 123.389 438.927 123.76C438.927 124.131 439.011 124.472 439.181 124.782C439.354 125.093 439.585 125.342 439.875 125.53C440.165 125.713 440.484 125.805 440.834 125.805C441.124 125.805 441.396 125.738 441.65 125.604C441.905 125.469 442.117 125.295 442.286 125.079ZM447.971 126.409H447.118L445.634 123.85L444.575 125.116V126.409H443.833V118.461H444.575V123.961L446.964 121.11H447.934L446.138 123.246L447.971 126.409ZM455.946 118.461H456.687V126.409H455.946V125.418C455.762 125.757 455.509 126.031 455.188 126.24C454.87 126.445 454.492 126.547 454.054 126.547C453.669 126.547 453.308 126.475 452.973 126.33C452.637 126.185 452.34 125.985 452.083 125.731C451.828 125.473 451.629 125.176 451.484 124.841C451.339 124.505 451.267 124.145 451.267 123.76C451.267 123.375 451.339 123.014 451.484 122.679C451.629 122.34 451.828 122.043 452.083 121.788C452.34 121.531 452.637 121.329 452.973 121.184C453.308 121.04 453.669 120.967 454.054 120.967C454.492 120.967 454.87 121.071 455.188 121.28C455.509 121.485 455.762 121.755 455.946 122.091V118.461ZM454.059 125.826C454.437 125.826 454.762 125.734 455.034 125.551C455.306 125.364 455.515 125.113 455.659 124.798C455.808 124.484 455.882 124.138 455.882 123.76C455.882 123.371 455.808 123.021 455.659 122.71C455.511 122.396 455.301 122.147 455.029 121.963C454.757 121.78 454.434 121.688 454.059 121.688C453.685 121.688 453.344 121.781 453.036 121.969C452.729 122.152 452.484 122.401 452.3 122.716C452.116 123.03 452.024 123.378 452.024 123.76C452.024 124.145 452.118 124.494 452.305 124.809C452.492 125.12 452.74 125.367 453.047 125.551C453.358 125.734 453.695 125.826 454.059 125.826ZM460.25 126.547C459.762 126.547 459.317 126.422 458.915 126.171C458.515 125.92 458.196 125.584 457.955 125.164C457.719 124.74 457.6 124.272 457.6 123.76C457.6 123.371 457.669 123.009 457.807 122.673C457.945 122.334 458.134 122.038 458.374 121.783C458.618 121.525 458.9 121.324 459.222 121.179C459.543 121.034 459.886 120.962 460.25 120.962C460.642 120.962 461.002 121.04 461.331 121.195C461.663 121.35 461.947 121.568 462.184 121.847C462.424 122.126 462.604 122.453 462.725 122.827C462.848 123.202 462.899 123.606 462.878 124.041H458.385C458.427 124.376 458.533 124.676 458.703 124.941C458.876 125.206 459.095 125.417 459.36 125.572C459.628 125.724 459.925 125.802 460.25 125.805C460.603 125.805 460.921 125.713 461.204 125.53C461.49 125.346 461.72 125.093 461.893 124.772L462.645 124.947C462.433 125.417 462.113 125.802 461.686 126.102C461.259 126.399 460.78 126.547 460.25 126.547ZM458.364 123.442H462.131C462.106 123.113 462.006 122.813 461.829 122.541C461.656 122.265 461.432 122.046 461.156 121.884C460.881 121.718 460.578 121.635 460.25 121.635C459.921 121.635 459.621 121.716 459.349 121.879C459.077 122.038 458.855 122.255 458.681 122.53C458.508 122.802 458.402 123.106 458.364 123.442ZM463.787 126.409V121.11H464.528V121.841C464.716 121.573 464.959 121.359 465.26 121.2C465.56 121.041 465.887 120.962 466.24 120.962C466.445 120.962 466.643 120.988 466.833 121.041L466.531 121.778C466.383 121.732 466.238 121.709 466.097 121.709C465.811 121.709 465.548 121.78 465.307 121.921C465.071 122.062 464.882 122.251 464.74 122.488C464.599 122.725 464.528 122.988 464.528 123.277V126.409H463.787ZM469.554 126.547C469.067 126.547 468.622 126.422 468.219 126.171C467.82 125.92 467.5 125.584 467.26 125.164C467.023 124.74 466.905 124.272 466.905 123.76C466.905 123.371 466.974 123.009 467.111 122.673C467.249 122.334 467.438 122.038 467.678 121.783C467.922 121.525 468.205 121.324 468.526 121.179C468.848 121.034 469.19 120.962 469.554 120.962C469.946 120.962 470.307 121.04 470.635 121.195C470.967 121.35 471.252 121.568 471.488 121.847C471.729 122.126 471.909 122.453 472.029 122.827C472.152 123.202 472.204 123.606 472.182 124.041H467.689C467.731 124.376 467.837 124.676 468.007 124.941C468.18 125.206 468.399 125.417 468.664 125.572C468.932 125.724 469.229 125.802 469.554 125.805C469.907 125.805 470.225 125.713 470.508 125.53C470.794 125.346 471.024 125.093 471.197 124.772L471.949 124.947C471.737 125.417 471.418 125.802 470.99 126.102C470.563 126.399 470.084 126.547 469.554 126.547ZM467.668 123.442H471.435C471.411 123.113 471.31 122.813 471.133 122.541C470.96 122.265 470.736 122.046 470.46 121.884C470.185 121.718 469.883 121.635 469.554 121.635C469.226 121.635 468.925 121.716 468.653 121.879C468.381 122.038 468.159 122.255 467.986 122.53C467.813 122.802 467.707 123.106 467.668 123.442ZM476.823 125.079L477.485 125.439C477.245 125.775 476.939 126.044 476.568 126.245C476.201 126.446 475.802 126.547 475.371 126.547C474.883 126.547 474.438 126.422 474.035 126.171C473.636 125.92 473.316 125.584 473.076 125.164C472.839 124.74 472.721 124.272 472.721 123.76C472.721 123.371 472.79 123.009 472.928 122.673C473.066 122.334 473.255 122.038 473.495 121.783C473.739 121.525 474.021 121.324 474.343 121.179C474.664 121.034 475.007 120.962 475.371 120.962C475.802 120.962 476.201 121.063 476.568 121.264C476.939 121.465 477.245 121.735 477.485 122.075L476.823 122.43C476.639 122.196 476.418 122.018 476.16 121.894C475.902 121.767 475.639 121.704 475.371 121.704C475.014 121.704 474.691 121.799 474.401 121.99C474.111 122.177 473.882 122.426 473.712 122.737C473.546 123.048 473.463 123.389 473.463 123.76C473.463 124.131 473.548 124.472 473.717 124.782C473.89 125.093 474.122 125.342 474.412 125.53C474.701 125.713 475.021 125.805 475.371 125.805C475.66 125.805 475.932 125.738 476.187 125.604C476.441 125.469 476.653 125.295 476.823 125.079ZM482.99 123.129V126.409H482.248V123.277C482.248 122.988 482.177 122.725 482.036 122.488C481.895 122.251 481.706 122.062 481.469 121.921C481.232 121.78 480.969 121.709 480.679 121.709C480.393 121.709 480.13 121.78 479.89 121.921C479.653 122.062 479.464 122.251 479.323 122.488C479.182 122.725 479.111 122.988 479.111 123.277V126.409H478.369V118.461H479.111V121.841C479.298 121.573 479.542 121.359 479.842 121.2C480.142 121.041 480.469 120.962 480.823 120.962C481.222 120.962 481.586 121.059 481.914 121.253C482.243 121.448 482.504 121.709 482.698 122.038C482.893 122.366 482.99 122.73 482.99 123.129ZM486.279 126.547C485.792 126.547 485.346 126.422 484.944 126.171C484.545 125.92 484.225 125.584 483.985 125.164C483.748 124.74 483.63 124.272 483.63 123.76C483.63 123.371 483.698 123.009 483.836 122.673C483.974 122.334 484.163 122.038 484.403 121.783C484.647 121.525 484.93 121.324 485.251 121.179C485.573 121.034 485.915 120.962 486.279 120.962C486.767 120.962 487.21 121.087 487.609 121.338C488.012 121.589 488.332 121.926 488.568 122.35C488.808 122.774 488.929 123.244 488.929 123.76C488.929 124.145 488.86 124.505 488.722 124.841C488.584 125.176 488.393 125.473 488.15 125.731C487.909 125.985 487.629 126.185 487.307 126.33C486.989 126.475 486.646 126.547 486.279 126.547ZM486.279 125.805C486.639 125.805 486.963 125.711 487.249 125.524C487.538 125.333 487.766 125.083 487.932 124.772C488.102 124.461 488.187 124.124 488.187 123.76C488.187 123.389 488.102 123.048 487.932 122.737C487.763 122.423 487.533 122.172 487.243 121.985C486.957 121.797 486.636 121.704 486.279 121.704C485.919 121.704 485.594 121.799 485.304 121.99C485.018 122.177 484.79 122.426 484.62 122.737C484.454 123.048 484.371 123.389 484.371 123.76C484.371 124.141 484.458 124.487 484.631 124.798C484.804 125.106 485.036 125.351 485.325 125.535C485.615 125.715 485.933 125.805 486.279 125.805Z" fill="white"/>
<path d="M136.355 98.8365C135.705 98.8365 135.111 98.6693 134.574 98.3349C134.042 98.0005 133.616 97.553 133.295 96.9925C132.98 96.4273 132.822 95.8032 132.822 95.1202C132.822 94.6021 132.914 94.1193 133.098 93.6718C133.281 93.2196 133.533 92.824 133.854 92.4848C134.179 92.141 134.555 91.8725 134.984 91.6794C135.413 91.4863 135.87 91.3897 136.355 91.3897C137.005 91.3897 137.596 91.5569 138.128 91.8913C138.665 92.2258 139.091 92.6756 139.407 93.2408C139.727 93.806 139.887 94.4325 139.887 95.1202C139.887 95.6336 139.795 96.114 139.612 96.5615C139.428 97.009 139.174 97.4046 138.849 97.7485C138.528 98.0876 138.154 98.3537 137.725 98.5469C137.301 98.74 136.845 98.8365 136.355 98.8365ZM136.355 97.8474C136.835 97.8474 137.266 97.7226 137.648 97.4729C138.034 97.2186 138.338 96.8842 138.559 96.4697C138.785 96.0552 138.898 95.6053 138.898 95.1202C138.898 94.6256 138.785 94.1711 138.559 93.7566C138.333 93.3374 138.027 93.003 137.641 92.7533C137.259 92.5037 136.83 92.3789 136.355 92.3789C135.874 92.3789 135.441 92.506 135.055 92.7604C134.673 93.01 134.369 93.3421 134.143 93.7566C133.922 94.1711 133.811 94.6256 133.811 95.1202C133.811 95.6289 133.927 96.0905 134.157 96.505C134.388 96.9148 134.697 97.2421 135.083 97.4871C135.469 97.7273 135.893 97.8474 136.355 97.8474Z" fill="white"/>
<defs>
<clipPath id="clip0_538_914">
<rect width="18.6733" height="21.2269" fill="white" transform="matrix(-1 -0.000186608 0.000157652 -1 248.554 105.869)"/>
</clipPath>
<clipPath id="clip1_538_914">
<rect width="18.6733" height="21.2269" fill="white" transform="matrix(0.999996 -0.00279957 0.00236516 0.999997 189.111 84.7456)"/>
</clipPath>
</defs>
</svg>
