<svg width="842" height="216" viewBox="0 0 842 216" fill="none" xmlns="http://www.w3.org/2000/svg">
<path d="M105.065 92.2952C105.658 92.2945 106.226 92.049 106.645 91.6125C107.064 91.1761 107.3 90.5843 107.3 89.9671V86.0869H104.32V89.1911H87.9305C87.3379 89.1917 86.7699 89.4373 86.3509 89.8737C85.9319 90.3102 85.6962 90.9019 85.6955 91.5192V95.3993H82.7737C80.5856 95.4019 78.4879 96.3085 76.9406 97.9202C75.3934 99.5319 74.5231 101.717 74.5206 103.996V119.512C74.5206 126.756 80.1782 132.649 87.1323 132.649H87.2387C94.1928 132.649 99.8504 126.756 99.8504 119.512V103.996C99.8479 101.717 98.9776 99.5319 97.4304 97.9202C95.8831 96.3085 93.7854 95.4019 91.5973 95.3993H88.6755V92.2952H105.065ZM77.5006 103.996C77.5022 102.54 78.0582 101.144 79.0468 100.114C80.0354 99.0844 81.3757 98.5051 82.7737 98.5035H85.6955V107.04H77.5006V103.996ZM96.8704 119.512C96.8675 122.172 95.8519 124.722 94.0462 126.603C92.2405 128.484 89.7923 129.542 87.2387 129.545H87.1323C84.5787 129.542 82.1305 128.484 80.3248 126.603C78.5191 124.722 77.5035 122.172 77.5006 119.512V110.144H96.8704V119.512ZM91.5973 98.5035C92.9953 98.5051 94.3356 99.0844 95.3242 100.114C96.3128 101.144 96.8688 102.54 96.8704 103.996V107.04H88.6755V98.5035H91.5973Z" fill="white"/>
<path d="M544.08 90.6424C544.673 90.6417 545.241 90.3962 545.66 89.9597C546.079 89.5233 546.315 88.9315 546.315 88.3143V84.4341H543.335V87.5382H526.945C526.353 87.5389 525.785 87.7844 525.366 88.2209C524.947 88.6573 524.711 89.2491 524.71 89.8663V93.7465H521.789C519.601 93.7491 517.503 94.6557 515.956 96.2674C514.408 97.8791 513.538 100.064 513.536 102.344V117.859C513.536 125.103 519.193 130.996 526.147 130.996H526.254C533.208 130.996 538.865 125.103 538.865 117.859V102.344C538.863 100.064 537.992 97.8791 536.445 96.2674C534.898 94.6557 532.8 93.7491 530.612 93.7465H527.69V90.6424H544.08ZM516.515 102.344C516.517 100.887 517.073 99.4911 518.062 98.4613C519.05 97.4315 520.391 96.8523 521.789 96.8507H524.71V105.387H516.515V102.344ZM535.885 117.859C535.882 120.519 534.867 123.069 533.061 124.95C531.255 126.831 528.807 127.889 526.254 127.892H526.147C523.594 127.889 521.145 126.831 519.34 124.95C517.534 123.069 516.518 120.519 516.515 117.859V108.491H535.885V117.859ZM530.612 96.8507C532.01 96.8523 533.351 97.4315 534.339 98.4613C535.328 99.4911 535.884 100.887 535.885 102.344V105.387H527.69V96.8507H530.612Z" fill="white"/>
<path d="M516.515 102.344C516.517 100.887 517.073 99.4911 518.062 98.4613C519.05 97.4315 520.391 96.8523 521.789 96.8507H524.71V105.387H516.515V102.344Z" fill="white"/>
<path d="M279.795 91.7347C280.387 91.734 280.955 91.4885 281.374 91.052C281.793 90.6155 282.029 90.0238 282.03 89.4065V85.5264H279.05V88.6305H262.66C262.067 88.6312 261.499 88.8767 261.08 89.3132C260.661 89.7496 260.426 90.3414 260.425 90.9586V94.8388H257.503C255.315 94.8414 253.217 95.7479 251.67 97.3596C250.123 98.9713 249.253 101.157 249.25 103.436V118.951C249.25 126.195 254.908 132.089 261.862 132.089H261.968C268.922 132.089 274.58 126.195 274.58 118.951V103.436C274.577 101.157 273.707 98.9713 272.16 97.3596C270.613 95.7479 268.515 94.8414 266.327 94.8388H263.405V91.7347H279.795ZM252.23 103.436C252.232 101.98 252.788 100.583 253.776 99.5536C254.765 98.5238 256.105 97.9446 257.503 97.9429H260.425V106.479H252.23V103.436ZM271.6 118.951C271.597 121.611 270.581 124.162 268.776 126.042C266.97 127.923 264.522 128.981 261.968 128.984H261.862C259.308 128.981 256.86 127.923 255.054 126.042C253.249 124.162 252.233 121.611 252.23 118.951V109.583H271.6V118.951ZM266.327 97.9429C267.725 97.9446 269.065 98.5238 270.054 99.5536C271.042 100.583 271.598 101.98 271.6 103.436V106.479H263.405V97.9429H266.327Z" fill="white"/>
<path d="M252.23 103.436C252.232 101.98 252.788 100.583 253.776 99.5536C254.765 98.5238 256.105 97.9446 257.503 97.9429H260.425V106.479H252.23V103.436Z" fill="white"/>
<path d="M42.968 65.1006L45.059 54.2983H45.846L48.8706 62.2457L51.8799 54.2983H52.6669L54.7656 65.1006H53.6622L52.065 56.8368L49.2101 64.3907H48.5157L45.6608 56.8368L44.0636 65.1006H42.968ZM59.3987 65.3012C58.6888 65.3012 58.0407 65.1186 57.4542 64.7534C56.873 64.3881 56.4075 63.8995 56.0577 63.2873C55.713 62.6701 55.5407 61.9885 55.5407 61.2426C55.5407 60.6768 55.641 60.1495 55.8416 59.6609C56.0422 59.167 56.3174 58.7349 56.6672 58.3646C57.0222 57.9891 57.4337 57.6959 57.9018 57.485C58.3699 57.2741 58.8688 57.1686 59.3987 57.1686C60.1085 57.1686 60.7541 57.3512 61.3354 57.7164C61.9218 58.0817 62.3873 58.5729 62.7319 59.1902C63.0817 59.8075 63.2566 60.4916 63.2566 61.2426C63.2566 61.8033 63.1563 62.328 62.9557 62.8167C62.7551 63.3053 62.4773 63.7374 62.1224 64.1129C61.7726 64.4833 61.3636 64.7739 60.8955 64.9848C60.4326 65.1957 59.9336 65.3012 59.3987 65.3012ZM59.3987 64.221C59.9233 64.221 60.394 64.0847 60.8107 63.812C61.2325 63.5343 61.5643 63.169 61.806 62.7164C62.0529 62.2637 62.1764 61.7725 62.1764 61.2426C62.1764 60.7025 62.0529 60.2061 61.806 59.7535C61.5591 59.2956 61.2248 58.9304 60.803 58.6578C60.3863 58.3852 59.9182 58.2488 59.3987 58.2488C58.874 58.2488 58.4007 58.3877 57.9789 58.6655C57.5623 58.9381 57.2305 59.3008 56.9836 59.7535C56.7418 60.2061 56.6209 60.7025 56.6209 61.2426C56.6209 61.7982 56.747 62.3023 56.999 62.7549C57.2511 63.2025 57.588 63.56 58.0098 63.8275C58.4316 64.0898 58.8946 64.221 59.3987 64.221ZM67.9588 65.1006H66.5853L63.769 57.3615H64.9187L67.272 63.8352L69.6254 57.3615H70.7751L67.9588 65.1006ZM72.0534 57.3847H73.1336V65.1006H72.0534V57.3847ZM72.6012 56.0344C72.4263 56.0344 72.2771 55.9778 72.1537 55.8646C72.0354 55.7463 71.9762 55.5997 71.9762 55.4248C71.9762 55.2499 72.0354 55.1059 72.1537 54.9927C72.2771 54.8744 72.4263 54.8153 72.6012 54.8153C72.771 54.8153 72.915 54.8744 73.0333 54.9927C73.1568 55.1059 73.2185 55.2499 73.2185 55.4248C73.2185 55.5997 73.1593 55.7463 73.041 55.8646C72.9227 55.9778 72.7761 56.0344 72.6012 56.0344ZM74.9619 65.1006V57.3847H76.0421V58.4495C76.3199 58.0585 76.6749 57.7473 77.1069 57.5158C77.539 57.2844 78.0123 57.1686 78.5267 57.1686C79.1079 57.1686 79.6403 57.3126 80.1239 57.6007C80.6074 57.8836 80.9855 58.2617 81.2581 58.7349C81.5307 58.2617 81.9062 57.8836 82.3846 57.6007C82.863 57.3126 83.3928 57.1686 83.9741 57.1686C84.5554 57.1686 85.0852 57.3101 85.5636 57.593C86.042 57.8759 86.4226 58.2566 86.7056 58.7349C86.9885 59.2133 87.1299 59.7432 87.1299 60.3244V65.1006H86.0497V60.5636C86.0497 60.1521 85.9494 59.7715 85.7488 59.4217C85.5482 59.0719 85.2781 58.7915 84.9386 58.5806C84.6042 58.3646 84.2313 58.2566 83.8198 58.2566C83.4083 58.2566 83.0328 58.3569 82.6933 58.5575C82.3589 58.753 82.0914 59.0256 81.8908 59.3754C81.6902 59.72 81.5899 60.1161 81.5899 60.5636V65.1006H80.5097V60.5636C80.5097 60.1161 80.4094 59.72 80.2087 59.3754C80.0081 59.0256 79.7381 58.753 79.3986 58.5575C79.0591 58.3569 78.6836 58.2566 78.272 58.2566C77.8657 58.2566 77.4927 58.3646 77.1532 58.5806C76.8137 58.7915 76.5437 59.0719 76.3431 59.4217C76.1425 59.7715 76.0421 60.1521 76.0421 60.5636V65.1006H74.9619ZM88.6758 57.3847H89.756V65.1006H88.6758V57.3847ZM89.2236 56.0344C89.0487 56.0344 88.8995 55.9778 88.7761 55.8646C88.6578 55.7463 88.5986 55.5997 88.5986 55.4248C88.5986 55.2499 88.6578 55.1059 88.7761 54.9927C88.8995 54.8744 89.0487 54.8153 89.2236 54.8153C89.3933 54.8153 89.5374 54.8744 89.6557 54.9927C89.7791 55.1059 89.8409 55.2499 89.8409 55.4248C89.8409 55.5997 89.7817 55.7463 89.6634 55.8646C89.5451 55.9778 89.3985 56.0344 89.2236 56.0344ZM94.9341 65.3012C94.2242 65.3012 93.5761 65.1186 92.9897 64.7534C92.4084 64.3881 91.9429 63.8995 91.5931 63.2873C91.2485 62.6701 91.0761 61.9885 91.0761 61.2426C91.0761 60.6768 91.1764 60.1495 91.3771 59.6609C91.5777 59.167 91.8529 58.7349 92.2027 58.3646C92.5576 57.9891 92.9691 57.6959 93.4372 57.485C93.9053 57.2741 94.4043 57.1686 94.9341 57.1686C95.5051 57.1686 96.0298 57.2818 96.5081 57.5081C96.9917 57.7345 97.4058 58.0508 97.7504 58.4572C98.1002 58.8635 98.3625 59.3394 98.5374 59.8846C98.7175 60.4299 98.7921 61.0189 98.7612 61.6516H92.2181C92.2798 62.1402 92.4341 62.5775 92.681 62.9633C92.9331 63.3491 93.252 63.6551 93.6378 63.8815C94.0288 64.1027 94.4609 64.2158 94.9341 64.221C95.4485 64.221 95.9114 64.0872 96.323 63.8197C96.7396 63.5523 97.074 63.1845 97.326 62.7164L98.4217 62.971C98.1131 63.6551 97.6475 64.2158 97.0251 64.6531C96.4027 65.0852 95.7057 65.3012 94.9341 65.3012ZM92.1872 60.7797H97.6733C97.6372 60.3013 97.4906 59.864 97.2334 59.468C96.9814 59.0667 96.6547 58.7478 96.2535 58.5112C95.8523 58.2694 95.4125 58.1485 94.9341 58.1485C94.4557 58.1485 94.0185 58.2669 93.6224 58.5035C93.2263 58.7349 92.9022 59.0513 92.6502 59.4525C92.3981 59.8486 92.2438 60.291 92.1872 60.7797ZM106.812 60.3244V65.1006H105.732V60.5405C105.732 60.1187 105.629 59.7354 105.423 59.3908C105.218 59.0462 104.942 58.771 104.598 58.5652C104.253 58.3594 103.87 58.2566 103.448 58.2566C103.031 58.2566 102.648 58.3594 102.298 58.5652C101.954 58.771 101.678 59.0462 101.473 59.3908C101.267 59.7354 101.164 60.1187 101.164 60.5405V65.1006H100.084V57.3847H101.164V58.4495C101.437 58.0585 101.792 57.7473 102.229 57.5158C102.666 57.2844 103.142 57.1686 103.656 57.1686C104.238 57.1686 104.767 57.3101 105.246 57.593C105.724 57.8759 106.105 58.2566 106.388 58.7349C106.671 59.2133 106.812 59.7432 106.812 60.3244ZM112.3 58.4649H110.456L110.448 65.1006H109.368L109.376 58.4649H107.979V57.3847H109.376L109.368 54.9619H110.448L110.456 57.3847H112.3V58.4649ZM116.861 65.3012C116.151 65.3012 115.503 65.1186 114.917 64.7534C114.336 64.3881 113.87 63.8995 113.52 63.2873C113.176 62.6701 113.003 61.9885 113.003 61.2426C113.003 60.6768 113.104 60.1495 113.304 59.6609C113.505 59.167 113.78 58.7349 114.13 58.3646C114.485 57.9891 114.896 57.6959 115.364 57.485C115.832 57.2741 116.331 57.1686 116.861 57.1686C117.571 57.1686 118.217 57.3512 118.798 57.7164C119.384 58.0817 119.85 58.5729 120.194 59.1902C120.544 59.8075 120.719 60.4916 120.719 61.2426C120.719 61.8033 120.619 62.328 120.418 62.8167C120.218 63.3053 119.94 63.7374 119.585 64.1129C119.235 64.4833 118.826 64.7739 118.358 64.9848C117.895 65.1957 117.396 65.3012 116.861 65.3012ZM116.861 64.221C117.386 64.221 117.857 64.0847 118.273 63.812C118.695 63.5343 119.027 63.169 119.269 62.7164C119.515 62.2637 119.639 61.7725 119.639 61.2426C119.639 60.7025 119.515 60.2061 119.269 59.7535C119.022 59.2956 118.687 58.9304 118.265 58.6578C117.849 58.3852 117.381 58.2488 116.861 58.2488C116.337 58.2488 115.863 58.3877 115.441 58.6655C115.025 58.9381 114.693 59.3008 114.446 59.7535C114.204 60.2061 114.083 60.7025 114.083 61.2426C114.083 61.7982 114.209 62.3023 114.462 62.7549C114.714 63.2025 115.051 63.56 115.472 63.8275C115.894 64.0898 116.357 64.221 116.861 64.221ZM124.425 65.2472C124.004 65.2369 123.592 65.1597 123.191 65.0157C122.79 64.8717 122.44 64.6762 122.141 64.4293C121.843 64.1824 121.63 63.902 121.501 63.5883L122.435 63.187C122.517 63.3877 122.669 63.5728 122.89 63.7426C123.116 63.9072 123.373 64.0409 123.661 64.1438C123.95 64.2415 124.235 64.2904 124.518 64.2904C124.832 64.2904 125.125 64.239 125.398 64.1361C125.67 64.0332 125.891 63.8866 126.061 63.6963C126.236 63.5008 126.323 63.2719 126.323 63.0096C126.323 62.7267 126.231 62.5055 126.046 62.346C125.86 62.1814 125.626 62.0528 125.344 61.9602C125.061 61.8625 124.77 61.7699 124.472 61.6824C123.926 61.5333 123.445 61.3687 123.029 61.1886C122.612 61.0086 122.285 60.7797 122.049 60.5019C121.817 60.219 121.702 59.8563 121.702 59.414C121.702 58.9459 121.833 58.5421 122.095 58.2026C122.363 57.8579 122.71 57.593 123.137 57.4078C123.569 57.2175 124.029 57.1223 124.518 57.1223C125.145 57.1223 125.716 57.2586 126.231 57.5313C126.75 57.8039 127.126 58.1665 127.357 58.6192L126.485 59.1362C126.393 58.9253 126.246 58.7427 126.046 58.5883C125.845 58.434 125.616 58.3131 125.359 58.2257C125.107 58.1383 124.85 58.092 124.587 58.0868C124.258 58.0817 123.952 58.1305 123.669 58.2334C123.386 58.3311 123.157 58.4778 122.982 58.6732C122.813 58.8687 122.728 59.1079 122.728 59.3908C122.728 59.6737 122.813 59.8898 122.982 60.0389C123.152 60.183 123.381 60.3013 123.669 60.3939C123.962 60.4813 124.292 60.5842 124.657 60.7025C125.125 60.8517 125.565 61.0214 125.976 61.2118C126.388 61.4021 126.72 61.6387 126.972 61.9216C127.224 62.2045 127.347 62.562 127.342 62.9941C127.342 63.4571 127.203 63.8609 126.925 64.2055C126.648 64.5502 126.287 64.8151 125.845 65.0003C125.403 65.1803 124.929 65.2626 124.425 65.2472ZM139.108 60.3244V65.1006H138.027V60.5405C138.027 60.1187 137.924 59.7354 137.719 59.3908C137.513 59.0462 137.238 58.771 136.893 58.5652C136.548 58.3594 136.165 58.2566 135.743 58.2566C135.327 58.2566 134.943 58.3594 134.594 58.5652C134.249 58.771 133.974 59.0462 133.768 59.3908C133.562 59.7354 133.459 60.1187 133.459 60.5405V65.1006H132.379V53.5267H133.459V58.4495C133.732 58.0585 134.087 57.7473 134.524 57.5158C134.961 57.2844 135.437 57.1686 135.952 57.1686C136.533 57.1686 137.063 57.3101 137.541 57.593C138.02 57.8759 138.4 58.2566 138.683 58.7349C138.966 59.2133 139.108 59.7432 139.108 60.3244ZM143.897 65.3012C143.187 65.3012 142.539 65.1186 141.953 64.7534C141.371 64.3881 140.906 63.8995 140.556 63.2873C140.211 62.6701 140.039 61.9885 140.039 61.2426C140.039 60.6768 140.139 60.1495 140.34 59.6609C140.541 59.167 140.816 58.7349 141.166 58.3646C141.521 57.9891 141.932 57.6959 142.4 57.485C142.868 57.2741 143.367 57.1686 143.897 57.1686C144.607 57.1686 145.252 57.3512 145.834 57.7164C146.42 58.0817 146.886 58.5729 147.23 59.1902C147.58 59.8075 147.755 60.4916 147.755 61.2426C147.755 61.8033 147.655 62.328 147.454 62.8167C147.253 63.3053 146.976 63.7374 146.621 64.1129C146.271 64.4833 145.862 64.7739 145.394 64.9848C144.931 65.1957 144.432 65.3012 143.897 65.3012ZM143.897 64.221C144.422 64.221 144.892 64.0847 145.309 63.812C145.731 63.5343 146.063 63.169 146.304 62.7164C146.551 62.2637 146.675 61.7725 146.675 61.2426C146.675 60.7025 146.551 60.2061 146.304 59.7535C146.058 59.2956 145.723 58.9304 145.301 58.6578C144.885 58.3852 144.417 58.2488 143.897 58.2488C143.372 58.2488 142.899 58.3877 142.477 58.6655C142.061 58.9381 141.729 59.3008 141.482 59.7535C141.24 60.2061 141.119 60.7025 141.119 61.2426C141.119 61.7982 141.245 62.3023 141.497 62.7549C141.749 63.2025 142.086 63.56 142.508 63.8275C142.93 64.0898 143.393 64.221 143.897 64.221ZM149.062 65.1006V57.3847H150.142V58.4495C150.415 58.0585 150.77 57.7473 151.207 57.5158C151.644 57.2844 152.12 57.1686 152.634 57.1686C152.933 57.1686 153.221 57.2072 153.499 57.2844L153.059 58.3569C152.843 58.29 152.632 58.2566 152.426 58.2566C152.009 58.2566 151.626 58.3594 151.276 58.5652C150.932 58.771 150.657 59.0462 150.451 59.3908C150.245 59.7354 150.142 60.1187 150.142 60.5405V65.1006H149.062ZM154.472 57.3847H155.552V65.1006H154.472V57.3847ZM155.02 56.0344C154.845 56.0344 154.696 55.9778 154.572 55.8646C154.454 55.7463 154.395 55.5997 154.395 55.4248C154.395 55.2499 154.454 55.1059 154.572 54.9927C154.696 54.8744 154.845 54.8153 155.02 54.8153C155.19 54.8153 155.334 54.8744 155.452 54.9927C155.575 55.1059 155.637 55.2499 155.637 55.4248C155.637 55.5997 155.578 55.7463 155.46 55.8646C155.341 55.9778 155.195 56.0344 155.02 56.0344ZM163.692 58.4649L158.63 64.0204H163.692V65.1006H157.102V64.0204L162.164 58.4649H157.102V57.3847H163.692V58.4649ZM168.552 65.3012C167.842 65.3012 167.194 65.1186 166.607 64.7534C166.026 64.3881 165.561 63.8995 165.211 63.2873C164.866 62.6701 164.694 61.9885 164.694 61.2426C164.694 60.6768 164.794 60.1495 164.995 59.6609C165.195 59.167 165.471 58.7349 165.82 58.3646C166.175 57.9891 166.587 57.6959 167.055 57.485C167.523 57.2741 168.022 57.1686 168.552 57.1686C169.262 57.1686 169.907 57.3512 170.489 57.7164C171.075 58.0817 171.54 58.5729 171.885 59.1902C172.235 59.8075 172.41 60.4916 172.41 61.2426C172.41 61.8033 172.309 62.328 172.109 62.8167C171.908 63.3053 171.63 63.7374 171.276 64.1129C170.926 64.4833 170.517 64.7739 170.049 64.9848C169.586 65.1957 169.087 65.3012 168.552 65.3012ZM168.552 64.221C169.077 64.221 169.547 64.0847 169.964 63.812C170.386 63.5343 170.717 63.169 170.959 62.7164C171.206 62.2637 171.33 61.7725 171.33 61.2426C171.33 60.7025 171.206 60.2061 170.959 59.7535C170.712 59.2956 170.378 58.9304 169.956 58.6578C169.539 58.3852 169.071 58.2488 168.552 58.2488C168.027 58.2488 167.554 58.3877 167.132 58.6655C166.715 58.9381 166.384 59.3008 166.137 59.7535C165.895 60.2061 165.774 60.7025 165.774 61.2426C165.774 61.7982 165.9 62.3023 166.152 62.7549C166.404 63.2025 166.741 63.56 167.163 63.8275C167.585 64.0898 168.048 64.221 168.552 64.221ZM180.445 60.3244V65.1006H179.365V60.5405C179.365 60.1187 179.262 59.7354 179.056 59.3908C178.85 59.0462 178.575 58.771 178.23 58.5652C177.886 58.3594 177.503 58.2566 177.081 58.2566C176.664 58.2566 176.281 58.3594 175.931 58.5652C175.587 58.771 175.311 59.0462 175.106 59.3908C174.9 59.7354 174.797 60.1187 174.797 60.5405V65.1006H173.717V57.3847H174.797V58.4495C175.07 58.0585 175.424 57.7473 175.862 57.5158C176.299 57.2844 176.775 57.1686 177.289 57.1686C177.87 57.1686 178.4 57.3101 178.879 57.593C179.357 57.8759 179.738 58.2566 180.021 58.7349C180.304 59.2133 180.445 59.7432 180.445 60.3244ZM185.933 58.4649H184.089L184.081 65.1006H183.001L183.009 58.4649H181.612V57.3847H183.009L183.001 54.9619H184.081L184.089 57.3847H185.933V58.4649ZM193.441 57.3847H194.522V65.1006H193.441L193.403 63.6654C193.151 64.1541 192.798 64.5502 192.346 64.8537C191.893 65.152 191.353 65.3012 190.725 65.3012C190.16 65.3012 189.63 65.1957 189.136 64.9848C188.642 64.7688 188.208 64.473 187.832 64.0975C187.456 63.722 187.163 63.2873 186.952 62.7935C186.741 62.2997 186.636 61.7699 186.636 61.204C186.636 60.6485 186.739 60.1264 186.945 59.6377C187.156 59.149 187.444 58.7195 187.809 58.3492C188.179 57.9788 188.606 57.6907 189.09 57.485C189.578 57.2741 190.1 57.1686 190.656 57.1686C191.299 57.1686 191.86 57.3229 192.338 57.6316C192.816 57.9351 193.197 58.3337 193.48 58.8275L193.441 57.3847ZM190.702 64.2518C191.253 64.2518 191.726 64.1181 192.122 63.8506C192.518 63.578 192.822 63.2128 193.033 62.7549C193.249 62.2971 193.357 61.793 193.357 61.2426C193.357 60.6768 193.249 60.1675 193.033 59.7149C192.816 59.2571 192.51 58.8944 192.114 58.6269C191.718 58.3594 191.248 58.2257 190.702 58.2257C190.157 58.2257 189.658 58.362 189.205 58.6346C188.758 58.9021 188.4 59.2648 188.133 59.7226C187.871 60.1804 187.739 60.6871 187.739 61.2426C187.739 61.8033 187.876 62.3126 188.148 62.7704C188.421 63.223 188.781 63.5831 189.229 63.8506C189.681 64.1181 190.173 64.2518 190.702 64.2518ZM196.171 65.1006V53.5267H197.251V65.1006H196.171ZM202.445 65.3012C201.735 65.3012 201.087 65.1186 200.5 64.7534C199.919 64.3881 199.453 63.8995 199.104 63.2873C198.759 62.6701 198.587 61.9885 198.587 61.2426C198.587 60.6768 198.687 60.1495 198.888 59.6609C199.088 59.167 199.363 58.7349 199.713 58.3646C200.068 57.9891 200.48 57.6959 200.948 57.485C201.416 57.2741 201.915 57.1686 202.445 57.1686C203.016 57.1686 203.54 57.2818 204.019 57.5081C204.502 57.7345 204.916 58.0508 205.261 58.4572C205.611 58.8635 205.873 59.3394 206.048 59.8846C206.228 60.4299 206.303 61.0189 206.272 61.6516H199.729C199.79 62.1402 199.945 62.5775 200.192 62.9633C200.444 63.3491 200.763 63.6551 201.148 63.8815C201.539 64.1027 201.971 64.2158 202.445 64.221C202.959 64.221 203.422 64.0872 203.834 63.8197C204.25 63.5523 204.585 63.1845 204.837 62.7164L205.932 62.971C205.624 63.6551 205.158 64.2158 204.536 64.6531C203.913 65.0852 203.216 65.3012 202.445 65.3012ZM199.698 60.7797H205.184C205.148 60.3013 205.001 59.864 204.744 59.468C204.492 59.0667 204.165 58.7478 203.764 58.5112C203.363 58.2694 202.923 58.1485 202.445 58.1485C201.966 58.1485 201.529 58.2669 201.133 58.5035C200.737 58.7349 200.413 59.0513 200.161 59.4525C199.909 59.8486 199.754 60.291 199.698 60.7797ZM209.994 65.2472C209.572 65.2369 209.16 65.1597 208.759 65.0157C208.358 64.8717 208.008 64.6762 207.71 64.4293C207.411 64.1824 207.198 63.902 207.069 63.5883L208.003 63.187C208.085 63.3877 208.237 63.5728 208.458 63.7426C208.685 63.9072 208.942 64.0409 209.23 64.1438C209.518 64.2415 209.803 64.2904 210.086 64.2904C210.4 64.2904 210.693 64.239 210.966 64.1361C211.239 64.0332 211.46 63.8866 211.629 63.6963C211.804 63.5008 211.892 63.2719 211.892 63.0096C211.892 62.7267 211.799 62.5055 211.614 62.346C211.429 62.1814 211.195 62.0528 210.912 61.9602C210.629 61.8625 210.338 61.7699 210.04 61.6824C209.495 61.5333 209.014 61.3687 208.597 61.1886C208.18 61.0086 207.854 60.7797 207.617 60.5019C207.386 60.219 207.27 59.8563 207.27 59.414C207.27 58.9459 207.401 58.5421 207.663 58.2026C207.931 57.8579 208.278 57.593 208.705 57.4078C209.137 57.2175 209.598 57.1223 210.086 57.1223C210.714 57.1223 211.285 57.2586 211.799 57.5313C212.319 57.8039 212.694 58.1665 212.926 58.6192L212.054 59.1362C211.961 58.9253 211.815 58.7427 211.614 58.5883C211.413 58.434 211.185 58.3131 210.927 58.2257C210.675 58.1383 210.418 58.092 210.156 58.0868C209.827 58.0817 209.52 58.1305 209.238 58.2334C208.955 58.3311 208.726 58.4778 208.551 58.6732C208.381 58.8687 208.296 59.1079 208.296 59.3908C208.296 59.6737 208.381 59.8898 208.551 60.0389C208.721 60.183 208.949 60.3013 209.238 60.3939C209.531 60.4813 209.86 60.5842 210.225 60.7025C210.693 60.8517 211.133 61.0214 211.545 61.2118C211.956 61.4021 212.288 61.6387 212.54 61.9216C212.792 62.2045 212.915 62.562 212.91 62.9941C212.91 63.4571 212.771 63.8609 212.494 64.2055C212.216 64.5502 211.856 64.8151 211.413 65.0003C210.971 65.1803 210.498 65.2626 209.994 65.2472ZM221.343 65.3012C220.633 65.3012 219.985 65.1186 219.398 64.7534C218.817 64.3881 218.351 63.8995 218.002 63.2873C217.657 62.6701 217.485 61.9885 217.485 61.2426C217.485 60.6768 217.585 60.1495 217.786 59.6609C217.986 59.167 218.261 58.7349 218.611 58.3646C218.966 57.9891 219.378 57.6959 219.846 57.485C220.314 57.2741 220.813 57.1686 221.343 57.1686C221.914 57.1686 222.438 57.2818 222.917 57.5081C223.4 57.7345 223.814 58.0508 224.159 58.4572C224.509 58.8635 224.771 59.3394 224.946 59.8846C225.126 60.4299 225.201 61.0189 225.17 61.6516H218.627C218.688 62.1402 218.843 62.5775 219.09 62.9633C219.342 63.3491 219.661 63.6551 220.046 63.8815C220.437 64.1027 220.869 64.2158 221.343 64.221C221.857 64.221 222.32 64.0872 222.731 63.8197C223.148 63.5523 223.482 63.1845 223.735 62.7164L224.83 62.971C224.522 63.6551 224.056 64.2158 223.434 64.6531C222.811 65.0852 222.114 65.3012 221.343 65.3012ZM218.596 60.7797H224.082C224.046 60.3013 223.899 59.864 223.642 59.468C223.39 59.0667 223.063 58.7478 222.662 58.5112C222.261 58.2694 221.821 58.1485 221.343 58.1485C220.864 58.1485 220.427 58.2669 220.031 58.5035C219.635 58.7349 219.311 59.0513 219.059 59.4525C218.807 59.8486 218.652 60.291 218.596 60.7797ZM233.221 60.3244V65.1006H232.14V60.5405C232.14 60.1187 232.038 59.7354 231.832 59.3908C231.626 59.0462 231.351 58.771 231.006 58.5652C230.662 58.3594 230.278 58.2566 229.857 58.2566C229.44 58.2566 229.057 58.3594 228.707 58.5652C228.362 58.771 228.087 59.0462 227.881 59.3908C227.675 59.7354 227.573 60.1187 227.573 60.5405V65.1006H226.492V57.3847H227.573V58.4495C227.845 58.0585 228.2 57.7473 228.637 57.5158C229.075 57.2844 229.55 57.1686 230.065 57.1686C230.646 57.1686 231.176 57.3101 231.654 57.593C232.133 57.8759 232.513 58.2566 232.796 58.7349C233.079 59.2133 233.221 59.7432 233.221 60.3244ZM241.868 65.3012C241.158 65.3012 240.51 65.1186 239.924 64.7534C239.342 64.3881 238.877 63.8995 238.527 63.2873C238.183 62.6701 238.01 61.9885 238.01 61.2426C238.01 60.6768 238.111 60.1495 238.311 59.6609C238.512 59.167 238.787 58.7349 239.137 58.3646C239.492 57.9891 239.903 57.6959 240.371 57.485C240.839 57.2741 241.338 57.1686 241.868 57.1686C242.439 57.1686 242.964 57.2818 243.442 57.5081C243.926 57.7345 244.34 58.0508 244.684 58.4572C245.034 58.8635 245.297 59.3394 245.472 59.8846C245.652 60.4299 245.726 61.0189 245.695 61.6516H239.152C239.214 62.1402 239.368 62.5775 239.615 62.9633C239.867 63.3491 240.186 63.6551 240.572 63.8815C240.963 64.1027 241.395 64.2158 241.868 64.221C242.383 64.221 242.846 64.0872 243.257 63.8197C243.674 63.5523 244.008 63.1845 244.26 62.7164L245.356 62.971C245.047 63.6551 244.582 64.2158 243.959 64.6531C243.337 65.0852 242.64 65.3012 241.868 65.3012ZM239.121 60.7797H244.607C244.571 60.3013 244.425 59.864 244.168 59.468C243.915 59.0667 243.589 58.7478 243.188 58.5112C242.786 58.2694 242.347 58.1485 241.868 58.1485C241.39 58.1485 240.953 58.2669 240.556 58.5035C240.16 58.7349 239.836 59.0513 239.584 59.4525C239.332 59.8486 239.178 60.291 239.121 60.7797ZM246.958 65.1006V53.5267H248.038V65.1006H246.958ZM257.546 58.4649H255.702L255.695 65.1006H254.614L254.622 58.4649H253.226V57.3847H254.622L254.614 54.9619H255.695L255.702 57.3847H257.546V58.4649ZM265.055 57.3847H266.135V65.1006H265.055L265.016 63.6654C264.764 64.1541 264.412 64.5502 263.959 64.8537C263.507 65.152 262.966 65.3012 262.339 65.3012C261.773 65.3012 261.243 65.1957 260.749 64.9848C260.256 64.7688 259.821 64.473 259.445 64.0975C259.07 63.722 258.777 63.2873 258.566 62.7935C258.355 62.2997 258.249 61.7699 258.249 61.204C258.249 60.6485 258.352 60.1264 258.558 59.6377C258.769 59.149 259.057 58.7195 259.422 58.3492C259.793 57.9788 260.22 57.6907 260.703 57.485C261.192 57.2741 261.714 57.1686 262.269 57.1686C262.912 57.1686 263.473 57.3229 263.952 57.6316C264.43 57.9351 264.811 58.3337 265.093 58.8275L265.055 57.3847ZM262.316 64.2518C262.866 64.2518 263.339 64.1181 263.735 63.8506C264.132 63.578 264.435 63.2128 264.646 62.7549C264.862 62.2971 264.97 61.793 264.97 61.2426C264.97 60.6768 264.862 60.1675 264.646 59.7149C264.43 59.2571 264.124 58.8944 263.728 58.6269C263.332 58.3594 262.861 58.2257 262.316 58.2257C261.77 58.2257 261.272 58.362 260.819 58.6346C260.371 58.9021 260.014 59.2648 259.746 59.7226C259.484 60.1804 259.353 60.6871 259.353 61.2426C259.353 61.8033 259.489 62.3126 259.762 62.7704C260.034 63.223 260.394 63.5831 260.842 63.8506C261.295 64.1181 261.786 64.2518 262.316 64.2518ZM271.612 57.1686C272.363 57.1686 273.044 57.3512 273.656 57.7164C274.274 58.0817 274.765 58.5729 275.13 59.1902C275.495 59.8023 275.678 60.4839 275.678 61.2349C275.678 61.7956 275.573 62.3229 275.362 62.8167C275.151 63.3053 274.858 63.7374 274.482 64.1129C274.112 64.4833 273.68 64.7739 273.186 64.9848C272.697 65.1957 272.172 65.3012 271.612 65.3012C270.974 65.3012 270.423 65.1495 269.961 64.846C269.498 64.5425 269.132 64.1464 268.865 63.6577V65.1006H267.785V53.5267H268.865V58.8121C269.132 58.3234 269.498 57.9273 269.961 57.6239C270.423 57.3204 270.974 57.1686 271.612 57.1686ZM271.604 64.2441C272.154 64.2441 272.653 64.1104 273.101 63.8429C273.548 63.5703 273.906 63.205 274.173 62.7472C274.441 62.2894 274.575 61.7853 274.575 61.2349C274.575 60.6691 274.438 60.1598 274.166 59.7072C273.893 59.2493 273.53 58.8867 273.078 58.6192C272.63 58.3517 272.139 58.218 271.604 58.218C271.059 58.218 270.586 58.3543 270.184 58.6269C269.788 58.8996 269.482 59.2648 269.266 59.7226C269.055 60.1804 268.95 60.6845 268.95 61.2349C268.95 61.7956 269.058 62.3048 269.274 62.7627C269.49 63.2153 269.796 63.5754 270.192 63.8429C270.593 64.1104 271.064 64.2441 271.604 64.2441ZM276.932 65.1006V53.5267H278.012V65.1006H276.932ZM283.206 65.3012C282.496 65.3012 281.848 65.1186 281.261 64.7534C280.68 64.3881 280.214 63.8995 279.865 63.2873C279.52 62.6701 279.348 61.9885 279.348 61.2426C279.348 60.6768 279.448 60.1495 279.649 59.6609C279.849 59.167 280.124 58.7349 280.474 58.3646C280.829 57.9891 281.241 57.6959 281.709 57.485C282.177 57.2741 282.676 57.1686 283.206 57.1686C283.777 57.1686 284.301 57.2818 284.78 57.5081C285.263 57.7345 285.677 58.0508 286.022 58.4572C286.372 58.8635 286.634 59.3394 286.809 59.8846C286.989 60.4299 287.064 61.0189 287.033 61.6516H280.49C280.551 62.1402 280.706 62.5775 280.953 62.9633C281.205 63.3491 281.524 63.6551 281.909 63.8815C282.3 64.1027 282.732 64.2158 283.206 64.221C283.72 64.221 284.183 64.0872 284.594 63.8197C285.011 63.5523 285.346 63.1845 285.598 62.7164L286.693 62.971C286.385 63.6551 285.919 64.2158 285.297 64.6531C284.674 65.0852 283.977 65.3012 283.206 65.3012ZM280.459 60.7797H285.945C285.909 60.3013 285.762 59.864 285.505 59.468C285.253 59.0667 284.926 58.7478 284.525 58.5112C284.124 58.2694 283.684 58.1485 283.206 58.1485C282.727 58.1485 282.29 58.2669 281.894 58.5035C281.498 58.7349 281.174 59.0513 280.922 59.4525C280.67 59.8486 280.515 60.291 280.459 60.7797ZM288.355 65.1006V57.3847H289.436V58.4495C289.708 58.0585 290.063 57.7473 290.5 57.5158C290.938 57.2844 291.413 57.1686 291.928 57.1686C292.226 57.1686 292.514 57.2072 292.792 57.2844L292.352 58.3569C292.136 58.29 291.925 58.2566 291.72 58.2566C291.303 58.2566 290.92 58.3594 290.57 58.5652C290.225 58.771 289.95 59.0462 289.744 59.3908C289.539 59.7354 289.436 60.1187 289.436 60.5405V65.1006H288.355ZM296.754 65.3012C296.044 65.3012 295.396 65.1186 294.809 64.7534C294.228 64.3881 293.762 63.8995 293.413 63.2873C293.068 62.6701 292.896 61.9885 292.896 61.2426C292.896 60.6768 292.996 60.1495 293.197 59.6609C293.397 59.167 293.672 58.7349 294.022 58.3646C294.377 57.9891 294.789 57.6959 295.257 57.485C295.725 57.2741 296.224 57.1686 296.754 57.1686C297.464 57.1686 298.109 57.3512 298.69 57.7164C299.277 58.0817 299.742 58.5729 300.087 59.1902C300.437 59.8075 300.612 60.4916 300.612 61.2426C300.612 61.8033 300.511 62.328 300.311 62.8167C300.11 63.3053 299.832 63.7374 299.477 64.1129C299.128 64.4833 298.719 64.7739 298.251 64.9848C297.788 65.1957 297.289 65.3012 296.754 65.3012ZM296.754 64.221C297.278 64.221 297.749 64.0847 298.166 63.812C298.588 63.5343 298.919 63.169 299.161 62.7164C299.408 62.2637 299.531 61.7725 299.531 61.2426C299.531 60.7025 299.408 60.2061 299.161 59.7535C298.914 59.2956 298.58 58.9304 298.158 58.6578C297.741 58.3852 297.273 58.2488 296.754 58.2488C296.229 58.2488 295.756 58.3877 295.334 58.6655C294.917 58.9381 294.586 59.3008 294.339 59.7535C294.097 60.2061 293.976 60.7025 293.976 61.2426C293.976 61.7982 294.102 62.3023 294.354 62.7549C294.606 63.2025 294.943 63.56 295.365 63.8275C295.787 64.0898 296.25 64.221 296.754 64.221ZM302.295 58.6192C302.125 58.6192 301.981 58.5601 301.863 58.4417C301.744 58.3183 301.685 58.1691 301.685 57.9942C301.685 57.8296 301.744 57.6882 301.863 57.5698C301.981 57.4464 302.125 57.3847 302.295 57.3847C302.47 57.3847 302.616 57.4464 302.735 57.5698C302.858 57.6882 302.92 57.8296 302.92 57.9942C302.92 58.1691 302.858 58.3183 302.735 58.4417C302.616 58.5601 302.47 58.6192 302.295 58.6192ZM302.295 65.3012C302.125 65.3012 301.981 65.2395 301.863 65.116C301.744 64.9977 301.685 64.8511 301.685 64.6762C301.685 64.5116 301.744 64.3701 301.863 64.2518C301.981 64.1284 302.125 64.0667 302.295 64.0667C302.47 64.0667 302.616 64.1284 302.735 64.2518C302.858 64.3701 302.92 64.5116 302.92 64.6762C302.92 64.8511 302.858 64.9977 302.735 65.116C302.616 65.2395 302.47 65.3012 302.295 65.3012Z" fill="white"/>
<path d="M50.8521 164.849L52.4204 156.747H53.0107L55.2792 162.707L57.5361 156.747H58.1263L59.7004 164.849H58.8728L57.675 158.651L55.5338 164.316H55.013L52.8718 158.651L51.6739 164.849H50.8521ZM63.1752 164.999C62.6428 164.999 62.1567 164.862 61.7169 164.588C61.2809 164.314 60.9318 163.948 60.6694 163.489C60.4109 163.026 60.2817 162.515 60.2817 161.955C60.2817 161.531 60.3569 161.135 60.5074 160.769C60.6579 160.398 60.8643 160.074 61.1266 159.797C61.3928 159.515 61.7014 159.295 62.0525 159.137C62.4036 158.979 62.7778 158.9 63.1752 158.9C63.7076 158.9 64.1917 159.037 64.6277 159.311C65.0675 159.584 65.4166 159.953 65.6751 160.416C65.9375 160.879 66.0686 161.392 66.0686 161.955C66.0686 162.376 65.9934 162.769 65.843 163.136C65.6925 163.502 65.4842 163.826 65.218 164.108C64.9556 164.386 64.6489 164.604 64.2978 164.762C63.9506 164.92 63.5764 164.999 63.1752 164.999ZM63.1752 164.189C63.5687 164.189 63.9217 164.087 64.2342 163.882C64.5505 163.674 64.7994 163.4 64.9807 163.06C65.1659 162.721 65.2585 162.353 65.2585 161.955C65.2585 161.55 65.1659 161.178 64.9807 160.838C64.7955 160.495 64.5447 160.221 64.2284 160.017C63.9159 159.812 63.5648 159.71 63.1752 159.71C62.7817 159.71 62.4267 159.814 62.1104 160.022C61.7979 160.227 61.549 160.499 61.3639 160.838C61.1825 161.178 61.0919 161.55 61.0919 161.955C61.0919 162.372 61.1864 162.75 61.3754 163.089C61.5645 163.425 61.8172 163.693 62.1335 163.894C62.4499 164.091 62.7971 164.189 63.1752 164.189ZM69.5952 164.849H68.5652L66.4529 159.044H67.3152L69.0802 163.9L70.8452 159.044H71.7075L69.5952 164.849ZM74.9864 164.999C74.454 164.999 73.9679 164.862 73.5281 164.588C73.0922 164.314 72.743 163.948 72.4807 163.489C72.2222 163.026 72.0929 162.515 72.0929 161.955C72.0929 161.531 72.1682 161.135 72.3186 160.769C72.4691 160.398 72.6755 160.074 72.9378 159.797C73.204 159.515 73.5127 159.295 73.8637 159.137C74.2148 158.979 74.589 158.9 74.9864 158.9C75.4146 158.9 75.8082 158.985 76.1669 159.154C76.5296 159.324 76.8402 159.561 77.0986 159.866C77.361 160.171 77.5577 160.528 77.6889 160.937C77.8239 161.346 77.8799 161.787 77.8567 162.262H72.9494C72.9957 162.628 73.1114 162.956 73.2966 163.246C73.4857 163.535 73.7249 163.765 74.0142 163.934C74.3074 164.1 74.6315 164.185 74.9864 164.189C75.3722 164.189 75.7194 164.089 76.0281 163.888C76.3406 163.687 76.5913 163.412 76.7804 163.06L77.6021 163.251C77.3706 163.765 77.0215 164.185 76.5547 164.513C76.0879 164.837 75.5651 164.999 74.9864 164.999ZM72.9263 161.608H77.0408C77.0138 161.249 76.9038 160.921 76.7109 160.624C76.5219 160.323 76.2769 160.084 75.976 159.907C75.6751 159.725 75.3452 159.635 74.9864 159.635C74.6276 159.635 74.2997 159.723 74.0026 159.901C73.7056 160.074 73.4625 160.312 73.2735 160.613C73.0844 160.91 72.9687 161.241 72.9263 161.608ZM78.8487 164.849V159.062H79.6589V159.86C79.8634 159.567 80.1296 159.334 80.4575 159.16C80.7854 158.986 81.1423 158.9 81.5281 158.9C81.7519 158.9 81.9679 158.929 82.1762 158.986L81.8464 159.791C81.6843 159.741 81.5262 159.716 81.3718 159.716C81.0594 159.716 80.7719 159.793 80.5096 159.947C80.2511 160.101 80.0447 160.308 79.8904 160.566C79.7361 160.825 79.6589 161.112 79.6589 161.429V164.849H78.8487ZM85.7659 164.849V159.062H86.5761V159.86C86.7844 159.567 87.0506 159.334 87.3747 159.16C87.6988 158.986 88.0537 158.9 88.4395 158.9C88.8755 158.9 89.2748 159.008 89.6374 159.224C90.0001 159.436 90.2836 159.719 90.4881 160.074C90.6926 159.719 90.9742 159.436 91.333 159.224C91.6918 159.008 92.0891 158.9 92.5251 158.9C92.961 158.9 93.3584 159.006 93.7172 159.218C94.076 159.43 94.3615 159.716 94.5737 160.074C94.7859 160.433 94.892 160.831 94.892 161.267V164.849H94.0818V161.446C94.0818 161.137 94.0065 160.852 93.8561 160.589C93.7056 160.327 93.5031 160.117 93.2485 159.959C92.9977 159.797 92.718 159.716 92.4094 159.716C92.1007 159.716 91.8191 159.791 91.5645 159.941C91.3137 160.088 91.1131 160.292 90.9626 160.555C90.8122 160.813 90.7369 161.11 90.7369 161.446V164.849H89.9268V161.446C89.9268 161.11 89.8515 160.813 89.7011 160.555C89.5506 160.292 89.3481 160.088 89.0934 159.941C88.8388 159.791 88.5572 159.716 88.2485 159.716C87.9438 159.716 87.6641 159.797 87.4094 159.959C87.1548 160.117 86.9523 160.327 86.8018 160.589C86.6513 160.852 86.5761 161.137 86.5761 161.446V164.849H85.7659ZM98.4846 164.999C97.9522 164.999 97.4661 164.862 97.0262 164.588C96.5903 164.314 96.2412 163.948 95.9788 163.489C95.7203 163.026 95.5911 162.515 95.5911 161.955C95.5911 161.531 95.6663 161.135 95.8168 160.769C95.9672 160.398 96.1736 160.074 96.436 159.797C96.7022 159.515 97.0108 159.295 97.3619 159.137C97.713 158.979 98.0872 158.9 98.4846 158.9C99.017 158.9 99.5011 159.037 99.9371 159.311C100.377 159.584 100.726 159.953 100.985 160.416C101.247 160.879 101.378 161.392 101.378 161.955C101.378 162.376 101.303 162.769 101.152 163.136C101.002 163.502 100.794 163.826 100.527 164.108C100.265 164.386 99.9583 164.604 99.6072 164.762C99.26 164.92 98.8858 164.999 98.4846 164.999ZM98.4846 164.189C98.8781 164.189 99.2311 164.087 99.5436 163.882C99.8599 163.674 100.109 163.4 100.29 163.06C100.475 162.721 100.568 162.353 100.568 161.955C100.568 161.55 100.475 161.178 100.29 160.838C100.105 160.495 99.8541 160.221 99.5378 160.017C99.2253 159.812 98.8742 159.71 98.4846 159.71C98.091 159.71 97.7361 159.814 97.4198 160.022C97.1073 160.227 96.8584 160.499 96.6732 160.838C96.4919 161.178 96.4013 161.55 96.4013 161.955C96.4013 162.372 96.4958 162.75 96.6848 163.089C96.8739 163.425 97.1266 163.693 97.4429 163.894C97.7593 164.091 98.1065 164.189 98.4846 164.189ZM102.07 162.632V159.062H102.88V162.47C102.88 162.787 102.958 163.074 103.112 163.332C103.266 163.591 103.473 163.797 103.731 163.952C103.993 164.106 104.281 164.183 104.593 164.183C104.91 164.183 105.195 164.106 105.45 163.952C105.708 163.797 105.915 163.591 106.069 163.332C106.223 163.074 106.3 162.787 106.3 162.47V159.062H107.111L107.116 164.849H106.306L106.3 164.038C106.096 164.332 105.83 164.565 105.502 164.739C105.178 164.912 104.823 164.999 104.437 164.999C104.001 164.999 103.604 164.893 103.245 164.681C102.886 164.469 102.601 164.183 102.388 163.824C102.176 163.466 102.07 163.068 102.07 162.632ZM110.058 164.959C109.741 164.951 109.433 164.893 109.132 164.785C108.831 164.677 108.568 164.53 108.345 164.345C108.121 164.16 107.961 163.95 107.864 163.714L108.565 163.413C108.626 163.564 108.74 163.703 108.906 163.83C109.076 163.954 109.269 164.054 109.485 164.131C109.701 164.204 109.915 164.241 110.127 164.241C110.362 164.241 110.582 164.202 110.787 164.125C110.991 164.048 111.157 163.938 111.284 163.795C111.416 163.649 111.481 163.477 111.481 163.28C111.481 163.068 111.412 162.902 111.273 162.783C111.134 162.659 110.958 162.563 110.746 162.493C110.534 162.42 110.316 162.351 110.092 162.285C109.683 162.173 109.323 162.05 109.01 161.915C108.698 161.78 108.453 161.608 108.275 161.4C108.102 161.187 108.015 160.915 108.015 160.584C108.015 160.233 108.113 159.93 108.31 159.675C108.511 159.417 108.771 159.218 109.091 159.079C109.415 158.936 109.761 158.865 110.127 158.865C110.598 158.865 111.026 158.967 111.412 159.172C111.801 159.376 112.083 159.648 112.257 159.988L111.603 160.375C111.533 160.217 111.423 160.08 111.273 159.964C111.122 159.849 110.951 159.758 110.758 159.692C110.569 159.627 110.376 159.592 110.179 159.588C109.932 159.584 109.703 159.621 109.491 159.698C109.278 159.772 109.107 159.882 108.975 160.028C108.848 160.175 108.785 160.354 108.785 160.566C108.785 160.778 108.848 160.941 108.975 161.052C109.103 161.16 109.274 161.249 109.491 161.319C109.71 161.384 109.957 161.461 110.231 161.55C110.582 161.662 110.912 161.789 111.221 161.932C111.529 162.075 111.778 162.252 111.967 162.464C112.156 162.677 112.249 162.945 112.245 163.269C112.245 163.616 112.141 163.919 111.933 164.177C111.724 164.436 111.454 164.635 111.122 164.773C110.791 164.908 110.436 164.97 110.058 164.959ZM115.744 164.999C115.211 164.999 114.725 164.862 114.285 164.588C113.849 164.314 113.5 163.948 113.238 163.489C112.979 163.026 112.85 162.515 112.85 161.955C112.85 161.531 112.925 161.135 113.076 160.769C113.226 160.398 113.433 160.074 113.695 159.797C113.961 159.515 114.27 159.295 114.621 159.137C114.972 158.979 115.346 158.9 115.744 158.9C116.172 158.9 116.565 158.985 116.924 159.154C117.287 159.324 117.597 159.561 117.856 159.866C118.118 160.171 118.315 160.528 118.446 160.937C118.581 161.346 118.637 161.787 118.614 162.262H113.707C113.753 162.628 113.869 162.956 114.054 163.246C114.243 163.535 114.482 163.765 114.771 163.934C115.065 164.1 115.389 164.185 115.744 164.189C116.129 164.189 116.477 164.089 116.785 163.888C117.098 163.687 117.349 163.412 117.538 163.06L118.359 163.251C118.128 163.765 117.779 164.185 117.312 164.513C116.845 164.837 116.322 164.999 115.744 164.999ZM113.684 161.608H117.798C117.771 161.249 117.661 160.921 117.468 160.624C117.279 160.323 117.034 160.084 116.733 159.907C116.432 159.725 116.102 159.635 115.744 159.635C115.385 159.635 115.057 159.723 114.76 159.901C114.463 160.074 114.22 160.312 114.031 160.613C113.842 160.91 113.726 161.241 113.684 161.608Z" fill="white"/>
<path d="M468.088 65.7788V54.9765H474.662V56.0567H469.168V59.4518H473.713V60.532H469.168V64.6986H474.662V65.7788H468.088ZM474.818 69.6368V68.5565C475.204 68.5565 475.549 68.4717 475.852 68.3019C476.156 68.1322 476.395 67.8981 476.57 67.5998C476.745 67.3066 476.832 66.9773 476.832 66.6121V58.0629H477.913V66.6121C477.913 67.1677 477.776 67.6744 477.504 68.1322C477.236 68.59 476.868 68.9552 476.4 69.2278C475.937 69.5005 475.41 69.6368 474.818 69.6368ZM477.38 56.7126C477.205 56.7126 477.056 56.656 476.933 56.5428C476.814 56.4245 476.755 56.2779 476.755 56.103C476.755 55.9281 476.814 55.7841 476.933 55.6709C477.056 55.5526 477.205 55.4935 477.38 55.4935C477.55 55.4935 477.694 55.5526 477.812 55.6709C477.936 55.7841 477.997 55.9281 477.997 56.103C477.997 56.2779 477.938 56.4245 477.82 56.5428C477.702 56.656 477.555 56.7126 477.38 56.7126ZM483.087 65.9794C482.377 65.9794 481.729 65.7968 481.143 65.4316C480.561 65.0664 480.096 64.5777 479.746 63.9656C479.402 63.3483 479.229 62.6667 479.229 61.9208C479.229 61.355 479.33 60.8278 479.53 60.3391C479.731 59.8453 480.006 59.4132 480.356 59.0428C480.711 58.6673 481.122 58.3741 481.59 58.1632C482.058 57.9523 482.557 57.8468 483.087 57.8468C483.658 57.8468 484.183 57.96 484.661 58.1863C485.145 58.4127 485.559 58.729 485.903 59.1354C486.253 59.5418 486.516 60.0176 486.691 60.5628C486.871 61.1081 486.945 61.6971 486.914 62.3298H480.371C480.433 62.8185 480.587 63.2557 480.834 63.6415C481.086 64.0273 481.405 64.3334 481.791 64.5597C482.182 64.7809 482.614 64.894 483.087 64.8992C483.602 64.8992 484.065 64.7655 484.476 64.498C484.893 64.2305 485.227 63.8627 485.479 63.3946L486.575 63.6492C486.266 64.3334 485.801 64.894 485.178 65.3313C484.556 65.7634 483.859 65.9794 483.087 65.9794ZM480.34 61.4579H485.826C485.79 60.9795 485.644 60.5423 485.387 60.1462C485.134 59.745 484.808 59.426 484.407 59.1894C484.005 58.9476 483.566 58.8268 483.087 58.8268C482.609 58.8268 482.172 58.9451 481.775 59.1817C481.379 59.4132 481.055 59.7295 480.803 60.1308C480.551 60.5268 480.397 60.9692 480.34 61.4579ZM493.671 63.8421L494.635 64.3668C494.285 64.8555 493.841 65.2464 493.3 65.5396C492.765 65.8328 492.184 65.9794 491.557 65.9794C490.847 65.9794 490.199 65.7968 489.612 65.4316C489.031 65.0664 488.565 64.5777 488.216 63.9656C487.871 63.3483 487.699 62.6667 487.699 61.9208C487.699 61.355 487.799 60.8278 488 60.3391C488.2 59.8453 488.475 59.4132 488.825 59.0428C489.18 58.6673 489.592 58.3741 490.06 58.1632C490.528 57.9523 491.027 57.8468 491.557 57.8468C492.184 57.8468 492.765 57.9934 493.3 58.2866C493.841 58.5799 494.285 58.9734 494.635 59.4672L493.671 59.9842C493.403 59.6447 493.082 59.3849 492.706 59.2048C492.331 59.0197 491.948 58.9271 491.557 58.9271C491.037 58.9271 490.566 59.066 490.145 59.3437C489.723 59.6164 489.388 59.979 489.142 60.4317C488.9 60.8843 488.779 61.3807 488.779 61.9208C488.779 62.461 488.902 62.9574 489.149 63.41C489.401 63.8627 489.738 64.2253 490.16 64.498C490.582 64.7655 491.047 64.8992 491.557 64.8992C491.978 64.8992 492.374 64.8015 492.745 64.606C493.115 64.4105 493.424 64.1559 493.671 63.8421ZM495.644 62.8236V58.0629H496.724V62.6076C496.724 63.0294 496.827 63.4126 497.033 63.7572C497.239 64.1019 497.514 64.3771 497.859 64.5828C498.208 64.7886 498.592 64.8915 499.008 64.8915C499.43 64.8915 499.811 64.7886 500.15 64.5828C500.495 64.3771 500.77 64.1019 500.976 63.7572C501.182 63.4126 501.285 63.0294 501.285 62.6076V58.0629H502.365L502.373 65.7788H501.292L501.285 64.6986C501.012 65.0895 500.657 65.4007 500.22 65.6322C499.788 65.8637 499.314 65.9794 498.8 65.9794C498.219 65.9794 497.689 65.838 497.211 65.555C496.732 65.2721 496.352 64.8915 496.069 64.4131C495.786 63.9347 495.644 63.4049 495.644 62.8236ZM507.853 59.1431H506.009L506.001 65.7788H504.921L504.928 59.1431H503.532V58.0629H504.928L504.921 55.6401H506.001L506.009 58.0629H507.853V59.1431ZM515.361 58.0629H516.441V65.7788H515.361L515.323 64.3436C515.071 64.8323 514.718 65.2284 514.266 65.5319C513.813 65.8302 513.273 65.9794 512.645 65.9794C512.079 65.9794 511.55 65.874 511.056 65.6631C510.562 65.447 510.127 65.1512 509.752 64.7757C509.376 64.4002 509.083 63.9656 508.872 63.4717C508.661 62.9779 508.556 62.4481 508.556 61.8823C508.556 61.3267 508.659 60.8046 508.864 60.3159C509.075 59.8273 509.363 59.3977 509.729 59.0274C510.099 58.657 510.526 58.369 511.009 58.1632C511.498 57.9523 512.02 57.8468 512.576 57.8468C513.219 57.8468 513.779 58.0012 514.258 58.3098C514.736 58.6133 515.117 59.0119 515.4 59.5058L515.361 58.0629ZM512.622 64.9301C513.172 64.9301 513.646 64.7963 514.042 64.5288C514.438 64.2562 514.741 63.891 514.952 63.4332C515.168 62.9754 515.276 62.4712 515.276 61.9208C515.276 61.355 515.168 60.8458 514.952 60.3931C514.736 59.9353 514.43 59.5726 514.034 59.3051C513.638 59.0377 513.167 58.9039 512.622 58.9039C512.077 58.9039 511.578 59.0402 511.125 59.3129C510.678 59.5804 510.32 59.943 510.053 60.4008C509.79 60.8586 509.659 61.3653 509.659 61.9208C509.659 62.4815 509.795 62.9908 510.068 63.4486C510.341 63.9013 510.701 64.2613 511.148 64.5288C511.601 64.7963 512.092 64.9301 512.622 64.9301ZM517.985 65.7788V58.0629H519.066V59.1277C519.338 58.7367 519.693 58.4255 520.13 58.1941C520.568 57.9626 521.044 57.8468 521.558 57.8468C521.856 57.8468 522.144 57.8854 522.422 57.9626L521.982 59.0351C521.766 58.9682 521.555 58.9348 521.35 58.9348C520.933 58.9348 520.55 59.0377 520.2 59.2434C519.855 59.4492 519.58 59.7244 519.374 60.069C519.169 60.4137 519.066 60.7969 519.066 61.2187V65.7788H517.985ZM533.559 54.2049H534.639V65.7788H533.559V64.3359C533.291 64.8298 532.923 65.2284 532.455 65.5319C531.992 65.8302 531.442 65.9794 530.804 65.9794C530.243 65.9794 529.719 65.874 529.23 65.6631C528.741 65.4522 528.309 65.1615 527.934 64.7912C527.563 64.4157 527.273 63.9836 527.062 63.4949C526.851 63.0062 526.745 62.4815 526.745 61.9208C526.745 61.3602 526.851 60.8355 527.062 60.3468C527.273 59.853 527.563 59.4209 527.934 59.0505C528.309 58.675 528.741 58.3818 529.23 58.1709C529.719 57.96 530.243 57.8546 530.804 57.8546C531.442 57.8546 531.992 58.0063 532.455 58.3098C532.923 58.6081 533.291 59.0017 533.559 59.4903V54.2049ZM530.812 64.9301C531.362 64.9301 531.835 64.7963 532.231 64.5288C532.628 64.2562 532.931 63.891 533.142 63.4332C533.358 62.9754 533.466 62.4712 533.466 61.9208C533.466 61.355 533.358 60.8458 533.142 60.3931C532.926 59.9353 532.62 59.5726 532.224 59.3051C531.828 59.0377 531.357 58.9039 530.812 58.9039C530.266 58.9039 529.77 59.0402 529.323 59.3129C528.875 59.5804 528.518 59.943 528.25 60.4008C527.983 60.8586 527.849 61.3653 527.849 61.9208C527.849 62.4815 527.985 62.9908 528.258 63.4486C528.53 63.9013 528.89 64.2613 529.338 64.5288C529.791 64.7963 530.282 64.9301 530.812 64.9301ZM539.826 65.9794C539.116 65.9794 538.468 65.7968 537.882 65.4316C537.301 65.0664 536.835 64.5777 536.485 63.9656C536.141 63.3483 535.968 62.6667 535.968 61.9208C535.968 61.355 536.069 60.8278 536.269 60.3391C536.47 59.8453 536.745 59.4132 537.095 59.0428C537.45 58.6673 537.861 58.3741 538.329 58.1632C538.798 57.9523 539.296 57.8468 539.826 57.8468C540.397 57.8468 540.922 57.96 541.4 58.1863C541.884 58.4127 542.298 58.729 542.643 59.1354C542.992 59.5418 543.255 60.0176 543.43 60.5628C543.61 61.1081 543.684 61.6971 543.653 62.3298H537.11C537.172 62.8185 537.326 63.2557 537.573 63.6415C537.825 64.0273 538.144 64.3334 538.53 64.5597C538.921 64.7809 539.353 64.894 539.826 64.8992C540.341 64.8992 540.804 64.7655 541.215 64.498C541.632 64.2305 541.966 63.8627 542.218 63.3946L543.314 63.6492C543.005 64.3334 542.54 64.894 541.917 65.3313C541.295 65.7634 540.598 65.9794 539.826 65.9794ZM537.079 61.4579H542.565C542.529 60.9795 542.383 60.5423 542.126 60.1462C541.874 59.745 541.547 59.426 541.146 59.1894C540.745 58.9476 540.305 58.8268 539.826 58.8268C539.348 58.8268 538.911 58.9451 538.515 59.1817C538.119 59.4132 537.794 59.7295 537.542 60.1308C537.29 60.5268 537.136 60.9692 537.079 61.4579ZM550.41 63.8421L551.374 64.3668C551.025 64.8555 550.58 65.2464 550.04 65.5396C549.505 65.8328 548.923 65.9794 548.296 65.9794C547.586 65.9794 546.938 65.7968 546.351 65.4316C545.77 65.0664 545.305 64.5777 544.955 63.9656C544.61 63.3483 544.438 62.6667 544.438 61.9208C544.438 61.355 544.538 60.8278 544.739 60.3391C544.939 59.8453 545.215 59.4132 545.564 59.0428C545.919 58.6673 546.331 58.3741 546.799 58.1632C547.267 57.9523 547.766 57.8468 548.296 57.8468C548.923 57.8468 549.505 57.9934 550.04 58.2866C550.58 58.5799 551.025 58.9734 551.374 59.4672L550.41 59.9842C550.142 59.6447 549.821 59.3849 549.445 59.2048C549.07 59.0197 548.687 58.9271 548.296 58.9271C547.776 58.9271 547.306 59.066 546.884 59.3437C546.462 59.6164 546.128 59.979 545.881 60.4317C545.639 60.8843 545.518 61.3807 545.518 61.9208C545.518 62.461 545.641 62.9574 545.888 63.41C546.14 63.8627 546.477 64.2253 546.899 64.498C547.321 64.7655 547.787 64.8992 548.296 64.8992C548.718 64.8992 549.114 64.8015 549.484 64.606C549.854 64.4105 550.163 64.1559 550.41 63.8421ZM552.632 58.0629H553.712V65.7788H552.632V58.0629ZM553.18 56.7126C553.005 56.7126 552.856 56.656 552.732 56.5428C552.614 56.4245 552.555 56.2779 552.555 56.103C552.555 55.9281 552.614 55.7841 552.732 55.6709C552.856 55.5526 553.005 55.4935 553.18 55.4935C553.349 55.4935 553.493 55.5526 553.612 55.6709C553.735 55.7841 553.797 55.9281 553.797 56.103C553.797 56.2779 553.738 56.4245 553.619 56.5428C553.501 56.656 553.354 56.7126 553.18 56.7126ZM557.894 65.9254C557.473 65.9151 557.061 65.838 556.66 65.6939C556.259 65.5499 555.909 65.3544 555.61 65.1075C555.312 64.8606 555.099 64.5803 554.97 64.2665L555.904 63.8653C555.986 64.0659 556.138 64.2511 556.359 64.4208C556.585 64.5854 556.842 64.7192 557.13 64.822C557.419 64.9198 557.704 64.9686 557.987 64.9686C558.301 64.9686 558.594 64.9172 558.867 64.8143C559.139 64.7114 559.36 64.5648 559.53 64.3745C559.705 64.179 559.792 63.9501 559.792 63.6878C559.792 63.4049 559.7 63.1837 559.515 63.0242C559.33 62.8596 559.095 62.731 558.813 62.6384C558.53 62.5407 558.239 62.4481 557.941 62.3607C557.395 62.2115 556.914 62.0469 556.498 61.8668C556.081 61.6868 555.754 61.4579 555.518 61.1801C555.286 60.8972 555.171 60.5346 555.171 60.0922C555.171 59.6241 555.302 59.2203 555.564 58.8808C555.832 58.5361 556.179 58.2712 556.606 58.086C557.038 57.8957 557.498 57.8005 557.987 57.8005C558.615 57.8005 559.185 57.9369 559.7 58.2095C560.219 58.4821 560.595 58.8448 560.826 59.2974L559.955 59.8144C559.862 59.6035 559.715 59.4209 559.515 59.2666C559.314 59.1123 559.085 58.9914 558.828 58.9039C558.576 58.8165 558.319 58.7702 558.056 58.765C557.727 58.7599 557.421 58.8088 557.138 58.9116C556.855 59.0094 556.626 59.156 556.451 59.3514C556.282 59.5469 556.197 59.7861 556.197 60.069C556.197 60.3519 556.282 60.568 556.451 60.7172C556.621 60.8612 556.85 60.9795 557.138 61.0721C557.431 61.1595 557.761 61.2624 558.126 61.3807C558.594 61.5299 559.034 61.6997 559.445 61.89C559.857 62.0803 560.189 62.3169 560.441 62.5998C560.693 62.8828 560.816 63.2403 560.811 63.6724C560.811 64.1353 560.672 64.5391 560.394 64.8838C560.117 65.2284 559.756 65.4933 559.314 65.6785C558.872 65.8585 558.398 65.9408 557.894 65.9254ZM562.066 58.0629H563.146V65.7788H562.066V58.0629ZM562.613 56.7126C562.439 56.7126 562.289 56.656 562.166 56.5428C562.048 56.4245 561.989 56.2779 561.989 56.103C561.989 55.9281 562.048 55.7841 562.166 55.6709C562.289 55.5526 562.439 55.4935 562.613 55.4935C562.783 55.4935 562.927 55.5526 563.046 55.6709C563.169 55.7841 563.231 55.9281 563.231 56.103C563.231 56.2779 563.172 56.4245 563.053 56.5428C562.935 56.656 562.788 56.7126 562.613 56.7126ZM568.324 65.9794C567.614 65.9794 566.966 65.7968 566.38 65.4316C565.798 65.0664 565.333 64.5777 564.983 63.9656C564.638 63.3483 564.466 62.6667 564.466 61.9208C564.466 61.355 564.566 60.8278 564.767 60.3391C564.968 59.8453 565.243 59.4132 565.593 59.0428C565.947 58.6673 566.359 58.3741 566.827 58.1632C567.295 57.9523 567.794 57.8468 568.324 57.8468C569.034 57.8468 569.679 58.0295 570.261 58.3947C570.847 58.7599 571.313 59.2511 571.657 59.8684C572.007 60.4857 572.182 61.1698 572.182 61.9208C572.182 62.4815 572.082 63.0062 571.881 63.4949C571.68 63.9836 571.403 64.4157 571.048 64.7912C570.698 65.1615 570.289 65.4522 569.821 65.6631C569.358 65.874 568.859 65.9794 568.324 65.9794ZM568.324 64.8992C568.849 64.8992 569.319 64.7629 569.736 64.4902C570.158 64.2125 570.49 63.8473 570.731 63.3946C570.978 62.9419 571.102 62.4507 571.102 61.9208C571.102 61.3807 570.978 60.8843 570.731 60.4317C570.484 59.9739 570.15 59.6086 569.728 59.336C569.312 59.0634 568.844 58.9271 568.324 58.9271C567.799 58.9271 567.326 59.066 566.904 59.3437C566.488 59.6164 566.156 59.979 565.909 60.4317C565.667 60.8843 565.546 61.3807 565.546 61.9208C565.546 62.4764 565.672 62.9805 565.924 63.4332C566.176 63.8807 566.513 64.2382 566.935 64.5057C567.357 64.768 567.82 64.8992 568.324 64.8992ZM568.062 57.2141L568.679 54.9919H569.759L568.787 57.2141H568.062ZM580.217 61.0027V65.7788H579.137V61.2187C579.137 60.7969 579.034 60.4137 578.828 60.069C578.623 59.7244 578.347 59.4492 578.003 59.2434C577.658 59.0377 577.275 58.9348 576.853 58.9348C576.436 58.9348 576.053 59.0377 575.703 59.2434C575.359 59.4492 575.083 59.7244 574.878 60.069C574.672 60.4137 574.569 60.7969 574.569 61.2187V65.7788H573.489V58.0629H574.569V59.1277C574.842 58.7367 575.197 58.4255 575.634 58.1941C576.071 57.9626 576.547 57.8468 577.061 57.8468C577.643 57.8468 578.172 57.9883 578.651 58.2712C579.129 58.5541 579.51 58.9348 579.793 59.4132C580.076 59.8916 580.217 60.4214 580.217 61.0027ZM582.063 59.2974C581.894 59.2974 581.75 59.2383 581.631 59.12C581.513 58.9965 581.454 58.8473 581.454 58.6724C581.454 58.5078 581.513 58.3664 581.631 58.2481C581.75 58.1246 581.894 58.0629 582.063 58.0629C582.238 58.0629 582.385 58.1246 582.503 58.2481C582.627 58.3664 582.688 58.5078 582.688 58.6724C582.688 58.8473 582.627 58.9965 582.503 59.12C582.385 59.2383 582.238 59.2974 582.063 59.2974ZM582.063 65.9794C581.894 65.9794 581.75 65.9177 581.631 65.7942C581.513 65.6759 581.454 65.5293 581.454 65.3544C581.454 65.1898 581.513 65.0484 581.631 64.9301C581.75 64.8066 581.894 64.7449 582.063 64.7449C582.238 64.7449 582.385 64.8066 582.503 64.9301C582.627 65.0484 582.688 65.1898 582.688 65.3544C582.688 65.5293 582.627 65.6759 582.503 65.7942C582.385 65.9177 582.238 65.9794 582.063 65.9794Z" fill="white"/>
<g clip-path="url(#clip0_538_914)">
<path d="M73.309 139.72H42.2231M42.2231 139.72L50.5924 131.442M42.2231 139.72L50.5924 147.997" stroke="white" stroke-width="0.96449" stroke-linecap="round" stroke-linejoin="round"/>
</g>
<path d="M101.064 139.72L132.15 139.726M132.15 139.726L123.78 148.002M132.15 139.726L123.782 131.446" stroke="white" stroke-width="0.96449" stroke-linecap="round" stroke-linejoin="round"/>
<path d="M238.549 153.947L240.118 145.845H240.708L242.976 151.806L245.233 145.845H245.824L247.398 153.947H246.57L245.372 147.749L243.231 153.414H242.71L240.569 147.749L239.371 153.947H238.549ZM253.083 148.16H253.893V153.947H253.083L253.054 152.87C252.865 153.237 252.601 153.534 252.261 153.762C251.922 153.985 251.517 154.097 251.046 154.097C250.622 154.097 250.224 154.018 249.854 153.86C249.483 153.698 249.157 153.476 248.876 153.194C248.594 152.913 248.374 152.587 248.216 152.216C248.058 151.846 247.979 151.449 247.979 151.024C247.979 150.608 248.056 150.216 248.21 149.85C248.369 149.483 248.585 149.161 248.858 148.883C249.136 148.605 249.456 148.389 249.819 148.235C250.186 148.077 250.577 147.998 250.994 147.998C251.476 147.998 251.897 148.114 252.255 148.345C252.614 148.573 252.9 148.872 253.112 149.242L253.083 148.16ZM251.029 153.31C251.441 153.31 251.796 153.21 252.093 153.009C252.39 152.805 252.618 152.531 252.776 152.188C252.938 151.844 253.019 151.466 253.019 151.053C253.019 150.629 252.938 150.247 252.776 149.907C252.614 149.564 252.385 149.292 252.088 149.092C251.791 148.891 251.438 148.791 251.029 148.791C250.62 148.791 250.245 148.893 249.906 149.097C249.57 149.298 249.302 149.57 249.102 149.913C248.905 150.257 248.806 150.637 248.806 151.053C248.806 151.474 248.909 151.856 249.113 152.199C249.318 152.539 249.588 152.809 249.923 153.009C250.263 153.21 250.631 153.31 251.029 153.31ZM260.097 150.365V153.947H259.287V150.527C259.287 150.21 259.21 149.923 259.056 149.664C258.901 149.406 258.695 149.2 258.437 149.045C258.178 148.891 257.891 148.814 257.574 148.814C257.262 148.814 256.974 148.891 256.712 149.045C256.454 149.2 256.247 149.406 256.093 149.664C255.938 149.923 255.861 150.21 255.861 150.527V153.947H255.051V148.16H255.861V148.958C256.066 148.665 256.332 148.432 256.66 148.258C256.988 148.085 257.345 147.998 257.73 147.998C258.166 147.998 258.564 148.104 258.923 148.316C259.281 148.528 259.567 148.814 259.779 149.173C259.991 149.531 260.097 149.929 260.097 150.365ZM264.213 148.97H262.83L262.825 153.947H262.014L262.02 148.97H260.973V148.16H262.02L262.014 146.343H262.825L262.83 148.16H264.213V148.97ZM267.634 154.097C267.102 154.097 266.616 153.96 266.176 153.686C265.74 153.412 265.391 153.046 265.128 152.587C264.87 152.124 264.741 151.613 264.741 151.053C264.741 150.629 264.816 150.233 264.966 149.867C265.117 149.497 265.323 149.173 265.586 148.895C265.852 148.613 266.16 148.393 266.511 148.235C266.863 148.077 267.237 147.998 267.634 147.998C268.062 147.998 268.456 148.083 268.815 148.252C269.177 148.422 269.488 148.659 269.746 148.964C270.009 149.269 270.205 149.626 270.337 150.035C270.472 150.444 270.528 150.885 270.504 151.36H265.597C265.643 151.727 265.759 152.054 265.944 152.344C266.133 152.633 266.373 152.863 266.662 153.032C266.955 153.198 267.279 153.283 267.634 153.287C268.02 153.287 268.367 153.187 268.676 152.986C268.988 152.786 269.239 152.51 269.428 152.159L270.25 152.35C270.018 152.863 269.669 153.283 269.202 153.611C268.736 153.935 268.213 154.097 267.634 154.097ZM265.574 150.706H269.688C269.661 150.347 269.552 150.019 269.359 149.722C269.17 149.421 268.925 149.182 268.624 149.005C268.323 148.823 267.993 148.733 267.634 148.733C267.275 148.733 266.947 148.821 266.65 148.999C266.353 149.173 266.11 149.41 265.921 149.711C265.732 150.008 265.616 150.34 265.574 150.706ZM276.543 150.365V153.947H275.732V150.527C275.732 150.21 275.655 149.923 275.501 149.664C275.347 149.406 275.14 149.2 274.882 149.045C274.623 148.891 274.336 148.814 274.02 148.814C273.707 148.814 273.42 148.891 273.157 149.045C272.899 149.2 272.692 149.406 272.538 149.664C272.384 149.923 272.307 150.21 272.307 150.527V153.947H271.496V148.16H272.307V148.958C272.511 148.665 272.777 148.432 273.105 148.258C273.433 148.085 273.79 147.998 274.176 147.998C274.612 147.998 275.009 148.104 275.368 148.316C275.727 148.528 276.012 148.814 276.224 149.173C276.437 149.531 276.543 149.929 276.543 150.365ZM280.135 154.097C279.602 154.097 279.116 153.96 278.677 153.686C278.241 153.412 277.891 153.046 277.629 152.587C277.371 152.124 277.241 151.613 277.241 151.053C277.241 150.629 277.317 150.233 277.467 149.867C277.618 149.497 277.824 149.173 278.086 148.895C278.352 148.613 278.661 148.393 279.012 148.235C279.363 148.077 279.737 147.998 280.135 147.998C280.563 147.998 280.957 148.083 281.315 148.252C281.678 148.422 281.989 148.659 282.247 148.964C282.509 149.269 282.706 149.626 282.837 150.035C282.972 150.444 283.028 150.885 283.005 151.36H278.098C278.144 151.727 278.26 152.054 278.445 152.344C278.634 152.633 278.873 152.863 279.163 153.032C279.456 153.198 279.78 153.283 280.135 153.287C280.521 153.287 280.868 153.187 281.176 152.986C281.489 152.786 281.74 152.51 281.929 152.159L282.751 152.35C282.519 152.863 282.17 153.283 281.703 153.611C281.236 153.935 280.714 154.097 280.135 154.097ZM278.075 150.706H282.189C282.162 150.347 282.052 150.019 281.859 149.722C281.67 149.421 281.425 149.182 281.124 149.005C280.823 148.823 280.494 148.733 280.135 148.733C279.776 148.733 279.448 148.821 279.151 148.999C278.854 149.173 278.611 149.41 278.422 149.711C278.233 150.008 278.117 150.34 278.075 150.706ZM283.997 153.947V148.16H284.807V148.958C285.012 148.665 285.278 148.432 285.606 148.258C285.934 148.085 286.291 147.998 286.677 147.998C286.9 147.998 287.116 148.027 287.325 148.085L286.995 148.889C286.833 148.839 286.675 148.814 286.52 148.814C286.208 148.814 285.92 148.891 285.658 149.045C285.4 149.2 285.193 149.406 285.039 149.664C284.884 149.923 284.807 150.21 284.807 150.527V153.947H283.997ZM235.827 170.84H235.017V162.16H235.827V163.242C236.028 162.875 236.302 162.578 236.649 162.351C236.996 162.123 237.409 162.009 237.888 162.009C238.308 162.009 238.702 162.088 239.068 162.247C239.438 162.405 239.763 162.625 240.04 162.906C240.318 163.184 240.536 163.506 240.694 163.873C240.852 164.239 240.932 164.633 240.932 165.053C240.932 165.474 240.852 165.869 240.694 166.24C240.536 166.61 240.318 166.936 240.04 167.218C239.763 167.495 239.438 167.713 239.068 167.872C238.702 168.03 238.308 168.109 237.888 168.109C237.409 168.109 236.996 167.995 236.649 167.767C236.302 167.54 236.028 167.243 235.827 166.876V170.84ZM237.882 162.796C237.477 162.796 237.124 162.899 236.823 163.103C236.526 163.304 236.296 163.574 236.134 163.913C235.972 164.253 235.891 164.633 235.891 165.053C235.891 165.466 235.97 165.844 236.128 166.188C236.29 166.531 236.52 166.805 236.817 167.009C237.118 167.214 237.473 167.316 237.882 167.316C238.283 167.316 238.651 167.216 238.987 167.015C239.327 166.814 239.599 166.544 239.803 166.205C240.008 165.862 240.11 165.478 240.11 165.053C240.11 164.641 240.009 164.264 239.809 163.925C239.608 163.581 239.34 163.308 239.004 163.103C238.669 162.899 238.295 162.796 237.882 162.796ZM241.912 167.947V162.16H242.722V162.958C242.926 162.665 243.193 162.432 243.521 162.258C243.849 162.085 244.205 161.998 244.591 161.998C244.815 161.998 245.031 162.027 245.239 162.085L244.909 162.889C244.747 162.839 244.589 162.814 244.435 162.814C244.122 162.814 243.835 162.891 243.573 163.045C243.314 163.2 243.108 163.406 242.953 163.664C242.799 163.923 242.722 164.21 242.722 164.527V167.947H241.912ZM248.211 168.097C247.678 168.097 247.192 167.96 246.752 167.686C246.316 167.412 245.967 167.046 245.705 166.587C245.446 166.124 245.317 165.613 245.317 165.053C245.317 164.629 245.392 164.233 245.543 163.867C245.693 163.497 245.9 163.173 246.162 162.895C246.428 162.613 246.737 162.393 247.088 162.235C247.439 162.077 247.813 161.998 248.211 161.998C248.639 161.998 249.032 162.083 249.391 162.252C249.754 162.422 250.064 162.659 250.323 162.964C250.585 163.269 250.782 163.626 250.913 164.035C251.048 164.444 251.104 164.885 251.081 165.36H246.174C246.22 165.727 246.336 166.054 246.521 166.344C246.71 166.633 246.949 166.863 247.238 167.032C247.532 167.198 247.856 167.283 248.211 167.287C248.596 167.287 248.944 167.187 249.252 166.986C249.565 166.786 249.815 166.51 250.005 166.159L250.826 166.35C250.595 166.863 250.246 167.283 249.779 167.611C249.312 167.935 248.789 168.097 248.211 168.097ZM246.15 164.706H250.265C250.238 164.347 250.128 164.019 249.935 163.722C249.746 163.421 249.501 163.182 249.2 163.005C248.899 162.823 248.569 162.733 248.211 162.733C247.852 162.733 247.524 162.821 247.227 162.999C246.93 163.173 246.687 163.41 246.498 163.711C246.309 164.008 246.193 164.34 246.15 164.706ZM253.872 168.057C253.556 168.049 253.247 167.991 252.946 167.883C252.646 167.775 252.383 167.628 252.159 167.443C251.936 167.258 251.776 167.048 251.679 166.813L252.379 166.512C252.441 166.662 252.555 166.801 252.721 166.928C252.891 167.052 253.083 167.152 253.299 167.229C253.516 167.302 253.73 167.339 253.942 167.339C254.177 167.339 254.397 167.301 254.602 167.223C254.806 167.146 254.972 167.036 255.099 166.894C255.23 166.747 255.296 166.575 255.296 166.379C255.296 166.166 255.227 166 255.088 165.881C254.949 165.757 254.773 165.661 254.561 165.591C254.349 165.518 254.131 165.449 253.907 165.383C253.498 165.271 253.137 165.148 252.825 165.013C252.512 164.878 252.267 164.706 252.09 164.498C251.916 164.286 251.83 164.014 251.83 163.682C251.83 163.331 251.928 163.028 252.125 162.773C252.325 162.515 252.586 162.316 252.906 162.177C253.23 162.034 253.575 161.963 253.942 161.963C254.412 161.963 254.841 162.065 255.227 162.27C255.616 162.474 255.898 162.746 256.071 163.086L255.417 163.473C255.348 163.315 255.238 163.178 255.088 163.063C254.937 162.947 254.765 162.856 254.573 162.791C254.384 162.725 254.191 162.69 253.994 162.686C253.747 162.683 253.517 162.719 253.305 162.796C253.093 162.87 252.921 162.98 252.79 163.126C252.663 163.273 252.599 163.452 252.599 163.664C252.599 163.877 252.663 164.039 252.79 164.151C252.918 164.259 253.089 164.347 253.305 164.417C253.525 164.482 253.772 164.559 254.046 164.648C254.397 164.76 254.727 164.887 255.036 165.03C255.344 165.173 255.593 165.35 255.782 165.563C255.971 165.775 256.064 166.043 256.06 166.367C256.06 166.714 255.956 167.017 255.747 167.275C255.539 167.534 255.269 167.733 254.937 167.872C254.605 168.007 254.25 168.068 253.872 168.057ZM257.001 162.16H257.811V167.947H257.001V162.16ZM257.412 161.147C257.281 161.147 257.169 161.105 257.076 161.02C256.987 160.931 256.943 160.821 256.943 160.69C256.943 160.559 256.987 160.451 257.076 160.366C257.169 160.277 257.281 160.233 257.412 160.233C257.539 160.233 257.647 160.277 257.736 160.366C257.828 160.451 257.875 160.559 257.875 160.69C257.875 160.821 257.83 160.931 257.742 161.02C257.653 161.105 257.543 161.147 257.412 161.147ZM261.695 168.097C261.162 168.097 260.676 167.96 260.236 167.686C259.8 167.412 259.451 167.046 259.189 166.587C258.93 166.124 258.801 165.613 258.801 165.053C258.801 164.629 258.876 164.233 259.027 163.867C259.177 163.497 259.384 163.173 259.646 162.895C259.912 162.613 260.221 162.393 260.572 162.235C260.923 162.077 261.297 161.998 261.695 161.998C262.227 161.998 262.711 162.135 263.147 162.409C263.587 162.683 263.936 163.051 264.195 163.514C264.457 163.977 264.588 164.49 264.588 165.053C264.588 165.474 264.513 165.867 264.362 166.234C264.212 166.6 264.004 166.924 263.737 167.206C263.475 167.484 263.168 167.702 262.817 167.86C262.47 168.018 262.096 168.097 261.695 168.097ZM261.695 167.287C262.088 167.287 262.441 167.185 262.754 166.98C263.07 166.772 263.319 166.498 263.5 166.159C263.685 165.819 263.778 165.451 263.778 165.053C263.778 164.648 263.685 164.276 263.5 163.936C263.315 163.593 263.064 163.319 262.748 163.115C262.435 162.91 262.084 162.808 261.695 162.808C261.301 162.808 260.946 162.912 260.63 163.12C260.317 163.325 260.068 163.597 259.883 163.936C259.702 164.276 259.611 164.648 259.611 165.053C259.611 165.47 259.706 165.848 259.895 166.188C260.084 166.523 260.337 166.791 260.653 166.992C260.969 167.189 261.317 167.287 261.695 167.287ZM270.614 164.365V167.947H269.804V164.527C269.804 164.21 269.727 163.923 269.573 163.664C269.418 163.406 269.212 163.2 268.954 163.045C268.695 162.891 268.408 162.814 268.091 162.814C267.779 162.814 267.491 162.891 267.229 163.045C266.971 163.2 266.764 163.406 266.61 163.664C266.456 163.923 266.378 164.21 266.378 164.527V167.947H265.568V162.16H266.378V162.958C266.583 162.665 266.849 162.432 267.177 162.258C267.505 162.085 267.862 161.998 268.248 161.998C268.684 161.998 269.081 162.104 269.44 162.316C269.798 162.528 270.084 162.814 270.296 163.173C270.508 163.531 270.614 163.929 270.614 164.365ZM276.417 162.16H277.227V167.947H276.417L276.388 166.87C276.199 167.237 275.935 167.534 275.595 167.762C275.256 167.985 274.851 168.097 274.38 168.097C273.956 168.097 273.558 168.018 273.188 167.86C272.818 167.698 272.492 167.476 272.21 167.194C271.928 166.913 271.709 166.587 271.55 166.216C271.392 165.846 271.313 165.449 271.313 165.024C271.313 164.608 271.39 164.216 271.545 163.85C271.703 163.483 271.919 163.161 272.193 162.883C272.471 162.605 272.791 162.389 273.153 162.235C273.52 162.077 273.911 161.998 274.328 161.998C274.81 161.998 275.231 162.114 275.59 162.345C275.948 162.573 276.234 162.872 276.446 163.242L276.417 162.16ZM274.363 167.31C274.776 167.31 275.131 167.21 275.428 167.009C275.725 166.805 275.952 166.531 276.111 166.188C276.273 165.844 276.354 165.466 276.354 165.053C276.354 164.629 276.273 164.247 276.111 163.907C275.948 163.564 275.719 163.292 275.422 163.092C275.125 162.891 274.772 162.791 274.363 162.791C273.954 162.791 273.58 162.893 273.24 163.097C272.905 163.298 272.636 163.57 272.436 163.913C272.239 164.257 272.141 164.637 272.141 165.053C272.141 165.474 272.243 165.856 272.447 166.199C272.652 166.539 272.922 166.809 273.258 167.009C273.597 167.21 273.965 167.31 274.363 167.31ZM283.035 159.266H283.845V167.947H283.035V166.865C282.834 167.235 282.559 167.534 282.207 167.762C281.86 167.985 281.447 168.097 280.969 168.097C280.549 168.097 280.155 168.018 279.789 167.86C279.422 167.702 279.098 167.484 278.816 167.206C278.539 166.924 278.321 166.6 278.162 166.234C278.004 165.867 277.925 165.474 277.925 165.053C277.925 164.633 278.004 164.239 278.162 163.873C278.321 163.502 278.539 163.178 278.816 162.901C279.098 162.619 279.422 162.399 279.789 162.241C280.155 162.083 280.549 162.004 280.969 162.004C281.447 162.004 281.86 162.117 282.207 162.345C282.559 162.569 282.834 162.864 283.035 163.23V159.266ZM280.975 167.31C281.388 167.31 281.743 167.21 282.04 167.009C282.337 166.805 282.564 166.531 282.723 166.188C282.885 165.844 282.966 165.466 282.966 165.053C282.966 164.629 282.885 164.247 282.723 163.907C282.561 163.564 282.331 163.292 282.034 163.092C281.737 162.891 281.384 162.791 280.975 162.791C280.566 162.791 280.194 162.893 279.858 163.097C279.522 163.298 279.254 163.57 279.054 163.913C278.853 164.257 278.753 164.637 278.753 165.053C278.753 165.474 278.855 165.856 279.059 166.199C279.264 166.539 279.534 166.809 279.87 167.009C280.209 167.21 280.578 167.31 280.975 167.31ZM287.736 168.097C287.203 168.097 286.717 167.96 286.278 167.686C285.842 167.412 285.492 167.046 285.23 166.587C284.972 166.124 284.842 165.613 284.842 165.053C284.842 164.629 284.918 164.233 285.068 163.867C285.219 163.497 285.425 163.173 285.687 162.895C285.953 162.613 286.262 162.393 286.613 162.235C286.964 162.077 287.338 161.998 287.736 161.998C288.268 161.998 288.752 162.135 289.188 162.409C289.628 162.683 289.977 163.051 290.236 163.514C290.498 163.977 290.629 164.49 290.629 165.053C290.629 165.474 290.554 165.867 290.404 166.234C290.253 166.6 290.045 166.924 289.779 167.206C289.516 167.484 289.21 167.702 288.859 167.86C288.511 168.018 288.137 168.097 287.736 168.097ZM287.736 167.287C288.129 167.287 288.482 167.185 288.795 166.98C289.111 166.772 289.36 166.498 289.541 166.159C289.727 165.819 289.819 165.451 289.819 165.053C289.819 164.648 289.727 164.276 289.541 163.936C289.356 163.593 289.105 163.319 288.789 163.115C288.477 162.91 288.125 162.808 287.736 162.808C287.342 162.808 286.987 162.912 286.671 163.12C286.359 163.325 286.11 163.597 285.925 163.936C285.743 164.276 285.653 164.648 285.653 165.053C285.653 165.47 285.747 165.848 285.936 166.188C286.125 166.523 286.378 166.791 286.694 166.992C287.011 167.189 287.358 167.287 287.736 167.287ZM231.966 180.494L232.69 180.888C232.427 181.254 232.094 181.547 231.689 181.767C231.287 181.987 230.851 182.097 230.381 182.097C229.848 182.097 229.362 181.96 228.922 181.686C228.486 181.412 228.137 181.046 227.875 180.587C227.616 180.124 227.487 179.613 227.487 179.053C227.487 178.629 227.562 178.233 227.713 177.867C227.863 177.497 228.07 177.173 228.332 176.895C228.598 176.613 228.907 176.393 229.258 176.235C229.609 176.077 229.983 175.998 230.381 175.998C230.851 175.998 231.287 176.108 231.689 176.328C232.094 176.548 232.427 176.843 232.69 177.213L231.966 177.601C231.766 177.346 231.525 177.151 231.243 177.016C230.961 176.877 230.674 176.808 230.381 176.808C229.991 176.808 229.638 176.912 229.322 177.12C229.005 177.325 228.755 177.597 228.569 177.936C228.388 178.276 228.297 178.648 228.297 179.053C228.297 179.458 228.39 179.831 228.575 180.17C228.764 180.51 229.017 180.782 229.333 180.986C229.65 181.187 229.999 181.287 230.381 181.287C230.697 181.287 230.994 181.214 231.272 181.067C231.55 180.921 231.781 180.73 231.966 180.494ZM233.655 181.947V173.266H234.465V181.947H233.655ZM235.859 176.16H236.669V181.947H235.859V176.16ZM236.27 175.147C236.139 175.147 236.027 175.105 235.935 175.02C235.846 174.931 235.801 174.821 235.801 174.69C235.801 174.559 235.846 174.451 235.935 174.366C236.027 174.277 236.139 174.233 236.27 174.233C236.397 174.233 236.506 174.277 236.594 174.366C236.687 174.451 236.733 174.559 236.733 174.69C236.733 174.821 236.689 174.931 236.6 175.02C236.511 175.105 236.401 175.147 236.27 175.147ZM242.139 180.494L242.862 180.888C242.6 181.254 242.266 181.547 241.861 181.767C241.46 181.987 241.024 182.097 240.553 182.097C240.021 182.097 239.535 181.96 239.095 181.686C238.659 181.412 238.31 181.046 238.047 180.587C237.789 180.124 237.66 179.613 237.66 179.053C237.66 178.629 237.735 178.233 237.885 177.867C238.036 177.497 238.242 177.173 238.504 176.895C238.771 176.613 239.079 176.393 239.43 176.235C239.781 176.077 240.156 175.998 240.553 175.998C241.024 175.998 241.46 176.108 241.861 176.328C242.266 176.548 242.6 176.843 242.862 177.213L242.139 177.601C241.938 177.346 241.697 177.151 241.415 177.016C241.134 176.877 240.846 176.808 240.553 176.808C240.163 176.808 239.81 176.912 239.494 177.12C239.178 177.325 238.927 177.597 238.742 177.936C238.56 178.276 238.47 178.648 238.47 179.053C238.47 179.458 238.562 179.831 238.748 180.17C238.937 180.51 239.189 180.782 239.506 180.986C239.822 181.187 240.171 181.287 240.553 181.287C240.869 181.287 241.166 181.214 241.444 181.067C241.722 180.921 241.953 180.73 242.139 180.494ZM248.347 181.947H247.416L245.795 179.152L244.638 180.535V181.947H243.828V173.266H244.638V179.273L247.248 176.16H248.307L246.345 178.492L248.347 181.947ZM252.293 176.16H253.103V181.947H252.293V176.16ZM252.704 175.147C252.573 175.147 252.461 175.105 252.369 175.02C252.28 174.931 252.235 174.821 252.235 174.69C252.235 174.559 252.28 174.451 252.369 174.366C252.461 174.277 252.573 174.233 252.704 174.233C252.831 174.233 252.94 174.277 253.028 174.366C253.121 174.451 253.167 174.559 253.167 174.69C253.167 174.821 253.123 174.931 253.034 175.02C252.945 175.105 252.835 175.147 252.704 175.147ZM259.208 176.97L255.412 181.137H259.208V181.947H254.266V181.137L258.062 176.97H254.266V176.16H259.208V176.97ZM263.004 182.109C262.444 182.109 261.933 181.972 261.47 181.698C261.011 181.424 260.644 181.056 260.371 180.593C260.097 180.13 259.96 179.617 259.96 179.053C259.96 178.633 260.039 178.239 260.197 177.873C260.355 177.506 260.573 177.184 260.851 176.906C261.132 176.625 261.457 176.405 261.823 176.247C262.19 176.088 262.583 176.009 263.004 176.009C263.482 176.009 263.895 176.123 264.242 176.351C264.589 176.578 264.863 176.875 265.064 177.242V176.16H265.874V184.84H265.064V180.876C264.863 181.243 264.589 181.54 264.242 181.767C263.895 181.995 263.482 182.109 263.004 182.109ZM263.009 176.796C262.6 176.796 262.226 176.899 261.887 177.103C261.551 177.308 261.283 177.581 261.082 177.925C260.886 178.264 260.787 178.641 260.787 179.053C260.787 179.478 260.887 179.862 261.088 180.205C261.293 180.544 261.563 180.814 261.898 181.015C262.238 181.216 262.608 181.316 263.009 181.316C263.422 181.316 263.777 181.214 264.074 181.009C264.371 180.805 264.599 180.531 264.757 180.188C264.919 179.844 265 179.466 265 179.053C265 178.633 264.919 178.253 264.757 177.913C264.595 177.574 264.365 177.304 264.068 177.103C263.771 176.899 263.418 176.796 263.009 176.796ZM266.947 179.73V176.16H267.758V179.568C267.758 179.885 267.835 180.172 267.989 180.431C268.143 180.689 268.35 180.895 268.608 181.05C268.871 181.204 269.158 181.281 269.47 181.281C269.787 181.281 270.072 181.204 270.327 181.05C270.585 180.895 270.792 180.689 270.946 180.431C271.1 180.172 271.178 179.885 271.178 179.568V176.16H271.988L271.994 181.947H271.183L271.178 181.137C270.973 181.43 270.707 181.663 270.379 181.837C270.055 182.01 269.7 182.097 269.314 182.097C268.878 182.097 268.481 181.991 268.122 181.779C267.763 181.567 267.478 181.281 267.266 180.922C267.053 180.564 266.947 180.166 266.947 179.73ZM273.147 176.16H273.957V181.947H273.147V176.16ZM273.558 175.147C273.426 175.147 273.314 175.105 273.222 175.02C273.133 174.931 273.089 174.821 273.089 174.69C273.089 174.559 273.133 174.451 273.222 174.366C273.314 174.277 273.426 174.233 273.558 174.233C273.685 174.233 273.793 174.277 273.882 174.366C273.974 174.451 274.02 174.559 274.02 174.69C274.02 174.821 273.976 174.931 273.887 175.02C273.799 175.105 273.689 175.147 273.558 175.147ZM277.84 182.097C277.308 182.097 276.822 181.96 276.382 181.686C275.946 181.412 275.597 181.046 275.335 180.587C275.076 180.124 274.947 179.613 274.947 179.053C274.947 178.629 275.022 178.233 275.173 177.867C275.323 177.497 275.529 177.173 275.792 176.895C276.058 176.613 276.367 176.393 276.718 176.235C277.069 176.077 277.443 175.998 277.84 175.998C278.269 175.998 278.662 176.083 279.021 176.252C279.384 176.422 279.694 176.659 279.953 176.964C280.215 177.269 280.412 177.626 280.543 178.035C280.678 178.444 280.734 178.885 280.711 179.36H275.803C275.85 179.727 275.965 180.054 276.151 180.344C276.34 180.633 276.579 180.863 276.868 181.032C277.161 181.198 277.485 181.283 277.84 181.287C278.226 181.287 278.573 181.187 278.882 180.986C279.195 180.786 279.445 180.51 279.634 180.159L280.456 180.35C280.225 180.863 279.875 181.283 279.409 181.611C278.942 181.935 278.419 182.097 277.84 182.097ZM275.78 178.706H279.895C279.868 178.347 279.758 178.019 279.565 177.722C279.376 177.421 279.131 177.182 278.83 177.005C278.529 176.823 278.199 176.733 277.84 176.733C277.482 176.733 277.154 176.821 276.857 176.999C276.56 177.173 276.316 177.41 276.127 177.711C275.938 178.008 275.823 178.34 275.78 178.706ZM281.703 181.947V176.16H282.513V176.958C282.717 176.665 282.984 176.432 283.311 176.258C283.639 176.085 283.996 175.998 284.382 175.998C284.606 175.998 284.822 176.027 285.03 176.085L284.7 176.889C284.538 176.839 284.38 176.814 284.226 176.814C283.913 176.814 283.626 176.891 283.364 177.045C283.105 177.2 282.899 177.406 282.744 177.664C282.59 177.923 282.513 178.21 282.513 178.527V181.947H281.703ZM290.218 173.266H291.028V181.947H290.218V180.865C290.017 181.235 289.741 181.534 289.39 181.762C289.043 181.985 288.63 182.097 288.152 182.097C287.731 182.097 287.338 182.018 286.971 181.86C286.605 181.702 286.281 181.484 285.999 181.206C285.721 180.924 285.503 180.6 285.345 180.234C285.187 179.867 285.108 179.474 285.108 179.053C285.108 178.633 285.187 178.239 285.345 177.873C285.503 177.502 285.721 177.178 285.999 176.901C286.281 176.619 286.605 176.399 286.971 176.241C287.338 176.083 287.731 176.004 288.152 176.004C288.63 176.004 289.043 176.117 289.39 176.345C289.741 176.569 290.017 176.864 290.218 177.23V173.266ZM288.158 181.31C288.57 181.31 288.925 181.21 289.222 181.009C289.52 180.805 289.747 180.531 289.905 180.188C290.067 179.844 290.148 179.466 290.148 179.053C290.148 178.629 290.067 178.247 289.905 177.907C289.743 177.564 289.514 177.292 289.217 177.092C288.92 176.891 288.567 176.791 288.158 176.791C287.749 176.791 287.376 176.893 287.041 177.097C286.705 177.298 286.437 177.57 286.236 177.913C286.036 178.257 285.936 178.637 285.936 179.053C285.936 179.474 286.038 179.856 286.242 180.199C286.447 180.539 286.717 180.809 287.052 181.009C287.392 181.21 287.76 181.31 288.158 181.31ZM294.919 182.097C294.386 182.097 293.9 181.96 293.46 181.686C293.024 181.412 292.675 181.046 292.413 180.587C292.154 180.124 292.025 179.613 292.025 179.053C292.025 178.629 292.1 178.233 292.251 177.867C292.401 177.497 292.608 177.173 292.87 176.895C293.136 176.613 293.445 176.393 293.796 176.235C294.147 176.077 294.521 175.998 294.919 175.998C295.451 175.998 295.935 176.135 296.371 176.409C296.811 176.683 297.16 177.051 297.419 177.514C297.681 177.977 297.812 178.49 297.812 179.053C297.812 179.474 297.737 179.867 297.586 180.234C297.436 180.6 297.228 180.924 296.961 181.206C296.699 181.484 296.392 181.702 296.041 181.86C295.694 182.018 295.32 182.097 294.919 182.097ZM294.919 181.287C295.312 181.287 295.665 181.185 295.978 180.98C296.294 180.772 296.543 180.498 296.724 180.159C296.909 179.819 297.002 179.451 297.002 179.053C297.002 178.648 296.909 178.276 296.724 177.936C296.539 177.593 296.288 177.319 295.972 177.115C295.659 176.91 295.308 176.808 294.919 176.808C294.525 176.808 294.17 176.912 293.854 177.12C293.541 177.325 293.293 177.597 293.107 177.936C292.926 178.276 292.835 178.648 292.835 179.053C292.835 179.47 292.93 179.848 293.119 180.188C293.308 180.523 293.561 180.791 293.877 180.992C294.193 181.189 294.541 181.287 294.919 181.287Z" fill="white"/>
<path d="M502.553 161.742C502.121 161.742 501.702 161.674 501.297 161.539C500.896 161.404 500.545 161.211 500.244 160.961C499.943 160.71 499.731 160.411 499.607 160.064L500.365 159.78C500.45 160.019 500.604 160.226 500.828 160.399C501.056 160.569 501.32 160.7 501.621 160.793C501.926 160.885 502.236 160.932 502.553 160.932C502.923 160.932 503.268 160.87 503.589 160.746C503.909 160.623 504.167 160.451 504.364 160.231C504.561 160.008 504.659 159.745 504.659 159.444C504.659 159.14 504.557 158.889 504.352 158.692C504.148 158.495 503.884 158.341 503.56 158.229C503.239 158.113 502.904 158.025 502.553 157.963C502.001 157.866 501.505 157.735 501.065 157.569C500.63 157.403 500.284 157.17 500.03 156.869C499.775 156.564 499.648 156.163 499.648 155.665C499.648 155.199 499.783 154.794 500.053 154.45C500.323 154.107 500.678 153.841 501.118 153.652C501.561 153.463 502.04 153.368 502.553 153.368C502.973 153.368 503.384 153.434 503.785 153.565C504.187 153.696 504.54 153.887 504.844 154.138C505.153 154.388 505.375 154.695 505.51 155.058L504.74 155.336C504.655 155.093 504.499 154.886 504.271 154.716C504.048 154.543 503.785 154.412 503.484 154.323C503.184 154.23 502.873 154.184 502.553 154.184C502.186 154.18 501.843 154.242 501.523 154.369C501.206 154.493 500.95 154.666 500.753 154.89C500.556 155.11 500.458 155.368 500.458 155.665C500.458 156.013 500.549 156.281 500.73 156.47C500.915 156.655 501.166 156.794 501.482 156.887C501.799 156.979 502.155 157.062 502.553 157.135C503.07 157.224 503.55 157.363 503.994 157.552C504.437 157.737 504.794 157.986 505.064 158.299C505.334 158.607 505.469 158.989 505.469 159.444C505.469 159.907 505.334 160.312 505.064 160.66C504.794 161.003 504.437 161.269 503.994 161.458C503.554 161.647 503.074 161.742 502.553 161.742ZM509.254 161.742C508.722 161.742 508.236 161.605 507.796 161.331C507.36 161.057 507.011 160.69 506.748 160.231C506.49 159.768 506.361 159.257 506.361 158.698C506.361 158.273 506.436 157.878 506.586 157.512C506.737 157.141 506.943 156.817 507.206 156.539C507.472 156.258 507.78 156.038 508.132 155.88C508.483 155.721 508.857 155.642 509.254 155.642C509.787 155.642 510.271 155.779 510.707 156.053C511.147 156.327 511.496 156.696 511.754 157.159C512.016 157.621 512.148 158.135 512.148 158.698C512.148 159.118 512.072 159.512 511.922 159.878C511.772 160.245 511.563 160.569 511.297 160.851C511.035 161.128 510.728 161.346 510.377 161.505C510.03 161.663 509.655 161.742 509.254 161.742ZM509.254 160.932C509.648 160.932 510.001 160.829 510.313 160.625C510.63 160.417 510.878 160.143 511.06 159.803C511.245 159.464 511.337 159.095 511.337 158.698C511.337 158.293 511.245 157.92 511.06 157.581C510.875 157.238 510.624 156.964 510.307 156.759C509.995 156.555 509.644 156.453 509.254 156.453C508.861 156.453 508.506 156.557 508.189 156.765C507.877 156.969 507.628 157.241 507.443 157.581C507.262 157.92 507.171 158.293 507.171 158.698C507.171 159.114 507.265 159.493 507.454 159.832C507.643 160.168 507.896 160.436 508.213 160.636C508.529 160.833 508.876 160.932 509.254 160.932ZM513.083 161.591V152.911H513.893V161.591H513.083ZM518.244 156.615H516.861L516.855 161.591H516.045L516.051 156.615H515.003V155.804H516.051L516.045 153.987H516.855L516.861 155.804H518.244V156.615ZM523.875 155.804H524.685V161.591H523.875L523.846 160.515C523.657 160.881 523.393 161.179 523.053 161.406C522.714 161.63 522.309 161.742 521.838 161.742C521.414 161.742 521.016 161.663 520.646 161.505C520.276 161.342 519.95 161.121 519.668 160.839C519.386 160.557 519.166 160.231 519.008 159.861C518.85 159.491 518.771 159.093 518.771 158.669C518.771 158.252 518.848 157.861 519.002 157.494C519.161 157.128 519.377 156.806 519.651 156.528C519.928 156.25 520.249 156.034 520.611 155.88C520.978 155.721 521.369 155.642 521.786 155.642C522.268 155.642 522.689 155.758 523.048 155.99C523.406 156.217 523.692 156.516 523.904 156.887L523.875 155.804ZM521.821 160.955C522.234 160.955 522.588 160.854 522.886 160.654C523.183 160.449 523.41 160.175 523.568 159.832C523.73 159.489 523.811 159.111 523.811 158.698C523.811 158.273 523.73 157.892 523.568 157.552C523.406 157.209 523.177 156.937 522.88 156.736C522.583 156.535 522.23 156.435 521.821 156.435C521.412 156.435 521.038 156.537 520.698 156.742C520.362 156.942 520.094 157.214 519.894 157.558C519.697 157.901 519.599 158.281 519.599 158.698C519.599 159.118 519.701 159.5 519.905 159.844C520.11 160.183 520.38 160.453 520.715 160.654C521.055 160.854 521.423 160.955 521.821 160.955ZM525.843 161.591V155.804H526.653V156.603C526.858 156.31 527.124 156.076 527.452 155.903C527.78 155.729 528.137 155.642 528.523 155.642C528.746 155.642 528.962 155.671 529.171 155.729L528.841 156.534C528.679 156.483 528.521 156.458 528.366 156.458C528.054 156.458 527.766 156.535 527.504 156.69C527.246 156.844 527.039 157.05 526.885 157.309C526.731 157.567 526.653 157.855 526.653 158.171V161.591H525.843ZM536.892 160.139L537.616 160.532C537.353 160.899 537.02 161.192 536.615 161.412C536.213 161.632 535.777 161.742 535.307 161.742C534.774 161.742 534.288 161.605 533.848 161.331C533.412 161.057 533.063 160.69 532.801 160.231C532.543 159.768 532.413 159.257 532.413 158.698C532.413 158.273 532.488 157.878 532.639 157.512C532.789 157.141 532.996 156.817 533.258 156.539C533.524 156.258 533.833 156.038 534.184 155.88C534.535 155.721 534.909 155.642 535.307 155.642C535.777 155.642 536.213 155.752 536.615 155.972C537.02 156.192 537.353 156.487 537.616 156.858L536.892 157.245C536.692 156.991 536.451 156.796 536.169 156.661C535.887 156.522 535.6 156.453 535.307 156.453C534.917 156.453 534.564 156.557 534.248 156.765C533.931 156.969 533.681 157.241 533.495 157.581C533.314 157.92 533.223 158.293 533.223 158.698C533.223 159.103 533.316 159.475 533.501 159.815C533.69 160.154 533.943 160.426 534.259 160.631C534.576 160.831 534.925 160.932 535.307 160.932C535.623 160.932 535.92 160.858 536.198 160.712C536.476 160.565 536.707 160.374 536.892 160.139ZM538.581 161.591V152.911H539.392V161.591H538.581ZM540.785 155.804H541.596V161.591H540.785V155.804ZM541.196 154.792C541.065 154.792 540.953 154.749 540.861 154.664C540.772 154.576 540.727 154.466 540.727 154.334C540.727 154.203 540.772 154.095 540.861 154.01C540.953 153.922 541.065 153.877 541.196 153.877C541.324 153.877 541.432 153.922 541.52 154.01C541.613 154.095 541.659 154.203 541.659 154.334C541.659 154.466 541.615 154.576 541.526 154.664C541.437 154.749 541.327 154.792 541.196 154.792ZM547.065 160.139L547.788 160.532C547.526 160.899 547.192 161.192 546.787 161.412C546.386 161.632 545.95 161.742 545.479 161.742C544.947 161.742 544.461 161.605 544.021 161.331C543.585 161.057 543.236 160.69 542.973 160.231C542.715 159.768 542.586 159.257 542.586 158.698C542.586 158.273 542.661 157.878 542.811 157.512C542.962 157.141 543.168 156.817 543.431 156.539C543.697 156.258 544.005 156.038 544.356 155.88C544.708 155.721 545.082 155.642 545.479 155.642C545.95 155.642 546.386 155.752 546.787 155.972C547.192 156.192 547.526 156.487 547.788 156.858L547.065 157.245C546.864 156.991 546.623 156.796 546.341 156.661C546.06 156.522 545.772 156.453 545.479 156.453C545.089 156.453 544.736 156.557 544.42 156.765C544.104 156.969 543.853 157.241 543.668 157.581C543.486 157.92 543.396 158.293 543.396 158.698C543.396 159.103 543.488 159.475 543.674 159.815C543.863 160.154 544.115 160.426 544.432 160.631C544.748 160.831 545.097 160.932 545.479 160.932C545.795 160.932 546.093 160.858 546.37 160.712C546.648 160.565 546.88 160.374 547.065 160.139ZM553.273 161.591H552.342L550.721 158.796L549.564 160.179V161.591H548.754V152.911H549.564V158.918L552.174 155.804H553.233L551.271 158.137L553.273 161.591ZM503.803 169.804H504.613V175.591H503.803V169.804ZM504.214 168.792C504.083 168.792 503.971 168.749 503.878 168.664C503.79 168.576 503.745 168.466 503.745 168.334C503.745 168.203 503.79 168.095 503.878 168.01C503.971 167.922 504.083 167.877 504.214 167.877C504.341 167.877 504.449 167.922 504.538 168.01C504.631 168.095 504.677 168.203 504.677 168.334C504.677 168.466 504.633 168.576 504.544 168.664C504.455 168.749 504.345 168.792 504.214 168.792ZM510.718 170.615L506.922 174.781H510.718V175.591H505.776V174.781L509.572 170.615H505.776V169.804H510.718V170.615ZM514.513 175.753C513.954 175.753 513.443 175.616 512.98 175.342C512.521 175.069 512.154 174.7 511.88 174.237C511.606 173.774 511.47 173.261 511.47 172.698C511.47 172.277 511.549 171.884 511.707 171.517C511.865 171.151 512.083 170.829 512.361 170.551C512.642 170.269 512.966 170.049 513.333 169.891C513.699 169.733 514.093 169.654 514.513 169.654C514.992 169.654 515.405 169.768 515.752 169.995C516.099 170.223 516.373 170.52 516.574 170.887V169.804H517.384V178.485H516.574V174.521C516.373 174.887 516.099 175.184 515.752 175.412C515.405 175.64 514.992 175.753 514.513 175.753ZM514.519 170.441C514.11 170.441 513.736 170.543 513.397 170.748C513.061 170.952 512.793 171.226 512.592 171.569C512.395 171.909 512.297 172.285 512.297 172.698C512.297 173.122 512.397 173.506 512.598 173.849C512.802 174.189 513.072 174.459 513.408 174.66C513.748 174.86 514.118 174.961 514.519 174.961C514.932 174.961 515.287 174.858 515.584 174.654C515.881 174.449 516.109 174.175 516.267 173.832C516.429 173.489 516.51 173.111 516.51 172.698C516.51 172.277 516.429 171.897 516.267 171.558C516.105 171.218 515.875 170.948 515.578 170.748C515.281 170.543 514.928 170.441 514.519 170.441ZM518.457 173.375V169.804H519.267V173.213C519.267 173.529 519.345 173.817 519.499 174.075C519.653 174.334 519.86 174.54 520.118 174.694C520.38 174.849 520.668 174.926 520.98 174.926C521.297 174.926 521.582 174.849 521.837 174.694C522.095 174.54 522.302 174.334 522.456 174.075C522.61 173.817 522.687 173.529 522.687 173.213V169.804H523.498L523.503 175.591H522.693L522.687 174.781C522.483 175.074 522.217 175.308 521.889 175.481C521.565 175.655 521.21 175.742 520.824 175.742C520.388 175.742 519.991 175.636 519.632 175.423C519.273 175.211 518.988 174.926 518.776 174.567C518.563 174.208 518.457 173.811 518.457 173.375ZM524.657 169.804H525.467V175.591H524.657V169.804ZM525.067 168.792C524.936 168.792 524.824 168.749 524.732 168.664C524.643 168.576 524.599 168.466 524.599 168.334C524.599 168.203 524.643 168.095 524.732 168.01C524.824 167.922 524.936 167.877 525.067 167.877C525.195 167.877 525.303 167.922 525.391 168.01C525.484 168.095 525.53 168.203 525.53 168.334C525.53 168.466 525.486 168.576 525.397 168.664C525.308 168.749 525.199 168.792 525.067 168.792ZM529.35 175.742C528.818 175.742 528.332 175.605 527.892 175.331C527.456 175.057 527.107 174.69 526.845 174.231C526.586 173.768 526.457 173.257 526.457 172.698C526.457 172.273 526.532 171.878 526.682 171.512C526.833 171.141 527.039 170.817 527.302 170.539C527.568 170.258 527.877 170.038 528.228 169.88C528.579 169.721 528.953 169.642 529.35 169.642C529.778 169.642 530.172 169.727 530.531 169.897C530.893 170.067 531.204 170.304 531.462 170.609C531.725 170.914 531.922 171.27 532.053 171.679C532.188 172.088 532.244 172.53 532.221 173.005H527.313C527.36 173.371 527.475 173.699 527.66 173.988C527.85 174.278 528.089 174.507 528.378 174.677C528.671 174.843 528.995 174.928 529.35 174.932C529.736 174.932 530.083 174.831 530.392 174.631C530.704 174.43 530.955 174.154 531.144 173.803L531.966 173.994C531.734 174.507 531.385 174.928 530.919 175.256C530.452 175.58 529.929 175.742 529.35 175.742ZM527.29 172.351H531.405C531.378 171.992 531.268 171.664 531.075 171.367C530.886 171.066 530.641 170.827 530.34 170.649C530.039 170.468 529.709 170.377 529.35 170.377C528.991 170.377 528.664 170.466 528.366 170.643C528.069 170.817 527.826 171.054 527.637 171.355C527.448 171.652 527.333 171.984 527.29 172.351ZM533.213 175.591V169.804H534.023V170.603C534.227 170.31 534.493 170.076 534.821 169.903C535.149 169.729 535.506 169.642 535.892 169.642C536.116 169.642 536.332 169.671 536.54 169.729L536.21 170.534C536.048 170.483 535.89 170.458 535.736 170.458C535.423 170.458 535.136 170.535 534.873 170.69C534.615 170.844 534.409 171.05 534.254 171.309C534.1 171.567 534.023 171.855 534.023 172.171V175.591H533.213ZM541.728 166.911H542.538V175.591H541.728V174.509C541.527 174.88 541.251 175.179 540.9 175.406C540.553 175.63 540.14 175.742 539.662 175.742C539.241 175.742 538.848 175.663 538.481 175.505C538.115 175.346 537.791 175.128 537.509 174.851C537.231 174.569 537.013 174.245 536.855 173.878C536.697 173.512 536.618 173.118 536.618 172.698C536.618 172.277 536.697 171.884 536.855 171.517C537.013 171.147 537.231 170.823 537.509 170.545C537.791 170.263 538.115 170.044 538.481 169.885C538.848 169.727 539.241 169.648 539.662 169.648C540.14 169.648 540.553 169.762 540.9 169.99C541.251 170.213 541.527 170.508 541.728 170.875V166.911ZM539.668 174.955C540.08 174.955 540.435 174.854 540.732 174.654C541.029 174.449 541.257 174.175 541.415 173.832C541.577 173.489 541.658 173.111 541.658 172.698C541.658 172.273 541.577 171.892 541.415 171.552C541.253 171.209 541.024 170.937 540.727 170.736C540.43 170.535 540.077 170.435 539.668 170.435C539.259 170.435 538.886 170.537 538.551 170.742C538.215 170.942 537.947 171.214 537.746 171.558C537.546 171.901 537.445 172.281 537.445 172.698C537.445 173.118 537.548 173.5 537.752 173.844C537.957 174.183 538.227 174.453 538.562 174.654C538.902 174.854 539.27 174.955 539.668 174.955ZM546.429 175.742C545.896 175.742 545.41 175.605 544.97 175.331C544.534 175.057 544.185 174.69 543.923 174.231C543.664 173.768 543.535 173.257 543.535 172.698C543.535 172.273 543.61 171.878 543.761 171.512C543.911 171.141 544.118 170.817 544.38 170.539C544.646 170.258 544.955 170.038 545.306 169.88C545.657 169.721 546.031 169.642 546.429 169.642C546.961 169.642 547.445 169.779 547.881 170.053C548.321 170.327 548.67 170.696 548.928 171.159C549.191 171.621 549.322 172.135 549.322 172.698C549.322 173.118 549.247 173.512 549.096 173.878C548.946 174.245 548.738 174.569 548.471 174.851C548.209 175.128 547.902 175.346 547.551 175.505C547.204 175.663 546.83 175.742 546.429 175.742ZM546.429 174.932C546.822 174.932 547.175 174.829 547.488 174.625C547.804 174.417 548.053 174.143 548.234 173.803C548.419 173.464 548.512 173.095 548.512 172.698C548.512 172.293 548.419 171.92 548.234 171.581C548.049 171.238 547.798 170.964 547.482 170.759C547.169 170.555 546.818 170.453 546.429 170.453C546.035 170.453 545.68 170.557 545.364 170.765C545.051 170.969 544.802 171.241 544.617 171.581C544.436 171.92 544.345 172.293 544.345 172.698C544.345 173.114 544.44 173.493 544.629 173.832C544.818 174.168 545.071 174.436 545.387 174.636C545.703 174.833 546.05 174.932 546.429 174.932Z" fill="white"/>
<path d="M178.005 125.096H178.959L176.228 129.528V133.197H175.418V129.528L172.692 125.096H173.647L175.823 128.643L178.005 125.096Z" fill="white"/>
<defs>
<clipPath id="clip0_538_914">
<rect width="33.4771" height="33.1109" fill="white" transform="translate(41.0276 123.165)"/>
</clipPath>
</defs>
</svg>
