<svg width="522" height="139" viewBox="0 0 522 139" fill="none" xmlns="http://www.w3.org/2000/svg">
<path d="M57.2016 47.1057C57.7442 47.105 58.2644 46.8802 58.6481 46.4806C59.0317 46.0809 59.2475 45.5391 59.2482 44.9739V41.4209H56.5195V44.2633H41.5117C40.9691 44.2639 40.4489 44.4887 40.0652 44.8884C39.6816 45.288 39.4658 45.8299 39.4652 46.3951V49.9481H36.7898C34.7862 49.9504 32.8653 50.7806 31.4485 52.2564C30.0318 53.7321 29.2348 55.7331 29.2326 57.8202V72.0273C29.2326 78.6604 34.4131 84.0568 40.7808 84.0568H40.8782C47.2459 84.0568 52.4264 78.6604 52.4264 72.0273V57.8202C52.4242 55.7331 51.6272 53.7321 50.2105 52.2564C48.7937 50.7806 46.8728 49.9504 44.8692 49.9481H42.1938V47.1057H57.2016ZM31.9613 57.8202C31.9627 56.4867 32.4719 55.2082 33.3771 54.2653C34.2823 53.3224 35.5096 52.792 36.7898 52.7905H39.4652V60.607H31.9613V57.8202ZM49.6977 72.0273C49.6951 74.4631 48.7651 76.7982 47.1117 78.5205C45.4582 80.2429 43.2165 81.2117 40.8782 81.2144H40.7808C38.4425 81.2117 36.2008 80.2429 34.5473 78.5205C32.8939 76.7982 31.9639 74.4631 31.9613 72.0273V63.4494H49.6977V72.0273ZM44.8692 52.7905C46.1494 52.792 47.3767 53.3224 48.2819 54.2653C49.1871 55.2082 49.6963 56.4867 49.6977 57.8202V60.607H42.1938V52.7905H44.8692Z" fill="white"/>
<path d="M483.202 46.1062C483.744 46.1055 484.264 45.8807 484.648 45.4811C485.032 45.0814 485.248 44.5396 485.248 43.9744V40.4214H482.519V43.2638H467.512C466.969 43.2644 466.449 43.4892 466.065 43.8889C465.682 44.2885 465.466 44.8304 465.465 45.3956V48.9486H462.79C460.786 48.9509 458.865 49.781 457.449 51.2568C456.032 52.7326 455.235 54.7336 455.233 56.8207V71.0278C455.233 77.6609 460.413 83.0573 466.781 83.0573H466.878C473.246 83.0573 478.426 77.6609 478.426 71.0278V56.8207C478.424 54.7336 477.627 52.7326 476.211 51.2568C474.794 49.781 472.873 48.9509 470.869 48.9486H468.194V46.1062H483.202ZM457.961 56.8207C457.963 55.4872 458.472 54.2087 459.377 53.2658C460.282 52.3229 461.51 51.7925 462.79 51.791H465.465V59.6075H457.961V56.8207ZM475.698 71.0278C475.695 73.4635 474.765 75.7987 473.112 77.521C471.458 79.2434 469.217 80.2121 466.878 80.2149H466.781C464.443 80.2121 462.201 79.2434 460.547 77.521C458.894 75.7987 457.964 73.4635 457.961 71.0278V62.4499H475.698V71.0278ZM470.869 51.791C472.149 51.7925 473.377 52.3229 474.282 53.2658C475.187 54.2087 475.696 55.4872 475.698 56.8207V59.6075H468.194V51.791H470.869Z" fill="white"/>
<path d="M457.961 56.8207C457.963 55.4872 458.472 54.2087 459.377 53.2658C460.282 52.3229 461.51 51.7925 462.79 51.791H465.465V59.6075H457.961V56.8207Z" fill="white"/>
<path d="M219.202 48.1062C219.744 48.1055 220.264 47.8807 220.648 47.4811C221.032 47.0814 221.248 46.5396 221.248 45.9744V42.4214H218.519V45.2638H203.512C202.969 45.2644 202.449 45.4892 202.065 45.8889C201.682 46.2885 201.466 46.8304 201.465 47.3956V50.9486H198.79C196.786 50.9509 194.865 51.781 193.449 53.2568C192.032 54.7326 191.235 56.7336 191.233 58.8207V73.0278C191.233 79.6609 196.413 85.0573 202.781 85.0573H202.878C209.246 85.0573 214.426 79.6609 214.426 73.0278V58.8207C214.424 56.7336 213.627 54.7326 212.211 53.2568C210.794 51.781 208.873 50.9509 206.869 50.9486H204.194V48.1062H219.202ZM193.961 58.8207C193.963 57.4872 194.472 56.2087 195.377 55.2658C196.282 54.3229 197.51 53.7925 198.79 53.791H201.465V61.6075H193.961V58.8207ZM211.698 73.0278C211.695 75.4635 210.765 77.7987 209.112 79.521C207.458 81.2434 205.217 82.2121 202.878 82.2149H202.781C200.443 82.2121 198.201 81.2434 196.547 79.521C194.894 77.7987 193.964 75.4635 193.961 73.0278V64.4499H211.698V73.0278ZM206.869 53.791C208.149 53.7925 209.377 54.3229 210.282 55.2658C211.187 56.2087 211.696 57.4872 211.698 58.8207V61.6075H204.194V53.791H206.869Z" fill="white"/>
<path d="M193.961 58.8207C193.963 57.4872 194.472 56.2087 195.377 55.2658C196.282 54.3229 197.51 53.7925 198.79 53.791H201.465V61.6075H193.961V58.8207Z" fill="white"/>
<path d="M5.84784 14L7.76253 4.10859H8.48319L11.2528 11.3858L14.0082 4.10859H14.7289L16.6507 14H15.6403L14.1778 6.43307L11.5637 13.35H10.9278L8.31362 6.43307L6.85111 14H5.84784ZM20.893 14.1837C20.243 14.1837 19.6496 14.0165 19.1126 13.6821C18.5803 13.3476 18.1541 12.9002 17.8338 12.3397C17.5182 11.7744 17.3604 11.1503 17.3604 10.4674C17.3604 9.94923 17.4522 9.46644 17.6359 9.01897C17.8196 8.56679 18.0716 8.17113 18.3919 7.832C18.7169 7.48816 19.0937 7.21967 19.5224 7.02656C19.951 6.83344 20.4079 6.73688 20.893 6.73688C21.5431 6.73688 22.1342 6.90409 22.6664 7.23852C23.2034 7.57294 23.6297 8.02276 23.9453 8.58799C24.2655 9.15321 24.4257 9.77967 24.4257 10.4674C24.4257 10.9808 24.3338 11.4612 24.1501 11.9087C23.9664 12.3561 23.7121 12.7518 23.3871 13.0956C23.0668 13.4348 22.6923 13.7009 22.2637 13.894C21.8398 14.0871 21.3829 14.1837 20.893 14.1837ZM20.893 13.1946C21.3735 13.1946 21.8045 13.0697 22.186 12.8201C22.5722 12.5657 22.876 12.2313 23.0974 11.8168C23.3235 11.4023 23.4365 10.9525 23.4365 10.4674C23.4365 9.97278 23.3235 9.51825 23.0974 9.10375C22.8713 8.68454 22.5652 8.35012 22.1789 8.10048C21.7974 7.85084 21.3688 7.72602 20.893 7.72602C20.4126 7.72602 19.9793 7.8532 19.593 8.10755C19.2115 8.35719 18.9077 8.68926 18.6816 9.10375C18.4602 9.51825 18.3495 9.97278 18.3495 10.4674C18.3495 10.9761 18.4649 11.4377 18.6957 11.8522C18.9265 12.2619 19.2351 12.5893 19.6213 12.8342C20.0075 13.0744 20.4314 13.1946 20.893 13.1946ZM28.7313 14H27.4737L24.8949 6.91351H25.9476L28.1025 12.8413L30.2574 6.91351H31.3102L28.7313 14ZM32.4807 6.93471H33.4698V14H32.4807V6.93471ZM32.9823 5.69828C32.8222 5.69828 32.6856 5.64647 32.5725 5.54284C32.4642 5.43451 32.41 5.30027 32.41 5.14012C32.41 4.97998 32.4642 4.84809 32.5725 4.74447C32.6856 4.63613 32.8222 4.58196 32.9823 4.58196C33.1377 4.58196 33.2696 4.63613 33.378 4.74447C33.491 4.84809 33.5475 4.97998 33.5475 5.14012C33.5475 5.30027 33.4934 5.43451 33.385 5.54284C33.2767 5.64647 33.1425 5.69828 32.9823 5.69828ZM35.144 14V6.93471H36.1331V7.90972C36.3875 7.55174 36.7125 7.26678 37.1081 7.05482C37.5038 6.84286 37.9371 6.73688 38.4081 6.73688C38.9404 6.73688 39.4279 6.86876 39.8706 7.13254C40.3134 7.3916 40.6596 7.7378 40.9092 8.17113C41.1589 7.7378 41.5027 7.3916 41.9408 7.13254C42.3788 6.86876 42.864 6.73688 43.3962 6.73688C43.9285 6.73688 44.4136 6.86641 44.8517 7.12547C45.2897 7.38453 45.6383 7.73309 45.8973 8.17113C46.1564 8.60918 46.2859 9.09433 46.2859 9.62658V14H45.2968V9.84561C45.2968 9.46879 45.2049 9.12024 45.0212 8.79994C44.8375 8.47965 44.5903 8.22295 44.2794 8.02983C43.9732 7.832 43.6317 7.73309 43.2549 7.73309C42.8781 7.73309 42.5343 7.82493 42.2234 8.00863C41.9172 8.18762 41.6723 8.43726 41.4886 8.75755C41.3049 9.07314 41.213 9.43582 41.213 9.84561V14H40.2239V9.84561C40.2239 9.43582 40.1321 9.07314 39.9484 8.75755C39.7647 8.43726 39.5174 8.18762 39.2065 8.00863C38.8956 7.82493 38.5518 7.73309 38.175 7.73309C37.8029 7.73309 37.4614 7.832 37.1505 8.02983C36.8396 8.22295 36.5923 8.47965 36.4086 8.79994C36.225 9.12024 36.1331 9.46879 36.1331 9.84561V14H35.144ZM47.7014 6.93471H48.6906V14H47.7014V6.93471ZM48.203 5.69828C48.0429 5.69828 47.9063 5.64647 47.7933 5.54284C47.6849 5.43451 47.6308 5.30027 47.6308 5.14012C47.6308 4.97998 47.6849 4.84809 47.7933 4.74447C47.9063 4.63613 48.0429 4.58196 48.203 4.58196C48.3585 4.58196 48.4904 4.63613 48.5987 4.74447C48.7117 4.84809 48.7683 4.97998 48.7683 5.14012C48.7683 5.30027 48.7141 5.43451 48.6058 5.54284C48.4974 5.64647 48.3632 5.69828 48.203 5.69828ZM53.432 14.1837C52.782 14.1837 52.1885 14.0165 51.6516 13.6821C51.1193 13.3476 50.693 12.9002 50.3728 12.3397C50.0572 11.7744 49.8994 11.1503 49.8994 10.4674C49.8994 9.94923 49.9912 9.46644 50.1749 9.01897C50.3586 8.56679 50.6106 8.17113 50.9309 7.832C51.2559 7.48816 51.6327 7.21967 52.0614 7.02656C52.49 6.83344 52.9469 6.73688 53.432 6.73688C53.9549 6.73688 54.4353 6.8405 54.8733 7.04775C55.3161 7.255 55.6953 7.54468 56.0109 7.91678C56.3312 8.28889 56.5714 8.72458 56.7315 9.22386C56.8964 9.72314 56.9647 10.2625 56.9364 10.8418H50.945C51.0016 11.2893 51.1429 11.6896 51.369 12.0429C51.5998 12.3962 51.8918 12.6764 52.2451 12.8837C52.603 13.0862 52.9987 13.1898 53.432 13.1946C53.903 13.1946 54.327 13.0721 54.7038 12.8272C55.0853 12.5822 55.3915 12.2455 55.6223 11.8168L56.6255 12.05C56.3429 12.6764 55.9167 13.1898 55.3467 13.5902C54.7768 13.9859 54.1386 14.1837 53.432 14.1837ZM50.9168 10.0434H55.9402C55.9072 9.60539 55.773 9.20502 55.5375 8.84234C55.3067 8.47494 55.0076 8.18291 54.6402 7.96624C54.2728 7.74486 53.8701 7.63417 53.432 7.63417C52.994 7.63417 52.5936 7.74251 52.2309 7.95917C51.8682 8.17113 51.5715 8.46081 51.3407 8.82821C51.1099 9.19089 50.9686 9.59597 50.9168 10.0434ZM64.3085 9.62658V14H63.3194V9.82441C63.3194 9.43818 63.2252 9.08727 63.0367 8.77168C62.8483 8.4561 62.5963 8.2041 62.2808 8.0157C61.9652 7.82729 61.6143 7.73309 61.228 7.73309C60.8465 7.73309 60.4956 7.82729 60.1753 8.0157C59.8597 8.2041 59.6077 8.4561 59.4193 8.77168C59.2309 9.08727 59.1367 9.43818 59.1367 9.82441V14H58.1476V6.93471H59.1367V7.90972C59.3863 7.55174 59.7113 7.26678 60.1117 7.05482C60.5121 6.84286 60.9478 6.73688 61.4188 6.73688C61.951 6.73688 62.4362 6.86641 62.8742 7.12547C63.3123 7.38453 63.6608 7.73309 63.9199 8.17113C64.179 8.60918 64.3085 9.09433 64.3085 9.62658ZM69.3338 7.92385H67.6452L67.6381 14H66.649L66.656 7.92385H65.3772V6.93471H66.656L66.649 4.71621H67.6381L67.6452 6.93471H69.3338V7.92385ZM73.5102 14.1837C72.8601 14.1837 72.2667 14.0165 71.7297 13.6821C71.1974 13.3476 70.7712 12.9002 70.4509 12.3397C70.1353 11.7744 69.9775 11.1503 69.9775 10.4674C69.9775 9.94923 70.0694 9.46644 70.2531 9.01897C70.4368 8.56679 70.6887 8.17113 71.009 7.832C71.334 7.48816 71.7109 7.21967 72.1395 7.02656C72.5681 6.83344 73.025 6.73688 73.5102 6.73688C74.1602 6.73688 74.7513 6.90409 75.2835 7.23852C75.8205 7.57294 76.2468 8.02276 76.5624 8.58799C76.8827 9.15321 77.0428 9.77967 77.0428 10.4674C77.0428 10.9808 76.951 11.4612 76.7673 11.9087C76.5836 12.3561 76.3292 12.7518 76.0042 13.0956C75.6839 13.4348 75.3094 13.7009 74.8808 13.894C74.4569 14.0871 74 14.1837 73.5102 14.1837ZM73.5102 13.1946C73.9906 13.1946 74.4216 13.0697 74.8031 12.8201C75.1893 12.5657 75.4931 12.2313 75.7145 11.8168C75.9406 11.4023 76.0537 10.9525 76.0537 10.4674C76.0537 9.97278 75.9406 9.51825 75.7145 9.10375C75.4884 8.68454 75.1823 8.35012 74.796 8.10048C74.4145 7.85084 73.9859 7.72602 73.5102 7.72602C73.0297 7.72602 72.5964 7.8532 72.2101 8.10755C71.8286 8.35719 71.5248 8.68926 71.2987 9.10375C71.0773 9.51825 70.9666 9.97278 70.9666 10.4674C70.9666 10.9761 71.082 11.4377 71.3128 11.8522C71.5436 12.2619 71.8522 12.5893 72.2384 12.8342C72.6246 13.0744 73.0486 13.1946 73.5102 13.1946ZM80.4365 14.1342C80.0502 14.1248 79.6734 14.0542 79.306 13.9223C78.9386 13.7904 78.6183 13.6114 78.3451 13.3853C78.0719 13.1592 77.8765 12.9025 77.7587 12.6152L78.6136 12.2478C78.689 12.4315 78.8279 12.6011 79.0305 12.7565C79.2377 12.9072 79.4732 13.0297 79.737 13.1239C80.0008 13.2134 80.2622 13.2581 80.5212 13.2581C80.8086 13.2581 81.077 13.211 81.3267 13.1168C81.5763 13.0226 81.7789 12.8884 81.9343 12.7141C82.0944 12.5351 82.1745 12.3255 82.1745 12.0853C82.1745 11.8262 82.0897 11.6237 81.9202 11.4777C81.7506 11.327 81.5363 11.2092 81.2772 11.1244C81.0182 11.0349 80.752 10.9501 80.4789 10.8701C79.9796 10.7335 79.5392 10.5828 79.1576 10.4179C78.7761 10.253 78.477 10.0434 78.2603 9.78909C78.0484 9.53002 77.9424 9.19796 77.9424 8.79288C77.9424 8.36425 78.0625 7.9945 78.3027 7.68363C78.5477 7.36805 78.8656 7.12547 79.2566 6.9559C79.6522 6.78163 80.0738 6.69449 80.5212 6.69449C81.0959 6.69449 81.6187 6.81931 82.0897 7.06895C82.5655 7.31859 82.9093 7.65066 83.1213 8.06515L82.3229 8.53853C82.2381 8.34541 82.1039 8.1782 81.9202 8.03689C81.7365 7.89559 81.5269 7.7849 81.2914 7.70482C81.0606 7.62475 80.8251 7.58236 80.5848 7.57765C80.2834 7.57294 80.0031 7.61769 79.7441 7.71189C79.485 7.80138 79.2754 7.93562 79.1152 8.11461C78.9598 8.2936 78.8821 8.51262 78.8821 8.77168C78.8821 9.03074 78.9598 9.22857 79.1152 9.36517C79.2707 9.49705 79.4803 9.60539 79.7441 9.69017C80.0125 9.77024 80.314 9.86445 80.6484 9.97278C81.077 10.1094 81.4798 10.2648 81.8566 10.4391C82.2334 10.6134 82.5372 10.83 82.768 11.0891C82.9988 11.3482 83.1119 11.6755 83.1071 12.0712C83.1071 12.4951 82.98 12.8648 82.7256 13.1804C82.4713 13.496 82.1416 13.7386 81.7365 13.9082C81.3314 14.073 80.8981 14.1484 80.4365 14.1342ZM93.8806 9.62658V14H92.8915V9.82441C92.8915 9.43818 92.7973 9.08727 92.6089 8.77168C92.4204 8.4561 92.1684 8.2041 91.8529 8.0157C91.5373 7.82729 91.1864 7.73309 90.8001 7.73309C90.4186 7.73309 90.0677 7.82729 89.7474 8.0157C89.4318 8.2041 89.1798 8.4561 88.9914 8.77168C88.803 9.08727 88.7088 9.43818 88.7088 9.82441V14H87.7197V3.40206H88.7088V7.90972C88.9585 7.55174 89.2835 7.26678 89.6838 7.05482C90.0842 6.84286 90.5199 6.73688 90.9909 6.73688C91.5232 6.73688 92.0083 6.86641 92.4463 7.12547C92.8844 7.38453 93.233 7.73309 93.492 8.17113C93.7511 8.60918 93.8806 9.09433 93.8806 9.62658ZM98.2663 14.1837C97.6163 14.1837 97.0228 14.0165 96.4858 13.6821C95.9536 13.3476 95.5273 12.9002 95.207 12.3397C94.8914 11.7744 94.7336 11.1503 94.7336 10.4674C94.7336 9.94923 94.8255 9.46644 95.0092 9.01897C95.1929 8.56679 95.4449 8.17113 95.7652 7.832C96.0902 7.48816 96.467 7.21967 96.8956 7.02656C97.3242 6.83344 97.7811 6.73688 98.2663 6.73688C98.9163 6.73688 99.5074 6.90409 100.04 7.23852C100.577 7.57294 101.003 8.02276 101.318 8.58799C101.639 9.15321 101.799 9.77967 101.799 10.4674C101.799 10.9808 101.707 11.4612 101.523 11.9087C101.34 12.3561 101.085 12.7518 100.76 13.0956C100.44 13.4348 100.066 13.7009 99.6369 13.894C99.213 14.0871 98.7561 14.1837 98.2663 14.1837ZM98.2663 13.1946C98.7467 13.1946 99.1777 13.0697 99.5592 12.8201C99.9455 12.5657 100.249 12.2313 100.471 11.8168C100.697 11.4023 100.81 10.9525 100.81 10.4674C100.81 9.97278 100.697 9.51825 100.471 9.10375C100.245 8.68454 99.9384 8.35012 99.5522 8.10048C99.1706 7.85084 98.742 7.72602 98.2663 7.72602C97.7858 7.72602 97.3525 7.8532 96.9663 8.10755C96.5847 8.35719 96.2809 8.68926 96.0548 9.10375C95.8335 9.51825 95.7228 9.97278 95.7228 10.4674C95.7228 10.9761 95.8382 11.4377 96.069 11.8522C96.2998 12.2619 96.6083 12.5893 96.9945 12.8342C97.3808 13.0744 97.8047 13.1946 98.2663 13.1946ZM102.996 14V6.93471H103.985V7.90972C104.234 7.55174 104.559 7.26678 104.96 7.05482C105.36 6.84286 105.796 6.73688 106.267 6.73688C106.54 6.73688 106.804 6.77221 107.058 6.84286L106.655 7.82493C106.458 7.7637 106.264 7.73309 106.076 7.73309C105.695 7.73309 105.344 7.82729 105.023 8.0157C104.708 8.2041 104.456 8.4561 104.267 8.77168C104.079 9.08727 103.985 9.43818 103.985 9.82441V14H102.996ZM107.95 6.93471H108.939V14H107.95V6.93471ZM108.451 5.69828C108.291 5.69828 108.154 5.64647 108.041 5.54284C107.933 5.43451 107.879 5.30027 107.879 5.14012C107.879 4.97998 107.933 4.84809 108.041 4.74447C108.154 4.63613 108.291 4.58196 108.451 4.58196C108.607 4.58196 108.739 4.63613 108.847 4.74447C108.96 4.84809 109.016 4.97998 109.016 5.14012C109.016 5.30027 108.962 5.43451 108.854 5.54284C108.746 5.64647 108.611 5.69828 108.451 5.69828ZM116.392 7.92385L111.757 13.0109H116.392V14H110.358V13.0109L114.993 7.92385H110.358V6.93471H116.392V7.92385ZM120.842 14.1837C120.192 14.1837 119.599 14.0165 119.062 13.6821C118.529 13.3476 118.103 12.9002 117.783 12.3397C117.467 11.7744 117.309 11.1503 117.309 10.4674C117.309 9.94923 117.401 9.46644 117.585 9.01897C117.769 8.56679 118.021 8.17113 118.341 7.832C118.666 7.48816 119.043 7.21967 119.471 7.02656C119.9 6.83344 120.357 6.73688 120.842 6.73688C121.492 6.73688 122.083 6.90409 122.615 7.23852C123.152 7.57294 123.579 8.02276 123.894 8.58799C124.215 9.15321 124.375 9.77967 124.375 10.4674C124.375 10.9808 124.283 11.4612 124.099 11.9087C123.915 12.3561 123.661 12.7518 123.336 13.0956C123.016 13.4348 122.641 13.7009 122.213 13.894C121.789 14.0871 121.332 14.1837 120.842 14.1837ZM120.842 13.1946C121.323 13.1946 121.754 13.0697 122.135 12.8201C122.521 12.5657 122.825 12.2313 123.046 11.8168C123.273 11.4023 123.386 10.9525 123.386 10.4674C123.386 9.97278 123.273 9.51825 123.046 9.10375C122.82 8.68454 122.514 8.35012 122.128 8.10048C121.746 7.85084 121.318 7.72602 120.842 7.72602C120.362 7.72602 119.928 7.8532 119.542 8.10755C119.161 8.35719 118.857 8.68926 118.631 9.10375C118.409 9.51825 118.299 9.97278 118.299 10.4674C118.299 10.9761 118.414 11.4377 118.645 11.8522C118.876 12.2619 119.184 12.5893 119.57 12.8342C119.957 13.0744 120.38 13.1946 120.842 13.1946ZM131.732 9.62658V14H130.743V9.82441C130.743 9.43818 130.649 9.08727 130.461 8.77168C130.272 8.4561 130.02 8.2041 129.705 8.0157C129.389 7.82729 129.038 7.73309 128.652 7.73309C128.27 7.73309 127.919 7.82729 127.599 8.0157C127.284 8.2041 127.032 8.4561 126.843 8.77168C126.655 9.08727 126.561 9.43818 126.561 9.82441V14H125.571V6.93471H126.561V7.90972C126.81 7.55174 127.135 7.26678 127.536 7.05482C127.936 6.84286 128.372 6.73688 128.843 6.73688C129.375 6.73688 129.86 6.86641 130.298 7.12547C130.736 7.38453 131.085 7.73309 131.344 8.17113C131.603 8.60918 131.732 9.09433 131.732 9.62658ZM136.758 7.92385H135.069L135.062 14H134.073L134.08 7.92385H132.801V6.93471H134.08L134.073 4.71621H135.062L135.069 6.93471H136.758V7.92385ZM143.633 6.93471H144.622V14H143.633L143.598 12.6859C143.367 13.1333 143.044 13.496 142.63 13.7739C142.215 14.0471 141.721 14.1837 141.146 14.1837C140.628 14.1837 140.143 14.0871 139.691 13.894C139.238 13.6962 138.84 13.4254 138.496 13.0815C138.153 12.7377 137.884 12.3397 137.691 11.8875C137.498 11.4353 137.401 10.9501 137.401 10.432C137.401 9.92333 137.496 9.44524 137.684 8.99777C137.877 8.5503 138.141 8.157 138.475 7.81787C138.814 7.47873 139.205 7.21496 139.648 7.02656C140.096 6.83344 140.574 6.73688 141.082 6.73688C141.671 6.73688 142.185 6.87819 142.623 7.1608C143.061 7.4387 143.409 7.80374 143.668 8.25592L143.633 6.93471ZM141.125 13.2228C141.629 13.2228 142.062 13.1004 142.425 12.8554C142.787 12.6058 143.065 12.2714 143.258 11.8522C143.456 11.4329 143.555 10.9713 143.555 10.4674C143.555 9.94923 143.456 9.48292 143.258 9.06843C143.061 8.64922 142.78 8.31715 142.418 8.07222C142.055 7.82729 141.624 7.70482 141.125 7.70482C140.625 7.70482 140.169 7.82964 139.754 8.07928C139.344 8.32421 139.017 8.65628 138.772 9.07549C138.532 9.4947 138.412 9.95865 138.412 10.4674C138.412 10.9808 138.537 11.4471 138.786 11.8663C139.036 12.2808 139.366 12.6105 139.775 12.8554C140.19 13.1004 140.64 13.2228 141.125 13.2228ZM146.133 14V3.40206H147.122V14H146.133ZM151.877 14.1837C151.227 14.1837 150.633 14.0165 150.096 13.6821C149.564 13.3476 149.138 12.9002 148.818 12.3397C148.502 11.7744 148.344 11.1503 148.344 10.4674C148.344 9.94923 148.436 9.46644 148.62 9.01897C148.804 8.56679 149.056 8.17113 149.376 7.832C149.701 7.48816 150.078 7.21967 150.506 7.02656C150.935 6.83344 151.392 6.73688 151.877 6.73688C152.4 6.73688 152.88 6.8405 153.318 7.04775C153.761 7.255 154.14 7.54468 154.456 7.91678C154.776 8.28889 155.016 8.72458 155.176 9.22386C155.341 9.72314 155.41 10.2625 155.381 10.8418H149.39C149.446 11.2893 149.588 11.6896 149.814 12.0429C150.045 12.3962 150.337 12.6764 150.69 12.8837C151.048 13.0862 151.444 13.1898 151.877 13.1946C152.348 13.1946 152.772 13.0721 153.149 12.8272C153.53 12.5822 153.836 12.2455 154.067 11.8168L155.07 12.05C154.788 12.6764 154.362 13.1898 153.792 13.5902C153.222 13.9859 152.583 14.1837 151.877 14.1837ZM149.362 10.0434H154.385C154.352 9.60539 154.218 9.20502 153.982 8.84234C153.752 8.47494 153.453 8.18291 153.085 7.96624C152.718 7.74486 152.315 7.63417 151.877 7.63417C151.439 7.63417 151.039 7.74251 150.676 7.95917C150.313 8.17113 150.016 8.46081 149.786 8.82821C149.555 9.19089 149.414 9.59597 149.362 10.0434ZM158.789 14.1342C158.403 14.1248 158.026 14.0542 157.659 13.9223C157.292 13.7904 156.971 13.6114 156.698 13.3853C156.425 13.1592 156.229 12.9025 156.112 12.6152L156.967 12.2478C157.042 12.4315 157.181 12.6011 157.383 12.7565C157.591 12.9072 157.826 13.0297 158.09 13.1239C158.354 13.2134 158.615 13.2581 158.874 13.2581C159.162 13.2581 159.43 13.211 159.68 13.1168C159.929 13.0226 160.132 12.8884 160.287 12.7141C160.447 12.5351 160.528 12.3255 160.528 12.0853C160.528 11.8262 160.443 11.6237 160.273 11.4777C160.104 11.327 159.889 11.2092 159.63 11.1244C159.371 11.0349 159.105 10.9501 158.832 10.8701C158.333 10.7335 157.892 10.5828 157.511 10.4179C157.129 10.253 156.83 10.0434 156.613 9.78909C156.401 9.53002 156.295 9.19796 156.295 8.79288C156.295 8.36425 156.416 7.9945 156.656 7.68363C156.901 7.36805 157.219 7.12547 157.61 6.9559C158.005 6.78163 158.427 6.69449 158.874 6.69449C159.449 6.69449 159.972 6.81931 160.443 7.06895C160.918 7.31859 161.262 7.65066 161.474 8.06515L160.676 8.53853C160.591 8.34541 160.457 8.1782 160.273 8.03689C160.089 7.89559 159.88 7.7849 159.644 7.70482C159.414 7.62475 159.178 7.58236 158.938 7.57765C158.636 7.57294 158.356 7.61769 158.097 7.71189C157.838 7.80138 157.628 7.93562 157.468 8.11461C157.313 8.2936 157.235 8.51262 157.235 8.77168C157.235 9.03074 157.313 9.22857 157.468 9.36517C157.624 9.49705 157.833 9.60539 158.097 9.69017C158.366 9.77024 158.667 9.86445 159.001 9.97278C159.43 10.1094 159.833 10.2648 160.21 10.4391C160.586 10.6134 160.89 10.83 161.121 11.0891C161.352 11.3482 161.465 11.6755 161.46 12.0712C161.46 12.4951 161.333 12.8648 161.079 13.1804C160.824 13.496 160.495 13.7386 160.089 13.9082C159.684 14.073 159.251 14.1484 158.789 14.1342ZM169.181 14.1837C168.531 14.1837 167.938 14.0165 167.401 13.6821C166.869 13.3476 166.442 12.9002 166.122 12.3397C165.807 11.7744 165.649 11.1503 165.649 10.4674C165.649 9.94923 165.741 9.46644 165.924 9.01897C166.108 8.56679 166.36 8.17113 166.68 7.832C167.005 7.48816 167.382 7.21967 167.811 7.02656C168.239 6.83344 168.696 6.73688 169.181 6.73688C169.704 6.73688 170.185 6.8405 170.623 7.04775C171.065 7.255 171.445 7.54468 171.76 7.91678C172.081 8.28889 172.321 8.72458 172.481 9.22386C172.646 9.72314 172.714 10.2625 172.686 10.8418H166.694C166.751 11.2893 166.892 11.6896 167.118 12.0429C167.349 12.3962 167.641 12.6764 167.994 12.8837C168.352 13.0862 168.748 13.1898 169.181 13.1946C169.652 13.1946 170.076 13.0721 170.453 12.8272C170.835 12.5822 171.141 12.2455 171.372 11.8168L172.375 12.05C172.092 12.6764 171.666 13.1898 171.096 13.5902C170.526 13.9859 169.888 14.1837 169.181 14.1837ZM166.666 10.0434H171.69C171.657 9.60539 171.522 9.20502 171.287 8.84234C171.056 8.47494 170.757 8.18291 170.39 7.96624C170.022 7.74486 169.619 7.63417 169.181 7.63417C168.743 7.63417 168.343 7.74251 167.98 7.95917C167.618 8.17113 167.321 8.46081 167.09 8.82821C166.859 9.19089 166.718 9.59597 166.666 10.0434ZM180.058 9.62658V14H179.069V9.82441C179.069 9.43818 178.975 9.08727 178.786 8.77168C178.598 8.4561 178.346 8.2041 178.03 8.0157C177.715 7.82729 177.364 7.73309 176.977 7.73309C176.596 7.73309 176.245 7.82729 175.925 8.0157C175.609 8.2041 175.357 8.4561 175.169 8.77168C174.98 9.08727 174.886 9.43818 174.886 9.82441V14H173.897V6.93471H174.886V7.90972C175.136 7.55174 175.461 7.26678 175.861 7.05482C176.261 6.84286 176.697 6.73688 177.168 6.73688C177.7 6.73688 178.186 6.86641 178.624 7.12547C179.062 7.38453 179.41 7.73309 179.669 8.17113C179.928 8.60918 180.058 9.09433 180.058 9.62658ZM187.976 14.1837C187.326 14.1837 186.733 14.0165 186.196 13.6821C185.663 13.3476 185.237 12.9002 184.917 12.3397C184.601 11.7744 184.444 11.1503 184.444 10.4674C184.444 9.94923 184.535 9.46644 184.719 9.01897C184.903 8.56679 185.155 8.17113 185.475 7.832C185.8 7.48816 186.177 7.21967 186.606 7.02656C187.034 6.83344 187.491 6.73688 187.976 6.73688C188.499 6.73688 188.979 6.8405 189.417 7.04775C189.86 7.255 190.239 7.54468 190.555 7.91678C190.875 8.28889 191.116 8.72458 191.276 9.22386C191.441 9.72314 191.509 10.2625 191.481 10.8418H185.489C185.546 11.2893 185.687 11.6896 185.913 12.0429C186.144 12.3962 186.436 12.6764 186.789 12.8837C187.147 13.0862 187.543 13.1898 187.976 13.1946C188.447 13.1946 188.871 13.0721 189.248 12.8272C189.629 12.5822 189.936 12.2455 190.166 11.8168L191.17 12.05C190.887 12.6764 190.461 13.1898 189.891 13.5902C189.321 13.9859 188.683 14.1837 187.976 14.1837ZM185.461 10.0434H190.484C190.451 9.60539 190.317 9.20502 190.082 8.84234C189.851 8.47494 189.552 8.18291 189.184 7.96624C188.817 7.74486 188.414 7.63417 187.976 7.63417C187.538 7.63417 187.138 7.74251 186.775 7.95917C186.412 8.17113 186.116 8.46081 185.885 8.82821C185.654 9.19089 185.513 9.59597 185.461 10.0434ZM192.637 14V3.40206H193.626V14H192.637ZM202.332 7.92385H200.644L200.637 14H199.648L199.655 7.92385H198.376V6.93471H199.655L199.648 4.71621H200.637L200.644 6.93471H202.332V7.92385ZM209.208 6.93471H210.197V14H209.208L209.172 12.6859C208.942 13.1333 208.619 13.496 208.204 13.7739C207.79 14.0471 207.295 14.1837 206.721 14.1837C206.203 14.1837 205.717 14.0871 205.265 13.894C204.813 13.6962 204.415 13.4254 204.071 13.0815C203.727 12.7377 203.459 12.3397 203.266 11.8875C203.073 11.4353 202.976 10.9501 202.976 10.432C202.976 9.92333 203.07 9.44524 203.259 8.99777C203.452 8.5503 203.716 8.157 204.05 7.81787C204.389 7.47873 204.78 7.21496 205.223 7.02656C205.67 6.83344 206.148 6.73688 206.657 6.73688C207.246 6.73688 207.759 6.87819 208.197 7.1608C208.635 7.4387 208.984 7.80374 209.243 8.25592L209.208 6.93471ZM206.7 13.2228C207.204 13.2228 207.637 13.1004 208 12.8554C208.362 12.6058 208.64 12.2714 208.833 11.8522C209.031 11.4329 209.13 10.9713 209.13 10.4674C209.13 9.94923 209.031 9.48292 208.833 9.06843C208.635 8.64922 208.355 8.31715 207.992 8.07222C207.63 7.82729 207.199 7.70482 206.7 7.70482C206.2 7.70482 205.743 7.82964 205.329 8.07928C204.919 8.32421 204.592 8.65628 204.347 9.07549C204.107 9.4947 203.986 9.95865 203.986 10.4674C203.986 10.9808 204.111 11.4471 204.361 11.8663C204.611 12.2808 204.94 12.6105 205.35 12.8554C205.765 13.1004 206.214 13.2228 206.7 13.2228ZM215.212 6.73688C215.899 6.73688 216.523 6.90409 217.084 7.23852C217.649 7.57294 218.099 8.02276 218.433 8.58799C218.768 9.1485 218.935 9.7726 218.935 10.4603C218.935 10.9737 218.839 11.4565 218.645 11.9087C218.452 12.3561 218.184 12.7518 217.84 13.0956C217.501 13.4348 217.105 13.7009 216.653 13.894C216.206 14.0871 215.725 14.1837 215.212 14.1837C214.628 14.1837 214.124 14.0447 213.7 13.7668C213.276 13.4889 212.941 13.1263 212.696 12.6788V14H211.707V3.40206H212.696V8.24179C212.941 7.79432 213.276 7.43163 213.7 7.15373C214.124 6.87583 214.628 6.73688 215.212 6.73688ZM215.205 13.2158C215.709 13.2158 216.165 13.0933 216.575 12.8484C216.985 12.5987 217.312 12.2643 217.557 11.8451C217.802 11.4259 217.925 10.9643 217.925 10.4603C217.925 9.94217 217.8 9.47586 217.55 9.06136C217.301 8.64215 216.969 8.31008 216.554 8.06515C216.144 7.82022 215.694 7.69776 215.205 7.69776C214.705 7.69776 214.272 7.82258 213.905 8.07222C213.542 8.32186 213.262 8.65628 213.064 9.07549C212.871 9.4947 212.774 9.9563 212.774 10.4603C212.774 10.9737 212.873 11.44 213.071 11.8592C213.269 12.2737 213.549 12.6034 213.912 12.8484C214.279 13.0933 214.71 13.2158 215.205 13.2158ZM220.084 14V3.40206H221.073V14H220.084ZM225.828 14.1837C225.178 14.1837 224.584 14.0165 224.047 13.6821C223.515 13.3476 223.089 12.9002 222.769 12.3397C222.453 11.7744 222.295 11.1503 222.295 10.4674C222.295 9.94923 222.387 9.46644 222.571 9.01897C222.755 8.56679 223.007 8.17113 223.327 7.832C223.652 7.48816 224.029 7.21967 224.457 7.02656C224.886 6.83344 225.343 6.73688 225.828 6.73688C226.351 6.73688 226.831 6.8405 227.269 7.04775C227.712 7.255 228.091 7.54468 228.407 7.91678C228.727 8.28889 228.967 8.72458 229.127 9.22386C229.292 9.72314 229.361 10.2625 229.332 10.8418H223.341C223.397 11.2893 223.539 11.6896 223.765 12.0429C223.996 12.3962 224.288 12.6764 224.641 12.8837C224.999 13.0862 225.395 13.1898 225.828 13.1946C226.299 13.1946 226.723 13.0721 227.1 12.8272C227.481 12.5822 227.787 12.2455 228.018 11.8168L229.021 12.05C228.739 12.6764 228.313 13.1898 227.743 13.5902C227.173 13.9859 226.534 14.1837 225.828 14.1837ZM223.313 10.0434H228.336C228.303 9.60539 228.169 9.20502 227.933 8.84234C227.703 8.47494 227.403 8.18291 227.036 7.96624C226.669 7.74486 226.266 7.63417 225.828 7.63417C225.39 7.63417 224.99 7.74251 224.627 7.95917C224.264 8.17113 223.967 8.46081 223.737 8.82821C223.506 9.19089 223.364 9.59597 223.313 10.0434ZM230.543 14V6.93471H231.533V7.90972C231.782 7.55174 232.107 7.26678 232.508 7.05482C232.908 6.84286 233.344 6.73688 233.815 6.73688C234.088 6.73688 234.352 6.77221 234.606 6.84286L234.203 7.82493C234.005 7.7637 233.812 7.73309 233.624 7.73309C233.242 7.73309 232.891 7.82729 232.571 8.0157C232.256 8.2041 232.004 8.4561 231.815 8.77168C231.627 9.08727 231.533 9.43818 231.533 9.82441V14H230.543ZM238.234 14.1837C237.584 14.1837 236.99 14.0165 236.453 13.6821C235.921 13.3476 235.495 12.9002 235.174 12.3397C234.859 11.7744 234.701 11.1503 234.701 10.4674C234.701 9.94923 234.793 9.46644 234.976 9.01897C235.16 8.56679 235.412 8.17113 235.732 7.832C236.057 7.48816 236.434 7.21967 236.863 7.02656C237.292 6.83344 237.748 6.73688 238.234 6.73688C238.884 6.73688 239.475 6.90409 240.007 7.23852C240.544 7.57294 240.97 8.02276 241.286 8.58799C241.606 9.15321 241.766 9.77967 241.766 10.4674C241.766 10.9808 241.674 11.4612 241.491 11.9087C241.307 12.3561 241.053 12.7518 240.728 13.0956C240.407 13.4348 240.033 13.7009 239.604 13.894C239.18 14.0871 238.723 14.1837 238.234 14.1837ZM238.234 13.1946C238.714 13.1946 239.145 13.0697 239.527 12.8201C239.913 12.5657 240.217 12.2313 240.438 11.8168C240.664 11.4023 240.777 10.9525 240.777 10.4674C240.777 9.97278 240.664 9.51825 240.438 9.10375C240.212 8.68454 239.906 8.35012 239.519 8.10048C239.138 7.85084 238.709 7.72602 238.234 7.72602C237.753 7.72602 237.32 7.8532 236.934 8.10755C236.552 8.35719 236.248 8.68926 236.022 9.10375C235.801 9.51825 235.69 9.97278 235.69 10.4674C235.69 10.9761 235.805 11.4377 236.036 11.8522C236.267 12.2619 236.576 12.5893 236.962 12.8342C237.348 13.0744 237.772 13.1946 238.234 13.1946ZM243.307 8.06515C243.152 8.06515 243.02 8.01099 242.912 7.90265C242.803 7.78961 242.749 7.65301 242.749 7.49287C242.749 7.34214 242.803 7.21261 242.912 7.10427C243.02 6.99123 243.152 6.93471 243.307 6.93471C243.468 6.93471 243.602 6.99123 243.71 7.10427C243.823 7.21261 243.88 7.34214 243.88 7.49287C243.88 7.65301 243.823 7.78961 243.71 7.90265C243.602 8.01099 243.468 8.06515 243.307 8.06515ZM243.307 14.1837C243.152 14.1837 243.02 14.1272 242.912 14.0141C242.803 13.9058 242.749 13.7716 242.749 13.6114C242.749 13.4607 242.803 13.3312 242.912 13.2228C243.02 13.1098 243.152 13.0533 243.307 13.0533C243.468 13.0533 243.602 13.1098 243.71 13.2228C243.823 13.3312 243.88 13.4607 243.88 13.6114C243.88 13.7716 243.823 13.9058 243.71 14.0141C243.602 14.1272 243.468 14.1837 243.307 14.1837Z" fill="white"/>
<path d="M7.63588 123L9.0719 115.581H9.61239L11.6896 121.039L13.7562 115.581H14.2967L15.738 123H14.9802L13.8834 117.325L11.9227 122.512H11.4458L9.48522 117.325L8.38833 123H7.63588ZM18.9198 123.138C18.4323 123.138 17.9872 123.012 17.5844 122.762C17.1853 122.511 16.8655 122.175 16.6253 121.755C16.3886 121.331 16.2703 120.863 16.2703 120.351C16.2703 119.962 16.3392 119.6 16.477 119.264C16.6147 118.925 16.8037 118.628 17.0439 118.374C17.2877 118.116 17.5703 117.915 17.8918 117.77C18.2133 117.625 18.5559 117.553 18.9198 117.553C19.4073 117.553 19.8506 117.678 20.2498 117.929C20.6525 118.18 20.9723 118.517 21.2089 118.941C21.4492 119.365 21.5693 119.835 21.5693 120.351C21.5693 120.736 21.5004 121.096 21.3626 121.432C21.2248 121.767 21.0341 122.064 20.7903 122.322C20.5501 122.576 20.2693 122.776 19.9478 122.921C19.6298 123.065 19.2872 123.138 18.9198 123.138ZM18.9198 122.396C19.2801 122.396 19.6034 122.302 19.8895 122.115C20.1792 121.924 20.407 121.673 20.5731 121.363C20.7426 121.052 20.8274 120.714 20.8274 120.351C20.8274 119.98 20.7426 119.639 20.5731 119.328C20.4035 119.013 20.1739 118.763 19.8842 118.575C19.5981 118.388 19.2766 118.295 18.9198 118.295C18.5595 118.295 18.2344 118.39 17.9448 118.581C17.6586 118.768 17.4308 119.017 17.2612 119.328C17.0952 119.639 17.0122 119.98 17.0122 120.351C17.0122 120.732 17.0987 121.078 17.2718 121.389C17.4449 121.696 17.6763 121.942 17.966 122.126C18.2556 122.306 18.5736 122.396 18.9198 122.396ZM24.7985 123H23.8553L21.9212 117.685H22.7107L24.3269 122.131L25.9431 117.685H26.7326L24.7985 123ZM29.7351 123.138C29.2476 123.138 28.8024 123.012 28.3997 122.762C28.0005 122.511 27.6808 122.175 27.4406 121.755C27.2039 121.331 27.0856 120.863 27.0856 120.351C27.0856 119.962 27.1545 119.6 27.2922 119.264C27.43 118.925 27.619 118.628 27.8592 118.374C28.103 118.116 28.3856 117.915 28.7071 117.77C29.0285 117.625 29.3712 117.553 29.7351 117.553C30.1272 117.553 30.4875 117.63 30.8161 117.786C31.1481 117.941 31.4325 118.159 31.6692 118.438C31.9094 118.717 32.0896 119.043 32.2097 119.418C32.3333 119.792 32.3845 120.197 32.3634 120.631H27.8698C27.9122 120.967 28.0182 121.267 28.1878 121.532C28.3609 121.797 28.5799 122.007 28.8448 122.163C29.1133 122.315 29.4101 122.392 29.7351 122.396C30.0883 122.396 30.4063 122.304 30.6889 122.12C30.975 121.937 31.2046 121.684 31.3777 121.363L32.1302 121.537C31.9182 122.007 31.5985 122.392 31.1711 122.693C30.7436 122.989 30.265 123.138 29.7351 123.138ZM27.8486 120.033H31.6162C31.5915 119.704 31.4908 119.404 31.3142 119.132C31.1411 118.856 30.9167 118.637 30.6412 118.475C30.3656 118.309 30.0636 118.226 29.7351 118.226C29.4065 118.226 29.1063 118.307 28.8342 118.469C28.5622 118.628 28.3397 118.846 28.1666 119.121C27.9935 119.393 27.8875 119.697 27.8486 120.033ZM33.2717 123V117.701H34.0136V118.432C34.2008 118.164 34.4445 117.95 34.7448 117.791C35.0451 117.632 35.3719 117.553 35.7251 117.553C35.93 117.553 36.1279 117.579 36.3186 117.632L36.0166 118.369C35.8682 118.323 35.7234 118.3 35.5821 118.3C35.2959 118.3 35.0327 118.37 34.7925 118.512C34.5558 118.653 34.3668 118.842 34.2255 119.079C34.0842 119.315 34.0136 119.579 34.0136 119.868V123H33.2717ZM39.6056 123V117.701H40.3475V118.432C40.5383 118.164 40.782 117.95 41.0787 117.791C41.3755 117.632 41.7005 117.553 42.0538 117.553C42.4529 117.553 42.8186 117.652 43.1506 117.849C43.4827 118.044 43.7424 118.303 43.9296 118.628C44.1168 118.303 44.3747 118.044 44.7032 117.849C45.0318 117.652 45.3956 117.553 45.7948 117.553C46.194 117.553 46.5579 117.65 46.8864 117.844C47.215 118.038 47.4764 118.3 47.6707 118.628C47.865 118.957 47.9621 119.321 47.9621 119.72V123H47.2203V119.884C47.2203 119.602 47.1514 119.34 47.0136 119.1C46.8758 118.86 46.6904 118.667 46.4572 118.522C46.2276 118.374 45.9715 118.3 45.6889 118.3C45.4062 118.3 45.1484 118.369 44.9152 118.506C44.6856 118.641 44.5019 118.828 44.3641 119.068C44.2263 119.305 44.1574 119.577 44.1574 119.884V123H43.4156V119.884C43.4156 119.577 43.3467 119.305 43.2089 119.068C43.0712 118.828 42.8857 118.641 42.6525 118.506C42.4194 118.369 42.1615 118.3 41.8789 118.3C41.5998 118.3 41.3437 118.374 41.1105 118.522C40.8774 118.667 40.6919 118.86 40.5541 119.1C40.4164 119.34 40.3475 119.602 40.3475 119.884V123H39.6056ZM51.2518 123.138C50.7643 123.138 50.3192 123.012 49.9164 122.762C49.5172 122.511 49.1975 122.175 48.9573 121.755C48.7206 121.331 48.6023 120.863 48.6023 120.351C48.6023 119.962 48.6712 119.6 48.8089 119.264C48.9467 118.925 49.1357 118.628 49.3759 118.374C49.6197 118.116 49.9023 117.915 50.2238 117.77C50.5452 117.625 50.8879 117.553 51.2518 117.553C51.7393 117.553 52.1826 117.678 52.5818 117.929C52.9845 118.18 53.3042 118.517 53.5409 118.941C53.7811 119.365 53.9013 119.835 53.9013 120.351C53.9013 120.736 53.8324 121.096 53.6946 121.432C53.5568 121.767 53.3661 122.064 53.1223 122.322C52.8821 122.576 52.6012 122.776 52.2798 122.921C51.9618 123.065 51.6192 123.138 51.2518 123.138ZM51.2518 122.396C51.6121 122.396 51.9353 122.302 52.2215 122.115C52.5112 121.924 52.739 121.673 52.9051 121.363C53.0746 121.052 53.1594 120.714 53.1594 120.351C53.1594 119.98 53.0746 119.639 52.9051 119.328C52.7355 119.013 52.5059 118.763 52.2162 118.575C51.93 118.388 51.6086 118.295 51.2518 118.295C50.8914 118.295 50.5664 118.39 50.2768 118.581C49.9906 118.768 49.7628 119.017 49.5932 119.328C49.4272 119.639 49.3441 119.98 49.3441 120.351C49.3441 120.732 49.4307 121.078 49.6038 121.389C49.7769 121.696 50.0083 121.942 50.298 122.126C50.5876 122.306 50.9056 122.396 51.2518 122.396ZM54.5351 120.97V117.701H55.2769V120.822C55.2769 121.112 55.3476 121.375 55.4889 121.612C55.6302 121.848 55.8192 122.037 56.0559 122.179C56.2961 122.32 56.5593 122.391 56.8454 122.391C57.1351 122.391 57.3965 122.32 57.6297 122.179C57.8664 122.037 58.0553 121.848 58.1967 121.612C58.338 121.375 58.4086 121.112 58.4086 120.822V117.701H59.1505L59.1558 123H58.4139L58.4086 122.258C58.2214 122.527 57.9776 122.74 57.6774 122.899C57.3806 123.058 57.0556 123.138 56.7023 123.138C56.3032 123.138 55.9393 123.041 55.6108 122.846C55.2822 122.652 55.0208 122.391 54.8265 122.062C54.6322 121.734 54.5351 121.37 54.5351 120.97ZM61.849 123.101C61.5593 123.094 61.2767 123.041 61.0011 122.942C60.7256 122.843 60.4854 122.709 60.2805 122.539C60.0756 122.369 59.929 122.177 59.8407 121.961L60.4818 121.686C60.5384 121.824 60.6426 121.951 60.7945 122.067C60.9499 122.18 61.1265 122.272 61.3244 122.343C61.5222 122.41 61.7183 122.444 61.9126 122.444C62.128 122.444 62.3294 122.408 62.5166 122.338C62.7039 122.267 62.8558 122.166 62.9723 122.036C63.0925 121.901 63.1525 121.744 63.1525 121.564C63.1525 121.37 63.0889 121.218 62.9618 121.108C62.8346 120.995 62.6738 120.907 62.4795 120.843C62.2853 120.776 62.0857 120.713 61.8808 120.653C61.5063 120.55 61.176 120.437 60.8899 120.313C60.6037 120.19 60.3794 120.033 60.2169 119.842C60.0579 119.648 59.9784 119.398 59.9784 119.095C59.9784 118.773 60.0685 118.496 60.2487 118.263C60.4324 118.026 60.6708 117.844 60.964 117.717C61.2608 117.586 61.577 117.521 61.9126 117.521C62.3435 117.521 62.7357 117.614 63.0889 117.802C63.4457 117.989 63.7036 118.238 63.8626 118.549L63.2638 118.904C63.2002 118.759 63.0995 118.634 62.9618 118.528C62.824 118.422 62.6668 118.339 62.4901 118.279C62.317 118.219 62.1404 118.187 61.9602 118.183C61.7342 118.18 61.524 118.213 61.3297 118.284C61.1354 118.351 60.9782 118.452 60.8581 118.586C60.7415 118.72 60.6832 118.884 60.6832 119.079C60.6832 119.273 60.7415 119.421 60.8581 119.524C60.9746 119.623 61.1318 119.704 61.3297 119.768C61.531 119.828 61.7571 119.898 62.0079 119.98C62.3294 120.082 62.6314 120.199 62.9141 120.329C63.1967 120.46 63.4245 120.623 63.5976 120.817C63.7707 121.011 63.8555 121.257 63.852 121.553C63.852 121.871 63.7566 122.149 63.5658 122.385C63.3751 122.622 63.1278 122.804 62.824 122.931C62.5202 123.055 62.1952 123.111 61.849 123.101ZM67.0555 123.138C66.568 123.138 66.1229 123.012 65.7202 122.762C65.321 122.511 65.0013 122.175 64.7611 121.755C64.5244 121.331 64.4061 120.863 64.4061 120.351C64.4061 119.962 64.4749 119.6 64.6127 119.264C64.7505 118.925 64.9395 118.628 65.1797 118.374C65.4235 118.116 65.7061 117.915 66.0275 117.77C66.349 117.625 66.6917 117.553 67.0555 117.553C67.4477 117.553 67.808 117.63 68.1365 117.786C68.4686 117.941 68.753 118.159 68.9897 118.438C69.2299 118.717 69.41 119.043 69.5302 119.418C69.6538 119.792 69.705 120.197 69.6838 120.631H65.1903C65.2327 120.967 65.3387 121.267 65.5082 121.532C65.6813 121.797 65.9004 122.007 66.1653 122.163C66.4338 122.315 66.7305 122.392 67.0555 122.396C67.4088 122.396 67.7267 122.304 68.0093 122.12C68.2955 121.937 68.5251 121.684 68.6982 121.363L69.4507 121.537C69.2387 122.007 68.919 122.392 68.4916 122.693C68.0641 122.989 67.5854 123.138 67.0555 123.138ZM65.1691 120.033H68.9367C68.9119 119.704 68.8113 119.404 68.6346 119.132C68.4615 118.856 68.2372 118.637 67.9617 118.475C67.6861 118.309 67.3841 118.226 67.0555 118.226C66.727 118.226 66.4267 118.307 66.1547 118.469C65.8827 118.628 65.6601 118.846 65.487 119.121C65.3139 119.393 65.208 119.697 65.1691 120.033Z" fill="white"/>
<path d="M412.848 14V4.10859H418.867V5.09773H413.837V8.20646H417.998V9.1956H413.837V13.0109H418.867V14H412.848ZM419.011 17.5326V16.5435C419.364 16.5435 419.679 16.4658 419.957 16.3104C420.235 16.1549 420.454 15.9406 420.614 15.6674C420.775 15.3989 420.855 15.0975 420.855 14.7631V6.93471H421.844V14.7631C421.844 15.2718 421.719 15.7357 421.469 16.1549C421.224 16.5741 420.888 16.9085 420.459 17.1582C420.035 17.4078 419.552 17.5326 419.011 17.5326ZM421.356 5.69828C421.196 5.69828 421.06 5.64647 420.947 5.54284C420.838 5.43451 420.784 5.30027 420.784 5.14012C420.784 4.97998 420.838 4.84809 420.947 4.74447C421.06 4.63613 421.196 4.58196 421.356 4.58196C421.512 4.58196 421.644 4.63613 421.752 4.74447C421.865 4.84809 421.922 4.97998 421.922 5.14012C421.922 5.30027 421.867 5.43451 421.759 5.54284C421.651 5.64647 421.516 5.69828 421.356 5.69828ZM426.582 14.1837C425.932 14.1837 425.339 14.0165 424.802 13.6821C424.269 13.3476 423.843 12.9002 423.523 12.3397C423.207 11.7744 423.049 11.1503 423.049 10.4674C423.049 9.94923 423.141 9.46644 423.325 9.01897C423.509 8.56679 423.761 8.17113 424.081 7.832C424.406 7.48816 424.783 7.21967 425.211 7.02656C425.64 6.83344 426.097 6.73688 426.582 6.73688C427.105 6.73688 427.585 6.8405 428.023 7.04775C428.466 7.255 428.845 7.54468 429.161 7.91678C429.481 8.28889 429.721 8.72458 429.882 9.22386C430.046 9.72314 430.115 10.2625 430.086 10.8418H424.095C424.152 11.2893 424.293 11.6896 424.519 12.0429C424.75 12.3962 425.042 12.6764 425.395 12.8837C425.753 13.0862 426.149 13.1898 426.582 13.1946C427.053 13.1946 427.477 13.0721 427.854 12.8272C428.235 12.5822 428.542 12.2455 428.772 11.8168L429.776 12.05C429.493 12.6764 429.067 13.1898 428.497 13.5902C427.927 13.9859 427.289 14.1837 426.582 14.1837ZM424.067 10.0434H429.09C429.057 9.60539 428.923 9.20502 428.688 8.84234C428.457 8.47494 428.158 8.18291 427.79 7.96624C427.423 7.74486 427.02 7.63417 426.582 7.63417C426.144 7.63417 425.744 7.74251 425.381 7.95917C425.018 8.17113 424.722 8.46081 424.491 8.82821C424.26 9.19089 424.119 9.59597 424.067 10.0434ZM436.273 12.2266L437.156 12.7071C436.836 13.1545 436.429 13.5125 435.934 13.781C435.444 14.0495 434.912 14.1837 434.337 14.1837C433.687 14.1837 433.094 14.0165 432.557 13.6821C432.025 13.3476 431.598 12.9002 431.278 12.3397C430.963 11.7744 430.805 11.1503 430.805 10.4674C430.805 9.94923 430.897 9.46644 431.08 9.01897C431.264 8.56679 431.516 8.17113 431.836 7.832C432.161 7.48816 432.538 7.21967 432.967 7.02656C433.395 6.83344 433.852 6.73688 434.337 6.73688C434.912 6.73688 435.444 6.87112 435.934 7.1396C436.429 7.40808 436.836 7.76841 437.156 8.22059L436.273 8.69397C436.028 8.38309 435.734 8.14523 435.39 7.98037C435.046 7.8108 434.695 7.72602 434.337 7.72602C433.862 7.72602 433.431 7.8532 433.044 8.10755C432.658 8.35719 432.352 8.68926 432.126 9.10375C431.905 9.51825 431.794 9.97278 431.794 10.4674C431.794 10.9619 431.907 11.4165 432.133 11.831C432.364 12.2455 432.672 12.5775 433.059 12.8272C433.445 13.0721 433.871 13.1946 434.337 13.1946C434.724 13.1946 435.086 13.1051 435.425 12.9261C435.765 12.7471 436.047 12.5139 436.273 12.2266ZM438.08 11.294V6.93471H439.069V11.0962C439.069 11.4824 439.164 11.8333 439.352 12.1489C439.54 12.4645 439.792 12.7165 440.108 12.9049C440.428 13.0933 440.779 13.1875 441.161 13.1875C441.547 13.1875 441.896 13.0933 442.206 12.9049C442.522 12.7165 442.774 12.4645 442.962 12.1489C443.151 11.8333 443.245 11.4824 443.245 11.0962V6.93471H444.234L444.241 14H443.252L443.245 13.0109C442.995 13.3688 442.67 13.6538 442.27 13.8658C441.874 14.0777 441.441 14.1837 440.97 14.1837C440.438 14.1837 439.953 14.0542 439.515 13.7951C439.077 13.536 438.728 13.1875 438.469 12.7494C438.21 12.3114 438.08 11.8262 438.08 11.294ZM449.259 7.92385H447.571L447.564 14H446.575L446.582 7.92385H445.303V6.93471H446.582L446.575 4.71621H447.564L447.571 6.93471H449.259V7.92385ZM456.135 6.93471H457.124V14H456.135L456.099 12.6859C455.869 13.1333 455.546 13.496 455.131 13.7739C454.717 14.0471 454.222 14.1837 453.648 14.1837C453.13 14.1837 452.644 14.0871 452.192 13.894C451.74 13.6962 451.342 13.4254 450.998 13.0815C450.654 12.7377 450.386 12.3397 450.193 11.8875C450 11.4353 449.903 10.9501 449.903 10.432C449.903 9.92333 449.997 9.44524 450.186 8.99777C450.379 8.5503 450.643 8.157 450.977 7.81787C451.316 7.47873 451.707 7.21496 452.15 7.02656C452.597 6.83344 453.075 6.73688 453.584 6.73688C454.173 6.73688 454.686 6.87819 455.124 7.1608C455.562 7.4387 455.911 7.80374 456.17 8.25592L456.135 6.93471ZM453.626 13.2228C454.13 13.2228 454.564 13.1004 454.927 12.8554C455.289 12.6058 455.567 12.2714 455.76 11.8522C455.958 11.4329 456.057 10.9713 456.057 10.4674C456.057 9.94923 455.958 9.48292 455.76 9.06843C455.562 8.64922 455.282 8.31715 454.919 8.07222C454.557 7.82729 454.126 7.70482 453.626 7.70482C453.127 7.70482 452.67 7.82964 452.256 8.07928C451.846 8.32421 451.519 8.65628 451.274 9.07549C451.034 9.4947 450.913 9.95865 450.913 10.4674C450.913 10.9808 451.038 11.4471 451.288 11.8663C451.538 12.2808 451.867 12.6105 452.277 12.8554C452.692 13.1004 453.141 13.2228 453.626 13.2228ZM458.538 14V6.93471H459.527V7.90972C459.776 7.55174 460.101 7.26678 460.502 7.05482C460.902 6.84286 461.338 6.73688 461.809 6.73688C462.082 6.73688 462.346 6.77221 462.6 6.84286L462.197 7.82493C462 7.7637 461.807 7.73309 461.618 7.73309C461.237 7.73309 460.886 7.82729 460.565 8.0157C460.25 8.2041 459.998 8.4561 459.809 8.77168C459.621 9.08727 459.527 9.43818 459.527 9.82441V14H458.538ZM472.798 3.40206H473.787V14H472.798V12.6788C472.553 13.131 472.216 13.496 471.787 13.7739C471.363 14.0471 470.859 14.1837 470.275 14.1837C469.762 14.1837 469.281 14.0871 468.834 13.894C468.387 13.7009 467.991 13.4348 467.647 13.0956C467.308 12.7518 467.042 12.3561 466.849 11.9087C466.656 11.4612 466.559 10.9808 466.559 10.4674C466.559 9.95394 466.656 9.4735 466.849 9.02603C467.042 8.57386 467.308 8.1782 467.647 7.83906C467.991 7.49522 468.387 7.22674 468.834 7.03362C469.281 6.8405 469.762 6.74394 470.275 6.74394C470.859 6.74394 471.363 6.8829 471.787 7.1608C472.216 7.43399 472.553 7.79432 472.798 8.24179V3.40206ZM470.282 13.2228C470.786 13.2228 471.22 13.1004 471.582 12.8554C471.945 12.6058 472.223 12.2714 472.416 11.8522C472.614 11.4329 472.713 10.9713 472.713 10.4674C472.713 9.94923 472.614 9.48292 472.416 9.06843C472.218 8.64922 471.938 8.31715 471.575 8.07222C471.213 7.82729 470.782 7.70482 470.282 7.70482C469.783 7.70482 469.329 7.82964 468.919 8.07928C468.509 8.32421 468.182 8.65628 467.937 9.07549C467.692 9.4947 467.569 9.95865 467.569 10.4674C467.569 10.9808 467.694 11.4471 467.944 11.8663C468.193 12.2808 468.523 12.6105 468.933 12.8554C469.347 13.1004 469.797 13.2228 470.282 13.2228ZM478.537 14.1837C477.887 14.1837 477.293 14.0165 476.756 13.6821C476.224 13.3476 475.798 12.9002 475.478 12.3397C475.162 11.7744 475.004 11.1503 475.004 10.4674C475.004 9.94923 475.096 9.46644 475.28 9.01897C475.463 8.56679 475.715 8.17113 476.036 7.832C476.361 7.48816 476.738 7.21967 477.166 7.02656C477.595 6.83344 478.052 6.73688 478.537 6.73688C479.06 6.73688 479.54 6.8405 479.978 7.04775C480.421 7.255 480.8 7.54468 481.116 7.91678C481.436 8.28889 481.676 8.72458 481.836 9.22386C482.001 9.72314 482.069 10.2625 482.041 10.8418H476.05C476.106 11.2893 476.248 11.6896 476.474 12.0429C476.705 12.3962 476.997 12.6764 477.35 12.8837C477.708 13.0862 478.104 13.1898 478.537 13.1946C479.008 13.1946 479.432 13.0721 479.809 12.8272C480.19 12.5822 480.496 12.2455 480.727 11.8168L481.73 12.05C481.448 12.6764 481.021 13.1898 480.452 13.5902C479.882 13.9859 479.243 14.1837 478.537 14.1837ZM476.022 10.0434H481.045C481.012 9.60539 480.878 9.20502 480.642 8.84234C480.411 8.47494 480.112 8.18291 479.745 7.96624C479.378 7.74486 478.975 7.63417 478.537 7.63417C478.099 7.63417 477.698 7.74251 477.336 7.95917C476.973 8.17113 476.676 8.46081 476.446 8.82821C476.215 9.19089 476.073 9.59597 476.022 10.0434ZM488.228 12.2266L489.111 12.7071C488.791 13.1545 488.383 13.5125 487.889 13.781C487.399 14.0495 486.867 14.1837 486.292 14.1837C485.642 14.1837 485.049 14.0165 484.512 13.6821C483.979 13.3476 483.553 12.9002 483.233 12.3397C482.917 11.7744 482.759 11.1503 482.759 10.4674C482.759 9.94923 482.851 9.46644 483.035 9.01897C483.219 8.56679 483.471 8.17113 483.791 7.832C484.116 7.48816 484.493 7.21967 484.921 7.02656C485.35 6.83344 485.807 6.73688 486.292 6.73688C486.867 6.73688 487.399 6.87112 487.889 7.1396C488.383 7.40808 488.791 7.76841 489.111 8.22059L488.228 8.69397C487.983 8.38309 487.689 8.14523 487.345 7.98037C487.001 7.8108 486.65 7.72602 486.292 7.72602C485.816 7.72602 485.385 7.8532 484.999 8.10755C484.613 8.35719 484.307 8.68926 484.081 9.10375C483.859 9.51825 483.749 9.97278 483.749 10.4674C483.749 10.9619 483.862 11.4165 484.088 11.831C484.319 12.2455 484.627 12.5775 485.013 12.8272C485.4 13.0721 485.826 13.1946 486.292 13.1946C486.678 13.1946 487.041 13.1051 487.38 12.9261C487.719 12.7471 488.002 12.5139 488.228 12.2266ZM490.262 6.93471H491.252V14H490.262V6.93471ZM490.764 5.69828C490.604 5.69828 490.467 5.64647 490.354 5.54284C490.246 5.43451 490.192 5.30027 490.192 5.14012C490.192 4.97998 490.246 4.84809 490.354 4.74447C490.467 4.63613 490.604 4.58196 490.764 4.58196C490.92 4.58196 491.051 4.63613 491.16 4.74447C491.273 4.84809 491.329 4.97998 491.329 5.14012C491.329 5.30027 491.275 5.43451 491.167 5.54284C491.058 5.64647 490.924 5.69828 490.764 5.69828ZM495.081 14.1342C494.695 14.1248 494.318 14.0542 493.951 13.9223C493.583 13.7904 493.263 13.6114 492.99 13.3853C492.717 13.1592 492.521 12.9025 492.404 12.6152L493.258 12.2478C493.334 12.4315 493.473 12.6011 493.675 12.7565C493.883 12.9072 494.118 13.0297 494.382 13.1239C494.646 13.2134 494.907 13.2581 495.166 13.2581C495.453 13.2581 495.722 13.211 495.972 13.1168C496.221 13.0226 496.424 12.8884 496.579 12.7141C496.739 12.5351 496.819 12.3255 496.819 12.0853C496.819 11.8262 496.735 11.6237 496.565 11.4777C496.395 11.327 496.181 11.2092 495.922 11.1244C495.663 11.0349 495.397 10.9501 495.124 10.8701C494.624 10.7335 494.184 10.5828 493.803 10.4179C493.421 10.253 493.122 10.0434 492.905 9.78909C492.693 9.53002 492.587 9.19796 492.587 8.79288C492.587 8.36425 492.707 7.9945 492.948 7.68363C493.193 7.36805 493.51 7.12547 493.901 6.9559C494.297 6.78163 494.719 6.69449 495.166 6.69449C495.741 6.69449 496.264 6.81931 496.735 7.06895C497.21 7.31859 497.554 7.65066 497.766 8.06515L496.968 8.53853C496.883 8.34541 496.749 8.1782 496.565 8.03689C496.381 7.89559 496.172 7.7849 495.936 7.70482C495.705 7.62475 495.47 7.58236 495.23 7.57765C494.928 7.57294 494.648 7.61769 494.389 7.71189C494.13 7.80138 493.92 7.93562 493.76 8.11461C493.605 8.2936 493.527 8.51262 493.527 8.77168C493.527 9.03074 493.605 9.22857 493.76 9.36517C493.916 9.49705 494.125 9.60539 494.389 9.69017C494.657 9.77024 494.959 9.86445 495.293 9.97278C495.722 10.1094 496.125 10.2648 496.501 10.4391C496.878 10.6134 497.182 10.83 497.413 11.0891C497.644 11.3482 497.757 11.6755 497.752 12.0712C497.752 12.4951 497.625 12.8648 497.37 13.1804C497.116 13.496 496.786 13.7386 496.381 13.9082C495.976 14.073 495.543 14.1484 495.081 14.1342ZM498.901 6.93471H499.89V14H498.901V6.93471ZM499.403 5.69828C499.242 5.69828 499.106 5.64647 498.993 5.54284C498.884 5.43451 498.83 5.30027 498.83 5.14012C498.83 4.97998 498.884 4.84809 498.993 4.74447C499.106 4.63613 499.242 4.58196 499.403 4.58196C499.558 4.58196 499.69 4.63613 499.798 4.74447C499.911 4.84809 499.968 4.97998 499.968 5.14012C499.968 5.30027 499.914 5.43451 499.805 5.54284C499.697 5.64647 499.563 5.69828 499.403 5.69828ZM504.632 14.1837C503.981 14.1837 503.388 14.0165 502.851 13.6821C502.319 13.3476 501.893 12.9002 501.572 12.3397C501.257 11.7744 501.099 11.1503 501.099 10.4674C501.099 9.94923 501.191 9.46644 501.374 9.01897C501.558 8.56679 501.81 8.17113 502.13 7.832C502.455 7.48816 502.832 7.21967 503.261 7.02656C503.689 6.83344 504.146 6.73688 504.632 6.73688C505.282 6.73688 505.873 6.90409 506.405 7.23852C506.942 7.57294 507.368 8.02276 507.684 8.58799C508.004 9.15321 508.164 9.77967 508.164 10.4674C508.164 10.9808 508.072 11.4612 507.889 11.9087C507.705 12.3561 507.451 12.7518 507.126 13.0956C506.805 13.4348 506.431 13.7009 506.002 13.894C505.578 14.0871 505.121 14.1837 504.632 14.1837ZM504.632 13.1946C505.112 13.1946 505.543 13.0697 505.924 12.8201C506.311 12.5657 506.614 12.2313 506.836 11.8168C507.062 11.4023 507.175 10.9525 507.175 10.4674C507.175 9.97278 507.062 9.51825 506.836 9.10375C506.61 8.68454 506.304 8.35012 505.917 8.10048C505.536 7.85084 505.107 7.72602 504.632 7.72602C504.151 7.72602 503.718 7.8532 503.331 8.10755C502.95 8.35719 502.646 8.68926 502.42 9.10375C502.199 9.51825 502.088 9.97278 502.088 10.4674C502.088 10.9761 502.203 11.4377 502.434 11.8522C502.665 12.2619 502.974 12.5893 503.36 12.8342C503.746 13.0744 504.17 13.1946 504.632 13.1946ZM504.391 6.15753L504.957 4.12272H505.946L505.055 6.15753H504.391ZM515.522 9.62658V14H514.533V9.82441C514.533 9.43818 514.438 9.08727 514.25 8.77168C514.062 8.4561 513.81 8.2041 513.494 8.0157C513.178 7.82729 512.828 7.73309 512.441 7.73309C512.06 7.73309 511.709 7.82729 511.389 8.0157C511.073 8.2041 510.821 8.4561 510.633 8.77168C510.444 9.08727 510.35 9.43818 510.35 9.82441V14H509.361V6.93471H510.35V7.90972C510.6 7.55174 510.925 7.26678 511.325 7.05482C511.725 6.84286 512.161 6.73688 512.632 6.73688C513.164 6.73688 513.649 6.86641 514.088 7.12547C514.526 7.38453 514.874 7.73309 515.133 8.17113C515.392 8.60918 515.522 9.09433 515.522 9.62658ZM517.212 8.06515C517.057 8.06515 516.925 8.01099 516.817 7.90265C516.708 7.78961 516.654 7.65301 516.654 7.49287C516.654 7.34214 516.708 7.21261 516.817 7.10427C516.925 6.99123 517.057 6.93471 517.212 6.93471C517.372 6.93471 517.507 6.99123 517.615 7.10427C517.728 7.21261 517.785 7.34214 517.785 7.49287C517.785 7.65301 517.728 7.78961 517.615 7.90265C517.507 8.01099 517.372 8.06515 517.212 8.06515ZM517.212 14.1837C517.057 14.1837 516.925 14.1272 516.817 14.0141C516.708 13.9058 516.654 13.7716 516.654 13.6114C516.654 13.4607 516.708 13.3312 516.817 13.2228C516.925 13.1098 517.057 13.0533 517.212 13.0533C517.372 13.0533 517.507 13.1098 517.615 13.2228C517.728 13.3312 517.785 13.4607 517.785 13.6114C517.785 13.7716 517.728 13.9058 517.615 14.0141C517.507 14.1272 517.372 14.1837 517.212 14.1837Z" fill="white"/>
<path d="M29.4646 97.5797H1M1 97.5797L8.66356 90M1 97.5797L8.66356 105.159" stroke="white" stroke-width="0.883162" stroke-linecap="round" stroke-linejoin="round"/>
<g clip-path="url(#clip0_626_2100)">
<path d="M50.0972 98.1596L78.5618 98.1649M78.5618 98.1649L70.8971 105.743M78.5618 98.1649L70.8994 90.5838" stroke="white" stroke-width="0.883162" stroke-linecap="round" stroke-linejoin="round"/>
</g>
<path d="M150.225 123L151.661 115.581H152.202L154.279 121.039L156.345 115.581H156.886L158.327 123H157.57L156.473 117.325L154.512 122.512H154.035L152.075 117.325L150.978 123H150.225ZM163.533 117.701H164.275V123H163.533L163.507 122.014C163.334 122.35 163.092 122.622 162.781 122.83C162.47 123.035 162.099 123.138 161.668 123.138C161.279 123.138 160.916 123.065 160.576 122.921C160.237 122.772 159.939 122.569 159.681 122.311C159.423 122.053 159.222 121.755 159.077 121.416C158.932 121.076 158.86 120.713 158.86 120.324C158.86 119.942 158.93 119.584 159.072 119.248C159.216 118.913 159.414 118.618 159.665 118.363C159.919 118.109 160.213 117.911 160.545 117.77C160.88 117.625 161.239 117.553 161.62 117.553C162.062 117.553 162.447 117.659 162.776 117.871C163.104 118.079 163.365 118.353 163.56 118.692L163.533 117.701ZM161.652 122.417C162.03 122.417 162.355 122.325 162.627 122.142C162.899 121.954 163.108 121.704 163.252 121.389C163.401 121.075 163.475 120.729 163.475 120.351C163.475 119.962 163.401 119.612 163.252 119.301C163.104 118.987 162.894 118.738 162.622 118.554C162.35 118.37 162.027 118.279 161.652 118.279C161.278 118.279 160.935 118.372 160.624 118.559C160.317 118.743 160.071 118.992 159.888 119.307C159.707 119.621 159.617 119.969 159.617 120.351C159.617 120.736 159.711 121.085 159.898 121.4C160.085 121.711 160.333 121.958 160.64 122.142C160.951 122.325 161.288 122.417 161.652 122.417ZM169.956 119.72V123H169.214V119.868C169.214 119.579 169.144 119.315 169.002 119.079C168.861 118.842 168.672 118.653 168.435 118.512C168.199 118.37 167.936 118.3 167.646 118.3C167.36 118.3 167.097 118.37 166.856 118.512C166.62 118.653 166.431 118.842 166.289 119.079C166.148 119.315 166.077 119.579 166.077 119.868V123H165.336V117.701H166.077V118.432C166.265 118.164 166.508 117.95 166.809 117.791C167.109 117.632 167.436 117.553 167.789 117.553C168.188 117.553 168.552 117.65 168.881 117.844C169.209 118.038 169.47 118.3 169.665 118.628C169.859 118.957 169.956 119.321 169.956 119.72ZM173.725 118.443H172.459L172.453 123H171.712L171.717 118.443H170.758V117.701H171.717L171.712 116.037H172.453L172.459 117.701H173.725V118.443ZM176.857 123.138C176.37 123.138 175.925 123.012 175.522 122.762C175.123 122.511 174.803 122.175 174.563 121.755C174.326 121.331 174.208 120.863 174.208 120.351C174.208 119.962 174.277 119.6 174.415 119.264C174.552 118.925 174.741 118.628 174.982 118.374C175.225 118.116 175.508 117.915 175.829 117.77C176.151 117.625 176.494 117.553 176.857 117.553C177.25 117.553 177.61 117.63 177.938 117.786C178.271 117.941 178.555 118.159 178.792 118.438C179.032 118.717 179.212 119.043 179.332 119.418C179.456 119.792 179.507 120.197 179.486 120.631H174.992C175.035 120.967 175.141 121.267 175.31 121.532C175.483 121.797 175.702 122.007 175.967 122.163C176.236 122.315 176.532 122.392 176.857 122.396C177.211 122.396 177.529 122.304 177.811 122.12C178.097 121.937 178.327 121.684 178.5 121.363L179.253 121.537C179.041 122.007 178.721 122.392 178.293 122.693C177.866 122.989 177.387 123.138 176.857 123.138ZM174.971 120.033H178.739C178.714 119.704 178.613 119.404 178.437 119.132C178.263 118.856 178.039 118.637 177.764 118.475C177.488 118.309 177.186 118.226 176.857 118.226C176.529 118.226 176.229 118.307 175.957 118.469C175.685 118.628 175.462 118.846 175.289 119.121C175.116 119.393 175.01 119.697 174.971 120.033ZM185.015 119.72V123H184.273V119.868C184.273 119.579 184.202 119.315 184.061 119.079C183.92 118.842 183.731 118.653 183.494 118.512C183.257 118.37 182.994 118.3 182.704 118.3C182.418 118.3 182.155 118.37 181.915 118.512C181.678 118.653 181.489 118.842 181.348 119.079C181.207 119.315 181.136 119.579 181.136 119.868V123H180.394V117.701H181.136V118.432C181.323 118.164 181.567 117.95 181.867 117.791C182.167 117.632 182.494 117.553 182.848 117.553C183.247 117.553 183.611 117.65 183.939 117.844C184.268 118.038 184.529 118.3 184.723 118.628C184.918 118.957 185.015 119.321 185.015 119.72ZM188.304 123.138C187.817 123.138 187.371 123.012 186.969 122.762C186.57 122.511 186.25 122.175 186.01 121.755C185.773 121.331 185.655 120.863 185.655 120.351C185.655 119.962 185.723 119.6 185.861 119.264C185.999 118.925 186.188 118.628 186.428 118.374C186.672 118.116 186.955 117.915 187.276 117.77C187.598 117.625 187.94 117.553 188.304 117.553C188.696 117.553 189.057 117.63 189.385 117.786C189.717 117.941 190.002 118.159 190.238 118.438C190.478 118.717 190.659 119.043 190.779 119.418C190.902 119.792 190.954 120.197 190.932 120.631H186.439C186.481 120.967 186.587 121.267 186.757 121.532C186.93 121.797 187.149 122.007 187.414 122.163C187.682 122.315 187.979 122.392 188.304 122.396C188.657 122.396 188.975 122.304 189.258 122.12C189.544 121.937 189.774 121.684 189.947 121.363L190.699 121.537C190.487 122.007 190.168 122.392 189.74 122.693C189.313 122.989 188.834 123.138 188.304 123.138ZM186.418 120.033H190.185C190.16 119.704 190.06 119.404 189.883 119.132C189.71 118.856 189.486 118.637 189.21 118.475C188.935 118.309 188.633 118.226 188.304 118.226C187.976 118.226 187.675 118.307 187.403 118.469C187.131 118.628 186.909 118.846 186.736 119.121C186.562 119.393 186.456 119.697 186.418 120.033ZM191.841 123V117.701H192.583V118.432C192.77 118.164 193.014 117.95 193.314 117.791C193.614 117.632 193.941 117.553 194.294 117.553C194.499 117.553 194.697 117.579 194.888 117.632L194.586 118.369C194.437 118.323 194.292 118.3 194.151 118.3C193.865 118.3 193.602 118.37 193.362 118.512C193.125 118.653 192.936 118.842 192.795 119.079C192.653 119.315 192.583 119.579 192.583 119.868V123H191.841ZM198.916 125.649H198.175V117.701H198.916V118.692C199.1 118.356 199.351 118.084 199.669 117.876C199.987 117.667 200.365 117.563 200.803 117.563C201.188 117.563 201.548 117.636 201.884 117.781C202.223 117.925 202.52 118.127 202.774 118.385C203.028 118.639 203.228 118.934 203.373 119.27C203.518 119.605 203.59 119.965 203.59 120.351C203.59 120.736 203.518 121.098 203.373 121.437C203.228 121.776 203.028 122.074 202.774 122.332C202.52 122.587 202.223 122.786 201.884 122.931C201.548 123.076 201.188 123.148 200.803 123.148C200.365 123.148 199.987 123.044 199.669 122.836C199.351 122.627 199.1 122.355 198.916 122.02V125.649ZM200.798 118.284C200.427 118.284 200.103 118.378 199.828 118.565C199.556 118.748 199.346 118.996 199.197 119.307C199.049 119.617 198.975 119.965 198.975 120.351C198.975 120.729 199.047 121.075 199.192 121.389C199.34 121.704 199.551 121.954 199.823 122.142C200.098 122.329 200.423 122.422 200.798 122.422C201.165 122.422 201.502 122.331 201.81 122.147C202.121 121.963 202.37 121.716 202.557 121.405C202.744 121.091 202.838 120.739 202.838 120.351C202.838 119.973 202.746 119.628 202.562 119.317C202.378 119.003 202.133 118.752 201.826 118.565C201.518 118.378 201.176 118.284 200.798 118.284ZM204.488 123V117.701H205.23V118.432C205.417 118.164 205.661 117.95 205.961 117.791C206.261 117.632 206.588 117.553 206.941 117.553C207.146 117.553 207.344 117.579 207.535 117.632L207.233 118.369C207.084 118.323 206.94 118.3 206.798 118.3C206.512 118.3 206.249 118.37 206.009 118.512C205.772 118.653 205.583 118.842 205.442 119.079C205.3 119.315 205.23 119.579 205.23 119.868V123H204.488ZM210.255 123.138C209.768 123.138 209.323 123.012 208.92 122.762C208.521 122.511 208.201 122.175 207.961 121.755C207.724 121.331 207.606 120.863 207.606 120.351C207.606 119.962 207.675 119.6 207.813 119.264C207.95 118.925 208.139 118.628 208.38 118.374C208.623 118.116 208.906 117.915 209.227 117.77C209.549 117.625 209.892 117.553 210.255 117.553C210.648 117.553 211.008 117.63 211.336 117.786C211.669 117.941 211.953 118.159 212.19 118.438C212.43 118.717 212.61 119.043 212.73 119.418C212.854 119.792 212.905 120.197 212.884 120.631H208.39C208.433 120.967 208.539 121.267 208.708 121.532C208.881 121.797 209.1 122.007 209.365 122.163C209.634 122.315 209.93 122.392 210.255 122.396C210.609 122.396 210.927 122.304 211.209 122.12C211.495 121.937 211.725 121.684 211.898 121.363L212.651 121.537C212.439 122.007 212.119 122.392 211.691 122.693C211.264 122.989 210.785 123.138 210.255 123.138ZM208.369 120.033H212.137C212.112 119.704 212.011 119.404 211.835 119.132C211.661 118.856 211.437 118.637 211.162 118.475C210.886 118.309 210.584 118.226 210.255 118.226C209.927 118.226 209.627 118.307 209.355 118.469C209.083 118.628 208.86 118.846 208.687 119.121C208.514 119.393 208.408 119.697 208.369 120.033ZM215.44 123.101C215.15 123.094 214.868 123.041 214.592 122.942C214.316 122.843 214.076 122.709 213.871 122.539C213.666 122.369 213.52 122.177 213.432 121.961L214.073 121.686C214.129 121.824 214.233 121.951 214.385 122.067C214.541 122.18 214.717 122.272 214.915 122.343C215.113 122.41 215.309 122.444 215.503 122.444C215.719 122.444 215.92 122.408 216.108 122.338C216.295 122.267 216.447 122.166 216.563 122.036C216.683 121.901 216.743 121.744 216.743 121.564C216.743 121.37 216.68 121.218 216.553 121.108C216.425 120.995 216.265 120.907 216.07 120.843C215.876 120.776 215.677 120.713 215.472 120.653C215.097 120.55 214.767 120.437 214.481 120.313C214.195 120.19 213.97 120.033 213.808 119.842C213.649 119.648 213.569 119.398 213.569 119.095C213.569 118.773 213.659 118.496 213.84 118.263C214.023 118.026 214.262 117.844 214.555 117.717C214.852 117.586 215.168 117.521 215.503 117.521C215.934 117.521 216.327 117.614 216.68 117.802C217.037 117.989 217.294 118.238 217.453 118.549L216.855 118.904C216.791 118.759 216.69 118.634 216.553 118.528C216.415 118.422 216.258 118.339 216.081 118.279C215.908 118.219 215.731 118.187 215.551 118.183C215.325 118.18 215.115 118.213 214.921 118.284C214.726 118.351 214.569 118.452 214.449 118.586C214.332 118.72 214.274 118.884 214.274 119.079C214.274 119.273 214.332 119.421 214.449 119.524C214.566 119.623 214.723 119.704 214.921 119.768C215.122 119.828 215.348 119.898 215.599 119.98C215.92 120.082 216.222 120.199 216.505 120.329C216.788 120.46 217.015 120.623 217.188 120.817C217.362 121.011 217.446 121.257 217.443 121.553C217.443 121.871 217.347 122.149 217.157 122.385C216.966 122.622 216.719 122.804 216.415 122.931C216.111 123.055 215.786 123.111 215.44 123.101ZM218.305 117.701H219.046V123H218.305V117.701ZM218.681 116.774C218.561 116.774 218.458 116.735 218.373 116.657C218.292 116.576 218.252 116.475 218.252 116.355C218.252 116.235 218.292 116.136 218.373 116.058C218.458 115.977 218.561 115.936 218.681 115.936C218.797 115.936 218.896 115.977 218.977 116.058C219.062 116.136 219.105 116.235 219.105 116.355C219.105 116.475 219.064 116.576 218.983 116.657C218.902 116.735 218.801 116.774 218.681 116.774ZM222.602 123.138C222.115 123.138 221.67 123.012 221.267 122.762C220.868 122.511 220.548 122.175 220.308 121.755C220.071 121.331 219.953 120.863 219.953 120.351C219.953 119.962 220.022 119.6 220.16 119.264C220.297 118.925 220.486 118.628 220.727 118.374C220.97 118.116 221.253 117.915 221.574 117.77C221.896 117.625 222.239 117.553 222.602 117.553C223.09 117.553 223.533 117.678 223.933 117.929C224.335 118.18 224.655 118.517 224.892 118.941C225.132 119.365 225.252 119.835 225.252 120.351C225.252 120.736 225.183 121.096 225.045 121.432C224.908 121.767 224.717 122.064 224.473 122.322C224.233 122.576 223.952 122.776 223.63 122.921C223.313 123.065 222.97 123.138 222.602 123.138ZM222.602 122.396C222.963 122.396 223.286 122.302 223.572 122.115C223.862 121.924 224.09 121.673 224.256 121.363C224.425 121.052 224.51 120.714 224.51 120.351C224.51 119.98 224.425 119.639 224.256 119.328C224.086 119.013 223.857 118.763 223.567 118.575C223.281 118.388 222.959 118.295 222.602 118.295C222.242 118.295 221.917 118.39 221.627 118.581C221.341 118.768 221.113 119.017 220.944 119.328C220.778 119.639 220.695 119.98 220.695 120.351C220.695 120.732 220.781 121.078 220.954 121.389C221.128 121.696 221.359 121.942 221.649 122.126C221.938 122.306 222.256 122.396 222.602 122.396ZM230.77 119.72V123H230.028V119.868C230.028 119.579 229.958 119.315 229.816 119.079C229.675 118.842 229.486 118.653 229.249 118.512C229.013 118.37 228.749 118.3 228.46 118.3C228.174 118.3 227.91 118.37 227.67 118.512C227.434 118.653 227.245 118.842 227.103 119.079C226.962 119.315 226.891 119.579 226.891 119.868V123H226.149V117.701H226.891V118.432C227.079 118.164 227.322 117.95 227.623 117.791C227.923 117.632 228.25 117.553 228.603 117.553C229.002 117.553 229.366 117.65 229.694 117.844C230.023 118.038 230.284 118.3 230.479 118.628C230.673 118.957 230.77 119.321 230.77 119.72ZM236.084 117.701H236.825V123H236.084L236.057 122.014C235.884 122.35 235.642 122.622 235.331 122.83C235.02 123.035 234.649 123.138 234.218 123.138C233.83 123.138 233.466 123.065 233.127 122.921C232.788 122.772 232.489 122.569 232.231 122.311C231.973 122.053 231.772 121.755 231.627 121.416C231.482 121.076 231.41 120.713 231.41 120.324C231.41 119.942 231.481 119.584 231.622 119.248C231.767 118.913 231.965 118.618 232.215 118.363C232.47 118.109 232.763 117.911 233.095 117.77C233.431 117.625 233.789 117.553 234.171 117.553C234.612 117.553 234.997 117.659 235.326 117.871C235.654 118.079 235.916 118.353 236.11 118.692L236.084 117.701ZM234.202 122.417C234.58 122.417 234.905 122.325 235.178 122.142C235.45 121.954 235.658 121.704 235.803 121.389C235.951 121.075 236.025 120.729 236.025 120.351C236.025 119.962 235.951 119.612 235.803 119.301C235.654 118.987 235.444 118.738 235.172 118.554C234.9 118.37 234.577 118.279 234.202 118.279C233.828 118.279 233.485 118.372 233.174 118.559C232.867 118.743 232.622 118.992 232.438 119.307C232.258 119.621 232.168 119.969 232.168 120.351C232.168 120.736 232.261 121.085 232.449 121.4C232.636 121.711 232.883 121.958 233.19 122.142C233.501 122.325 233.839 122.417 234.202 122.417ZM242.143 115.052H242.885V123H242.143V122.009C241.96 122.348 241.707 122.622 241.386 122.83C241.068 123.035 240.69 123.138 240.252 123.138C239.867 123.138 239.506 123.065 239.171 122.921C238.835 122.776 238.538 122.576 238.28 122.322C238.026 122.064 237.827 121.767 237.682 121.432C237.537 121.096 237.464 120.736 237.464 120.351C237.464 119.965 237.537 119.605 237.682 119.27C237.827 118.93 238.026 118.634 238.28 118.379C238.538 118.121 238.835 117.92 239.171 117.775C239.506 117.63 239.867 117.558 240.252 117.558C240.69 117.558 241.068 117.662 241.386 117.871C241.707 118.075 241.96 118.346 242.143 118.681V115.052ZM240.257 122.417C240.635 122.417 240.96 122.325 241.232 122.142C241.504 121.954 241.712 121.704 241.857 121.389C242.006 121.075 242.08 120.729 242.08 120.351C242.08 119.962 242.006 119.612 241.857 119.301C241.709 118.987 241.499 118.738 241.227 118.554C240.955 118.37 240.631 118.279 240.257 118.279C239.883 118.279 239.542 118.372 239.234 118.559C238.927 118.743 238.681 118.992 238.498 119.307C238.314 119.621 238.222 119.969 238.222 120.351C238.222 120.736 238.316 121.085 238.503 121.4C238.69 121.711 238.938 121.958 239.245 122.142C239.556 122.325 239.893 122.417 240.257 122.417ZM246.448 123.138C245.96 123.138 245.515 123.012 245.112 122.762C244.713 122.511 244.394 122.175 244.153 121.755C243.917 121.331 243.798 120.863 243.798 120.351C243.798 119.962 243.867 119.6 244.005 119.264C244.143 118.925 244.332 118.628 244.572 118.374C244.816 118.116 245.098 117.915 245.42 117.77C245.741 117.625 246.084 117.553 246.448 117.553C246.935 117.553 247.379 117.678 247.778 117.929C248.181 118.18 248.5 118.517 248.737 118.941C248.977 119.365 249.097 119.835 249.097 120.351C249.097 120.736 249.028 121.096 248.891 121.432C248.753 121.767 248.562 122.064 248.318 122.322C248.078 122.576 247.797 122.776 247.476 122.921C247.158 123.065 246.815 123.138 246.448 123.138ZM246.448 122.396C246.808 122.396 247.131 122.302 247.418 122.115C247.707 121.924 247.935 121.673 248.101 121.363C248.271 121.052 248.355 120.714 248.355 120.351C248.355 119.98 248.271 119.639 248.101 119.328C247.932 119.013 247.702 118.763 247.412 118.575C247.126 118.388 246.805 118.295 246.448 118.295C246.088 118.295 245.762 118.39 245.473 118.581C245.187 118.768 244.959 119.017 244.789 119.328C244.623 119.639 244.54 119.98 244.54 120.351C244.54 120.732 244.627 121.078 244.8 121.389C244.973 121.696 245.204 121.942 245.494 122.126C245.784 122.306 246.102 122.396 246.448 122.396ZM171.406 134.67L172.069 135.03C171.828 135.366 171.523 135.634 171.152 135.836C170.784 136.037 170.385 136.138 169.954 136.138C169.467 136.138 169.022 136.012 168.619 135.762C168.22 135.511 167.9 135.175 167.66 134.755C167.423 134.331 167.305 133.863 167.305 133.351C167.305 132.962 167.374 132.6 167.511 132.264C167.649 131.925 167.838 131.628 168.078 131.374C168.322 131.116 168.605 130.915 168.926 130.77C169.248 130.625 169.59 130.553 169.954 130.553C170.385 130.553 170.784 130.653 171.152 130.855C171.523 131.056 171.828 131.326 172.069 131.665L171.406 132.02C171.223 131.787 171.002 131.609 170.744 131.485C170.486 131.358 170.223 131.295 169.954 131.295C169.598 131.295 169.274 131.39 168.985 131.581C168.695 131.768 168.465 132.017 168.296 132.328C168.13 132.639 168.047 132.98 168.047 133.351C168.047 133.721 168.131 134.062 168.301 134.373C168.474 134.684 168.706 134.933 168.995 135.12C169.285 135.304 169.605 135.396 169.954 135.396C170.244 135.396 170.516 135.329 170.77 135.195C171.025 135.06 171.237 134.885 171.406 134.67ZM172.953 136V128.052H173.695V136H172.953ZM174.971 130.701H175.713V136H174.971V130.701ZM175.347 129.774C175.227 129.774 175.125 129.735 175.04 129.657C174.959 129.576 174.918 129.475 174.918 129.355C174.918 129.235 174.959 129.136 175.04 129.058C175.125 128.977 175.227 128.936 175.347 128.936C175.464 128.936 175.563 128.977 175.644 129.058C175.729 129.136 175.771 129.235 175.771 129.355C175.771 129.475 175.73 129.576 175.649 129.657C175.568 129.735 175.467 129.774 175.347 129.774ZM180.721 134.67L181.383 135.03C181.143 135.366 180.837 135.634 180.466 135.836C180.099 136.037 179.7 136.138 179.269 136.138C178.781 136.138 178.336 136.012 177.934 135.762C177.534 135.511 177.215 135.175 176.974 134.755C176.738 134.331 176.619 133.863 176.619 133.351C176.619 132.962 176.688 132.6 176.826 132.264C176.964 131.925 177.153 131.628 177.393 131.374C177.637 131.116 177.919 130.915 178.241 130.77C178.562 130.625 178.905 130.553 179.269 130.553C179.7 130.553 180.099 130.653 180.466 130.855C180.837 131.056 181.143 131.326 181.383 131.665L180.721 132.02C180.537 131.787 180.316 131.609 180.058 131.485C179.801 131.358 179.537 131.295 179.269 131.295C178.912 131.295 178.589 131.39 178.299 131.581C178.01 131.768 177.78 132.017 177.61 132.328C177.444 132.639 177.361 132.98 177.361 133.351C177.361 133.721 177.446 134.062 177.616 134.373C177.789 134.684 178.02 134.933 178.31 135.12C178.599 135.304 178.919 135.396 179.269 135.396C179.559 135.396 179.831 135.329 180.085 135.195C180.339 135.06 180.551 134.885 180.721 134.67ZM186.406 136H185.553L184.069 133.441L183.009 134.707V136H182.267V128.052H183.009V133.552L185.399 130.701H186.369L184.572 132.837L186.406 136ZM190.019 130.701H190.761V136H190.019V130.701ZM190.395 129.774C190.275 129.774 190.173 129.735 190.088 129.657C190.007 129.576 189.966 129.475 189.966 129.355C189.966 129.235 190.007 129.136 190.088 129.058C190.173 128.977 190.275 128.936 190.395 128.936C190.512 128.936 190.611 128.977 190.692 129.058C190.777 129.136 190.819 129.235 190.819 129.355C190.819 129.475 190.779 129.576 190.697 129.657C190.616 129.735 190.516 129.774 190.395 129.774ZM196.351 131.443L192.875 135.258H196.351V136H191.825V135.258L195.302 131.443H191.825V130.701H196.351V131.443ZM199.826 136.148C199.314 136.148 198.846 136.023 198.422 135.772C198.002 135.521 197.666 135.184 197.415 134.76C197.164 134.336 197.039 133.866 197.039 133.351C197.039 132.965 197.112 132.605 197.256 132.27C197.401 131.934 197.601 131.639 197.855 131.385C198.113 131.127 198.41 130.925 198.745 130.781C199.081 130.636 199.441 130.563 199.826 130.563C200.264 130.563 200.642 130.667 200.96 130.876C201.278 131.084 201.529 131.356 201.713 131.692V130.701H202.455V138.649H201.713V135.02C201.529 135.355 201.278 135.627 200.96 135.836C200.642 136.044 200.264 136.148 199.826 136.148ZM199.832 131.284C199.457 131.284 199.115 131.378 198.804 131.565C198.496 131.752 198.251 132.003 198.067 132.317C197.887 132.628 197.797 132.973 197.797 133.351C197.797 133.739 197.889 134.091 198.072 134.405C198.26 134.716 198.507 134.963 198.814 135.147C199.125 135.331 199.464 135.422 199.832 135.422C200.21 135.422 200.535 135.329 200.807 135.142C201.079 134.954 201.287 134.704 201.432 134.389C201.58 134.075 201.654 133.729 201.654 133.351C201.654 132.965 201.58 132.617 201.432 132.307C201.284 131.996 201.073 131.748 200.801 131.565C200.529 131.378 200.206 131.284 199.832 131.284ZM203.438 133.97V130.701H204.179V133.822C204.179 134.112 204.25 134.375 204.391 134.612C204.533 134.848 204.722 135.037 204.958 135.179C205.199 135.32 205.462 135.391 205.748 135.391C206.038 135.391 206.299 135.32 206.532 135.179C206.769 135.037 206.958 134.848 207.099 134.612C207.24 134.375 207.311 134.112 207.311 133.822V130.701H208.053L208.058 136H207.316L207.311 135.258C207.124 135.527 206.88 135.74 206.58 135.899C206.283 136.058 205.958 136.138 205.605 136.138C205.206 136.138 204.842 136.041 204.513 135.846C204.185 135.652 203.923 135.391 203.729 135.062C203.535 134.734 203.438 134.37 203.438 133.97ZM209.114 130.701H209.856V136H209.114V130.701ZM209.49 129.774C209.37 129.774 209.268 129.735 209.183 129.657C209.102 129.576 209.061 129.475 209.061 129.355C209.061 129.235 209.102 129.136 209.183 129.058C209.268 128.977 209.37 128.936 209.49 128.936C209.607 128.936 209.706 128.977 209.787 129.058C209.872 129.136 209.914 129.235 209.914 129.355C209.914 129.475 209.874 129.576 209.792 129.657C209.711 129.735 209.61 129.774 209.49 129.774ZM213.412 136.138C212.925 136.138 212.479 136.012 212.077 135.762C211.678 135.511 211.358 135.175 211.118 134.755C210.881 134.331 210.763 133.863 210.763 133.351C210.763 132.962 210.831 132.6 210.969 132.264C211.107 131.925 211.296 131.628 211.536 131.374C211.78 131.116 212.063 130.915 212.384 130.77C212.706 130.625 213.048 130.553 213.412 130.553C213.804 130.553 214.165 130.63 214.493 130.786C214.825 130.941 215.11 131.159 215.346 131.438C215.586 131.717 215.767 132.043 215.887 132.418C216.01 132.792 216.062 133.197 216.04 133.631H211.547C211.589 133.967 211.695 134.267 211.865 134.532C212.038 134.797 212.257 135.007 212.522 135.163C212.79 135.315 213.087 135.392 213.412 135.396C213.765 135.396 214.083 135.304 214.366 135.12C214.652 134.937 214.882 134.684 215.055 134.363L215.807 134.537C215.595 135.007 215.276 135.392 214.848 135.693C214.421 135.989 213.942 136.138 213.412 136.138ZM211.526 133.033H215.293C215.268 132.704 215.168 132.404 214.991 132.132C214.818 131.856 214.594 131.637 214.318 131.475C214.043 131.309 213.741 131.226 213.412 131.226C213.084 131.226 212.783 131.307 212.511 131.469C212.239 131.628 212.017 131.846 211.844 132.121C211.67 132.393 211.564 132.697 211.526 133.033ZM216.949 136V130.701H217.691V131.432C217.878 131.164 218.122 130.95 218.422 130.791C218.722 130.632 219.049 130.553 219.402 130.553C219.607 130.553 219.805 130.579 219.996 130.632L219.694 131.369C219.545 131.323 219.4 131.3 219.259 131.3C218.973 131.3 218.71 131.37 218.47 131.512C218.233 131.653 218.044 131.842 217.903 132.079C217.761 132.315 217.691 132.579 217.691 132.868V136H216.949ZM224.746 128.052H225.488V136H224.746V135.009C224.562 135.348 224.31 135.622 223.988 135.83C223.67 136.035 223.292 136.138 222.854 136.138C222.469 136.138 222.109 136.065 221.773 135.921C221.437 135.776 221.141 135.576 220.883 135.322C220.629 135.064 220.429 134.767 220.284 134.432C220.139 134.096 220.067 133.736 220.067 133.351C220.067 132.965 220.139 132.605 220.284 132.27C220.429 131.93 220.629 131.634 220.883 131.379C221.141 131.121 221.437 130.92 221.773 130.775C222.109 130.63 222.469 130.558 222.854 130.558C223.292 130.558 223.67 130.662 223.988 130.871C224.31 131.075 224.562 131.346 224.746 131.681V128.052ZM222.859 135.417C223.237 135.417 223.562 135.325 223.834 135.142C224.106 134.954 224.315 134.704 224.46 134.389C224.608 134.075 224.682 133.729 224.682 133.351C224.682 132.962 224.608 132.612 224.46 132.301C224.311 131.987 224.101 131.738 223.829 131.554C223.557 131.37 223.234 131.279 222.859 131.279C222.485 131.279 222.144 131.372 221.837 131.559C221.529 131.743 221.284 131.992 221.1 132.307C220.916 132.621 220.825 132.969 220.825 133.351C220.825 133.736 220.918 134.085 221.105 134.4C221.293 134.711 221.54 134.958 221.847 135.142C222.158 135.325 222.496 135.417 222.859 135.417ZM229.05 136.138C228.563 136.138 228.118 136.012 227.715 135.762C227.316 135.511 226.996 135.175 226.756 134.755C226.519 134.331 226.401 133.863 226.401 133.351C226.401 132.962 226.47 132.6 226.607 132.264C226.745 131.925 226.934 131.628 227.174 131.374C227.418 131.116 227.701 130.915 228.022 130.77C228.344 130.625 228.686 130.553 229.05 130.553C229.538 130.553 229.981 130.678 230.38 130.929C230.783 131.18 231.103 131.517 231.339 131.941C231.58 132.365 231.7 132.835 231.7 133.351C231.7 133.736 231.631 134.096 231.493 134.432C231.355 134.767 231.165 135.064 230.921 135.322C230.681 135.576 230.4 135.776 230.078 135.921C229.76 136.065 229.418 136.138 229.05 136.138ZM229.05 135.396C229.411 135.396 229.734 135.302 230.02 135.115C230.31 134.924 230.537 134.673 230.704 134.363C230.873 134.052 230.958 133.714 230.958 133.351C230.958 132.98 230.873 132.639 230.704 132.328C230.534 132.013 230.304 131.763 230.015 131.575C229.729 131.388 229.407 131.295 229.05 131.295C228.69 131.295 228.365 131.39 228.075 131.581C227.789 131.768 227.561 132.017 227.392 132.328C227.226 132.639 227.143 132.98 227.143 133.351C227.143 133.732 227.229 134.078 227.402 134.389C227.575 134.696 227.807 134.942 228.096 135.126C228.386 135.306 228.704 135.396 229.05 135.396Z" fill="white"/>
<path d="M442.176 123.138C441.78 123.138 441.397 123.076 441.026 122.952C440.659 122.829 440.337 122.652 440.062 122.422C439.786 122.193 439.592 121.919 439.479 121.601L440.173 121.341C440.251 121.56 440.392 121.749 440.597 121.908C440.805 122.064 441.047 122.184 441.323 122.269C441.602 122.354 441.886 122.396 442.176 122.396C442.515 122.396 442.831 122.339 443.125 122.226C443.418 122.113 443.654 121.956 443.835 121.755C444.015 121.55 444.105 121.31 444.105 121.034C444.105 120.755 444.011 120.525 443.824 120.345C443.637 120.165 443.395 120.024 443.098 119.921C442.805 119.815 442.497 119.734 442.176 119.678C441.671 119.589 441.217 119.469 440.814 119.317C440.415 119.165 440.099 118.952 439.866 118.676C439.632 118.397 439.516 118.03 439.516 117.574C439.516 117.146 439.64 116.775 439.887 116.461C440.134 116.147 440.459 115.903 440.862 115.73C441.268 115.557 441.706 115.47 442.176 115.47C442.561 115.47 442.937 115.53 443.305 115.65C443.672 115.77 443.995 115.945 444.274 116.175C444.557 116.405 444.76 116.685 444.884 117.017L444.179 117.272C444.101 117.049 443.958 116.86 443.75 116.705C443.545 116.546 443.305 116.426 443.029 116.344C442.754 116.26 442.469 116.217 442.176 116.217C441.84 116.214 441.526 116.27 441.233 116.387C440.943 116.5 440.708 116.659 440.528 116.864C440.348 117.065 440.258 117.302 440.258 117.574C440.258 117.892 440.341 118.137 440.507 118.31C440.676 118.48 440.906 118.607 441.196 118.692C441.485 118.777 441.812 118.853 442.176 118.92C442.649 119.001 443.089 119.128 443.495 119.301C443.902 119.471 444.228 119.699 444.476 119.985C444.723 120.267 444.847 120.617 444.847 121.034C444.847 121.458 444.723 121.829 444.476 122.147C444.228 122.461 443.902 122.705 443.495 122.878C443.093 123.051 442.653 123.138 442.176 123.138ZM448.312 123.138C447.825 123.138 447.38 123.012 446.977 122.762C446.578 122.511 446.258 122.175 446.018 121.755C445.781 121.331 445.663 120.863 445.663 120.351C445.663 119.962 445.732 119.6 445.87 119.264C446.007 118.925 446.196 118.628 446.437 118.374C446.68 118.116 446.963 117.915 447.284 117.77C447.606 117.625 447.948 117.553 448.312 117.553C448.8 117.553 449.243 117.678 449.642 117.929C450.045 118.18 450.365 118.517 450.602 118.941C450.842 119.365 450.962 119.835 450.962 120.351C450.962 120.736 450.893 121.096 450.755 121.432C450.617 121.767 450.427 122.064 450.183 122.322C449.943 122.576 449.662 122.776 449.34 122.921C449.022 123.065 448.68 123.138 448.312 123.138ZM448.312 122.396C448.673 122.396 448.996 122.302 449.282 122.115C449.572 121.924 449.8 121.673 449.966 121.363C450.135 121.052 450.22 120.714 450.22 120.351C450.22 119.98 450.135 119.639 449.966 119.328C449.796 119.013 449.566 118.763 449.277 118.575C448.991 118.388 448.669 118.295 448.312 118.295C447.952 118.295 447.627 118.39 447.337 118.581C447.051 118.768 446.823 119.017 446.654 119.328C446.488 119.639 446.405 119.98 446.405 120.351C446.405 120.732 446.491 121.078 446.664 121.389C446.837 121.696 447.069 121.942 447.359 122.126C447.648 122.306 447.966 122.396 448.312 122.396ZM451.818 123V115.052H452.56V123H451.818ZM456.544 118.443H455.277L455.272 123H454.53L454.536 118.443H453.576V117.701H454.536L454.53 116.037H455.272L455.277 117.701H456.544V118.443ZM461.7 117.701H462.442V123H461.7L461.674 122.014C461.501 122.35 461.259 122.622 460.948 122.83C460.637 123.035 460.266 123.138 459.835 123.138C459.447 123.138 459.083 123.065 458.744 122.921C458.404 122.772 458.106 122.569 457.848 122.311C457.59 122.053 457.389 121.755 457.244 121.416C457.099 121.076 457.027 120.713 457.027 120.324C457.027 119.942 457.097 119.584 457.239 119.248C457.383 118.913 457.581 118.618 457.832 118.363C458.086 118.109 458.38 117.911 458.712 117.77C459.047 117.625 459.406 117.553 459.787 117.553C460.229 117.553 460.614 117.659 460.943 117.871C461.271 118.079 461.533 118.353 461.727 118.692L461.7 117.701ZM459.819 122.417C460.197 122.417 460.522 122.325 460.794 122.142C461.066 121.954 461.275 121.704 461.42 121.389C461.568 121.075 461.642 120.729 461.642 120.351C461.642 119.962 461.568 119.612 461.42 119.301C461.271 118.987 461.061 118.738 460.789 118.554C460.517 118.37 460.194 118.279 459.819 118.279C459.445 118.279 459.102 118.372 458.791 118.559C458.484 118.743 458.238 118.992 458.055 119.307C457.875 119.621 457.784 119.969 457.784 120.351C457.784 120.736 457.878 121.085 458.065 121.4C458.253 121.711 458.5 121.958 458.807 122.142C459.118 122.325 459.455 122.417 459.819 122.417ZM463.503 123V117.701H464.244V118.432C464.432 118.164 464.675 117.95 464.976 117.791C465.276 117.632 465.603 117.553 465.956 117.553C466.161 117.553 466.359 117.579 466.55 117.632L466.247 118.369C466.099 118.323 465.954 118.3 465.813 118.3C465.527 118.3 465.264 118.37 465.023 118.512C464.787 118.653 464.598 118.842 464.456 119.079C464.315 119.315 464.244 119.579 464.244 119.868V123H463.503ZM473.62 121.67L474.282 122.03C474.042 122.366 473.737 122.634 473.366 122.836C472.998 123.037 472.599 123.138 472.168 123.138C471.681 123.138 471.235 123.012 470.833 122.762C470.434 122.511 470.114 122.175 469.874 121.755C469.637 121.331 469.519 120.863 469.519 120.351C469.519 119.962 469.587 119.6 469.725 119.264C469.863 118.925 470.052 118.628 470.292 118.374C470.536 118.116 470.819 117.915 471.14 117.77C471.462 117.625 471.804 117.553 472.168 117.553C472.599 117.553 472.998 117.653 473.366 117.855C473.737 118.056 474.042 118.326 474.282 118.665L473.62 119.02C473.436 118.787 473.215 118.609 472.958 118.485C472.7 118.358 472.437 118.295 472.168 118.295C471.811 118.295 471.488 118.39 471.198 118.581C470.909 118.768 470.679 119.017 470.509 119.328C470.343 119.639 470.26 119.98 470.26 120.351C470.26 120.721 470.345 121.062 470.515 121.373C470.688 121.684 470.919 121.933 471.209 122.12C471.499 122.304 471.818 122.396 472.168 122.396C472.458 122.396 472.73 122.329 472.984 122.195C473.238 122.06 473.45 121.885 473.62 121.67ZM475.167 123V115.052H475.908V123H475.167ZM477.185 117.701H477.927V123H477.185V117.701ZM477.561 116.774C477.441 116.774 477.338 116.735 477.254 116.657C477.172 116.576 477.132 116.475 477.132 116.355C477.132 116.235 477.172 116.136 477.254 116.058C477.338 115.977 477.441 115.936 477.561 115.936C477.678 115.936 477.776 115.977 477.858 116.058C477.942 116.136 477.985 116.235 477.985 116.355C477.985 116.475 477.944 116.576 477.863 116.657C477.782 116.735 477.681 116.774 477.561 116.774ZM482.935 121.67L483.597 122.03C483.357 122.366 483.051 122.634 482.68 122.836C482.313 123.037 481.914 123.138 481.483 123.138C480.995 123.138 480.55 123.012 480.147 122.762C479.748 122.511 479.428 122.175 479.188 121.755C478.952 121.331 478.833 120.863 478.833 120.351C478.833 119.962 478.902 119.6 479.04 119.264C479.178 118.925 479.367 118.628 479.607 118.374C479.851 118.116 480.133 117.915 480.455 117.77C480.776 117.625 481.119 117.553 481.483 117.553C481.914 117.553 482.313 117.653 482.68 117.855C483.051 118.056 483.357 118.326 483.597 118.665L482.935 119.02C482.751 118.787 482.53 118.609 482.272 118.485C482.014 118.358 481.751 118.295 481.483 118.295C481.126 118.295 480.803 118.39 480.513 118.581C480.223 118.768 479.994 119.017 479.824 119.328C479.658 119.639 479.575 119.98 479.575 120.351C479.575 120.721 479.66 121.062 479.829 121.373C480.002 121.684 480.234 121.933 480.524 122.12C480.813 122.304 481.133 122.396 481.483 122.396C481.772 122.396 482.044 122.329 482.299 122.195C482.553 122.06 482.765 121.885 482.935 121.67ZM488.62 123H487.766L486.283 120.441L485.223 121.707V123H484.481V115.052H485.223V120.552L487.613 117.701H488.583L486.786 119.837L488.62 123ZM443.321 130.701H444.063V136H443.321V130.701ZM443.697 129.774C443.577 129.774 443.475 129.735 443.39 129.657C443.309 129.576 443.268 129.475 443.268 129.355C443.268 129.235 443.309 129.136 443.39 129.058C443.475 128.977 443.577 128.936 443.697 128.936C443.814 128.936 443.913 128.977 443.994 129.058C444.079 129.136 444.121 129.235 444.121 129.355C444.121 129.475 444.08 129.576 443.999 129.657C443.918 129.735 443.817 129.774 443.697 129.774ZM449.653 131.443L446.176 135.258H449.653V136H445.127V135.258L448.603 131.443H445.127V130.701H449.653V131.443ZM453.128 136.148C452.616 136.148 452.148 136.023 451.724 135.772C451.304 135.521 450.968 135.184 450.717 134.76C450.466 134.336 450.341 133.866 450.341 133.351C450.341 132.965 450.413 132.605 450.558 132.27C450.703 131.934 450.903 131.639 451.157 131.385C451.415 131.127 451.712 130.925 452.047 130.781C452.383 130.636 452.743 130.563 453.128 130.563C453.566 130.563 453.944 130.667 454.262 130.876C454.58 131.084 454.831 131.356 455.015 131.692V130.701H455.756V138.649H455.015V135.02C454.831 135.355 454.58 135.627 454.262 135.836C453.944 136.044 453.566 136.148 453.128 136.148ZM453.133 131.284C452.759 131.284 452.416 131.378 452.105 131.565C451.798 131.752 451.553 132.003 451.369 132.317C451.189 132.628 451.099 132.973 451.099 133.351C451.099 133.739 451.19 134.091 451.374 134.405C451.561 134.716 451.809 134.963 452.116 135.147C452.427 135.331 452.766 135.422 453.133 135.422C453.511 135.422 453.836 135.329 454.108 135.142C454.38 134.954 454.589 134.704 454.734 134.389C454.882 134.075 454.956 133.729 454.956 133.351C454.956 132.965 454.882 132.617 454.734 132.307C454.585 131.996 454.375 131.748 454.103 131.565C453.831 131.378 453.508 131.284 453.133 131.284ZM456.739 133.97V130.701H457.481V133.822C457.481 134.112 457.552 134.375 457.693 134.612C457.834 134.848 458.023 135.037 458.26 135.179C458.5 135.32 458.764 135.391 459.05 135.391C459.339 135.391 459.601 135.32 459.834 135.179C460.071 135.037 460.26 134.848 460.401 134.612C460.542 134.375 460.613 134.112 460.613 133.822V130.701H461.355L461.36 136H460.618L460.613 135.258C460.426 135.527 460.182 135.74 459.882 135.899C459.585 136.058 459.26 136.138 458.907 136.138C458.507 136.138 458.144 136.041 457.815 135.846C457.487 135.652 457.225 135.391 457.031 135.062C456.837 134.734 456.739 134.37 456.739 133.97ZM462.416 130.701H463.158V136H462.416V130.701ZM462.792 129.774C462.672 129.774 462.57 129.735 462.485 129.657C462.404 129.576 462.363 129.475 462.363 129.355C462.363 129.235 462.404 129.136 462.485 129.058C462.57 128.977 462.672 128.936 462.792 128.936C462.909 128.936 463.008 128.977 463.089 129.058C463.174 129.136 463.216 129.235 463.216 129.355C463.216 129.475 463.175 129.576 463.094 129.657C463.013 129.735 462.912 129.774 462.792 129.774ZM466.714 136.138C466.226 136.138 465.781 136.012 465.379 135.762C464.979 135.511 464.66 135.175 464.419 134.755C464.183 134.331 464.064 133.863 464.064 133.351C464.064 132.962 464.133 132.6 464.271 132.264C464.409 131.925 464.598 131.628 464.838 131.374C465.082 131.116 465.364 130.915 465.686 130.77C466.007 130.625 466.35 130.553 466.714 130.553C467.106 130.553 467.466 130.63 467.795 130.786C468.127 130.941 468.411 131.159 468.648 131.438C468.888 131.717 469.068 132.043 469.188 132.418C469.312 132.792 469.363 133.197 469.342 133.631H464.849C464.891 133.967 464.997 134.267 465.167 134.532C465.34 134.797 465.559 135.007 465.824 135.163C466.092 135.315 466.389 135.392 466.714 135.396C467.067 135.396 467.385 135.304 467.668 135.12C467.954 134.937 468.183 134.684 468.357 134.363L469.109 134.537C468.897 135.007 468.577 135.392 468.15 135.693C467.722 135.989 467.244 136.138 466.714 136.138ZM464.827 133.033H468.595C468.57 132.704 468.47 132.404 468.293 132.132C468.12 131.856 467.896 131.637 467.62 131.475C467.344 131.309 467.042 131.226 466.714 131.226C466.385 131.226 466.085 131.307 465.813 131.469C465.541 131.628 465.318 131.846 465.145 132.121C464.972 132.393 464.866 132.697 464.827 133.033ZM470.251 136V130.701H470.992V131.432C471.18 131.164 471.423 130.95 471.724 130.791C472.024 130.632 472.351 130.553 472.704 130.553C472.909 130.553 473.107 130.579 473.297 130.632L472.995 131.369C472.847 131.323 472.702 131.3 472.561 131.3C472.275 131.3 472.012 131.37 471.771 131.512C471.535 131.653 471.346 131.842 471.204 132.079C471.063 132.315 470.992 132.579 470.992 132.868V136H470.251ZM478.048 128.052H478.789V136H478.048V135.009C477.864 135.348 477.611 135.622 477.29 135.83C476.972 136.035 476.594 136.138 476.156 136.138C475.771 136.138 475.41 136.065 475.075 135.921C474.739 135.776 474.443 135.576 474.185 135.322C473.93 135.064 473.731 134.767 473.586 134.432C473.441 134.096 473.369 133.736 473.369 133.351C473.369 132.965 473.441 132.605 473.586 132.27C473.731 131.93 473.93 131.634 474.185 131.379C474.443 131.121 474.739 130.92 475.075 130.775C475.41 130.63 475.771 130.558 476.156 130.558C476.594 130.558 476.972 130.662 477.29 130.871C477.611 131.075 477.864 131.346 478.048 131.681V128.052ZM476.161 135.417C476.539 135.417 476.864 135.325 477.136 135.142C477.408 134.954 477.617 134.704 477.761 134.389C477.91 134.075 477.984 133.729 477.984 133.351C477.984 132.962 477.91 132.612 477.761 132.301C477.613 131.987 477.403 131.738 477.131 131.554C476.859 131.37 476.536 131.279 476.161 131.279C475.787 131.279 475.446 131.372 475.138 131.559C474.831 131.743 474.586 131.992 474.402 132.307C474.218 132.621 474.126 132.969 474.126 133.351C474.126 133.736 474.22 134.085 474.407 134.4C474.594 134.711 474.842 134.958 475.149 135.142C475.46 135.325 475.797 135.417 476.161 135.417ZM482.352 136.138C481.865 136.138 481.419 136.012 481.017 135.762C480.617 135.511 480.298 135.175 480.058 134.755C479.821 134.331 479.703 133.863 479.703 133.351C479.703 132.962 479.771 132.6 479.909 132.264C480.047 131.925 480.236 131.628 480.476 131.374C480.72 131.116 481.003 130.915 481.324 130.77C481.645 130.625 481.988 130.553 482.352 130.553C482.84 130.553 483.283 130.678 483.682 130.929C484.085 131.18 484.404 131.517 484.641 131.941C484.881 132.365 485.002 132.835 485.002 133.351C485.002 133.736 484.933 134.096 484.795 134.432C484.657 134.767 484.466 135.064 484.223 135.322C483.982 135.576 483.701 135.776 483.38 135.921C483.062 136.065 482.719 136.138 482.352 136.138ZM482.352 135.396C482.712 135.396 483.036 135.302 483.322 135.115C483.611 134.924 483.839 134.673 484.005 134.363C484.175 134.052 484.26 133.714 484.26 133.351C484.26 132.98 484.175 132.639 484.005 132.328C483.836 132.013 483.606 131.763 483.316 131.575C483.03 131.388 482.709 131.295 482.352 131.295C481.992 131.295 481.667 131.39 481.377 131.581C481.091 131.768 480.863 132.017 480.693 132.328C480.527 132.639 480.444 132.98 480.444 133.351C480.444 133.732 480.531 134.078 480.704 134.389C480.877 134.696 481.109 134.942 481.398 135.126C481.688 135.306 482.006 135.396 482.352 135.396Z" fill="white"/>
<defs>
<clipPath id="clip0_626_2100">
<rect width="30.6542" height="30.3188" fill="white" transform="matrix(-1 -0.000186608 0.000157652 -1 79.6542 113.325)"/>
</clipPath>
</defs>
</svg>
