<svg width="47" height="37" viewBox="0 0 47 37" fill="none" xmlns="http://www.w3.org/2000/svg">
<path d="M14.25 6.75H42.25V13.75H40.5V15.5H30C29.5359 15.5 29.0908 15.6844 28.7626 16.0126C28.4344 16.3408 28.25 16.7859 28.25 17.25V19C28.25 19.9283 27.8813 20.8185 27.2249 21.4749C26.5685 22.1313 25.6783 22.5 24.75 22.5H18.835C18.17 22.5 17.5575 22.885 17.26 23.48L12.9725 32.0375C12.675 32.6325 12.08 33 11.415 33H5.5C5.5 33 0.25 33 7.25 22.5C7.25 22.5 12.5 15.5 5.5 15.5V6.75H7.25L8.125 5H13.375L14.25 6.75ZM26.5 19V17.25C26.5 16.7859 26.3156 16.3408 25.9874 16.0126C25.6592 15.6844 25.2141 15.5 24.75 15.5H23C23 15.5 21.25 17.25 23 19C22.0717 19 21.1815 18.6313 20.5251 17.9749C19.8688 17.3185 19.5 16.4283 19.5 15.5C19.0359 15.5 18.5908 15.6844 18.2626 16.0126C17.9344 16.3408 17.75 16.7859 17.75 17.25V19C17.75 19.4641 17.9344 19.9092 18.2626 20.2374C18.5908 20.5656 19.0359 20.75 19.5 20.75H24.75C25.2141 20.75 25.6592 20.5656 25.9874 20.2374C26.3156 19.9092 26.5 19.4641 26.5 19Z" fill="#CBBFE4"/>
</svg>
