<svg width="47" height="39" viewBox="0 0 47 39" fill="none" xmlns="http://www.w3.org/2000/svg">
<path d="M22.5 3C12.8508 3 5 10.8508 5 20.5C5 30.1492 12.8508 38 22.5 38C32.1492 38 40 30.1492 40 20.5C40 10.8508 32.1492 3 22.5 3ZM20.9856 5.77712C21.0394 5.77038 21.0987 5.78115 21.1538 5.77712V7.03846H23.8462V5.77577C27.2905 6.0839 30.5171 7.59235 32.9624 10.0376C35.4076 12.4829 36.9161 15.7095 37.2242 19.1538H35.9615V21.8462H37.2242C36.9161 25.2905 35.4076 28.5171 32.9624 30.9624C30.5171 33.4076 27.2905 34.9161 23.8462 35.2242V33.9615H21.1538V35.2242C17.7095 34.9161 14.4829 33.4076 12.0376 30.9624C9.59235 28.5171 8.0839 25.2905 7.77577 21.8462H9.03846V19.1538H7.77577C8.41115 12.096 13.9506 6.48654 20.9856 5.77577V5.77712ZM30.7048 12.2965L19.2625 17.2612L14.2952 28.7035L25.7375 23.7388L30.7048 12.2965ZM22.5 18.4808C23.5769 18.4808 24.5192 19.4231 24.5192 20.5C24.5192 21.5769 23.5769 22.5192 22.5 22.5192C21.4231 22.5192 20.4808 21.5769 20.4808 20.5C20.4808 19.4231 21.4231 18.4808 22.5 18.4808Z" fill="#CBBFE4"/>
</svg>
