<svg width="41" height="41" viewBox="0 0 41 41" fill="none" xmlns="http://www.w3.org/2000/svg">
<path d="M41 20.5C41 31.8218 31.8218 41 20.5 41C9.17816 41 0 31.8218 0 20.5C0 9.17816 9.17816 0 20.5 0C31.8218 0 41 9.17816 41 20.5Z" fill="#2C2436"/>
<path d="M22.05 7.08334C21.45 6.50001 20.55 6.50001 19.95 7.08334L10.95 15.8333C10.35 16.4167 10.35 17.2917 10.95 17.875C11.25 18.1667 11.625 18.3125 12 18.3125C12.375 18.3125 12.75 18.1667 13.05 17.875L22.05 9.12501C22.65 8.54168 22.65 7.66668 22.05 7.08334Z" fill="#2E7D32"/>
<path d="M31.05 15.8333L22.05 7.08334C21.45 6.50001 20.55 6.50001 19.95 7.08334C19.35 7.66668 19.35 8.54168 19.95 9.12501L28.95 17.875C29.25 18.1667 29.625 18.3125 30 18.3125C30.375 18.3125 30.75 18.1667 31.05 17.875C31.65 17.2917 31.65 16.4167 31.05 15.8333Z" fill="#1B5E20"/>
<path d="M31.05 32.8958H10.95C10.2 32.8958 9.6 32.3854 9.45 31.7292L6.75 18.3125H35.25L32.475 31.7292C32.325 32.3854 31.725 32.8958 31.05 32.8958Z" fill="#388E3C"/>
<path d="M35.25 19.7708H6.75C5.925 19.7708 5.25 19.1146 5.25 18.3125V16.8542C5.25 16.0521 5.925 15.3958 6.75 15.3958H35.25C36.075 15.3958 36.75 16.0521 36.75 16.8542V18.3125C36.75 19.1146 36.075 19.7708 35.25 19.7708Z" fill="#4CAF50"/>
<path d="M26.1 21.0833L20.175 26.8438L17.4 24.0729L15.75 25.6771L20.175 29.9792L27.75 22.6146L26.1 21.0833Z" fill="#DCEDC8"/>
</svg>
