<svg width="38" height="39" viewBox="0 0 38 39" fill="none" xmlns="http://www.w3.org/2000/svg">
<path d="M14.2501 35.75C13.8302 35.75 13.4274 35.5788 13.1305 35.274C12.8336 34.9693 12.6667 34.556 12.6667 34.125V29.25H6.33341C5.49356 29.25 4.68811 28.9076 4.09424 28.2981C3.50038 27.6886 3.16675 26.862 3.16675 26V6.5C3.16675 5.63805 3.50038 4.8114 4.09424 4.2019C4.68811 3.59241 5.49356 3.25 6.33341 3.25H31.6667C32.5066 3.25 33.3121 3.59241 33.9059 4.2019C34.4998 4.8114 34.8334 5.63805 34.8334 6.5V26C34.8334 26.862 34.4998 27.6886 33.9059 28.2981C33.3121 28.9076 32.5066 29.25 31.6667 29.25H22.0084L16.1501 35.2787C15.8334 35.5875 15.4376 35.75 15.0417 35.75H14.2501ZM15.8334 26V31.005L20.7101 26H31.6667V6.5H6.33341V26H15.8334Z" fill="#A799C5"/>
</svg>
