<svg width="47" height="40" viewBox="0 0 47 40" fill="none" xmlns="http://www.w3.org/2000/svg">
<g clip-path="url(#clip0_138_971)">
<path d="M34.7391 39.7174C34.7391 39.5502 34.6727 39.3898 34.5545 39.2716C34.4363 39.1534 34.2759 39.0869 34.1087 39.0869H11.4131C11.2459 39.0869 11.0855 39.1534 10.9673 39.2716C10.849 39.3898 10.7826 39.5502 10.7826 39.7174C10.7826 39.8846 10.849 40.0449 10.9673 40.1632C11.0855 40.2814 11.2459 40.3478 11.4131 40.3478H34.1087C34.2759 40.3478 34.4363 40.2814 34.5545 40.1632C34.6727 40.0449 34.7391 39.8846 34.7391 39.7174ZM8.60636 11.7942C8.07932 12.1447 7.27992 13.2114 8.03771 14.7269C8.66688 15.984 9.97945 17.5223 11.3752 17.9283C11.7107 18.0334 12.0648 18.0657 12.4137 18.0231C12.7627 17.9805 13.0986 17.8639 13.3989 17.6812C14.7846 16.8515 16.4212 15.7293 17.1147 15.2477C17.9898 15.6902 19.0943 15.7823 20.2164 15.4935L20.2316 15.4885C20.166 17.5702 19.4612 18.8702 16.0152 22.0702C12.9438 24.9211 11.1218 28.6659 11.1394 32.0891C11.1521 34.3347 11.9704 36.2626 13.5099 37.6609C13.6259 37.7671 13.7775 37.8261 13.9348 37.8261H31.587C31.7542 37.8261 31.9145 37.7597 32.0328 37.6414C32.151 37.5232 32.2174 37.3628 32.2174 37.1956C32.2174 37.0284 32.151 36.8681 32.0328 36.7499C31.9145 36.6316 31.7542 36.5652 31.587 36.5652H14.1857C13.027 35.4241 12.4117 33.8795 12.4016 32.0828C12.3852 29.0542 14.1 25.5704 16.8739 22.9945C20.5493 19.5825 21.5 17.9661 21.5 15.1304C21.5 15.0787 21.4824 15.0333 21.471 14.9854C22.1607 14.6135 22.7571 14.1217 23.1644 13.5266C23.675 12.7827 24.7745 10.8725 23.9587 9.18163C23.9226 9.10712 23.8722 9.04045 23.8103 8.98543C23.7485 8.9304 23.6764 8.8881 23.5982 8.86094C23.52 8.83377 23.4372 8.82228 23.3545 8.82712C23.2718 8.83195 23.191 8.85302 23.1164 8.88911C23.0419 8.92521 22.9753 8.97563 22.9202 9.03749C22.8652 9.09935 22.8229 9.17145 22.7957 9.24966C22.7686 9.32787 22.7571 9.41067 22.7619 9.49332C22.7668 9.57597 22.7878 9.65686 22.8239 9.73137C23.1908 10.4917 22.9298 11.6441 22.1254 12.8142C21.6614 13.49 20.8318 14.036 19.905 14.273C18.9631 14.5139 18.0679 14.4079 17.4438 13.9805C17.3376 13.9078 17.2117 13.8692 17.083 13.8701C16.9543 13.871 16.829 13.9113 16.7238 13.9855C16.7011 14.0007 14.4833 15.5629 12.7534 16.6006C12.6017 16.6939 12.4315 16.7529 12.2546 16.7734C12.0777 16.7938 11.8985 16.7753 11.7295 16.7191C10.7536 16.4342 9.68062 15.1909 9.16745 14.1646C8.75262 13.3349 9.17753 12.939 9.37045 12.7978C13.7167 9.0442 15.898 5.14433 15.9875 4.97916C16.029 4.90283 16.0544 4.81883 16.0622 4.73231C16.07 4.64579 16.06 4.55859 16.0329 4.47607C15.7602 3.63444 15.5329 2.77875 15.352 1.91272C16.6709 2.70707 18.9392 3.81663 21.3008 3.81663C24.5841 3.81663 32.2174 5.0422 32.2174 16.3951C32.2174 16.4569 32.2061 22.6288 29.7335 29.4161C29.7042 29.4941 29.6907 29.5772 29.6937 29.6605C29.6968 29.7438 29.7163 29.8257 29.7512 29.9014C29.7861 29.9771 29.8357 30.0452 29.8971 30.1016C29.9584 30.158 30.0304 30.2017 30.1088 30.2302C30.1871 30.2586 30.2704 30.2712 30.3536 30.2672C30.4369 30.2633 30.5186 30.2429 30.5939 30.2071C30.6692 30.1714 30.7367 30.1211 30.7925 30.0591C30.8482 29.9971 30.8911 29.9247 30.9187 29.846C33.4669 22.8507 33.4795 16.6498 33.4783 16.3913C33.4783 3.55185 24.1567 2.5545 21.3008 2.5545C18.1373 2.5545 14.9813 0.155069 14.9511 0.129852C14.857 0.0589477 14.7451 0.015419 14.6279 0.00407149C14.5106 -0.00727605 14.3925 0.0139989 14.2866 0.0655475C14.1811 0.117524 14.0923 0.197967 14.0301 0.297787C13.9679 0.397606 13.9349 0.512823 13.9348 0.630417C13.9348 1.86733 14.5211 3.86833 14.7493 4.59837C14.2223 5.47846 12.1444 8.73529 8.60636 11.7942Z" fill="#CBBFE4"/>
<path d="M29.0463 1.94174C27.0277 0.581261 24.7707 0 21.5 0C21.3328 0 21.1724 0.0664206 21.0542 0.18465C20.936 0.30288 20.8696 0.463233 20.8696 0.630435C20.8696 0.797636 20.936 0.95799 21.0542 1.07622C21.1724 1.19445 21.3328 1.26087 21.5 1.26087C24.5009 1.26087 26.5473 1.77657 28.3427 2.987C31.2604 4.95648 34.7391 8.8803 34.7391 16.3913C34.7391 18.2208 34.7391 20.7262 33.4972 25.6953C33.461 25.8559 33.4892 26.0243 33.5756 26.1645C33.662 26.3047 33.7998 26.4055 33.9596 26.4453C34.1194 26.4852 34.2884 26.461 34.4306 26.3778C34.5727 26.2947 34.6767 26.1592 34.7202 26.0004C36 20.8825 36 18.2864 36 16.3913C36 8.32678 32.2187 4.08143 29.0463 1.94174Z" fill="#CBBFE4"/>
</g>
<defs>
<clipPath id="clip0_138_971">
<rect width="47" height="40" fill="white"/>
</clipPath>
</defs>
</svg>
