<svg width="38" height="38" viewBox="0 0 38 38" fill="none" xmlns="http://www.w3.org/2000/svg">
<path d="M34.5253 15.8991H33.2499V15.8334H18.9999V22.1667H27.9481C26.6426 25.8535 23.1348 28.5 18.9999 28.5C13.7535 28.5 9.4999 24.2464 9.4999 19C9.4999 13.7537 13.7535 9.50005 18.9999 9.50005C21.4216 9.50005 23.6248 10.4136 25.3024 11.9059L29.7808 7.42747C26.953 4.79201 23.1704 3.16672 18.9999 3.16672C10.2559 3.16672 3.16656 10.2561 3.16656 19C3.16656 27.744 10.2559 34.8334 18.9999 34.8334C27.7439 34.8334 34.8332 27.744 34.8332 19C34.8332 17.9384 34.724 16.9021 34.5253 15.8991Z" fill="#FFC107"/>
<path d="M4.99219 11.6304L10.1942 15.4455C11.6018 11.9606 15.0107 9.50005 18.9999 9.50005C21.4216 9.50005 23.6249 10.4136 25.3024 11.9059L29.7809 7.42747C26.953 4.79201 23.1704 3.16672 18.9999 3.16672C12.9184 3.16672 7.64427 6.60018 4.99219 11.6304Z" fill="#FF3D00"/>
<path d="M19 34.8332C23.0898 34.8332 26.8059 33.2681 29.6155 30.7229L24.7151 26.5761C23.072 27.8257 21.0643 28.5015 19 28.4999C14.8818 28.4999 11.385 25.8739 10.0677 22.2093L4.90442 26.1874C7.52484 31.315 12.8464 34.8332 19 34.8332Z" fill="#4CAF50"/>
<path d="M34.5254 15.899H33.25V15.8333H19V22.1666H27.9482C27.3237 23.9213 26.1989 25.4545 24.7127 26.577L24.715 26.5754L29.6155 30.7222C29.2687 31.0372 34.8333 26.9166 34.8333 18.9999C34.8333 17.9383 34.7241 16.902 34.5254 15.899Z" fill="#1976D2"/>
</svg>
