<svg width="44" height="43" viewBox="0 0 44 43" fill="none" xmlns="http://www.w3.org/2000/svg">
<path d="M22 37.6249L19.3416 35.2957C16.2555 32.5784 13.7041 30.2343 11.6875 28.2634C9.67079 26.2926 8.06663 24.523 6.87496 22.9547C5.68329 21.3876 4.85096 19.9471 4.37796 18.6332C3.90496 17.3193 3.66785 15.9756 3.66663 14.602C3.66663 11.795 4.62913 9.45093 6.55413 7.56968C8.47913 5.68843 10.8777 4.7478 13.75 4.7478C15.3388 4.7478 16.8513 5.07627 18.2875 5.73322C19.7236 6.39016 20.9611 7.31586 22 8.5103C23.0388 7.31586 24.2763 6.39016 25.7125 5.73322C27.1486 5.07627 28.6611 4.7478 30.25 4.7478C33.1222 4.7478 35.5208 5.68843 37.4458 7.56968C39.3708 9.45093 40.3333 11.795 40.3333 14.602C40.3333 15.9756 40.0962 17.3193 39.622 18.6332C39.1477 19.9471 38.3154 21.3876 37.125 22.9547C35.9333 24.523 34.3291 26.2926 32.3125 28.2634C30.2958 30.2343 27.7444 32.5784 24.6583 35.2957L22 37.6249ZM22 32.7874C24.9333 30.2193 27.3472 28.0168 29.2416 26.1797C31.1361 24.3427 32.6333 22.7457 33.7333 21.3888C34.8333 20.0295 35.5972 18.8196 36.025 17.7589C36.4527 16.6982 36.6666 15.6459 36.6666 14.602C36.6666 12.8103 36.0555 11.3172 34.8333 10.1228C33.6111 8.92836 32.0833 8.33114 30.25 8.33114C28.8138 8.33114 27.4847 8.7265 26.2625 9.51722C25.0402 10.3079 24.2 11.3161 23.7416 12.5416H20.2583C19.8 11.3172 18.9597 10.3091 17.7375 9.51722C16.5152 8.7253 15.1861 8.32994 13.75 8.33114C11.9166 8.33114 10.3888 8.92836 9.16663 10.1228C7.9444 11.3172 7.33329 12.8103 7.33329 14.602C7.33329 15.6471 7.54718 16.7 7.97496 17.7607C8.40274 18.8213 9.16663 20.0307 10.2666 21.3888C11.3666 22.7469 12.8638 24.3445 14.7583 26.1815C16.6527 28.0186 19.0666 30.2205 22 32.7874Z" fill="#8B7AAE"/>
</svg>
