<svg width="47" height="44" viewBox="0 0 47 44" fill="none" xmlns="http://www.w3.org/2000/svg">
<g filter="url(#filter0_d_138_971)">
<path d="M42.519 21.0873C40.6963 12.8468 37.9531 8.44849 33.884 7.24709C33.0286 6.99619 32.1414 6.87085 31.25 6.87498C30.0718 6.87498 29.0457 7.16201 27.9603 7.46623C26.6523 7.83318 25.1665 8.24998 23 8.24998C20.8335 8.24998 19.3468 7.83404 18.0363 7.46709C16.95 7.16201 15.9248 6.87498 14.75 6.87498C13.8283 6.87178 12.9105 6.99673 12.0232 7.24623C7.97555 8.44248 5.23414 12.839 3.38477 21.0822C1.39618 29.9526 2.375 35.5532 6.12961 36.8526C6.64428 37.034 7.18579 37.1275 7.73149 37.1293C10.3036 37.1293 12.3661 34.9869 13.7755 33.2329C15.3679 31.2477 17.2319 30.2405 23 30.2405C28.152 30.2405 30.2841 30.9392 32.1257 33.2329C33.2833 34.6749 34.3773 35.6838 35.4687 36.3189C36.9202 37.1628 38.3708 37.3501 39.7793 36.8663C41.9982 36.1092 43.2701 34.1077 43.5606 30.916C43.7814 28.4685 43.4411 25.2536 42.519 21.0873ZM18.875 20.625H16.125V23.375C16.125 23.7396 15.9801 24.0894 15.7223 24.3472C15.4644 24.6051 15.1147 24.75 14.75 24.75C14.3853 24.75 14.0356 24.6051 13.7777 24.3472C13.5199 24.0894 13.375 23.7396 13.375 23.375V20.625H10.625C10.2603 20.625 9.91059 20.4801 9.65273 20.2222C9.39487 19.9644 9.25 19.6146 9.25 19.25C9.25 18.8853 9.39487 18.5356 9.65273 18.2777C9.91059 18.0198 10.2603 17.875 10.625 17.875H13.375V15.125C13.375 14.7603 13.5199 14.4106 13.7777 14.1527C14.0356 13.8948 14.3853 13.75 14.75 13.75C15.1147 13.75 15.4644 13.8948 15.7223 14.1527C15.9801 14.4106 16.125 14.7603 16.125 15.125V17.875H18.875C19.2397 17.875 19.5894 18.0198 19.8473 18.2777C20.1051 18.5356 20.25 18.8853 20.25 19.25C20.25 19.6146 20.1051 19.9644 19.8473 20.2222C19.5894 20.4801 19.2397 20.625 18.875 20.625ZM26.0938 20.9687C25.7538 20.9687 25.4215 20.8679 25.1389 20.6791C24.8562 20.4902 24.6359 20.2218 24.5058 19.9077C24.3757 19.5937 24.3417 19.2481 24.408 18.9147C24.4743 18.5813 24.638 18.275 24.8784 18.0346C25.1188 17.7943 25.425 17.6306 25.7584 17.5643C26.0918 17.4979 26.4374 17.532 26.7515 17.6621C27.0656 17.7921 27.334 18.0124 27.5228 18.2951C27.7117 18.5777 27.8125 18.91 27.8125 19.25C27.8125 19.7058 27.6314 20.143 27.3091 20.4653C26.9868 20.7876 26.5496 20.9687 26.0938 20.9687ZM29.875 24.75C29.5349 24.75 29.2024 24.6491 28.9197 24.46C28.6369 24.271 28.4166 24.0023 28.2867 23.688C28.1567 23.3737 28.1229 23.0279 28.1896 22.6943C28.2563 22.3608 28.4204 22.0546 28.6612 21.8144C28.902 21.5742 29.2086 21.4108 29.5423 21.345C29.876 21.2791 30.2217 21.3138 30.5357 21.4445C30.8497 21.5753 31.1178 21.7963 31.3062 22.0795C31.4945 22.3627 31.5946 22.6954 31.5938 23.0355C31.5926 23.4906 31.411 23.9267 31.0888 24.2481C30.7666 24.5695 30.3301 24.75 29.875 24.75ZM29.875 17.1875C29.5351 17.1875 29.2028 17.0867 28.9201 16.8978C28.6375 16.709 28.4172 16.4405 28.2871 16.1265C28.157 15.8124 28.123 15.4668 28.1893 15.1334C28.2556 14.8 28.4193 14.4938 28.6597 14.2534C28.9 14.013 29.2063 13.8493 29.5397 13.783C29.8731 13.7167 30.2187 13.7507 30.5327 13.8808C30.8468 14.0109 31.1152 14.2312 31.3041 14.5138C31.493 14.7965 31.5938 15.1288 31.5938 15.4687C31.5938 15.9246 31.4127 16.3617 31.0903 16.6841C30.768 17.0064 30.3308 17.1875 29.875 17.1875ZM33.6563 20.9687C33.3163 20.9687 32.984 20.8679 32.7014 20.6791C32.4187 20.4902 32.1984 20.2218 32.0683 19.9077C31.9382 19.5937 31.9042 19.2481 31.9705 18.9147C32.0368 18.5813 32.2005 18.275 32.4409 18.0346C32.6813 17.7943 32.9875 17.6306 33.3209 17.5643C33.6543 17.4979 33.9999 17.532 34.314 17.6621C34.6281 17.7921 34.8965 18.0124 35.0853 18.2951C35.2742 18.5777 35.375 18.91 35.375 19.25C35.375 19.7058 35.1939 20.143 34.8716 20.4653C34.5493 20.7876 34.1121 20.9687 33.6563 20.9687Z" fill="#CBBFE4"/>
</g>
<defs>
<filter id="filter0_d_138_971" x="-0.34375" y="0" width="47.6875" height="44.6875" filterUnits="userSpaceOnUse" color-interpolation-filters="sRGB">
<feFlood flood-opacity="0" result="BackgroundImageFix"/>
<feColorMatrix in="SourceAlpha" type="matrix" values="0 0 0 0 0 0 0 0 0 0 0 0 0 0 0 0 0 0 127 0" result="hardAlpha"/>
<feOffset dy="0.34375"/>
<feGaussianBlur stdDeviation="0.171875"/>
<feComposite in2="hardAlpha" operator="out"/>
<feColorMatrix type="matrix" values="0 0 0 0 0 0 0 0 0 0 0 0 0 0 0 0 0 0 0.25 0"/>
<feBlend mode="normal" in2="BackgroundImageFix" result="effect1_dropShadow_138_971"/>
<feBlend mode="normal" in="SourceGraphic" in2="effect1_dropShadow_138_971" result="shape"/>
</filter>
</defs>
</svg>
