<svg width="38" height="38" viewBox="0 0 38 38" fill="none" xmlns="http://www.w3.org/2000/svg">
<g clip-path="url(#clip0_215_2522)">
<path d="M33.9933 11.875C34.4627 11.875 34.908 11.9678 35.3293 12.1533C35.7505 12.3389 36.1176 12.5924 36.4305 12.9141C36.7434 13.2357 36.9962 13.613 37.1888 14.0459C37.3813 14.4788 37.4716 14.9427 37.4595 15.4375C37.4595 15.8333 37.3994 16.2106 37.279 16.5693L32.6574 30.8193C32.537 31.1781 32.3685 31.5059 32.1519 31.8027C31.9353 32.0996 31.6825 32.3594 31.3937 32.582C31.1048 32.8047 30.7919 32.9655 30.4549 33.0645C30.1179 33.1634 29.7568 33.2253 29.3717 33.25H20.1285C17.9741 33.25 15.898 32.8232 13.9001 31.9697C13.0336 31.611 12.167 31.3389 11.3004 31.1533C10.4339 30.9678 9.52521 30.875 8.57441 30.875H0.486572V14.25H8.01476C8.79707 14.25 9.53123 14.1016 10.2173 13.8047C10.9033 13.5078 11.5291 13.0749 12.0948 12.5059L23.3239 0.983398C23.6248 0.674154 23.9257 0.432943 24.2265 0.259766C24.5274 0.0865885 24.8945 0 25.3278 0C25.725 0 26.0981 0.0742188 26.4471 0.222656C26.7961 0.371094 27.103 0.587565 27.3678 0.87207C27.6326 1.15658 27.8372 1.47201 27.9816 1.81836C28.126 2.16471 28.2043 2.54818 28.2163 2.96875C28.2163 3.9707 28.108 4.92318 27.8913 5.82617C27.6747 6.72917 27.3558 7.63216 26.9345 8.53516C26.6938 9.06706 26.4892 9.60514 26.3207 10.1494C26.1522 10.6937 26.0379 11.2689 25.9777 11.875H33.9933Z" fill="#8B7AAE"/>
</g>
<defs>
<clipPath id="clip0_215_2522">
<rect width="36.973" height="38" fill="white" transform="translate(0.486572)"/>
</clipPath>
</defs>
</svg>
