<svg width="47" height="37" viewBox="0 0 47 37" fill="none" xmlns="http://www.w3.org/2000/svg">
<path d="M5.91667 18.5C5.91667 28.1652 13.7514 36 23.4167 36C33.0819 36 40.9167 28.1652 40.9167 18.5C40.9167 8.83475 33.0819 1 23.4167 1C13.7514 1 5.91667 8.83475 5.91667 18.5Z" stroke="#CBBFE4" stroke-width="2" stroke-linecap="round" stroke-linejoin="round"/>
<path d="M26.9167 22.4375C26.9167 23.162 27.5047 23.75 28.2292 23.75H30.4167C30.8808 23.75 31.3259 23.5656 31.6541 23.2374C31.9823 22.9092 32.1667 22.4641 32.1667 22V20.25C32.1667 19.7859 31.9823 19.3408 31.6541 19.0126C31.3259 18.6844 30.8808 18.5 30.4167 18.5H28.6667C28.2026 18.5 27.7574 18.3156 27.4293 17.9874C27.1011 17.6592 26.9167 17.2141 26.9167 16.75V15C26.9167 14.5359 27.1011 14.0908 27.4293 13.7626C27.7574 13.4344 28.2026 13.25 28.6667 13.25H30.8542C31.2023 13.25 31.5361 13.3883 31.7823 13.6344C32.0284 13.8806 32.1667 14.2144 32.1667 14.5625M14.6667 13.25L18.1667 23.75L21.6667 13.25" stroke="#CBBFE4" stroke-width="2" stroke-linecap="round" stroke-linejoin="round"/>
</svg>
