<svg width="47" height="43" viewBox="0 0 47 43" fill="none" xmlns="http://www.w3.org/2000/svg">
<path d="M25.0305 13.0122H22.0268V23.0244L30.5973 28.1106L32.039 25.6876L25.0305 21.5226V13.0122ZM24.0293 3C19.2495 3 14.6656 4.89873 11.2858 8.2785C7.90605 11.6583 6.00731 16.2422 6.00731 21.0219H0L7.92965 29.0918L16.0195 21.0219H10.0122C10.0122 17.3044 11.489 13.7391 14.1177 11.1104C16.7464 8.48167 20.3117 7.00488 24.0293 7.00488C27.7468 7.00488 31.3121 8.48167 33.9408 11.1104C36.5695 13.7391 38.0463 17.3044 38.0463 21.0219C38.0463 24.7395 36.5695 28.3048 33.9408 30.9335C31.3121 33.5622 27.7468 35.039 24.0293 35.039C20.1646 35.039 16.6603 33.4571 14.1372 30.914L11.2938 33.7574C12.9587 35.4407 14.9425 36.7752 17.1293 37.6829C19.316 38.5906 21.6617 39.0533 24.0293 39.0439C28.809 39.0439 33.3929 37.1451 36.7727 33.7654C40.1525 30.3856 42.0512 25.8017 42.0512 21.0219C42.0512 16.2422 40.1525 11.6583 36.7727 8.2785C33.3929 4.89873 28.809 3 24.0293 3Z" fill="#CBBFE4"/>
</svg>
