<svg width="38" height="39" viewBox="0 0 38 39" fill="none" xmlns="http://www.w3.org/2000/svg">
<path d="M33.7113 11.6676C33.5378 11.0083 33.1957 10.4065 32.7192 9.92256C32.2428 9.43863 31.6487 9.08953 30.9964 8.91024C28.6019 8.2583 19 8.2583 19 8.2583C19 8.2583 9.39817 8.2583 7.00364 8.91024C6.3514 9.08953 5.7573 9.43863 5.28082 9.92256C4.80435 10.4065 4.46224 11.0083 4.28875 11.6676C3.64697 14.0996 3.64697 19.1745 3.64697 19.1745C3.64697 19.1745 3.64697 24.2494 4.28875 26.6819C4.46224 27.3412 4.80435 27.943 5.28082 28.427C5.7573 28.9109 6.3514 29.26 7.00364 29.4393C9.39817 30.0907 19 30.0907 19 30.0907C19 30.0907 28.6019 30.0907 30.9964 29.4393C31.6487 29.26 32.2428 28.9109 32.7192 28.427C33.1957 27.943 33.5378 27.3412 33.7113 26.6819C34.3531 24.2494 34.3531 19.1745 34.3531 19.1745C34.3531 19.1745 34.3531 14.0996 33.7113 11.6676Z" fill="#EA5A47"/>
<path d="M15.8597 23.7818L23.8851 19.1746L15.8597 14.5674V23.7818Z" fill="white"/>
<path d="M33.7113 11.6676C33.5378 11.0083 33.1957 10.4065 32.7192 9.92256C32.2428 9.43863 31.6487 9.08953 30.9964 8.91024C28.6019 8.2583 19 8.2583 19 8.2583C19 8.2583 9.39817 8.2583 7.00364 8.91024C6.3514 9.08953 5.7573 9.43863 5.28082 9.92256C4.80435 10.4065 4.46224 11.0083 4.28875 11.6676C3.64697 14.0996 3.64697 19.1745 3.64697 19.1745C3.64697 19.1745 3.64697 24.2494 4.28875 26.6819C4.46224 27.3412 4.80435 27.943 5.28082 28.427C5.7573 28.9109 6.3514 29.26 7.00364 29.4393C9.39817 30.0907 19 30.0907 19 30.0907C19 30.0907 28.6019 30.0907 30.9964 29.4393C31.6487 29.26 32.2428 28.9109 32.7192 28.427C33.1957 27.943 33.5378 27.3412 33.7113 26.6819C34.3531 24.2494 34.3531 19.1745 34.3531 19.1745C34.3531 19.1745 34.3531 14.0996 33.7113 11.6676Z" stroke="black" stroke-width="1.69444" stroke-miterlimit="10"/>
<path d="M15.8597 23.7818L23.8851 19.1746L15.8597 14.5674V23.7818Z" stroke="black" stroke-width="1.69444" stroke-miterlimit="10" stroke-linecap="round" stroke-linejoin="round"/>
</svg>
