<svg width="55" height="47" viewBox="0 0 55 47" fill="none" xmlns="http://www.w3.org/2000/svg">
<g clip-path="url(#clip0_243_2501)">
<path d="M224 0C257.948 0 290.505 13.4857 314.51 37.4903C338.514 61.495 352 94.0523 352 128C352 161.948 338.514 194.505 314.51 218.51C290.505 242.514 257.948 256 224 256C190.052 256 157.495 242.514 133.49 218.51C109.486 194.505 96 161.948 96 128C96 94.0523 109.486 61.495 133.49 37.4903C157.495 13.4857 190.052 0 224 0ZM178.3 304H269.7C281.5 304 293.1 305.2 304.2 307.3C302.1 325.8 311.6 342.9 326 352.1C309.4 362.7 299.3 383.7 306 405.4C310 418.3 315.4 430.9 322.4 443C329.4 455.1 337.6 466.1 346.8 476C362.5 492.9 386.4 494.4 404 484.7V485.6C404 494.8 406.7 504.1 411.9 511.9H29.7C13.3 512 0 498.7 0 482.3C0 383.8 79.8 304 178.3 304ZM436 218.2C436 211.2 440.5 204.9 447.3 203.4C457.8 201 468.8 199.7 480 199.7C491.2 199.7 502.2 201 512.7 203.4C519.5 204.9 524 211.2 524 218.2V248.8C531.9 252.2 539.4 256.5 546.3 261.6L571.2 247.3C577.3 243.8 584.9 244.6 589.7 249.7C597.3 257.8 604 266.9 609.8 276.9C615.6 286.9 620.1 297.3 623.3 307.9C625.4 314.6 622.2 321.6 616.1 325.1L591.1 339.5C591.5 343.5 591.8 347.6 591.8 351.8C591.8 356 591.6 360 591.1 364.1L616.1 378.5C622.2 382 625.3 389 623.3 395.7C620 406.3 615.5 416.7 609.8 426.7C604.1 436.7 597.3 445.8 589.7 453.9C584.9 459 577.2 459.8 571.2 456.3L546.3 442C539.4 447.1 532 451.4 524 454.8V485.4C524 492.4 519.5 498.7 512.7 500.2C502.2 502.6 491.2 503.9 480 503.9C468.8 503.9 457.8 502.6 447.3 500.2C440.5 498.7 436 492.4 436 485.4V454.8C428 451.4 420.4 447.1 413.5 441.9L388.8 456.2C382.7 459.7 375.1 458.9 370.3 453.8C362.7 445.7 356 436.6 350.2 426.6C344.4 416.6 339.9 406.2 336.7 395.6C334.6 388.9 337.8 381.9 343.9 378.4L368.7 364.1C368.3 360 368 355.9 368 351.7C368 347.5 368.2 343.4 368.7 339.3L343.8 325C337.7 321.5 334.6 314.5 336.6 307.8C339.9 297.2 344.3 286.8 350.1 276.8C355.9 266.8 362.6 257.7 370.2 249.6C375 244.5 382.6 243.7 388.7 247.2L413.5 261.5C420.4 256.4 428 252.1 436 248.6V218.2ZM528.1 351.7C528.396 345.206 527.373 338.718 525.092 332.631C522.811 326.543 519.319 320.98 514.828 316.28C510.337 311.579 504.94 307.838 498.962 305.282C492.985 302.725 486.551 301.407 480.05 301.407C473.549 301.407 467.115 302.725 461.138 305.282C455.16 307.838 449.763 311.579 445.272 316.28C440.781 320.98 437.289 326.543 435.008 332.631C432.727 338.718 431.704 345.206 432 351.7C431.704 358.194 432.727 364.682 435.008 370.769C437.289 376.857 440.781 382.42 445.272 387.12C449.763 391.821 455.16 395.562 461.138 398.118C467.115 400.675 473.549 401.993 480.05 401.993C486.551 401.993 492.985 400.675 498.962 398.118C504.94 395.562 510.337 391.821 514.828 387.12C519.319 382.42 522.811 376.857 525.092 370.769C527.373 364.682 528.396 358.194 528.1 351.7Z" fill="white"/>
<path d="M52.4648 34.2678C52.6883 32.9734 52.6883 31.6516 52.4648 30.3572L54.682 28.9895C54.9398 28.8334 55.0516 28.5121 54.9656 28.2092C54.3898 26.2264 53.4016 24.4271 52.1125 22.94C51.9149 22.7105 51.5969 22.6555 51.3391 22.8115L49.1219 24.1793C48.1852 23.3256 47.1109 22.6646 45.9508 22.224V19.4885C45.9508 19.1764 45.7445 18.901 45.4609 18.8367C43.5445 18.3777 41.5938 18.3961 39.7719 18.8367C39.4883 18.901 39.282 19.1764 39.282 19.4885V22.224C38.1219 22.6646 37.0477 23.3256 36.1109 24.1793L33.8938 22.8115C33.6445 22.6555 33.318 22.7105 33.1203 22.94C31.8313 24.4271 30.843 26.2264 30.2672 28.2092C30.1813 28.5121 30.3016 28.8334 30.5508 28.9895L32.768 30.3572C32.5445 31.6516 32.5445 32.9734 32.768 34.2678L30.5508 35.6355C30.293 35.7916 30.1813 36.1129 30.2672 36.4158C30.843 38.3986 31.8313 40.1887 33.1203 41.685C33.318 41.9145 33.6359 41.9695 33.8938 41.8135L36.1109 40.4457C37.0477 41.2994 38.1219 41.9604 39.282 42.401V45.1365C39.282 45.4486 39.4883 45.724 39.7719 45.7883C41.6883 46.2473 43.6391 46.2289 45.4609 45.7883C45.7445 45.724 45.9508 45.4486 45.9508 45.1365V42.401C47.1109 41.9604 48.1852 41.2994 49.1219 40.4457L51.3391 41.8135C51.5883 41.9695 51.9149 41.9145 52.1125 41.685C53.4016 40.1979 54.3898 38.3986 54.9656 36.4158C55.0516 36.1129 54.9313 35.7916 54.682 35.6355L52.4648 34.2678ZM42.625 36.7646C40.3219 36.7646 38.457 34.7635 38.457 32.3125C38.457 29.8615 40.3305 27.8604 42.625 27.8604C44.9195 27.8604 46.793 29.8615 46.793 32.3125C46.793 34.7635 44.9281 36.7646 42.625 36.7646ZM19.25 23.5C25.3258 23.5 30.25 18.24 30.25 11.75C30.25 5.25996 25.3258 0 19.25 0C13.1742 0 8.25 5.25996 8.25 11.75C8.25 18.24 13.1742 23.5 19.25 23.5ZM36.5406 44.292C36.343 44.1818 36.1453 44.0533 35.9563 43.934L35.2773 44.3563C34.7617 44.6684 34.1773 44.8428 33.593 44.8428C32.6563 44.8428 31.7539 44.4205 31.1094 43.6861C29.5367 41.8686 28.3336 39.6562 27.6547 37.2971C27.182 35.6723 27.818 33.9557 29.193 33.102L29.8719 32.6797C29.8633 32.441 29.8633 32.2023 29.8719 31.9637L29.193 31.5414C27.818 30.6969 27.182 28.9711 27.6547 27.3463C27.732 27.0801 27.8438 26.8139 27.9297 26.5477C27.6031 26.5201 27.2852 26.4375 26.95 26.4375H25.5148C23.607 27.3738 21.4844 27.9062 19.25 27.9062C17.0156 27.9062 14.9016 27.3738 12.9852 26.4375H11.55C5.17344 26.4375 0 31.9637 0 38.775V42.5938C0 45.0264 1.84766 47 4.125 47H34.375C35.243 47 36.0508 46.7062 36.7125 46.2197C36.6094 45.8709 36.5406 45.5129 36.5406 45.1365V44.292Z" fill="white"/>
</g>
<defs>
<clipPath id="clip0_243_2501">
<rect width="55" height="47" fill="white"/>
</clipPath>
</defs>
</svg>
