<svg width="38" height="37" viewBox="0 0 38 37" fill="none" xmlns="http://www.w3.org/2000/svg">
<g clip-path="url(#clip0_240_2483)">
<path d="M0.810972 18.2785C0.810081 21.3873 1.65083 24.4227 3.2495 27.0982L0.658081 36.2395L10.341 33.7866C13.0191 35.1952 16.0198 35.9332 19.0691 35.9334H19.0771C29.1434 35.9334 37.3376 28.0196 37.3419 18.2924C37.3438 13.579 35.4456 9.14671 31.9968 5.81212C28.5486 2.47782 23.9626 0.640579 19.0764 0.638428C9.00888 0.638428 0.815276 8.55184 0.81112 18.2785" fill="#2FB80D"/>
<path d="M0.158828 18.2728C0.157789 21.4934 1.02867 24.6374 2.68434 27.4087L0 36.8777L10.0301 34.3369C12.7937 35.7926 15.9052 36.5602 19.0714 36.5613H19.0796C29.507 36.5613 37.9955 28.3628 38 18.2875C38.0018 13.4046 36.0353 8.81303 32.4633 5.35898C28.8908 1.90536 24.1408 0.00200775 19.0796 0C8.65034 0 0.162984 8.19737 0.158828 18.2728ZM6.13195 26.9314L5.75745 26.3571C4.18312 23.9386 3.35216 21.1438 3.35335 18.274C3.35677 9.89951 10.4111 3.0862 19.0855 3.0862C23.2863 3.08792 27.2341 4.67003 30.2035 7.54054C33.1727 10.4113 34.8065 14.2275 34.8055 18.2863C34.8016 26.6608 27.7471 33.475 19.0796 33.475H19.0733C16.2511 33.4735 13.4832 32.7413 11.0693 31.3575L10.4948 31.0284L4.54278 32.5361L6.13195 26.9313V26.9314Z" fill="url(#paint0_linear_240_2483)"/>
<path d="M14.3507 10.6337C13.9965 9.87317 13.6238 9.85783 13.287 9.84449C13.0112 9.83302 12.6959 9.83388 12.3809 9.83388C12.0656 9.83388 11.5533 9.94846 11.1204 10.4052C10.6869 10.8624 9.46558 11.9673 9.46558 14.2144C9.46558 16.4616 11.1597 18.6333 11.3959 18.9383C11.6323 19.2428 14.6664 24.0017 19.4716 25.8325C23.4652 27.3539 24.2779 27.0514 25.1446 26.9751C26.0115 26.899 27.9417 25.8705 28.3355 24.804C28.7296 23.7376 28.7296 22.8235 28.6115 22.6324C28.4933 22.4421 28.1781 22.3278 27.7053 22.0995C27.2324 21.8711 24.9081 20.7661 24.4748 20.6136C24.0414 20.4613 23.7263 20.3853 23.411 20.8427C23.0957 21.2993 22.1904 22.3278 21.9144 22.6324C21.6388 22.9378 21.3628 22.9758 20.8902 22.7473C20.4171 22.5181 18.8946 22.0364 17.0883 20.4806C15.6829 19.2699 14.7341 17.7748 14.4583 17.3175C14.1825 16.8609 14.4287 16.6133 14.6658 16.3857C14.8782 16.1811 15.1387 15.8524 15.3753 15.5858C15.611 15.3191 15.6897 15.1287 15.8473 14.8241C16.0051 14.5193 15.9262 14.2525 15.8082 14.0241C15.6897 13.7956 14.771 11.5367 14.3507 10.6337Z" fill="white"/>
</g>
<defs>
<linearGradient id="paint0_linear_240_2483" x1="1900" y1="3687.77" x2="1900" y2="0" gradientUnits="userSpaceOnUse">
<stop stop-color="#F9F9F9"/>
<stop offset="1" stop-color="white"/>
</linearGradient>
<clipPath id="clip0_240_2483">
<rect width="38" height="37" fill="white"/>
</clipPath>
</defs>
</svg>
